<svg width="20" height="20" viewBox="0 0 20 20" fill="none" xmlns="http://www.w3.org/2000/svg">
<path fill-rule="evenodd" clip-rule="evenodd" d="M9.81419 11.2212C9.25669 11.2212 8.70086 11.0371 8.23586 10.6687L4.49836 7.6554C4.22919 7.43873 4.18752 7.04456 4.40336 6.77623C4.62086 6.50873 5.01419 6.46623 5.28252 6.68206L9.01669 9.69206C9.48586 10.0637 10.1467 10.0637 10.6192 9.68873L14.3159 6.68373C14.5842 6.46456 14.9775 6.50623 15.1959 6.77456C15.4134 7.04206 15.3725 7.4354 15.105 7.65373L11.4017 10.6637C10.9334 11.0354 10.3734 11.2212 9.81419 11.2212Z" fill="#6356E5"/>
<mask id="mask0_3460_44517" style="mask-type:luminance" maskUnits="userSpaceOnUse" x="0" y="1" width="19" height="17">
<path fill-rule="evenodd" clip-rule="evenodd" d="M0.833252 1.66602H18.7498V17.916H0.833252V1.66602Z" fill="white"/>
</mask>
<g mask="url(#mask0_3460_44517)">
<path fill-rule="evenodd" clip-rule="evenodd" d="M5.69909 16.666H13.8824C13.8841 16.6643 13.8908 16.666 13.8958 16.666C14.8466 16.666 15.6899 16.326 16.3366 15.6802C17.0874 14.9327 17.4999 13.8585 17.4999 12.656V6.93268C17.4999 4.60518 15.9783 2.91602 13.8824 2.91602H5.70075C3.60492 2.91602 2.08325 4.60518 2.08325 6.93268V12.656C2.08325 13.8585 2.49659 14.9327 3.24659 15.6802C3.89325 16.326 4.73742 16.666 5.68742 16.666H5.69909ZM5.68492 17.916C4.39909 17.916 3.25075 17.4493 2.36409 16.566C1.37659 15.581 0.833252 14.1927 0.833252 12.656V6.93268C0.833252 3.93018 2.92575 1.66602 5.70075 1.66602H13.8824C16.6574 1.66602 18.7499 3.93018 18.7499 6.93268V12.656C18.7499 14.1927 18.2066 15.581 17.2191 16.566C16.3333 17.4485 15.1841 17.916 13.8958 17.916H13.8824H5.70075H5.68492Z" fill="#6356E5"/>
</g>
</svg>
