<svg width="20" height="20" viewBox="0 0 20 20" fill="none" xmlns="http://www.w3.org/2000/svg">
<path fill-rule="evenodd" clip-rule="evenodd" d="M6.01357 13.3358C5.88024 13.3358 5.74607 13.2933 5.63274 13.2066C5.35941 12.9958 5.30774 12.6033 5.51857 12.3299L8.01274 9.08825C8.11441 8.95575 8.26524 8.86992 8.43024 8.84909C8.59857 8.82742 8.76357 8.87409 8.89441 8.97825L11.2444 10.8241L13.3002 8.17159C13.5119 7.89742 13.9036 7.84659 14.1769 8.05992C14.4502 8.27159 14.5002 8.66409 14.2886 8.93659L11.8469 12.0866C11.7452 12.2183 11.5952 12.3041 11.4302 12.3241C11.2636 12.3466 11.0986 12.2983 10.9669 12.1958L8.61857 10.3508L6.50941 13.0916C6.38607 13.2516 6.20107 13.3358 6.01357 13.3358Z" fill="#6356E5"/>
<mask id="mask0_3459_67016" style="mask-type:luminance" maskUnits="userSpaceOnUse" x="14" y="1" width="5" height="6">
<path fill-rule="evenodd" clip-rule="evenodd" d="M14.4127 1.66676H18.8661V6.12085H14.4127V1.66676Z" fill="white"/>
</mask>
<g mask="url(#mask0_3459_67016)">
<path fill-rule="evenodd" clip-rule="evenodd" d="M16.6394 2.91667C16.1011 2.91667 15.6627 3.35417 15.6627 3.89334C15.6627 4.43167 16.1011 4.87084 16.6394 4.87084C17.1777 4.87084 17.6161 4.43167 17.6161 3.89334C17.6161 3.35417 17.1777 2.91667 16.6394 2.91667ZM16.6394 6.12084C15.4119 6.12084 14.4127 5.12167 14.4127 3.89334C14.4127 2.66501 15.4119 1.66667 16.6394 1.66667C17.8677 1.66667 18.8661 2.66501 18.8661 3.89334C18.8661 5.12167 17.8677 6.12084 16.6394 6.12084Z" fill="#6356E5"/>
</g>
<mask id="mask1_3459_67016" style="mask-type:luminance" maskUnits="userSpaceOnUse" x="1" y="2" width="18" height="17">
<path fill-rule="evenodd" clip-rule="evenodd" d="M1.66669 2.36842H18.2183V18.9193H1.66669V2.36842Z" fill="white"/>
</mask>
<g mask="url(#mask1_3459_67016)">
<path fill-rule="evenodd" clip-rule="evenodd" d="M13.5274 18.9193H6.3574C3.55156 18.9193 1.66656 16.9484 1.66656 14.0151V7.28009C1.66656 4.34259 3.55156 2.36842 6.3574 2.36842H12.4141C12.7591 2.36842 13.0391 2.64842 13.0391 2.99342C13.0391 3.33842 12.7591 3.61842 12.4141 3.61842H6.3574C4.2674 3.61842 2.91656 5.05509 2.91656 7.28009V14.0151C2.91656 16.2693 4.2349 17.6693 6.3574 17.6693H13.5274C15.6174 17.6693 16.9682 16.2351 16.9682 14.0151V8.14926C16.9682 7.80426 17.2482 7.52426 17.5932 7.52426C17.9382 7.52426 18.2182 7.80426 18.2182 8.14926V14.0151C18.2182 16.9484 16.3332 18.9193 13.5274 18.9193Z" fill="#6356E5"/>
</g>
</svg>
