<svg width="20" height="20" viewBox="0 0 20 20" fill="none" xmlns="http://www.w3.org/2000/svg">
<path fill-rule="evenodd" clip-rule="evenodd" d="M16.6666 5.66667C16.6666 5.45834 16.5692 5.26199 16.4033 5.13592C16.2375 5.00985 16.0222 4.96857 15.8215 5.02433L3.82149 8.35766C3.53294 8.43781 3.33325 8.70053 3.33325 9.00001V11C3.33325 11.3125 3.55027 11.583 3.8553 11.6508L5.15681 11.94C5.12127 12.1789 5.11819 12.422 5.14807 12.6626C5.19131 13.0108 5.30272 13.3472 5.47594 13.6524C5.64915 13.9576 5.88078 14.2256 6.15761 14.4413C6.43443 14.657 6.75102 14.816 7.0893 14.9093C7.42759 15.0027 7.78094 15.0284 8.12919 14.9852C8.47744 14.942 8.81375 14.8305 9.11894 14.6573C9.42413 14.4841 9.69222 14.2525 9.90789 13.9757C10.1124 13.7132 10.2659 13.415 10.3609 13.0965L15.8553 14.3175C16.0527 14.3613 16.2593 14.3132 16.4171 14.1867C16.5748 14.0602 16.6666 13.8689 16.6666 13.6667V5.66667ZM9.05269 12.8058L6.46498 12.2307C6.45814 12.3197 6.4602 12.4093 6.47125 12.4983C6.49291 12.6728 6.54873 12.8413 6.63552 12.9942C6.72231 13.1471 6.83836 13.2815 6.97706 13.3895C7.11576 13.4976 7.27438 13.5773 7.44388 13.624C7.61337 13.6708 7.79041 13.6837 7.9649 13.662C8.13938 13.6404 8.30789 13.5845 8.4608 13.4977C8.61372 13.411 8.74804 13.2949 8.8561 13.1562C8.93902 13.0498 9.00524 12.9316 9.05269 12.8058ZM4.66659 10.4652V9.50673L15.3333 6.54377V12.8356L4.66659 10.4652Z" fill="#6356E5"/>
</svg>
