<svg width="20" height="20" viewBox="0 0 20 20" fill="none" xmlns="http://www.w3.org/2000/svg">
<path fill-rule="evenodd" clip-rule="evenodd" d="M8.73868 3.42759C9.30069 2.45903 10.6994 2.45903 11.2614 3.42759L12.9825 6.39372C13.1412 6.66713 13.4154 6.8537 13.7279 6.90091L16.586 7.33258C17.8318 7.52075 18.2688 9.09372 17.2986 9.89755L15.2162 11.6228C14.9239 11.865 14.7864 12.2469 14.8574 12.6198L15.4408 15.6831C15.6693 16.8831 14.4096 17.8154 13.3287 17.2463L10.4854 15.7491C10.1816 15.5892 9.8185 15.5892 9.51473 15.7491L6.67136 17.2463C5.59052 17.8154 4.33083 16.8831 4.55933 15.6831L5.14265 12.6198C5.21365 12.2469 5.07622 11.865 4.78393 11.6228L2.70151 9.89755C1.73128 9.09372 2.16828 7.52075 3.41411 7.33258L6.27215 6.90091C6.5847 6.8537 6.85891 6.66713 7.01755 6.39372L8.73868 3.42759ZM10.1802 4.05495C10.0999 3.91658 9.90013 3.91658 9.81985 4.05495L8.09872 7.02108C7.7497 7.62257 7.14644 8.03303 6.45883 8.13689L3.60079 8.56856C3.42281 8.59544 3.36039 8.82015 3.49899 8.93499L5.58141 10.6602C6.22443 11.193 6.52679 12.0333 6.37058 12.8536L5.78727 15.9169C5.75462 16.0884 5.93458 16.2216 6.08899 16.1403L8.93235 14.6431C9.60065 14.2912 10.3994 14.2912 11.0677 14.6431L13.9111 16.1403C14.0655 16.2216 14.2455 16.0884 14.2128 15.9169L13.6295 12.8536C13.4733 12.0333 13.7756 11.193 14.4187 10.6602L16.5011 8.93499C16.6397 8.82015 16.5773 8.59544 16.3993 8.56856L13.5413 8.13689C12.8536 8.03303 12.2504 7.62257 11.9014 7.02108L10.1802 4.05495Z" fill="#6356E5"/>
</svg>
