<svg width="20" height="20" viewBox="0 0 20 20" fill="none" xmlns="http://www.w3.org/2000/svg">
<path fill-rule="evenodd" clip-rule="evenodd" d="M7.48533 5.25292C7.45866 5.25292 7.43199 5.25625 7.40533 5.26292C4.93033 5.87208 2.91699 8.55375 2.91699 11.2404C2.91699 14.6204 5.66699 17.3704 9.04783 17.3704C12.0953 17.3704 14.642 15.1996 15.1037 12.2079C15.107 12.1829 15.1187 12.1104 15.0503 12.0296C14.9853 11.9538 14.882 11.9088 14.7737 11.9088C13.5978 11.9088 12.7003 11.9354 11.9995 11.9554C10.3028 12.0063 9.60116 12.0254 8.90783 11.5113C7.86283 10.7371 7.77449 9.40708 7.77449 5.49542C7.77449 5.42542 7.74449 5.36708 7.68449 5.32042C7.62866 5.27625 7.55783 5.25292 7.48533 5.25292ZM9.04783 18.6204C4.97783 18.6204 1.66699 15.3096 1.66699 11.2404C1.66699 8.01375 4.10699 4.78708 7.10616 4.04875C7.57449 3.93458 8.07783 4.04125 8.45616 4.33625C8.81699 4.61958 9.02449 5.04208 9.02449 5.49542C9.02449 9.14958 9.14783 10.1329 9.65199 10.5071C9.98283 10.7513 10.4362 10.7488 11.9637 10.7063C12.6737 10.6854 13.5828 10.6588 14.7737 10.6588C15.2487 10.6588 15.6962 10.8621 15.9995 11.2163C16.2812 11.5454 16.4045 11.9754 16.3395 12.3988C15.7828 16.0029 12.7162 18.6204 9.04783 18.6204Z" fill="#6356E5"/>
<mask id="mask0_3460_1038" style="mask-type:luminance" maskUnits="userSpaceOnUse" x="10" y="0" width="10" height="10">
<path fill-rule="evenodd" clip-rule="evenodd" d="M10.395 0.833984H19.0775V9.4084H10.395V0.833984Z" fill="white"/>
</mask>
<g mask="url(#mask0_3460_1038)">
<path fill-rule="evenodd" clip-rule="evenodd" d="M11.6756 2.08348C11.584 4.18265 11.7198 6.89432 11.7831 7.96848C11.7865 8.03265 11.8331 8.07932 11.8965 8.08265C12.7531 8.13182 15.7048 8.26848 17.8273 7.95598C17.8323 6.78598 17.0315 5.19932 15.8256 3.99432C14.589 2.75932 13.1256 2.08348 11.694 2.08348H11.6756ZM14.429 9.40682C13.3373 9.40682 12.3765 9.36265 11.824 9.33098C11.129 9.29015 10.5756 8.73598 10.5356 8.04098C10.4706 6.93932 10.3298 4.14015 10.4298 1.97515C10.4573 1.34598 10.9656 0.845149 11.5873 0.834316C13.3681 0.782649 15.2056 1.60932 16.709 3.11015C18.174 4.57432 19.104 6.49848 19.0773 8.01265C19.0673 8.60348 18.6381 9.09682 18.0581 9.18432C16.9265 9.35515 15.6015 9.40682 14.429 9.40682Z" fill="#6356E5"/>
</g>
</svg>
