<svg width="20" height="20" viewBox="0 0 20 20" fill="none" xmlns="http://www.w3.org/2000/svg">
<path fill-rule="evenodd" clip-rule="evenodd" d="M5.93555 14.6366C5.59055 14.6366 5.31055 14.3566 5.31055 14.0116V8.29492C5.31055 7.94992 5.59055 7.66992 5.93555 7.66992C6.28055 7.66992 6.56055 7.94992 6.56055 8.29492V14.0116C6.56055 14.3566 6.28055 14.6366 5.93555 14.6366Z" fill="#6356E5"/>
<path fill-rule="evenodd" clip-rule="evenodd" d="M9.82422 14.6361C9.47922 14.6361 9.19922 14.3561 9.19922 14.0111V5.55859C9.19922 5.21359 9.47922 4.93359 9.82422 4.93359C10.1692 4.93359 10.4492 5.21359 10.4492 5.55859V14.0111C10.4492 14.3561 10.1692 14.6361 9.82422 14.6361Z" fill="#6356E5"/>
<path fill-rule="evenodd" clip-rule="evenodd" d="M13.6484 14.6345C13.3034 14.6345 13.0234 14.3545 13.0234 14.0095V11.3145C13.0234 10.9695 13.3034 10.6895 13.6484 10.6895C13.9934 10.6895 14.2734 10.9695 14.2734 11.3145V14.0095C14.2734 14.3545 13.9934 14.6345 13.6484 14.6345Z" fill="#6356E5"/>
<path fill-rule="evenodd" clip-rule="evenodd" d="M5.88732 2.08398C3.57732 2.08398 2.08398 3.66482 2.08398 6.11315V13.4715C2.08398 15.9198 3.57732 17.5007 5.88732 17.5007H13.6973C16.0082 17.5007 17.5007 15.9198 17.5007 13.4715V6.11315C17.5007 3.66482 16.0082 2.08398 13.6973 2.08398H5.88732ZM13.6973 18.7507H5.88732C2.86482 18.7507 0.833984 16.629 0.833984 13.4715V6.11315C0.833984 2.95565 2.86482 0.833984 5.88732 0.833984H13.6973C16.7198 0.833984 18.7507 2.95565 18.7507 6.11315V13.4715C18.7507 16.629 16.7198 18.7507 13.6973 18.7507Z" fill="#6356E5"/>
</svg>
