<svg width="20" height="20" viewBox="0 0 20 20" fill="none" xmlns="http://www.w3.org/2000/svg">
<mask id="mask0_3460_38718" style="mask-type:luminance" maskUnits="userSpaceOnUse" x="1" y="1" width="17" height="18">
<path fill-rule="evenodd" clip-rule="evenodd" d="M1.66675 1.66602H17.7375V18.9335H1.66675V1.66602Z" fill="white"/>
</mask>
<g mask="url(#mask0_3460_38718)">
<path fill-rule="evenodd" clip-rule="evenodd" d="M6.00177 14.5327C6.1926 14.5327 6.38344 14.5568 6.5701 14.6068C7.13344 14.7585 7.6226 15.1352 7.9126 15.641C8.10094 15.9585 8.2051 16.3293 8.20844 16.7077C8.20844 17.2493 8.64344 17.6835 9.17844 17.6835H10.2226C10.7551 17.6835 11.1901 17.2518 11.1926 16.7193C11.1893 16.131 11.4193 15.5718 11.8401 15.151C12.2551 14.736 12.8351 14.4868 13.4151 14.5035C13.7951 14.5127 14.1609 14.6152 14.4834 14.7985C14.9476 15.0643 15.5401 14.906 15.8084 14.4477L16.3618 13.5252C16.4851 13.3127 16.5209 13.046 16.4551 12.8002C16.3901 12.5543 16.2268 12.341 16.0068 12.2152C15.4918 11.9185 15.1243 11.4402 14.9718 10.8668C14.8209 10.3043 14.9034 9.69018 15.1976 9.18435C15.3893 8.85102 15.6701 8.57018 16.0068 8.37685C16.4584 8.11268 16.6168 7.52185 16.3543 7.06185C16.3434 7.04352 16.3334 7.02435 16.3251 7.00435L15.8368 6.15768C15.5709 5.69518 14.9793 5.53602 14.5151 5.80018C14.0134 6.09685 13.4168 6.18185 12.8434 6.03102C12.2709 5.88268 11.7909 5.52018 11.4918 5.00852C11.3001 4.68852 11.1959 4.31602 11.1926 3.93685C11.2001 3.65185 11.1001 3.39602 10.9184 3.20852C10.7376 3.02185 10.4834 2.91602 10.2226 2.91602H9.17844C8.9201 2.91602 8.67844 3.01685 8.49594 3.19852C8.31427 3.38102 8.2151 3.62352 8.21677 3.88185C8.19927 5.10018 7.20344 6.08102 5.9976 6.08102C5.61094 6.07685 5.23844 5.97268 4.9151 5.77935C4.46094 5.52102 3.8676 5.68018 3.60177 6.14268L3.0376 7.07018C2.77927 7.51852 2.9376 8.11102 3.3976 8.37852C4.0801 8.77352 4.50594 9.51018 4.50594 10.3002C4.50594 11.0902 4.0801 11.826 3.39594 12.2218C2.93844 12.4868 2.7801 13.076 3.0451 13.5343L3.57094 14.441C3.70094 14.6752 3.91344 14.8443 4.15927 14.9135C4.40427 14.9818 4.67427 14.9527 4.89927 14.8277C5.2301 14.6335 5.6151 14.5327 6.00177 14.5327ZM10.2226 18.9335H9.17844C7.95427 18.9335 6.95844 17.9385 6.95844 16.7143C6.95677 16.5635 6.91344 16.4068 6.8326 16.271C6.70177 16.0427 6.4901 15.8793 6.24594 15.8143C6.00344 15.7493 5.7376 15.7852 5.51927 15.9118C4.99594 16.2035 4.3801 16.2743 3.81677 16.116C3.25427 15.9568 2.76844 15.5702 2.48344 15.0577L1.9626 14.1602C1.35344 13.1035 1.71594 11.7493 2.77094 11.1393C3.0701 10.9668 3.25594 10.6452 3.25594 10.3002C3.25594 9.95518 3.0701 9.63268 2.77094 9.46018C1.7151 8.84685 1.35344 7.48935 1.96177 6.43268L2.52677 5.50518C3.1276 4.46018 4.48594 4.09185 5.5451 4.70018C5.68927 4.78602 5.84594 4.82935 6.0051 4.83102C6.52427 4.83102 6.95844 4.40268 6.96677 3.87602C6.96344 3.29518 7.1926 2.73768 7.6101 2.31685C8.02927 1.89685 8.58594 1.66602 9.17844 1.66602H10.2226C10.8193 1.66602 11.3993 1.91102 11.8151 2.33685C12.2301 2.76518 12.4593 3.35268 12.4418 3.94852C12.4434 4.08268 12.4876 4.23768 12.5676 4.37352C12.7001 4.59852 12.9093 4.75685 13.1576 4.82185C13.4059 4.88352 13.6659 4.85018 13.8868 4.71935C14.9534 4.11018 16.3109 4.47518 16.9201 5.53352L17.4393 6.43268C17.4526 6.45685 17.4643 6.48018 17.4743 6.50435C18.0259 7.54685 17.6576 8.85935 16.6326 9.45852C16.4834 9.54435 16.3626 9.66435 16.2793 9.80935C16.1501 10.0335 16.1143 10.3002 16.1793 10.5452C16.2459 10.7952 16.4051 11.0027 16.6293 11.131C17.1351 11.4218 17.5126 11.9118 17.6634 12.4777C17.8143 13.0427 17.7318 13.656 17.4376 14.1618L16.8843 15.0835C16.2751 16.1302 14.9176 16.4927 13.8618 15.8827C13.7209 15.8018 13.5584 15.7577 13.3968 15.7535H13.3918C13.1509 15.7535 12.9034 15.856 12.7234 16.0352C12.5409 16.2177 12.4409 16.461 12.4426 16.7193C12.4368 17.9435 11.4409 18.9335 10.2226 18.9335Z" fill="#6356E5"/>
</g>
<path fill-rule="evenodd" clip-rule="evenodd" d="M9.70424 8.72852C8.83757 8.72852 8.13257 9.43435 8.13257 10.301C8.13257 11.1677 8.83757 11.8718 9.70424 11.8718C10.5709 11.8718 11.2759 11.1677 11.2759 10.301C11.2759 9.43435 10.5709 8.72852 9.70424 8.72852ZM9.70423 13.1218C8.1484 13.1218 6.88257 11.8568 6.88257 10.301C6.88257 8.74518 8.1484 7.47852 9.70423 7.47852C11.2601 7.47852 12.5259 8.74518 12.5259 10.301C12.5259 11.8568 11.2601 13.1218 9.70423 13.1218Z" fill="#6356E5"/>
</svg>
