<svg width="16" height="17" viewBox="0 0 16 17" fill="none" xmlns="http://www.w3.org/2000/svg">
<path fill-rule="evenodd" clip-rule="evenodd" d="M8.66671 2.49967C8.66671 2.13148 8.36823 1.83301 8.00004 1.83301C7.63185 1.83301 7.33337 2.13148 7.33337 2.49967V2.99967H6.96176C5.47838 2.99967 4.25065 4.15302 4.15805 5.6335L4.01072 7.98914C3.95454 8.88727 3.65302 9.75277 3.13898 10.4914C2.67452 11.1588 3.088 12.0805 3.89529 12.1774L6.16671 12.4499V13.1663C6.16671 14.1789 6.98752 14.9997 8.00004 14.9997C9.01256 14.9997 9.83337 14.1789 9.83337 13.1663V12.4499L12.1048 12.1774C12.9121 12.0805 13.3256 11.1588 12.8611 10.4914C12.3471 9.75278 12.0455 8.88727 11.9894 7.98914L11.842 5.6335C11.7494 4.15302 10.5217 2.99967 9.03831 2.99967H8.66671V2.49967ZM6.96176 3.99967C6.00643 3.99967 5.21574 4.74246 5.1561 5.69593L5.00877 8.05156C4.94117 9.13232 4.57833 10.1738 3.95977 11.0626C3.9262 11.1109 3.95608 11.1775 4.01443 11.1845L6.50621 11.4835C7.49853 11.6026 8.50154 11.6026 9.49387 11.4835L11.9856 11.1845C12.044 11.1775 12.0739 11.1109 12.0403 11.0626C11.4217 10.1738 11.0589 9.13232 10.9913 8.05156L10.844 5.69593C10.7843 4.74246 9.99365 3.99967 9.03831 3.99967H6.96176ZM8.00004 13.9997C7.5398 13.9997 7.16671 13.6266 7.16671 13.1663V12.6663H8.83337V13.1663C8.83337 13.6266 8.46028 13.9997 8.00004 13.9997Z" fill="#6356E5"/>
</svg>
