<svg width="14" height="18" viewBox="0 0 14 18" fill="none" xmlns="http://www.w3.org/2000/svg">
<path fill-rule="evenodd" clip-rule="evenodd" d="M7.83332 1.50008C7.83332 1.03984 7.46023 0.666748 6.99999 0.666748C6.53975 0.666748 6.16666 1.03984 6.16666 1.50008V2.12508H5.70214C3.84792 2.12508 2.31325 3.56676 2.1975 5.41737L2.01333 8.36191C1.94312 9.48458 1.56621 10.5665 0.92366 11.4897C0.343091 12.3239 0.859942 13.4761 1.86905 13.5972L4.70832 13.9379V14.8334C4.70832 16.0991 5.73434 17.1251 6.99999 17.1251C8.26564 17.1251 9.29166 16.0991 9.29166 14.8334V13.9379L12.1309 13.5972C13.14 13.4761 13.6569 12.3239 13.0763 11.4897C12.4338 10.5665 12.0569 9.48458 11.9866 8.36191L11.8025 5.41737C11.6867 3.56676 10.1521 2.12508 8.29783 2.12508H7.83332V1.50008ZM5.70214 3.37508C4.50797 3.37508 3.51961 4.30356 3.44507 5.4954L3.2609 8.43994C3.1764 9.79089 2.72285 11.0928 1.94965 12.2038C1.90769 12.2641 1.94504 12.3473 2.01798 12.3561L5.1327 12.7299C6.37311 12.8787 7.62687 12.8787 8.86727 12.7299L11.982 12.3561C12.0549 12.3473 12.0923 12.2641 12.0503 12.2038C11.2771 11.0928 10.8236 9.79089 10.7391 8.43994L10.5549 5.4954C10.4804 4.30356 9.492 3.37508 8.29783 3.37508H5.70214ZM6.99999 15.8751C6.42469 15.8751 5.95832 15.4087 5.95832 14.8334V14.2084H8.04166V14.8334C8.04166 15.4087 7.57529 15.8751 6.99999 15.8751Z" fill="#6356E5"/>
</svg>
