<svg width="20" height="20" viewBox="0 0 20 20" fill="none" xmlns="http://www.w3.org/2000/svg">
<path fill-rule="evenodd" clip-rule="evenodd" d="M13.7153 8.99588V6.97917C13.7153 5.8861 12.8292 5 11.7361 5H4.47917C3.3861 5 2.5 5.8861 2.5 6.97917V13.5764C2.5 14.6695 3.3861 15.5556 4.47917 15.5556H11.7361C12.8292 15.5556 13.7153 14.6695 13.7153 13.5764V11.5598L17.2902 14.1133C17.4912 14.2569 17.7558 14.2761 17.9755 14.1631C18.1952 14.05 18.3333 13.8236 18.3333 13.5765V6.97923C18.3333 6.73211 18.1952 6.50571 17.9755 6.39263C17.7558 6.27955 17.4912 6.29876 17.2902 6.4424L13.7153 8.99588ZM3.81944 6.97917C3.81944 6.61481 4.11481 6.31944 4.47917 6.31944H11.7361C12.1005 6.31944 12.3958 6.61481 12.3958 6.97917V13.5764C12.3958 13.9407 12.1005 14.2361 11.7361 14.2361H4.47917C4.11481 14.2361 3.81944 13.9407 3.81944 13.5764V6.97917ZM17.0139 12.2945L14.1906 10.2778L17.0139 8.2612V12.2945Z" fill="#6356E5"/>
</svg>
