<svg width="20" height="20" viewBox="0 0 20 20" fill="none" xmlns="http://www.w3.org/2000/svg">
<path fill-rule="evenodd" clip-rule="evenodd" d="M5.33301 4.66683C5.15619 4.66683 4.98663 4.73707 4.8616 4.86209C4.73658 4.98711 4.66634 5.15668 4.66634 5.33349V14.3907L6.19493 12.8621C6.31996 12.7371 6.48953 12.6668 6.66634 12.6668H14.6663C14.8431 12.6668 15.0127 12.5966 15.1377 12.4716C15.2628 12.3465 15.333 12.177 15.333 12.0001V5.33349C15.333 5.15668 15.2628 4.98711 15.1377 4.86209C15.0127 4.73707 14.8431 4.66683 14.6663 4.66683H5.33301ZM3.91879 3.91928C4.29387 3.54421 4.80257 3.3335 5.33301 3.3335H14.6663C15.1968 3.3335 15.7055 3.54421 16.0805 3.91928C16.4556 4.29435 16.6663 4.80306 16.6663 5.33349V12.0001C16.6663 12.5306 16.4556 13.0393 16.0805 13.4144C15.7055 13.7894 15.1968 14.0001 14.6663 14.0001H6.94248L4.47108 16.4715C4.28041 16.6622 3.99367 16.7192 3.74455 16.6161C3.49544 16.5129 3.33301 16.2698 3.33301 16.0001V5.33349C3.33301 4.80306 3.54372 4.29435 3.91879 3.91928Z" fill="#6356E5"/>
</svg>
