<svg width="20" height="20" viewBox="0 0 20 20" fill="none" xmlns="http://www.w3.org/2000/svg">
<path fill-rule="evenodd" clip-rule="evenodd" d="M13.0965 14.1445H7.07983C6.73483 14.1445 6.45483 13.8645 6.45483 13.5195C6.45483 13.1745 6.73483 12.8945 7.07983 12.8945H13.0965C13.4415 12.8945 13.7215 13.1745 13.7215 13.5195C13.7215 13.8645 13.4415 14.1445 13.0965 14.1445Z" fill="#2E2E2E"/>
<path fill-rule="evenodd" clip-rule="evenodd" d="M13.0965 10.6562H7.07983C6.73483 10.6562 6.45483 10.3762 6.45483 10.0312C6.45483 9.68625 6.73483 9.40625 7.07983 9.40625H13.0965C13.4415 9.40625 13.7215 9.68625 13.7215 10.0312C13.7215 10.3762 13.4415 10.6562 13.0965 10.6562Z" fill="#2E2E2E"/>
<path fill-rule="evenodd" clip-rule="evenodd" d="M9.37542 7.1748H7.07959C6.73459 7.1748 6.45459 6.8948 6.45459 6.5498C6.45459 6.2048 6.73459 5.9248 7.07959 5.9248H9.37542C9.72042 5.9248 10.0004 6.2048 10.0004 6.5498C10.0004 6.8948 9.72042 7.1748 9.37542 7.1748Z" fill="#2E2E2E"/>
<mask id="mask0_2901_9931" style="mask-type:luminance" maskUnits="userSpaceOnUse" x="2" y="1" width="16" height="18">
<path fill-rule="evenodd" clip-rule="evenodd" d="M2.5 1.66699H17.6372V18.2585H2.5V1.66699Z" fill="white"/>
</mask>
<g mask="url(#mask0_2901_9931)">
<path fill-rule="evenodd" clip-rule="evenodd" d="M13.2573 2.91602L6.84976 2.91935C4.90976 2.93102 3.74976 4.13102 3.74976 6.13018V13.7935C3.74976 15.806 4.92059 17.0077 6.87976 17.0077L13.2873 17.0052C15.2273 16.9935 16.3873 15.7918 16.3873 13.7935V6.13018C16.3873 4.11768 15.2173 2.91602 13.2573 2.91602ZM6.88059 18.2577C4.26059 18.2577 2.49976 16.4635 2.49976 13.7935V6.13018C2.49976 3.43602 4.20559 1.68518 6.84559 1.66935L13.2564 1.66602H13.2573C15.8773 1.66602 17.6373 3.46018 17.6373 6.13018V13.7935C17.6373 16.4868 15.9314 18.2385 13.2914 18.2552L6.88059 18.2577Z" fill="#2E2E2E"/>
</g>
</svg>
