<svg width="40" height="32" viewBox="0 0 40 32" fill="none" xmlns="http://www.w3.org/2000/svg">
<path d="M10.1864 1.22423C16.7169 0.656541 23.2844 0.656541 29.8149 1.22422L32.9612 1.49773C35.0557 1.6798 36.8496 2.92911 37.7791 4.71615C37.898 4.94476 37.8089 5.22156 37.5898 5.3572L24.5357 13.4383C21.736 15.1715 18.2057 15.2078 15.3709 13.5327L2.22958 5.76738C2.01726 5.64192 1.91981 5.38367 2.01549 5.15638C2.86582 3.13644 4.77755 1.69441 7.04011 1.49773L10.1864 1.22423Z" fill="white"/>
<path d="M2.0048 9.26436C1.67987 9.07236 1.26528 9.27898 1.22741 9.65449C0.698793 14.8954 0.826732 20.1859 1.61123 25.4028C2.0248 28.153 4.2694 30.2615 7.04012 30.5023L10.1864 30.7758C16.7169 31.3435 23.2844 31.3435 29.8149 30.7758L32.9612 30.5023C35.7319 30.2615 37.9765 28.153 38.3901 25.4028C39.1974 20.0339 39.3094 14.587 38.726 9.19644C38.6851 8.81828 38.2635 8.61547 37.94 8.81568L26.1805 16.0954C22.3927 18.4402 17.6165 18.4894 13.7811 16.2231L2.0048 9.26436Z" fill="white"/>
</svg>
