<svg width="29" height="29" viewBox="0 0 29 29" fill="none" xmlns="http://www.w3.org/2000/svg">
<path fill-rule="evenodd" clip-rule="evenodd" d="M14.5 2.8125C8.05538 2.8125 2.8125 8.05538 2.8125 14.5C2.8125 20.9446 8.05538 26.1875 14.5 26.1875C20.9446 26.1875 26.1875 20.9446 26.1875 14.5C26.1875 8.05538 20.9446 2.8125 14.5 2.8125ZM14.5 28.25C6.91825 28.25 0.75 22.0817 0.75 14.5C0.75 6.91825 6.91825 0.75 14.5 0.75C22.0817 0.75 28.25 6.91825 28.25 14.5C28.25 22.0817 22.0817 28.25 14.5 28.25Z" fill="#E63946"/>
<path fill-rule="evenodd" clip-rule="evenodd" d="M14.4917 16.3886C13.9224 16.3886 13.4604 15.9266 13.4604 15.3574L13.4604 9.28125C13.4604 8.712 13.9224 8.25 14.4917 8.25C15.0609 8.25 15.5229 8.712 15.5229 9.28125L15.5229 15.3574C15.5229 15.9266 15.0609 16.3886 14.4917 16.3886Z" fill="#E63946"/>
<path fill-rule="evenodd" clip-rule="evenodd" d="M14.5054 21.0938C13.745 21.0938 13.1235 20.4791 13.1235 19.7188C13.1235 18.9584 13.7327 18.3438 14.4917 18.3438H14.5054C15.2658 18.3438 15.8804 18.9584 15.8804 19.7188C15.8804 20.4791 15.2658 21.0938 14.5054 21.0938Z" fill="#E63946"/>
</svg>
