<svg width="24" height="23" viewBox="0 0 24 23" fill="none" xmlns="http://www.w3.org/2000/svg">
<path d="M20.1002 20.734C20.4008 20.734 20.689 20.6146 20.9016 20.402C21.1141 20.1895 21.2335 19.9012 21.2335 19.6007L21.2335 3.73398C21.2335 3.4334 21.1141 3.14514 20.9016 2.9326C20.689 2.72006 20.4008 2.60065 20.1002 2.60065L15.5669 2.60065C14.9409 2.60065 14.4335 2.09324 14.4335 1.46732C14.4335 0.841395 14.9409 0.333984 15.5669 0.333984L20.1002 0.333985C21.0019 0.333985 21.8667 0.692198 22.5044 1.32982C23.142 1.96745 23.5002 2.83225 23.5002 3.73398V19.6007C23.5002 20.5024 23.142 21.3672 22.5044 22.0048C21.8667 22.6424 21.0019 23.0007 20.1002 23.0007H15.5669C14.9409 23.0007 14.4335 22.4932 14.4335 21.8673C14.4335 21.2414 14.9409 20.734 15.5669 20.734H20.1002Z" fill="#EFF0FA"/>
<path d="M8.4349 18.1354C7.9923 18.578 7.27472 18.578 6.83212 18.1354L1.16899 12.4722C1.15699 12.4603 1.14525 12.4482 1.13378 12.4357C1.04484 12.3395 0.975655 12.2315 0.926229 12.117C0.866564 11.9792 0.833496 11.8271 0.833496 11.6673C0.833496 11.5073 0.866669 11.355 0.926511 11.2169C0.975459 11.1038 1.04373 10.997 1.13132 10.9015C1.14362 10.8881 1.15624 10.875 1.16917 10.8622L6.83212 5.19926C7.27472 4.75666 7.9923 4.75666 8.4349 5.19926C8.87749 5.64185 8.87749 6.35944 8.4349 6.80203L4.70295 10.534L15.5668 10.534C16.1928 10.534 16.7002 11.0414 16.7002 11.6673C16.7002 12.2932 16.1927 12.8006 15.5668 12.8006H4.70295L8.4349 16.5326C8.87749 16.9752 8.87749 17.6928 8.4349 18.1354Z" fill="#EFF0FA"/>
</svg>
