<svg width="21" height="21" viewBox="0 0 21 21" fill="none" xmlns="http://www.w3.org/2000/svg">
<path d="M10.5426 3.34155C10.551 3.3462 10.561 3.355 10.5719 3.37378L12.8336 7.27124C13.1065 7.74144 13.5783 8.06209 14.1158 8.14331L18.3541 8.78394C18.3809 8.78797 18.3921 8.79602 18.3981 8.80151C18.4067 8.80949 18.4169 8.8236 18.4225 8.84351C18.428 8.86349 18.4267 8.88104 18.4235 8.89233C18.4212 8.90011 18.416 8.91312 18.3951 8.93042L15.2379 11.5466C14.7352 11.9631 14.4986 12.6202 14.6207 13.2615L15.4469 17.5984C15.4517 17.6236 15.4473 17.6373 15.444 17.6453C15.4394 17.6561 15.4303 17.6698 15.4147 17.6814C15.3988 17.6931 15.3825 17.6978 15.3707 17.699C15.3622 17.6998 15.3484 17.7001 15.3258 17.6882L11.3346 15.5867C10.8122 15.3116 10.1881 15.3117 9.66565 15.5867L5.67444 17.6882C5.65194 17.7001 5.63809 17.6998 5.62952 17.699C5.61773 17.6978 5.60144 17.6931 5.58557 17.6814C5.56996 17.6698 5.5609 17.6561 5.55627 17.6453C5.55297 17.6373 5.54854 17.6236 5.55334 17.5984L6.37952 13.2615C6.50163 12.6202 6.26495 11.9631 5.76233 11.5466L2.6051 8.93042C2.58426 8.91315 2.57905 8.90012 2.57678 8.89233C2.57352 8.88104 2.57221 8.86349 2.57776 8.84351C2.58332 8.82362 2.59358 8.80948 2.60217 8.80151C2.60812 8.79605 2.61887 8.78798 2.64514 8.78394L6.8844 8.14331C7.42189 8.06205 7.8938 7.74142 8.16663 7.27124L10.4283 3.37378C10.4393 3.35495 10.4492 3.34619 10.4576 3.34155C10.4679 3.33587 10.4825 3.33186 10.4996 3.33179C10.5169 3.33179 10.5322 3.33581 10.5426 3.34155Z" stroke="#6356E5" stroke-width="1.5" stroke-linejoin="round"/>
</svg>
