<svg width="21" height="21" viewBox="0 0 21 21" fill="none" xmlns="http://www.w3.org/2000/svg">
<path d="M10.5 2.16669C10.9602 2.16669 11.3333 2.53978 11.3333 3.00002V3.62502H11.7978C12.769 3.62502 13.6524 4.02048 14.2903 4.66302C14.3828 4.75621 14.377 4.9058 14.2841 4.99866L13.7588 5.52398C13.6536 5.62919 13.481 5.61874 13.3743 5.51503C12.9659 5.11805 12.4088 4.87502 11.7978 4.87502H9.20215C8.00798 4.87502 7.01962 5.8035 6.94508 6.99534L6.76091 9.93988C6.67641 11.2908 6.22287 12.5927 5.44966 13.7037C5.40768 13.764 5.40911 13.866 5.35738 13.9182L4.75088 14.5303C4.65292 14.6292 4.4908 14.6298 4.41317 14.5143C4.12021 14.0784 4.08293 13.4793 4.42367 12.9897C5.06622 12.0664 5.44313 10.9845 5.51335 9.86185L5.69751 6.91731C5.81326 5.0667 7.34793 3.62502 9.20215 3.62502H9.66667V3.00002C9.66667 2.53978 10.0398 2.16669 10.5 2.16669Z" fill="#6356E5"/>
<path fill-rule="evenodd" clip-rule="evenodd" d="M15.3219 7.22861L18.0253 4.52529C18.2694 4.28121 18.2694 3.88548 18.0253 3.6414C17.7812 3.39732 17.3855 3.39732 17.1414 3.6414L3.80806 16.9747C3.56398 17.2188 3.56398 17.6145 3.80806 17.8586C4.05214 18.1027 4.44786 18.1027 4.69194 17.8586L7.23011 15.3205L8.20833 15.4378V16.3334C8.20833 17.599 9.23434 18.625 10.5 18.625C11.7656 18.625 12.7917 17.599 12.7917 16.3334V15.4378L15.6309 15.0971C16.64 14.976 17.1569 13.8239 16.5763 12.9897C15.9338 12.0664 15.5569 10.9845 15.4866 9.86185L15.3219 7.22861ZM14.1432 8.40733L8.35419 14.1964L8.63271 14.2298C9.87312 14.3786 11.1269 14.3786 12.3673 14.2298L15.482 13.856C15.5549 13.8473 15.5923 13.764 15.5503 13.7037C14.7771 12.5927 14.3236 11.2908 14.2391 9.93988L14.1432 8.40733ZM10.5 17.375C9.9247 17.375 9.45833 16.9087 9.45833 16.3334V15.7084H11.5417V16.3334C11.5417 16.9087 11.0753 17.375 10.5 17.375Z" fill="#6356E5"/>
</svg>
