<svg width="21" height="21" viewBox="0 0 21 21" fill="none" xmlns="http://www.w3.org/2000/svg">
<path fill-rule="evenodd" clip-rule="evenodd" d="M11.3333 2.99935C11.3333 2.53911 10.9602 2.16602 10.5 2.16602C10.0398 2.16602 9.66666 2.53911 9.66666 2.99935V3.62435H9.20214C7.34792 3.62435 5.81325 5.06603 5.6975 6.91664L5.51333 9.86118C5.44312 10.9838 5.06621 12.0657 4.42366 12.989C3.84309 13.8232 4.35994 14.9754 5.36905 15.0965L8.20832 15.4372V16.3327C8.20832 17.5983 9.23434 18.6243 10.5 18.6243C11.7656 18.6243 12.7917 17.5983 12.7917 16.3327V15.4372L15.6309 15.0965C16.64 14.9754 17.1569 13.8232 16.5763 12.989C15.9338 12.0657 15.5569 10.9838 15.4866 9.86118L15.3025 6.91664C15.1867 5.06603 13.6521 3.62435 11.7978 3.62435H11.3333V2.99935ZM9.20214 4.87435C8.00797 4.87435 7.01961 5.80283 6.94507 6.99467L6.7609 9.93921C6.6764 11.2902 6.22285 12.592 5.44965 13.703C5.40769 13.7633 5.44504 13.8466 5.51798 13.8554L8.6327 14.2291C9.87311 14.378 11.1269 14.378 12.3673 14.2291L15.482 13.8554C15.5549 13.8466 15.5923 13.7633 15.5503 13.703C14.7771 12.592 14.3236 11.2902 14.2391 9.93921L14.0549 6.99467C13.9804 5.80283 12.992 4.87435 11.7978 4.87435H9.20214ZM10.5 17.3743C9.92469 17.3743 9.45832 16.908 9.45832 16.3327V15.7077H11.5417V16.3327C11.5417 16.908 11.0753 17.3743 10.5 17.3743Z" fill="white"/>
</svg>
