<svg width="21" height="20" viewBox="0 0 21 20" fill="none" xmlns="http://www.w3.org/2000/svg">
<path fill-rule="evenodd" clip-rule="evenodd" d="M10.5 9.7079C9.9247 9.7079 9.45833 10.1743 9.45833 10.7496C9.45833 11.3249 9.9247 11.7912 10.5 11.7912C11.0753 11.7912 11.5417 11.3249 11.5417 10.7496C11.5417 10.1743 11.0753 9.7079 10.5 9.7079ZM8.20833 10.7496C8.20833 9.48391 9.23435 8.4579 10.5 8.4579C11.7657 8.4579 12.7917 9.48391 12.7917 10.7496C12.7917 12.0152 11.7657 13.0412 10.5 13.0412C9.23435 13.0412 8.20833 12.0152 8.20833 10.7496Z" fill="white"/>
<path fill-rule="evenodd" clip-rule="evenodd" d="M10.5 6.37456C9.63471 6.37456 8.78885 6.63115 8.06938 7.11188C7.34992 7.59261 6.78916 8.2759 6.45803 9.07532C6.1269 9.87475 6.04026 10.7544 6.20907 11.6031C6.37788 12.4517 6.79456 13.2313 7.40641 13.8432C7.65049 14.0872 7.65049 14.483 7.40641 14.727C7.16233 14.9711 6.7666 14.9711 6.52253 14.727C5.73586 13.9404 5.20013 12.9381 4.98309 11.8469C4.76604 10.7558 4.87744 9.6248 5.30318 8.59697C5.72892 7.56914 6.44989 6.69063 7.37492 6.07255C8.29995 5.45446 9.38748 5.12456 10.5 5.12456C11.6125 5.12456 12.7001 5.45446 13.6251 6.07255C14.5501 6.69063 15.2711 7.56913 15.6968 8.59697C16.1226 9.6248 16.234 10.7558 16.0169 11.8469C15.7999 12.9381 15.2641 13.9404 14.4775 14.727C14.2334 14.9711 13.8377 14.9711 13.5936 14.727C13.3495 14.483 13.3495 14.0872 13.5936 13.8432C14.2054 13.2313 14.6221 12.4518 14.7909 11.6031C14.9597 10.7544 14.8731 9.87475 14.542 9.07532C14.2108 8.2759 13.6501 7.59261 12.9306 7.11188C12.2112 6.63115 11.3653 6.37456 10.5 6.37456Z" fill="white"/>
<path fill-rule="evenodd" clip-rule="evenodd" d="M10.5001 3.125C8.99207 3.125 7.51793 3.57217 6.26408 4.40997C5.01022 5.24777 4.03296 6.43857 3.45588 7.83178C2.87879 9.22499 2.7278 10.758 3.022 12.2371C3.31619 13.7161 4.04236 15.0746 5.10868 16.141C5.35275 16.385 5.35275 16.7808 5.10868 17.0248C4.8646 17.2689 4.46887 17.2689 4.22479 17.0248C2.98366 15.7837 2.13844 14.2024 1.79601 12.4809C1.45359 10.7594 1.62933 8.97504 2.30103 7.35342C2.97272 5.7318 4.1102 4.34579 5.56962 3.37064C7.02903 2.39548 8.74484 1.875 10.5001 1.875C12.2553 1.875 13.9711 2.39549 15.4305 3.37064C16.8899 4.34579 18.0274 5.73181 18.6991 7.35342C19.3708 8.97504 19.5465 10.7594 19.2041 12.4809C18.8617 14.2024 18.0165 15.7837 16.7753 17.0248C16.5313 17.2689 16.1355 17.2689 15.8915 17.0248C15.6474 16.7808 15.6474 16.385 15.8915 16.141C16.9578 15.0746 17.6839 13.7161 17.9781 12.2371C18.2723 10.758 18.1213 9.22499 17.5443 7.83178C16.9672 6.43857 15.9899 5.24777 14.7361 4.40997C13.4822 3.57217 12.0081 3.125 10.5001 3.125Z" fill="white"/>
</svg>
