<svg width="27" height="27" viewBox="0 0 27 27" fill="none" xmlns="http://www.w3.org/2000/svg">
<path fill-rule="evenodd" clip-rule="evenodd" d="M7.02042 18.0036C6.82042 18.0036 6.61917 17.9399 6.44917 17.8099C6.03917 17.4936 5.96167 16.9049 6.27792 16.4949L10.0192 11.6324C10.1717 11.4336 10.3979 11.3049 10.6454 11.2736C10.8979 11.2411 11.1454 11.3111 11.3417 11.4674L14.8667 14.2361L17.9504 10.2574C18.2679 9.84615 18.8554 9.7699 19.2654 10.0899C19.6754 10.4074 19.7504 10.9961 19.4329 11.4049L15.7704 16.1299C15.6179 16.3274 15.3929 16.4561 15.1454 16.4861C14.8954 16.5199 14.6479 16.4474 14.4504 16.2936L10.9279 13.5261L7.76417 17.6374C7.57917 17.8774 7.30167 18.0036 7.02042 18.0036Z" fill="#6356E5"/>
<mask id="mask0_3078_1747" style="mask-type:luminance" maskUnits="userSpaceOnUse" x="19" y="0" width="8" height="8">
<path fill-rule="evenodd" clip-rule="evenodd" d="M19.6191 0.500122H26.2991V7.18125H19.6191V0.500122Z" fill="white"/>
</mask>
<g mask="url(#mask0_3078_1747)">
<path fill-rule="evenodd" clip-rule="evenodd" d="M22.9591 2.375C22.1516 2.375 21.4941 3.03125 21.4941 3.84C21.4941 4.6475 22.1516 5.30625 22.9591 5.30625C23.7666 5.30625 24.4241 4.6475 24.4241 3.84C24.4241 3.03125 23.7666 2.375 22.9591 2.375ZM22.9591 7.18125C21.1179 7.18125 19.6191 5.6825 19.6191 3.84C19.6191 1.9975 21.1179 0.5 22.9591 0.5C24.8016 0.5 26.2991 1.9975 26.2991 3.84C26.2991 5.6825 24.8016 7.18125 22.9591 7.18125Z" fill="#6356E5"/>
</g>
<mask id="mask1_3078_1747" style="mask-type:luminance" maskUnits="userSpaceOnUse" x="0" y="1" width="26" height="26">
<path fill-rule="evenodd" clip-rule="evenodd" d="M0.5 1.55273H25.3274V26.379H0.5V1.55273Z" fill="white"/>
</mask>
<g mask="url(#mask1_3078_1747)">
<path fill-rule="evenodd" clip-rule="evenodd" d="M18.2911 26.379H7.53613C3.32738 26.379 0.499878 23.4227 0.499878 19.0227V8.92023C0.499878 4.51398 3.32738 1.55273 7.53613 1.55273H16.6211C17.1386 1.55273 17.5586 1.97273 17.5586 2.49023C17.5586 3.00773 17.1386 3.42773 16.6211 3.42773H7.53613C4.40113 3.42773 2.37488 5.58273 2.37488 8.92023V19.0227C2.37488 22.404 4.35238 24.504 7.53613 24.504H18.2911C21.4261 24.504 23.4524 22.3527 23.4524 19.0227V10.224C23.4524 9.70648 23.8724 9.28648 24.3899 9.28648C24.9074 9.28648 25.3274 9.70648 25.3274 10.224V19.0227C25.3274 23.4227 22.4999 26.379 18.2911 26.379Z" fill="#6356E5"/>
</g>
</svg>
