<svg width="24" height="24" viewBox="0 0 24 24" fill="none" xmlns="http://www.w3.org/2000/svg">
<path d="M3.86945 2.1507C4.01596 2.00418 4.21467 1.92188 4.42188 1.92188H21.2969C21.5041 1.92188 21.7028 2.00418 21.8493 2.1507C21.9958 2.29721 22.0781 2.49593 22.0781 2.70312V13.9531C22.0781 14.1603 21.9958 14.359 21.8493 14.5056C21.7028 14.6521 21.5041 14.7344 21.2969 14.7344H14.2656C13.9204 14.7344 13.6406 15.0142 13.6406 15.3594C13.6406 15.7046 13.9204 15.9844 14.2656 15.9844H16.4531V17.5469H15.6719C15.3267 17.5469 15.0469 17.8267 15.0469 18.1719C15.0469 18.5171 15.3267 18.7969 15.6719 18.7969H19.1875C19.5327 18.7969 19.8125 18.5171 19.8125 18.1719C19.8125 17.8267 19.5327 17.5469 19.1875 17.5469H17.7031V15.9844H21.2969C21.8356 15.9844 22.3523 15.7704 22.7332 15.3894C23.1141 15.0085 23.3281 14.4918 23.3281 13.9531V2.70312C23.3281 2.1644 23.1141 1.64775 22.7332 1.26681C22.3523 0.885881 21.8356 0.671875 21.2969 0.671875H4.42188C3.88315 0.671875 3.3665 0.885881 2.98556 1.26681C2.60463 1.64775 2.39062 2.1644 2.39062 2.70312V4.8125C2.39062 5.15768 2.67045 5.4375 3.01562 5.4375C3.3608 5.4375 3.64062 5.15768 3.64062 4.8125V2.70312C3.64062 2.49592 3.72293 2.29721 3.86945 2.1507Z" fill="#6356E5"/>
<path fill-rule="evenodd" clip-rule="evenodd" d="M13.0353 4.28525C13.548 3.77246 14.2435 3.48438 14.9688 3.48438C15.694 3.48438 16.3895 3.77246 16.9022 4.28525C17.415 4.79805 17.7031 5.49355 17.7031 6.21875C17.7031 6.94395 17.415 7.63945 16.9022 8.15224C16.716 8.33844 16.5058 8.49502 16.2787 8.61893C16.8827 8.82037 17.4379 9.16033 17.8966 9.61901C18.6731 10.3955 19.1094 11.4487 19.1094 12.5469C19.1094 12.8921 18.8296 13.1719 18.4844 13.1719C18.1392 13.1719 17.8594 12.8921 17.8594 12.5469C17.8594 11.7802 17.5548 11.045 17.0127 10.5029C16.4706 9.9608 15.7354 9.65625 14.9688 9.65625C14.6236 9.65625 14.3438 9.37643 14.3438 9.03125C14.3438 8.98079 14.3497 8.93174 14.361 8.88474C13.8629 8.77118 13.4023 8.51927 13.0353 8.15224C12.5225 7.63945 12.2344 6.94395 12.2344 6.21875C12.2344 5.49355 12.5225 4.79805 13.0353 4.28525ZM14.9688 4.73438C14.5751 4.73438 14.1975 4.89076 13.9191 5.16914C13.6408 5.44751 13.4844 5.82507 13.4844 6.21875C13.4844 6.61243 13.6408 6.98999 13.9191 7.26836C14.1975 7.54674 14.5751 7.70312 14.9688 7.70312C15.3624 7.70312 15.74 7.54674 16.0184 7.26836C16.2967 6.98999 16.4531 6.61243 16.4531 6.21875C16.4531 5.82507 16.2967 5.44751 16.0184 5.16914C15.74 4.89076 15.3624 4.73438 14.9688 4.73438Z" fill="#6356E5"/>
<path fill-rule="evenodd" clip-rule="evenodd" d="M7.9375 17C6.50782 17 5.13669 17.5679 4.12575 18.5789C3.11481 19.5898 2.54688 20.9609 2.54688 22.3906C2.54688 22.9084 2.12714 23.3281 1.60938 23.3281C1.09161 23.3281 0.671875 22.9084 0.671875 22.3906C0.671875 20.4637 1.43736 18.6156 2.79993 17.2531C3.77201 16.281 4.99118 15.6128 6.30982 15.3096C5.65064 15.0723 5.04496 14.6914 4.54007 14.1865C3.63902 13.2854 3.13281 12.0633 3.13281 10.7891C3.13281 9.51478 3.63902 8.29269 4.54007 7.39164C5.44113 6.49058 6.66322 5.98438 7.9375 5.98438C9.21178 5.98438 10.4339 6.49058 11.3349 7.39164C12.236 8.29269 12.7422 9.51478 12.7422 10.7891C12.7422 12.0633 12.236 13.2854 11.3349 14.1865C10.83 14.6914 10.2244 15.0723 9.56518 15.3096C10.8838 15.6128 12.103 16.281 13.0751 17.2531C14.4376 18.6156 15.2031 20.4637 15.2031 22.3906C15.2031 22.9084 14.7834 23.3281 14.2656 23.3281C13.7479 23.3281 13.3281 22.9084 13.3281 22.3906C13.3281 20.9609 12.7602 19.5898 11.7492 18.5789C10.7383 17.5679 9.36718 17 7.9375 17ZM5.8659 8.71746C6.41532 8.16804 7.1605 7.85938 7.9375 7.85938C8.7145 7.85938 9.45968 8.16804 10.0091 8.71746C10.5585 9.26688 10.8672 10.0121 10.8672 10.7891C10.8672 11.5661 10.5585 12.3112 10.0091 12.8607C9.45968 13.4101 8.7145 13.7188 7.9375 13.7188C7.1605 13.7188 6.41532 13.4101 5.8659 12.8607C5.31647 12.3112 5.00781 11.5661 5.00781 10.7891C5.00781 10.0121 5.31647 9.26688 5.8659 8.71746Z" fill="#6356E5"/>
</svg>
