<svg width="24" height="28" viewBox="0 0 24 28" fill="none" xmlns="http://www.w3.org/2000/svg">
<mask id="mask0_3078_1790" style="mask-type:luminance" maskUnits="userSpaceOnUse" x="0" y="0" width="24" height="22">
<path fill-rule="evenodd" clip-rule="evenodd" d="M0.750122 0.25H23.8713V21.935H0.750122V0.25Z" fill="white"/>
</mask>
<g mask="url(#mask0_3078_1790)">
<path fill-rule="evenodd" clip-rule="evenodd" d="M12.3089 2.125C7.94014 2.125 4.89514 5.5475 4.89514 8.61875C4.89514 11.2175 4.17389 12.4187 3.53639 13.4788C3.02514 14.33 2.62139 15.0025 2.62139 16.4637C2.83014 18.8212 4.38639 20.06 12.3089 20.06C20.1876 20.06 21.7926 18.7663 22.0001 16.3825C21.9964 15.0025 21.5926 14.33 21.0814 13.4788C20.4439 12.4187 19.7226 11.2175 19.7226 8.61875C19.7226 5.5475 16.6776 2.125 12.3089 2.125ZM12.3089 21.935C6.46389 21.935 1.18139 21.5225 0.750139 16.5438C0.746389 14.4837 1.37514 13.4362 1.93014 12.5138C2.49139 11.5787 3.02014 10.6975 3.02014 8.61875C3.02014 4.5775 6.75264 0.25 12.3089 0.25C17.8651 0.25 21.5976 4.5775 21.5976 8.61875C21.5976 10.6975 22.1264 11.5787 22.6876 12.5138C23.2426 13.4362 23.8714 14.4837 23.8714 16.4637C23.4351 21.5225 18.1539 21.935 12.3089 21.935Z" fill="#6356E5"/>
</g>
<path fill-rule="evenodd" clip-rule="evenodd" d="M12.2479 27.125H12.2454C10.8442 27.1238 9.5179 26.5063 8.51165 25.385C8.1654 25.0013 8.19665 24.4075 8.58165 24.0625C8.96665 23.715 9.55915 23.7463 9.9054 24.1325C10.5529 24.8538 11.3842 25.25 12.2467 25.25H12.2479C13.1142 25.25 13.9492 24.8538 14.5979 24.1313C14.9454 23.7475 15.5379 23.7163 15.9217 24.0625C16.3067 24.4088 16.3379 25.0025 15.9917 25.3863C14.9816 26.5075 13.6529 27.125 12.2479 27.125Z" fill="#6356E5"/>
</svg>
