<svg width="27" height="27" viewBox="0 0 27 27" fill="none" xmlns="http://www.w3.org/2000/svg">
<path fill-rule="evenodd" clip-rule="evenodd" d="M9.22799 6.87938C9.18799 6.87938 9.14799 6.88438 9.10799 6.89438C5.39549 7.80813 2.37549 11.8306 2.37549 15.8606C2.37549 20.9306 6.50049 25.0556 11.5717 25.0556C16.143 25.0556 19.963 21.7994 20.6555 17.3119C20.6605 17.2744 20.678 17.1656 20.5755 17.0444C20.478 16.9306 20.323 16.8631 20.1605 16.8631C18.3967 16.8631 17.0505 16.9031 15.9992 16.9331C13.4542 17.0094 12.4017 17.0381 11.3617 16.2669C9.79424 15.1056 9.66174 13.1106 9.66174 7.24313C9.66174 7.13813 9.61674 7.05063 9.52674 6.98063C9.44299 6.91438 9.33674 6.87938 9.22799 6.87938ZM11.5717 26.9306C5.46674 26.9306 0.500488 21.9644 0.500488 15.8606C0.500488 11.0206 4.16049 6.18063 8.65924 5.07313C9.36174 4.90188 10.1167 5.06188 10.6842 5.50438C11.2255 5.92938 11.5367 6.56313 11.5367 7.24313C11.5367 12.7244 11.7217 14.1994 12.478 14.7606C12.9742 15.1269 13.6542 15.1231 15.9455 15.0594C17.0105 15.0281 18.3742 14.9881 20.1605 14.9881C20.873 14.9881 21.5442 15.2931 21.9992 15.8244C22.4217 16.3181 22.6067 16.9631 22.5092 17.5981C21.6742 23.0044 17.0742 26.9306 11.5717 26.9306Z" fill="#6356E5"/>
<mask id="mask0_3078_1764" style="mask-type:luminance" maskUnits="userSpaceOnUse" x="13" y="0" width="14" height="14">
<path fill-rule="evenodd" clip-rule="evenodd" d="M13.5925 0.25061H26.6162V13.1122H13.5925V0.25061Z" fill="white"/>
</mask>
<g mask="url(#mask0_3078_1764)">
<path fill-rule="evenodd" clip-rule="evenodd" d="M15.5135 2.1273C15.376 5.27605 15.5797 9.34355 15.6747 10.9548C15.6797 11.051 15.7497 11.121 15.8447 11.126C17.1297 11.1998 21.5572 11.4048 24.741 10.936C24.7485 9.18105 23.5472 6.80105 21.7385 4.99355C19.8835 3.14105 17.6885 2.1273 15.541 2.1273H15.5135ZM19.6435 13.1123C18.006 13.1123 16.5647 13.046 15.736 12.9985C14.6935 12.9373 13.8635 12.106 13.8035 11.0635C13.706 9.41105 13.4947 5.2123 13.6447 1.9648C13.686 1.02105 14.4485 0.269799 15.381 0.253549C18.0522 0.176049 20.8085 1.41605 23.0635 3.6673C25.261 5.86355 26.656 8.7498 26.616 11.021C26.601 11.9073 25.9572 12.6473 25.0872 12.7785C23.3897 13.0348 21.4022 13.1123 19.6435 13.1123Z" fill="#6356E5"/>
</g>
</svg>
