<svg width="33" height="33" viewBox="0 0 33 33" fill="none" xmlns="http://www.w3.org/2000/svg">
<path fill-rule="evenodd" clip-rule="evenodd" d="M16.5 28.1875C22.9446 28.1875 28.1875 22.9446 28.1875 16.5C28.1875 10.0554 22.9446 4.8125 16.5 4.8125C10.0554 4.8125 4.8125 10.0554 4.8125 16.5C4.8125 22.9446 10.0554 28.1875 16.5 28.1875ZM16.5 2.75C24.0818 2.75 30.25 8.91825 30.25 16.5C30.25 24.0818 24.0817 30.25 16.5 30.25C8.91825 30.25 2.75 24.0817 2.75 16.5C2.75 8.91825 8.91825 2.75 16.5 2.75Z" fill="#6356E5"/>
<path fill-rule="evenodd" clip-rule="evenodd" d="M16.5081 14.6114C17.0773 14.6114 17.5393 15.0734 17.5393 15.6426L17.5393 21.7188C17.5393 22.288 17.0773 22.75 16.5081 22.75C15.9388 22.75 15.4768 22.288 15.4768 21.7187L15.4768 15.6426C15.4768 15.0734 15.9388 14.6114 16.5081 14.6114Z" fill="#6356E5"/>
<path fill-rule="evenodd" clip-rule="evenodd" d="M16.4946 9.90625C17.255 9.90625 17.8765 10.5209 17.8765 11.2812C17.8765 12.0416 17.2673 12.6562 16.5083 12.6562L16.4946 12.6562C15.7342 12.6562 15.1196 12.0416 15.1196 11.2812C15.1196 10.5209 15.7342 9.90625 16.4946 9.90625Z" fill="#6356E5"/>
</svg>
