<svg width="58" height="48" viewBox="0 0 58 48" fill="none" xmlns="http://www.w3.org/2000/svg">
<path d="M0.5 8C0.5 3.58172 4.08172 0 8.5 0H49.5C53.9183 0 57.5 3.58172 57.5 8V40C57.5 44.4183 53.9183 48 49.5 48H8.5C4.08172 48 0.5 44.4183 0.5 40V8Z" fill="#11131A"/>
<path d="M33.1002 33.7333C33.4008 33.7333 33.689 33.6139 33.9016 33.4014C34.1141 33.1888 34.2335 32.9006 34.2335 32.6L34.2335 16.7333C34.2335 16.4327 34.1141 16.1445 33.9016 15.9319C33.689 15.7194 33.4008 15.6 33.1002 15.6L28.5669 15.6C27.9409 15.6 27.4335 15.0926 27.4335 14.4666C27.4335 13.8407 27.9409 13.3333 28.5669 13.3333L33.1002 13.3333C34.0019 13.3333 34.8667 13.6915 35.5044 14.3292C36.142 14.9668 36.5002 15.8316 36.5002 16.7333V32.6C36.5002 33.5017 36.142 34.3665 35.5044 35.0041C34.8667 35.6418 34.0019 36 33.1002 36H28.5669C27.9409 36 27.4335 35.4926 27.4335 34.8666C27.4335 34.2407 27.9409 33.7333 28.5669 33.7333H33.1002Z" fill="#EFF0FA"/>
<path d="M21.4349 31.1347C20.9923 31.5773 20.2747 31.5773 19.8321 31.1347L14.169 25.4716C14.157 25.4597 14.1452 25.4475 14.1338 25.4351C14.0448 25.3388 13.9757 25.2308 13.9262 25.1164C13.8666 24.9785 13.8335 24.8264 13.8335 24.6666C13.8335 24.5066 13.8667 24.3543 13.9265 24.2163C13.9755 24.1031 14.0437 23.9963 14.1313 23.9009C14.1436 23.8875 14.1562 23.8743 14.1692 23.8615L19.8321 18.1986C20.2747 17.756 20.9923 17.756 21.4349 18.1986C21.8775 18.6412 21.8775 19.3588 21.4349 19.8014L17.703 23.5333L28.5668 23.5333C29.1928 23.5333 29.7002 24.0407 29.7002 24.6666C29.7002 25.2926 29.1927 25.8 28.5668 25.8H17.703L21.4349 29.5319C21.8775 29.9745 21.8775 30.6921 21.4349 31.1347Z" fill="#EFF0FA"/>
<path d="M49.5 0V48" stroke="#272A31"/>
</svg>
