<svg width="20" height="21" viewBox="0 0 20 21" fill="none" xmlns="http://www.w3.org/2000/svg">
<path d="M18.7834 5.84998C18.6844 5.45449 18.4828 5.09212 18.1989 4.79948C17.915 4.50685 17.559 4.2943 17.1667 4.18331C15.7334 3.83331 10 3.83331 10 3.83331C10 3.83331 4.2667 3.83331 2.83336 4.21665C2.44107 4.32763 2.08501 4.54018 1.80115 4.83282C1.51729 5.12546 1.31569 5.48782 1.2167 5.88331C0.954374 7.33794 0.826059 8.81357 0.833362 10.2916C0.824012 11.7809 0.952335 13.2677 1.2167 14.7333C1.32583 15.1165 1.53195 15.4651 1.81515 15.7454C2.09835 16.0257 2.44905 16.2282 2.83336 16.3333C4.2667 16.7166 10 16.7166 10 16.7166C10 16.7166 15.7334 16.7166 17.1667 16.3333C17.559 16.2223 17.915 16.0098 18.1989 15.7171C18.4828 15.4245 18.6844 15.0621 18.7834 14.6666C19.0437 13.223 19.172 11.7586 19.1667 10.2916C19.176 8.80244 19.0477 7.31556 18.7834 5.84998V5.84998Z" stroke="white" stroke-width="1.5" stroke-linecap="round" stroke-linejoin="round"/>
<path d="M8.125 13.0167L12.9167 10.2917L8.125 7.56665V13.0167Z" stroke="white" stroke-width="1.5" stroke-linecap="round" stroke-linejoin="round"/>
</svg>
