<svg width="34" height="35" viewBox="0 0 34 35" fill="none" xmlns="http://www.w3.org/2000/svg">
<g clip-path="url(#clip0_2443_6393)">
<path d="M23.0444 3.10529C22.9667 5.20701 23.3876 7.67144 24.8204 9.29064C26.3698 11.0394 29.1269 11.5429 31.3692 11.4312C31.3918 11.5575 31.3562 11.6191 31.2931 11.7178C31.1069 12.006 30.5127 12.5064 30.2407 12.848C27.7103 16.0281 27.7265 18.9589 30.2407 22.139C30.3589 22.288 31.5197 23.4668 31.3708 23.5558C28.8436 23.4506 25.931 24.0545 24.4027 26.2469C23.5933 27.4079 23.1561 28.985 23.0477 30.3888C23.0299 30.609 23.1286 31.9676 22.9262 31.9627C22.1588 31.1644 21.3218 30.4034 20.3537 29.848C17.4072 28.1576 14.8994 28.7162 12.3414 30.7532C12.1925 30.8714 11.0139 32.0307 10.9264 31.8834C11.0559 29.2797 10.3566 26.1951 8.00904 24.7362C6.96481 24.0869 5.40412 23.6416 4.18018 23.5542C3.95676 23.538 2.51749 23.6449 2.52235 23.436C4.45216 21.6403 6.11809 19.1257 5.55468 16.3601C5.32479 15.2331 4.64968 14.0139 3.96162 13.1022C3.61354 12.6408 2.92062 12.0919 2.67777 11.7178C2.61301 11.6191 2.5774 11.5575 2.60168 11.4312C6.59568 11.5705 9.84495 10.1893 10.7241 6.01499C10.9167 5.10176 11.0495 4.01852 10.9248 3.10529C11.098 2.95146 11.7359 3.7384 11.893 3.87441C15.0224 6.55905 18.0208 7.03671 21.4238 4.43141C21.8642 4.09462 22.4001 3.41456 22.7611 3.18139C22.8599 3.11662 22.9214 3.081 23.0477 3.10529H23.0444ZM30.4804 11.917C27.8657 12.4724 25.1701 12.7638 23.2857 10.5034C21.7557 8.66563 22.1524 5.9988 22.6397 3.83393L21.5064 5.56971C18.8319 8.93927 15.479 9.051 12.6571 5.77535L11.4056 3.99585C12.003 6.75497 12.2734 9.30359 9.91133 11.2725C8.66958 12.3072 6.85472 12.4076 5.30374 12.2392C4.63349 12.1663 3.98428 11.9526 3.32212 11.8376L4.68853 12.6926C8.68739 15.5926 8.61454 19.3847 4.68853 22.2977C4.27408 22.6053 3.79648 22.8223 3.40307 23.1526C5.40898 22.5875 8.13856 22.2896 9.86924 23.6772C11.5999 25.0649 11.9593 26.961 11.7262 29.1744C11.6566 29.8432 11.4688 30.5022 11.3247 31.1563L12.6199 29.2603C15.785 25.5377 19.4098 26.3295 22.0099 30.1298L22.6381 31.158C21.9889 28.5154 21.7007 25.609 24.0547 23.7242C25.345 22.6912 27.1388 22.581 28.7302 22.7624C29.3762 22.8353 30.0011 23.0458 30.639 23.1559L28.7416 21.8605C25.5619 19.1419 25.502 15.918 28.6979 13.1719L30.4771 11.9202L30.4804 11.917Z" fill="white"/>
<path d="M6.41598 30.1299C7.54885 30.1299 8.46722 29.2114 8.46722 28.0784C8.46722 26.9454 7.54885 26.0269 6.41598 26.0269C5.28312 26.0269 4.36475 26.9454 4.36475 28.0784C4.36475 29.2114 5.28312 30.1299 6.41598 30.1299Z" fill="white"/>
<path d="M6.41113 8.97189C7.5431 8.97189 8.46074 8.05411 8.46074 6.92198C8.46074 5.78985 7.5431 4.87207 6.41113 4.87207C5.27916 4.87207 4.36151 5.78985 4.36151 6.92198C4.36151 8.05411 5.27916 8.97189 6.41113 8.97189Z" fill="white"/>
<path d="M31.9504 19.5354C33.0823 19.5354 34 18.6176 34 17.4855C34 16.3533 33.0823 15.4355 31.9504 15.4355C30.8184 15.4355 29.9008 16.3533 29.9008 17.4855C29.9008 18.6176 30.8184 19.5354 31.9504 19.5354Z" fill="white"/>
<path d="M16.9878 4.59982C18.1198 4.59982 19.0375 3.68204 19.0375 2.54991C19.0375 1.41778 18.1198 0.5 16.9878 0.5C15.8559 0.5 14.9382 1.41778 14.9382 2.54991C14.9382 3.68204 15.8559 4.59982 16.9878 4.59982Z" fill="white"/>
<path d="M2.04962 19.55C3.18159 19.55 4.09923 18.6322 4.09923 17.5001C4.09923 16.368 3.18159 15.4502 2.04962 15.4502C0.917645 15.4502 0 16.368 0 17.5001C0 18.6322 0.917645 19.55 2.04962 19.55Z" fill="white"/>
<path d="M27.563 8.96359C28.695 8.96359 29.6126 8.04581 29.6126 6.91368C29.6126 5.78155 28.695 4.86377 27.563 4.86377C26.431 4.86377 25.5134 5.78155 25.5134 6.91368C25.5134 8.04581 26.431 8.96359 27.563 8.96359Z" fill="white"/>
<path d="M27.5727 30.1154C28.7047 30.1154 29.6223 29.1977 29.6223 28.0655C29.6223 26.9334 28.7047 26.0156 27.5727 26.0156C26.4407 26.0156 25.5231 26.9334 25.5231 28.0655C25.5231 29.1977 26.4407 30.1154 27.5727 30.1154Z" fill="white"/>
<path d="M16.9992 34.5002C18.1312 34.5002 19.0488 33.5824 19.0488 32.4503C19.0488 31.3182 18.1312 30.4004 16.9992 30.4004C15.8672 30.4004 14.9496 31.3182 14.9496 32.4503C14.9496 33.5824 15.8672 34.5002 16.9992 34.5002Z" fill="white"/>
<path d="M16.996 24.5257C20.8774 24.5257 24.0239 21.3787 24.0239 17.4967C24.0239 13.6147 20.8774 10.4678 16.996 10.4678C13.1145 10.4678 9.96802 13.6147 9.96802 17.4967C9.96802 21.3787 13.1145 24.5257 16.996 24.5257Z" fill="white"/>
</g>
<defs>
<clipPath id="clip0_2443_6393">
<rect width="34" height="34" fill="white" transform="translate(0 0.5)"/>
</clipPath>
</defs>
</svg>
