<svg width="20" height="20" viewBox="0 0 20 20" fill="none" xmlns="http://www.w3.org/2000/svg">
<path fill-rule="evenodd" clip-rule="evenodd" d="M14.9056 10.122C14.599 10.122 14.3315 9.89621 14.2873 9.58371C14.2398 9.24121 14.4773 8.92538 14.8198 8.87788C15.6865 8.75621 16.3406 8.00455 16.3423 7.12788C16.3423 6.25871 15.719 5.52371 14.8598 5.38288C14.5198 5.32705 14.289 5.00538 14.3448 4.66455C14.4015 4.32371 14.7206 4.09538 15.0631 4.14955C16.5281 4.39038 17.5923 5.64371 17.5923 7.12955C17.589 8.62538 16.4715 9.90871 14.9923 10.1162C14.9631 10.1204 14.934 10.122 14.9056 10.122Z" fill="white"/>
<mask id="mask0_2579_20697" style="mask-type:luminance" maskUnits="userSpaceOnUse" x="15" y="11" width="4" height="5">
<path fill-rule="evenodd" clip-rule="evenodd" d="M15.8149 11.667H18.9766V15.4416H15.8149V11.667Z" fill="white"/>
</mask>
<g mask="url(#mask0_2579_20697)">
<path fill-rule="evenodd" clip-rule="evenodd" d="M17.3843 15.4416C17.1327 15.4416 16.8952 15.2883 16.8002 15.0391C16.6768 14.7166 16.8393 14.355 17.1618 14.2325C17.7268 14.0175 17.7268 13.78 17.7268 13.6658C17.7268 13.3008 17.2627 13.0458 16.3477 12.9091C16.0068 12.8575 15.771 12.54 15.8218 12.1975C15.8727 11.8558 16.1893 11.6283 16.5335 11.6725C18.5527 11.975 18.9768 12.9233 18.9768 13.6658C18.9768 14.1191 18.7985 14.9466 17.6068 15.4008C17.5335 15.4283 17.4585 15.4416 17.3843 15.4416Z" fill="white"/>
</g>
<path fill-rule="evenodd" clip-rule="evenodd" d="M9.90553 13.2617C7.92553 13.2617 5.5647 13.5051 5.5647 14.6634C5.5647 15.8309 7.92553 16.0759 9.90553 16.0759C11.8855 16.0759 14.2455 15.8334 14.2455 14.6776C14.2455 13.5076 11.8855 13.2617 9.90553 13.2617ZM9.90553 17.3259C8.52303 17.3259 4.3147 17.3259 4.3147 14.6634C4.3147 12.0117 8.52303 12.0117 9.90553 12.0117C11.288 12.0117 15.4955 12.0117 15.4955 14.6776C15.4955 17.3259 11.4347 17.3259 9.90553 17.3259Z" fill="white"/>
<path fill-rule="evenodd" clip-rule="evenodd" d="M9.90558 4.58301C8.49558 4.58301 7.34891 5.73051 7.34891 7.14051C7.34641 7.82384 7.60808 8.46301 8.08724 8.94551C8.56641 9.42801 9.20474 9.69551 9.88474 9.69801L9.90558 10.323V9.69801C11.3156 9.69801 12.4631 8.55134 12.4631 7.14051C12.4631 5.73051 11.3156 4.58301 9.90558 4.58301ZM9.90558 10.948H9.88308C8.86641 10.9447 7.91391 10.5463 7.20058 9.82634C6.48558 9.10717 6.09474 8.15217 6.09891 7.13801C6.09891 5.04134 7.80641 3.33301 9.90558 3.33301C12.0056 3.33301 13.7131 5.04134 13.7131 7.14051C13.7131 9.23967 12.0056 10.948 9.90558 10.948Z" fill="white"/>
<path fill-rule="evenodd" clip-rule="evenodd" d="M4.90458 10.1222C4.87625 10.1222 4.84708 10.1205 4.81792 10.1164C3.33875 9.90887 2.22208 8.62554 2.21875 7.13137C2.21875 5.64387 3.28292 4.39054 4.74792 4.1497C5.09875 4.0947 5.40958 4.32554 5.46625 4.6647C5.52208 5.00554 5.29125 5.3272 4.95125 5.38304C4.09208 5.52387 3.46875 6.25887 3.46875 7.1297C3.47042 8.0047 4.12458 8.7572 4.99042 8.87804C5.33292 8.92554 5.57042 9.24137 5.52292 9.58387C5.47875 9.89637 5.21125 10.1222 4.90458 10.1222Z" fill="white"/>
<path fill-rule="evenodd" clip-rule="evenodd" d="M2.42659 15.4424C2.35242 15.4424 2.27742 15.4291 2.20409 15.4016C1.01159 14.9466 0.833252 14.1191 0.833252 13.6666C0.833252 12.9249 1.25742 11.9758 3.27742 11.6733C3.62159 11.6299 3.93659 11.8566 3.98825 12.1983C4.03909 12.5408 3.80325 12.8583 3.46242 12.9099C2.54742 13.0466 2.08325 13.3016 2.08325 13.6666C2.08325 13.7808 2.08325 14.0174 2.64909 14.2333C2.97159 14.3558 3.13409 14.7174 3.01075 15.0399C2.91575 15.2891 2.67825 15.4424 2.42659 15.4424Z" fill="white"/>
</svg>
