<svg width="20" height="20" viewBox="0 0 20 20" fill="none" xmlns="http://www.w3.org/2000/svg">
<path fill-rule="evenodd" clip-rule="evenodd" d="M7.75798 2.48022C8.27892 1.95928 8.98546 1.66663 9.72217 1.66663C10.4589 1.66663 11.1654 1.95928 11.6864 2.48022C12.2073 3.00115 12.4999 3.70769 12.4999 4.4444V9.99996C12.4999 10.7367 12.2073 11.4432 11.6864 11.9641C11.1654 12.4851 10.4589 12.7777 9.72217 12.7777C8.98546 12.7777 8.27892 12.4851 7.75798 11.9641C7.23705 11.4432 6.94439 10.7367 6.94439 9.99996V4.4444C6.94439 3.70769 7.23705 3.00115 7.75798 2.48022ZM9.72217 3.05551C9.35381 3.05551 9.00054 3.20184 8.74008 3.46231C8.47961 3.72278 8.33328 4.07605 8.33328 4.4444V9.99996C8.33328 10.3683 8.47961 10.7216 8.74008 10.9821C9.00054 11.2425 9.35381 11.3888 9.72217 11.3888C10.0905 11.3888 10.4438 11.2425 10.7043 10.9821C10.9647 10.7216 11.1111 10.3683 11.1111 9.99996V4.4444C11.1111 4.07605 10.9647 3.72278 10.7043 3.46231C10.4438 3.20184 10.0905 3.05551 9.72217 3.05551Z" fill="#6356E5"/>
<path fill-rule="evenodd" clip-rule="evenodd" d="M4.86107 7.91663C5.2446 7.91663 5.55551 8.22754 5.55551 8.61107V9.99996C5.55551 11.105 5.9945 12.1648 6.7759 12.9462C7.5573 13.7276 8.61711 14.1666 9.72218 14.1666C10.8273 14.1666 11.8871 13.7276 12.6685 12.9462C13.4499 12.1648 13.8888 11.105 13.8888 9.99996V8.61107C13.8888 8.22754 14.1998 7.91663 14.5833 7.91663C14.9668 7.91663 15.2777 8.22754 15.2777 8.61107V9.99996C15.2777 11.4734 14.6924 12.8865 13.6506 13.9283C12.6087 14.9702 11.1956 15.5555 9.72218 15.5555C8.24876 15.5555 6.83568 14.9702 5.79381 13.9283C4.75194 12.8865 4.16663 11.4734 4.16663 9.99996V8.61107C4.16663 8.22754 4.47754 7.91663 4.86107 7.91663Z" fill="#6356E5"/>
<path fill-rule="evenodd" clip-rule="evenodd" d="M9.72218 14.1666C10.1057 14.1666 10.4166 14.4775 10.4166 14.8611V17.6388C10.4166 18.0224 10.1057 18.3333 9.72217 18.3333C9.33864 18.3333 9.02773 18.0224 9.02773 17.6388V14.8611C9.02773 14.4775 9.33865 14.1666 9.72218 14.1666Z" fill="#6356E5"/>
<path fill-rule="evenodd" clip-rule="evenodd" d="M6.24996 17.6388C6.24996 17.2553 6.56087 16.9444 6.9444 16.9444H12.5C12.8835 16.9444 13.1944 17.2553 13.1944 17.6388C13.1944 18.0223 12.8835 18.3332 12.5 18.3332H6.9444C6.56087 18.3332 6.24996 18.0223 6.24996 17.6388Z" fill="#6356E5"/>
</svg>
