<svg width="19" height="28" viewBox="0 0 19 28" fill="none" xmlns="http://www.w3.org/2000/svg">
<path fill-rule="evenodd" clip-rule="evenodd" d="M6.41292 1.96856C7.24642 1.13506 8.37688 0.666809 9.55562 0.666809C10.7344 0.666809 11.8648 1.13506 12.6983 1.96856C13.5318 2.80205 14.0001 3.93251 14.0001 5.11125V14.0001C14.0001 15.1789 13.5318 16.3093 12.6983 17.1428C11.8648 17.9763 10.7344 18.4446 9.55562 18.4446C8.37688 18.4446 7.24642 17.9763 6.41292 17.1428C5.57942 16.3093 5.11117 15.1789 5.11117 14.0001V5.11125C5.11117 3.93251 5.57942 2.80205 6.41292 1.96856ZM9.55562 2.88903C8.96625 2.88903 8.40102 3.12316 7.98427 3.5399C7.56752 3.95665 7.3334 4.52188 7.3334 5.11125V14.0001C7.3334 14.5895 7.56752 15.1547 7.98427 15.5715C8.40102 15.9882 8.96625 16.2224 9.55562 16.2224C10.145 16.2224 10.7102 15.9882 11.127 15.5715C11.5437 15.1547 11.7778 14.5895 11.7778 14.0001V5.11125C11.7778 4.52188 11.5437 3.95665 11.127 3.5399C10.7102 3.12316 10.145 2.88903 9.55562 2.88903Z" fill="#6356E5"/>
<path fill-rule="evenodd" clip-rule="evenodd" d="M1.77786 10.6668C2.39151 10.6668 2.88897 11.1643 2.88897 11.7779V14.0001C2.88897 15.7683 3.59135 17.4639 4.84159 18.7142C6.09183 19.9644 7.78753 20.6668 9.55564 20.6668C11.3237 20.6668 13.0194 19.9644 14.2697 18.7142C15.5199 17.4639 16.2223 15.7683 16.2223 14.0001V11.7779C16.2223 11.1643 16.7198 10.6668 17.3334 10.6668C17.9471 10.6668 18.4445 11.1643 18.4445 11.7779V14.0001C18.4445 16.3576 17.508 18.6185 15.841 20.2855C14.174 21.9525 11.9131 22.889 9.55564 22.889C7.19816 22.889 4.93723 21.9525 3.27024 20.2855C1.60325 18.6185 0.666748 16.3576 0.666748 14.0001V11.7779C0.666748 11.1643 1.16421 10.6668 1.77786 10.6668Z" fill="#6356E5"/>
<path fill-rule="evenodd" clip-rule="evenodd" d="M9.55564 20.6668C10.1693 20.6668 10.6667 21.1643 10.6667 21.7779V26.2224C10.6667 26.836 10.1693 27.3335 9.55562 27.3335C8.94197 27.3335 8.44451 26.836 8.44451 26.2224V21.7779C8.44451 21.1643 8.94199 20.6668 9.55564 20.6668Z" fill="#6356E5"/>
<path fill-rule="evenodd" clip-rule="evenodd" d="M4.00008 26.2223C4.00008 25.6086 4.49754 25.1112 5.11119 25.1112H14.0001C14.6137 25.1112 15.1112 25.6086 15.1112 26.2223C15.1112 26.8359 14.6137 27.3334 14.0001 27.3334H5.11119C4.49754 27.3334 4.00008 26.8359 4.00008 26.2223Z" fill="#6356E5"/>
</svg>
