<svg width="32" height="32" viewBox="0 0 32 32" fill="none" xmlns="http://www.w3.org/2000/svg">
<path fill-rule="evenodd" clip-rule="evenodd" d="M12.4127 3.96776C13.2462 3.13427 14.3766 2.66602 15.5554 2.66602C16.7341 2.66602 17.8646 3.13427 18.6981 3.96776C19.5316 4.80126 19.9998 5.93172 19.9998 7.11046V15.9993C19.9998 17.1781 19.5316 18.3085 18.6981 19.142C17.8646 19.9755 16.7341 20.4438 15.5554 20.4438C14.3766 20.4438 13.2462 19.9755 12.4127 19.142C11.5792 18.3085 11.1109 17.1781 11.1109 15.9993V7.11046C11.1109 5.93172 11.5792 4.80126 12.4127 3.96776ZM15.5554 4.88824C14.966 4.88824 14.4008 5.12236 13.984 5.53911C13.5673 5.95586 13.3332 6.52109 13.3332 7.11046V15.9993C13.3332 16.5887 13.5673 17.1539 13.984 17.5707C14.4008 17.9874 14.966 18.2216 15.5554 18.2216C16.1447 18.2216 16.71 17.9874 17.1267 17.5707C17.5435 17.1539 17.7776 16.5887 17.7776 15.9993V7.11046C17.7776 6.52109 17.5435 5.95586 17.1267 5.53911C16.71 5.12236 16.1447 4.88824 15.5554 4.88824Z" fill="white"/>
<path fill-rule="evenodd" clip-rule="evenodd" d="M7.77761 12.666C8.39126 12.666 8.88873 13.1635 8.88873 13.7771V15.9993C8.88873 17.7675 9.5911 19.4632 10.8413 20.7134C12.0916 21.9636 13.7873 22.666 15.5554 22.666C17.3235 22.666 19.0192 21.9636 20.2694 20.7134C21.5197 19.4632 22.2221 17.7675 22.2221 15.9993V13.7771C22.2221 13.1635 22.7195 12.666 23.3332 12.666C23.9468 12.666 24.4443 13.1635 24.4443 13.7771V15.9993C24.4443 18.3568 23.5078 20.6178 21.8408 22.2847C20.1738 23.9517 17.9129 24.8882 15.5554 24.8882C13.1979 24.8882 10.937 23.9517 9.27 22.2847C7.60301 20.6178 6.6665 18.3568 6.6665 15.9993V13.7771C6.6665 13.1635 7.16397 12.666 7.77761 12.666Z" fill="white"/>
<path fill-rule="evenodd" clip-rule="evenodd" d="M15.5554 22.666C16.169 22.666 16.6665 23.1635 16.6665 23.7771V28.2216C16.6665 28.8352 16.169 29.3327 15.5554 29.3327C14.9417 29.3327 14.4443 28.8352 14.4443 28.2216V23.7771C14.4443 23.1635 14.9417 22.666 15.5554 22.666Z" fill="white"/>
<path fill-rule="evenodd" clip-rule="evenodd" d="M9.99984 28.2215C9.99984 27.6078 10.4973 27.1104 11.1109 27.1104H19.9998C20.6135 27.1104 21.1109 27.6078 21.1109 28.2215C21.1109 28.8351 20.6135 29.3326 19.9998 29.3326H11.1109C10.4973 29.3326 9.99984 28.8351 9.99984 28.2215Z" fill="white"/>
</svg>
