<svg width="193" height="34" viewBox="0 0 193 34" fill="none" xmlns="http://www.w3.org/2000/svg">
<g clip-path="url(#clip0_2913_19526)">
<path d="M23.0445 2.60578C22.9668 4.7075 23.3878 7.17193 24.8206 8.79113C26.3699 10.5399 29.127 11.0434 31.3693 10.9317C31.392 11.058 31.3563 11.1195 31.2932 11.2183C31.107 11.5065 30.5129 12.0069 30.2409 12.3485C27.7104 15.5286 27.7266 18.4594 30.2409 21.6395C30.3591 21.7885 31.5199 22.9672 31.3709 23.0563C28.8437 22.951 25.9312 23.555 24.4029 25.7474C23.5934 26.9084 23.1563 28.4855 23.0478 29.8893C23.03 30.1095 23.1287 31.468 22.9264 31.4632C22.159 30.6649 21.322 29.9039 20.3538 29.3485C17.4073 27.6581 14.8995 28.2167 12.3415 30.2536C12.1926 30.3718 11.014 31.5312 10.9265 31.3839C11.0561 28.7802 10.3567 25.6956 8.00916 24.2367C6.96493 23.5874 5.40424 23.1421 4.1803 23.0547C3.95688 23.0385 2.51762 23.1453 2.52247 22.9365C4.45229 21.1408 6.11821 18.6262 5.55481 15.8606C5.32491 14.7336 4.6498 13.5143 3.96174 12.6027C3.61366 12.1413 2.92074 11.5923 2.67789 11.2183C2.61314 11.1195 2.57752 11.058 2.6018 10.9317C6.5958 11.071 9.84508 9.68978 10.7242 5.51548C10.9168 4.60225 11.0496 3.51901 10.9249 2.60578C11.0982 2.45195 11.736 3.23888 11.8931 3.3749C15.0225 6.05953 18.0209 6.5372 21.424 3.9319C21.8643 3.59511 22.4002 2.91504 22.7612 2.68188C22.86 2.61711 22.9215 2.58149 23.0478 2.60578H23.0445ZM30.4805 11.4175C27.8658 11.9729 25.1703 12.2643 23.2858 10.0039C21.7558 8.16612 22.1525 5.49929 22.6398 3.33442L21.5065 5.0702C18.832 8.43976 15.4791 8.55149 12.6572 5.27584L11.4058 3.49634C12.0032 6.25546 12.2735 8.80408 9.91146 10.773C8.6697 11.8077 6.85484 11.9081 5.30386 11.7397C4.63361 11.6668 3.9844 11.4531 3.32224 11.3381L4.68866 12.1931C8.68751 15.0931 8.61466 18.8852 4.68866 21.7982C4.2742 22.1058 3.7966 22.3228 3.40319 22.6531C5.4091 22.088 8.13868 21.7901 9.86936 23.1777C11.6 24.5654 11.9595 26.4615 11.7263 28.6749C11.6567 29.3437 11.4689 30.0027 11.3248 30.6568L12.62 28.7607C15.7851 25.0382 19.41 25.83 22.01 29.6303L22.6382 30.6584C21.989 28.0159 21.7008 25.1094 24.0548 23.2247C25.3451 22.1916 27.1389 22.0815 28.7304 22.2629C29.3763 22.3358 30.0013 22.5462 30.6391 22.6564L28.7417 21.361C25.562 18.6424 25.5021 15.4185 28.698 12.6724L30.4772 11.4207L30.4805 11.4175Z" fill="#6356E5"/>
<path d="M6.41598 29.6304C7.54885 29.6304 8.46722 28.7119 8.46722 27.5789C8.46722 26.4458 7.54885 25.5273 6.41598 25.5273C5.28312 25.5273 4.36475 26.4458 4.36475 27.5789C4.36475 28.7119 5.28312 29.6304 6.41598 29.6304Z" fill="#6356E5"/>
<path d="M6.41107 8.47091C7.54304 8.47091 8.46068 7.55314 8.46068 6.421C8.46068 5.28887 7.54304 4.37109 6.41107 4.37109C5.27909 4.37109 4.36145 5.28887 4.36145 6.421C4.36145 7.55314 5.27909 8.47091 6.41107 8.47091Z" fill="#6356E5"/>
<path d="M31.9504 19.0334C33.0823 19.0334 34 18.1156 34 16.9835C34 15.8514 33.0823 14.9336 31.9504 14.9336C30.8184 14.9336 29.9008 15.8514 29.9008 16.9835C29.9008 18.1156 30.8184 19.0334 31.9504 19.0334Z" fill="#6356E5"/>
<path d="M16.9878 4.09982C18.1198 4.09982 19.0375 3.18204 19.0375 2.04991C19.0375 0.917776 18.1198 0 16.9878 0C15.8559 0 14.9382 0.917776 14.9382 2.04991C14.9382 3.18204 15.8559 4.09982 16.9878 4.09982Z" fill="#6356E5"/>
<path d="M2.04962 19.049C3.18159 19.049 4.09923 18.1313 4.09923 16.9991C4.09923 15.867 3.18159 14.9492 2.04962 14.9492C0.917645 14.9492 0 15.867 0 16.9991C0 18.1313 0.917645 19.049 2.04962 19.049Z" fill="#6356E5"/>
<path d="M27.563 8.4631C28.695 8.4631 29.6127 7.54532 29.6127 6.41319C29.6127 5.28106 28.695 4.36328 27.563 4.36328C26.4311 4.36328 25.5134 5.28106 25.5134 6.41319C25.5134 7.54532 26.4311 8.4631 27.563 8.4631Z" fill="#6356E5"/>
<path d="M27.5727 29.6154C28.7047 29.6154 29.6223 28.6977 29.6223 27.5655C29.6223 26.4334 28.7047 25.5156 27.5727 25.5156C26.4407 25.5156 25.5231 26.4334 25.5231 27.5655C25.5231 28.6977 26.4407 29.6154 27.5727 29.6154Z" fill="#6356E5"/>
<path d="M16.9992 33.9983C18.1312 33.9983 19.0488 33.0805 19.0488 31.9483C19.0488 30.8162 18.1312 29.8984 16.9992 29.8984C15.8672 29.8984 14.9496 30.8162 14.9496 31.9483C14.9496 33.0805 15.8672 33.9983 16.9992 33.9983Z" fill="#6356E5"/>
<path d="M16.996 24.0267C20.8774 24.0267 24.0239 20.8797 24.0239 16.9977C24.0239 13.1157 20.8774 9.96875 16.996 9.96875C13.1145 9.96875 9.96802 13.1157 9.96802 16.9977C9.96802 20.8797 13.1145 24.0267 16.996 24.0267Z" fill="#6356E5"/>
</g>
<path d="M49.5 25H44.1136V7.54545H49.7386C51.4318 7.54545 52.8807 7.89489 54.0852 8.59375C55.2898 9.28693 56.2131 10.2841 56.8551 11.5852C57.4972 12.8807 57.8182 14.4318 57.8182 16.2386C57.8182 18.0568 57.4943 19.6222 56.8466 20.9347C56.1989 22.2415 55.2557 23.2472 54.017 23.9517C52.7784 24.6506 51.2727 25 49.5 25ZM46.2273 23.125H49.3636C50.8068 23.125 52.0028 22.8466 52.9517 22.2898C53.9006 21.733 54.608 20.9403 55.0739 19.9119C55.5398 18.8835 55.7727 17.6591 55.7727 16.2386C55.7727 14.8295 55.5426 13.6165 55.0824 12.5994C54.6222 11.5767 53.9347 10.7926 53.0199 10.2472C52.1051 9.69602 50.9659 9.42045 49.6023 9.42045H46.2273V23.125ZM61.0909 25V11.9091H63.1023V25H61.0909ZM62.1136 9.72727C61.7216 9.72727 61.3835 9.59375 61.0994 9.3267C60.821 9.05966 60.6818 8.73864 60.6818 8.36364C60.6818 7.98864 60.821 7.66761 61.0994 7.40057C61.3835 7.13352 61.7216 7 62.1136 7C62.5057 7 62.8409 7.13352 63.1193 7.40057C63.4034 7.66761 63.5455 7.98864 63.5455 8.36364C63.5455 8.73864 63.4034 9.05966 63.1193 9.3267C62.8409 9.59375 62.5057 9.72727 62.1136 9.72727ZM72.2749 25.2727C71.0135 25.2727 69.9254 24.9943 69.0107 24.4375C68.1016 23.875 67.3999 23.0909 66.9055 22.0852C66.4169 21.0739 66.1726 19.8977 66.1726 18.5568C66.1726 17.2159 66.4169 16.0341 66.9055 15.0114C67.3999 13.983 68.0874 13.1818 68.968 12.608C69.8544 12.0284 70.8885 11.7386 72.0703 11.7386C72.7521 11.7386 73.4254 11.8523 74.0902 12.0795C74.755 12.3068 75.3601 12.6761 75.9055 13.1875C76.451 13.6932 76.8857 14.3636 77.2095 15.1989C77.5334 16.0341 77.6953 17.0625 77.6953 18.2841V19.1364H67.6044V17.3977H75.6499C75.6499 16.6591 75.5021 16 75.2067 15.4205C74.9169 14.8409 74.5021 14.3835 73.9624 14.0483C73.4283 13.7131 72.7976 13.5455 72.0703 13.5455C71.2692 13.5455 70.576 13.7443 69.9908 14.142C69.4112 14.5341 68.9652 15.0455 68.6527 15.6761C68.3402 16.3068 68.1839 16.983 68.1839 17.7045V18.8636C68.1839 19.8523 68.3544 20.6903 68.6953 21.3778C69.0419 22.0597 69.522 22.5795 70.1357 22.9375C70.7493 23.2898 71.4624 23.4659 72.2749 23.4659C72.8033 23.4659 73.2805 23.392 73.7067 23.2443C74.1385 23.0909 74.5107 22.8636 74.8232 22.5625C75.1357 22.2557 75.3771 21.875 75.5476 21.4205L77.4908 21.9659C77.2862 22.625 76.9425 23.2045 76.4595 23.7045C75.9766 24.1989 75.38 24.5852 74.6697 24.8636C73.9595 25.1364 73.1612 25.2727 72.2749 25.2727ZM86.4482 11.9091V13.6136H79.6641V11.9091H86.4482ZM81.6413 8.77273H83.6527V21.25C83.6527 21.8182 83.7351 22.2443 83.8999 22.5284C84.0703 22.8068 84.2862 22.9943 84.5476 23.0909C84.8146 23.1818 85.0959 23.2273 85.3913 23.2273C85.6129 23.2273 85.7947 23.2159 85.9368 23.1932C86.0788 23.1648 86.1925 23.142 86.2777 23.125L86.6868 24.9318C86.5504 24.983 86.3601 25.0341 86.1158 25.0852C85.8714 25.142 85.5618 25.1705 85.1868 25.1705C84.6186 25.1705 84.0618 25.0483 83.5163 24.804C82.9766 24.5597 82.5277 24.1875 82.1697 23.6875C81.8175 23.1875 81.6413 22.5568 81.6413 21.7955V8.77273ZM90.0277 7.54545H92.5504L98.4822 22.0341H98.6868L104.619 7.54545H107.141V25H105.164V11.7386H104.994L99.5391 25H97.63L92.1754 11.7386H92.005V25H90.0277V7.54545ZM116.595 25.2727C115.334 25.2727 114.246 24.9943 113.331 24.4375C112.422 23.875 111.72 23.0909 111.226 22.0852C110.737 21.0739 110.493 19.8977 110.493 18.5568C110.493 17.2159 110.737 16.0341 111.226 15.0114C111.72 13.983 112.408 13.1818 113.288 12.608C114.175 12.0284 115.209 11.7386 116.391 11.7386C117.072 11.7386 117.746 11.8523 118.411 12.0795C119.075 12.3068 119.68 12.6761 120.226 13.1875C120.771 13.6932 121.206 14.3636 121.53 15.1989C121.854 16.0341 122.016 17.0625 122.016 18.2841V19.1364H111.925V17.3977H119.97C119.97 16.6591 119.822 16 119.527 15.4205C119.237 14.8409 118.822 14.3835 118.283 14.0483C117.749 13.7131 117.118 13.5455 116.391 13.5455C115.589 13.5455 114.896 13.7443 114.311 14.142C113.732 14.5341 113.286 15.0455 112.973 15.6761C112.661 16.3068 112.504 16.983 112.504 17.7045V18.8636C112.504 19.8523 112.675 20.6903 113.016 21.3778C113.362 22.0597 113.842 22.5795 114.456 22.9375C115.07 23.2898 115.783 23.4659 116.595 23.4659C117.124 23.4659 117.601 23.392 118.027 23.2443C118.459 23.0909 118.831 22.8636 119.143 22.5625C119.456 22.2557 119.697 21.875 119.868 21.4205L121.811 21.9659C121.607 22.625 121.263 23.2045 120.78 23.7045C120.297 24.1989 119.7 24.5852 118.99 24.8636C118.28 25.1364 117.482 25.2727 116.595 25.2727ZM130.564 25.2727C129.303 25.2727 128.214 24.9943 127.3 24.4375C126.391 23.875 125.689 23.0909 125.195 22.0852C124.706 21.0739 124.462 19.8977 124.462 18.5568C124.462 17.2159 124.706 16.0341 125.195 15.0114C125.689 13.983 126.376 13.1818 127.257 12.608C128.143 12.0284 129.178 11.7386 130.359 11.7386C131.041 11.7386 131.714 11.8523 132.379 12.0795C133.044 12.3068 133.649 12.6761 134.195 13.1875C134.74 13.6932 135.175 14.3636 135.499 15.1989C135.822 16.0341 135.984 17.0625 135.984 18.2841V19.1364H125.893V17.3977H133.939C133.939 16.6591 133.791 16 133.496 15.4205C133.206 14.8409 132.791 14.3835 132.251 14.0483C131.717 13.7131 131.087 13.5455 130.359 13.5455C129.558 13.5455 128.865 13.7443 128.28 14.142C127.7 14.5341 127.254 15.0455 126.942 15.6761C126.629 16.3068 126.473 16.983 126.473 17.7045V18.8636C126.473 19.8523 126.643 20.6903 126.984 21.3778C127.331 22.0597 127.811 22.5795 128.425 22.9375C129.038 23.2898 129.751 23.4659 130.564 23.4659C131.092 23.4659 131.57 23.392 131.996 23.2443C132.428 23.0909 132.8 22.8636 133.112 22.5625C133.425 22.2557 133.666 21.875 133.837 21.4205L135.78 21.9659C135.575 22.625 135.232 23.2045 134.749 23.7045C134.266 24.1989 133.669 24.5852 132.959 24.8636C132.249 25.1364 131.45 25.2727 130.564 25.2727ZM144.737 11.9091V13.6136H137.953V11.9091H144.737ZM139.93 8.77273H141.942V21.25C141.942 21.8182 142.024 22.2443 142.189 22.5284C142.359 22.8068 142.575 22.9943 142.837 23.0909C143.104 23.1818 143.385 23.2273 143.68 23.2273C143.902 23.2273 144.084 23.2159 144.226 23.1932C144.368 23.1648 144.482 23.142 144.567 23.125L144.976 24.9318C144.839 24.983 144.649 25.0341 144.405 25.0852C144.161 25.142 143.851 25.1705 143.476 25.1705C142.908 25.1705 142.351 25.0483 141.805 24.804C141.266 24.5597 140.817 24.1875 140.459 23.6875C140.107 23.1875 139.93 22.5568 139.93 21.7955V8.77273ZM147.763 25V11.9091H149.774V25H147.763ZM148.786 9.72727C148.393 9.72727 148.055 9.59375 147.771 9.3267C147.493 9.05966 147.354 8.73864 147.354 8.36364C147.354 7.98864 147.493 7.66761 147.771 7.40057C148.055 7.13352 148.393 7 148.786 7C149.178 7 149.513 7.13352 149.791 7.40057C150.075 7.66761 150.217 7.98864 150.217 8.36364C150.217 8.73864 150.075 9.05966 149.791 9.3267C149.513 9.59375 149.178 9.72727 148.786 9.72727ZM155.469 17.125V25H153.458V11.9091H155.401V13.9545H155.572C155.879 13.2898 156.344 12.7557 156.969 12.3523C157.594 11.9432 158.401 11.7386 159.39 11.7386C160.276 11.7386 161.052 11.9205 161.717 12.2841C162.381 12.642 162.898 13.1875 163.268 13.9205C163.637 14.6477 163.822 15.5682 163.822 16.6818V25H161.81V16.8182C161.81 15.7898 161.543 14.9886 161.009 14.4148C160.475 13.8352 159.742 13.5455 158.81 13.5455C158.168 13.5455 157.594 13.6847 157.089 13.9631C156.589 14.2415 156.194 14.6477 155.904 15.1818C155.614 15.7159 155.469 16.3636 155.469 17.125ZM172.781 30.1818C171.81 30.1818 170.974 30.0568 170.276 29.8068C169.577 29.5625 168.994 29.2386 168.528 28.8352C168.068 28.4375 167.702 28.0114 167.429 27.5568L169.031 26.4318C169.213 26.6705 169.443 26.9432 169.722 27.25C170 27.5625 170.381 27.8324 170.864 28.0597C171.352 28.2926 171.991 28.4091 172.781 28.4091C173.838 28.4091 174.71 28.1534 175.398 27.642C176.085 27.1307 176.429 26.3295 176.429 25.2386V22.5795H176.259C176.111 22.8182 175.901 23.1136 175.628 23.4659C175.361 23.8125 174.974 24.1222 174.469 24.3949C173.969 24.6619 173.293 24.7955 172.44 24.7955C171.384 24.7955 170.435 24.5455 169.594 24.0455C168.759 23.5455 168.097 22.8182 167.608 21.8636C167.125 20.9091 166.884 19.75 166.884 18.3864C166.884 17.0455 167.119 15.8778 167.591 14.8835C168.063 13.8835 168.719 13.1108 169.56 12.5653C170.401 12.0142 171.372 11.7386 172.474 11.7386C173.327 11.7386 174.003 11.8807 174.503 12.1648C175.009 12.4432 175.395 12.7614 175.662 13.1193C175.935 13.4716 176.145 13.7614 176.293 13.9886H176.497V11.9091H178.44V25.375C178.44 26.5 178.185 27.4148 177.673 28.1193C177.168 28.8295 176.486 29.3494 175.628 29.679C174.776 30.0142 173.827 30.1818 172.781 30.1818ZM172.713 22.9886C173.52 22.9886 174.202 22.804 174.759 22.4347C175.315 22.0653 175.739 21.5341 176.028 20.8409C176.318 20.1477 176.463 19.3182 176.463 18.3523C176.463 17.4091 176.321 16.5767 176.037 15.8551C175.753 15.1335 175.332 14.5682 174.776 14.1591C174.219 13.75 173.531 13.5455 172.713 13.5455C171.861 13.5455 171.151 13.7614 170.582 14.1932C170.02 14.625 169.597 15.2045 169.312 15.9318C169.034 16.6591 168.895 17.4659 168.895 18.3523C168.895 19.2614 169.037 20.0653 169.321 20.7642C169.611 21.4574 170.037 22.0028 170.599 22.4006C171.168 22.7926 171.872 22.9886 172.713 22.9886ZM191.395 14.8409L189.588 15.3523C189.474 15.0511 189.307 14.7585 189.085 14.4744C188.869 14.1847 188.574 13.946 188.199 13.7585C187.824 13.571 187.344 13.4773 186.759 13.4773C185.957 13.4773 185.29 13.6619 184.756 14.0312C184.227 14.3949 183.963 14.858 183.963 15.4205C183.963 15.9205 184.145 16.3153 184.509 16.6051C184.872 16.8949 185.44 17.1364 186.213 17.3295L188.156 17.8068C189.327 18.0909 190.199 18.5256 190.773 19.1108C191.347 19.6903 191.634 20.4375 191.634 21.3523C191.634 22.1023 191.418 22.7727 190.986 23.3636C190.56 23.9545 189.963 24.4205 189.196 24.7614C188.429 25.1023 187.537 25.2727 186.52 25.2727C185.185 25.2727 184.08 24.983 183.205 24.4034C182.33 23.8239 181.776 22.9773 181.543 21.8636L183.452 21.3864C183.634 22.0909 183.977 22.6193 184.483 22.9716C184.994 23.3239 185.662 23.5 186.486 23.5C187.423 23.5 188.168 23.3011 188.719 22.9034C189.276 22.5 189.554 22.017 189.554 21.4545C189.554 21 189.395 20.6193 189.077 20.3125C188.759 20 188.27 19.767 187.611 19.6136L185.429 19.1023C184.23 18.8182 183.349 18.3778 182.787 17.7812C182.23 17.179 181.952 16.4261 181.952 15.5227C181.952 14.7841 182.159 14.1307 182.574 13.5625C182.994 12.9943 183.565 12.5483 184.287 12.2244C185.014 11.9006 185.838 11.7386 186.759 11.7386C188.054 11.7386 189.071 12.0227 189.81 12.5909C190.554 13.1591 191.082 13.9091 191.395 14.8409Z" fill="#6356E5"/>
<defs>
<clipPath id="clip0_2913_19526">
<rect width="34" height="34" fill="white"/>
</clipPath>
</defs>
</svg>
