<svg width="33" height="33" viewBox="0 0 33 33" fill="none" xmlns="http://www.w3.org/2000/svg">
<path fill-rule="evenodd" clip-rule="evenodd" d="M15.5641 30.25L8.84586 30.25C5.48536 30.25 2.75049 27.5151 2.75049 24.1519L2.75049 8.8495C2.75049 5.48625 5.48536 2.75 8.84586 2.75L15.549 2.75C18.9122 2.75 21.6485 5.48625 21.6485 8.8495V10.131C21.6485 10.7003 21.1865 11.1623 20.6172 11.1623C20.048 11.1623 19.586 10.7003 19.586 10.131V8.8495C19.586 6.622 17.7751 4.8125 15.549 4.8125L8.84586 4.8125C6.62249 4.8125 4.81299 6.622 4.81299 8.8495L4.81299 24.1519C4.81299 26.378 6.62249 28.1875 8.84586 28.1875L15.5641 28.1875C17.7806 28.1875 19.586 26.3835 19.586 24.167V22.8704C19.586 22.3011 20.048 21.8391 20.6172 21.8391C21.1865 21.8391 21.6485 22.3011 21.6485 22.8704V24.167C21.6485 27.522 18.9177 30.25 15.5641 30.25Z" fill="#6356E5"/>
<mask id="mask0_3021_4379" style="mask-type:luminance" maskUnits="userSpaceOnUse" x="12" y="15" width="19" height="3">
<path fill-rule="evenodd" clip-rule="evenodd" d="M12.3696 15.4688L30.9884 15.4687V17.5312L12.3696 17.5312V15.4688Z" fill="white"/>
</mask>
<g mask="url(#mask0_3021_4379)">
<path fill-rule="evenodd" clip-rule="evenodd" d="M29.9573 17.5312L13.4009 17.5312C12.8316 17.5312 12.3696 17.0692 12.3696 16.5C12.3696 15.9307 12.8316 15.4688 13.4009 15.4688L29.9573 15.4687C30.5265 15.4687 30.9885 15.9307 30.9885 16.5C30.9885 17.0692 30.5265 17.5312 29.9573 17.5312Z" fill="#6356E5"/>
</g>
<mask id="mask1_3021_4379" style="mask-type:luminance" maskUnits="userSpaceOnUse" x="24" y="11" width="7" height="11">
<path fill-rule="evenodd" clip-rule="evenodd" d="M24.9009 11.4609L30.9885 11.4609V21.5407H24.9009V11.4609Z" fill="white"/>
</mask>
<g mask="url(#mask1_3021_4379)">
<path fill-rule="evenodd" clip-rule="evenodd" d="M25.9318 21.5407C25.6678 21.5407 25.4024 21.4403 25.2017 21.2368C24.8002 20.8326 24.8015 20.1808 25.2044 19.7793L28.4962 16.5L25.2044 13.222C24.8015 12.8205 24.7988 12.1687 25.2017 11.7645C25.6032 11.3602 26.2549 11.3602 26.6592 11.7617L30.6852 15.7698C30.8804 15.9623 30.989 16.2263 30.989 16.5C30.989 16.7736 30.8804 17.0376 30.6852 17.2301L26.6592 21.2396C26.4584 21.4403 26.1944 21.5407 25.9318 21.5407Z" fill="#6356E5"/>
</g>
</svg>
