<svg width="33" height="33" viewBox="0 0 33 33" fill="none" xmlns="http://www.w3.org/2000/svg">
<mask id="mask0_3021_4365" style="mask-type:luminance" maskUnits="userSpaceOnUse" x="5" y="19" width="23" height="12">
<path fill-rule="evenodd" clip-rule="evenodd" d="M5.5 19.9321L27.2799 19.9321V30.0714L5.5 30.0714L5.5 19.9321Z" fill="white"/>
</mask>
<g mask="url(#mask0_3021_4365)">
<path fill-rule="evenodd" clip-rule="evenodd" d="M16.3911 21.9946C10.5323 21.9946 7.56226 23.0011 7.56226 24.988C7.56226 26.9928 10.5323 28.0089 16.3911 28.0089C22.2486 28.0089 25.2173 27.0024 25.2173 25.0155C25.2173 23.0108 22.2486 21.9946 16.3911 21.9946ZM16.3911 30.0714C13.6975 30.0714 5.49976 30.0714 5.49976 24.988C5.49976 20.456 11.7161 19.9321 16.3911 19.9321C19.0848 19.9321 27.2798 19.9321 27.2798 25.0155C27.2798 29.5475 21.0648 30.0714 16.3911 30.0714Z" fill="#6356E5"/>
</g>
<mask id="mask1_3021_4365" style="mask-type:luminance" maskUnits="userSpaceOnUse" x="9" y="2" width="15" height="16">
<path fill-rule="evenodd" clip-rule="evenodd" d="M9.08862 2.75012L23.6912 2.75012V17.3507H9.08862L9.08862 2.75012Z" fill="white"/>
</mask>
<g mask="url(#mask1_3021_4365)">
<path fill-rule="evenodd" clip-rule="evenodd" d="M16.3913 4.71301C13.4474 4.71301 11.0522 7.10689 11.0522 10.0508C11.0425 12.985 13.4199 15.3775 16.3514 15.3885L16.3913 16.3703V15.3885C19.3338 15.3885 21.7277 12.9933 21.7277 10.0508C21.7277 7.10689 19.3338 4.71301 16.3913 4.71301ZM16.3913 17.3506H16.3473C12.3295 17.3383 9.07492 14.0616 9.08867 10.0466C9.08867 6.02476 12.3639 2.74951 16.3913 2.74951C20.4173 2.74951 23.6912 6.02476 23.6912 10.0508C23.6912 14.0768 20.4173 17.3506 16.3913 17.3506Z" fill="#6356E5"/>
</g>
</svg>
