<svg width="32" height="32" viewBox="0 0 32 32" fill="none" xmlns="http://www.w3.org/2000/svg">
<path d="M23.0573 7.05719C23.578 6.53649 24.4223 6.53649 24.943 7.05719C25.4636 7.5779 25.4637 8.42229 24.943 8.94293L17.8854 15.9996L24.943 23.0572C25.4636 23.5779 25.4637 24.4223 24.943 24.9429C24.4224 25.4636 23.578 25.4635 23.0573 24.9429L15.9997 17.8853L8.94301 24.9429C8.42237 25.4636 7.57798 25.4635 7.05727 24.9429C6.53657 24.4222 6.53657 23.5779 7.05727 23.0572L14.1139 15.9996L7.05727 8.94293C6.53657 8.42224 6.53657 7.57789 7.05727 7.05719C7.57797 6.53649 8.42232 6.53649 8.94301 7.05719L15.9997 14.1138L23.0573 7.05719Z" fill="#6356E5"/>
</svg>
