<svg width="101" height="100" viewBox="0 0 101 100" fill="none" xmlns="http://www.w3.org/2000/svg">
<rect x="0.5" width="100" height="100" rx="50" fill="url(#paint0_linear_3028_3944)"/>
<path fill-rule="evenodd" clip-rule="evenodd" d="M50.0289 28.2551C50.6376 28.0818 51.2797 28.0817 51.8883 28.2544C53.1822 28.6216 54.4879 28.9621 55.798 29.3038C61.9501 30.9083 68.1981 32.5379 73.7569 37.0654L76.3167 39.1504C77.3551 39.9961 77.8745 41.248 77.875 42.5V60C77.875 61.0355 77.0355 61.875 76 61.875C74.9645 61.875 74.125 61.0355 74.125 60V47.6417L73.7177 47.9741C71.7915 49.5459 69.7819 50.7664 67.7221 51.7571C67.8205 51.9849 67.875 52.2361 67.875 52.5V63.2348C67.875 66.068 66.1369 68.6111 63.4972 69.6402L53.4972 73.5389C51.8913 74.165 50.1087 74.165 48.5028 73.5389L38.5028 69.6402C35.8631 68.6111 34.125 66.068 34.125 63.2348V52.5C34.125 52.2294 34.1823 51.9723 34.2855 51.7399C32.2096 50.7433 30.1843 49.5156 28.2431 47.9346L25.6833 45.8496C23.6066 44.1582 23.6055 40.8423 25.6804 39.1492L28.2823 37.0259C33.8009 32.5226 40.0048 30.9028 46.1113 29.3084C47.4243 28.9656 48.7327 28.6239 50.0289 28.2551ZM74.125 42.5015C74.1249 42.2763 74.0339 42.1275 73.9485 42.058L71.3887 39.973C66 36.25 61.1984 34.608 55.0997 33.0054C53.7588 32.653 52.3798 32.2906 50.9599 31.889C49.5337 32.2936 48.1497 32.6577 46.8043 33.0116C40.7545 34.6032 35.4831 35.99 30.6532 39.9313L28.0513 42.0546C27.9658 42.1243 27.8749 42.2733 27.875 42.4985C27.8751 42.7237 27.9661 42.8724 28.0515 42.942L30.6113 45.027C35.4821 48.9942 40.8016 50.392 46.9003 51.9946C48.2413 52.347 49.6202 52.7093 51.0401 53.111C52.4662 52.7065 53.85 52.3424 55.1954 51.9885C61.2452 50.3969 66.5169 49.01 71.3468 45.0687L73.9487 42.9454C74.0341 42.8757 74.1249 42.7263 74.125 42.5015ZM55.8887 55.6916C58.6382 54.9737 61.4074 54.2507 64.125 53.2616V63.2348C64.125 64.5226 63.335 65.6786 62.1351 66.1464L52.1351 70.045C51.4051 70.3296 50.5949 70.3296 49.8649 70.045L39.8649 66.1464C38.665 65.6786 37.875 64.5226 37.875 63.2348V53.2404C40.6219 54.2408 43.4217 54.9711 46.2019 55.6962C47.5121 56.0379 48.8178 56.3784 50.1117 56.7456C50.7203 56.9183 51.3624 56.9182 51.9711 56.7449C53.2672 56.3761 54.5758 56.0344 55.8887 55.6916Z" fill="white"/>
<defs>
<linearGradient id="paint0_linear_3028_3944" x1="5.78339" y1="150.645" x2="123.459" y2="133.284" gradientUnits="userSpaceOnUse">
<stop stop-color="#4D3FE2"/>
<stop offset="1" stop-color="#796EE9"/>
</linearGradient>
</defs>
</svg>
