<svg width="19" height="28" viewBox="0 0 19 28" fill="none" xmlns="http://www.w3.org/2000/svg">
<path fill-rule="evenodd" clip-rule="evenodd" d="M6.41268 1.96843C7.24617 1.13494 8.37663 0.666687 9.55537 0.666687C10.7341 0.666687 11.8646 1.13494 12.6981 1.96843C13.5316 2.80193 13.9998 3.93239 13.9998 5.11113V14C13.9998 15.1788 13.5316 16.3092 12.6981 17.1427C11.8646 17.9762 10.7341 18.4445 9.55537 18.4445C8.37663 18.4445 7.24617 17.9762 6.41268 17.1427C5.57918 16.3092 5.11093 15.1788 5.11093 14V5.11113C5.11093 3.93239 5.57918 2.80193 6.41268 1.96843ZM9.55537 2.88891C8.966 2.88891 8.40077 3.12304 7.98402 3.53978C7.56728 3.95653 7.33315 4.52176 7.33315 5.11113V14C7.33315 14.5894 7.56728 15.1546 7.98402 15.5714C8.40077 15.9881 8.966 16.2222 9.55537 16.2222C10.1447 16.2222 10.71 15.9881 11.1267 15.5714C11.5435 15.1546 11.7776 14.5894 11.7776 14V5.11113C11.7776 4.52176 11.5435 3.95653 11.1267 3.53978C10.71 3.12304 10.1447 2.88891 9.55537 2.88891Z" fill="white"/>
<path fill-rule="evenodd" clip-rule="evenodd" d="M1.77761 10.6667C2.39126 10.6667 2.88873 11.1641 2.88873 11.7778V14C2.88873 15.7681 3.5911 17.4638 4.84135 18.7141C6.09159 19.9643 7.78728 20.6667 9.55539 20.6667C11.3235 20.6667 13.0192 19.9643 14.2694 18.7141C15.5197 17.4638 16.2221 15.7681 16.2221 14V11.7778C16.2221 11.1641 16.7195 10.6667 17.3332 10.6667C17.9468 10.6667 18.4443 11.1641 18.4443 11.7778V14C18.4443 16.3575 17.5078 18.6184 15.8408 20.2854C14.1738 21.9524 11.9129 22.8889 9.55539 22.8889C7.19791 22.8889 4.93699 21.9524 3.27 20.2854C1.60301 18.6184 0.666504 16.3575 0.666504 14V11.7778C0.666504 11.1641 1.16397 10.6667 1.77761 10.6667Z" fill="white"/>
<path fill-rule="evenodd" clip-rule="evenodd" d="M9.55539 20.6667C10.169 20.6667 10.6665 21.1641 10.6665 21.7778V26.2222C10.6665 26.8359 10.169 27.3334 9.55537 27.3334C8.94172 27.3334 8.44426 26.8359 8.44426 26.2222V21.7778C8.44426 21.1641 8.94174 20.6667 9.55539 20.6667Z" fill="white"/>
<path fill-rule="evenodd" clip-rule="evenodd" d="M3.99984 26.2222C3.99984 25.6085 4.4973 25.1111 5.11095 25.1111H13.9998C14.6135 25.1111 15.1109 25.6085 15.1109 26.2222C15.1109 26.8358 14.6135 27.3333 13.9998 27.3333H5.11095C4.4973 27.3333 3.99984 26.8358 3.99984 26.2222Z" fill="white"/>
</svg>
