<svg width="28" height="28" viewBox="0 0 28 28" fill="none" xmlns="http://www.w3.org/2000/svg">
<path fill-rule="evenodd" clip-rule="evenodd" d="M0.991694 0.991694C1.42512 0.55827 2.12526 0.55827 2.55869 0.991694L11.3602 9.79321C11.395 9.82064 11.4285 9.85041 11.4606 9.8825L17.1506 15.5726C17.1824 15.6043 17.2118 15.6375 17.2389 15.672L20.0953 18.5283C20.1789 18.5757 20.2576 18.6351 20.3291 18.7065C20.4016 18.7791 20.4623 18.8591 20.5111 18.9441L27.0082 25.4412C27.4416 25.8747 27.4416 26.5748 27.0082 27.0082C26.5748 27.4416 25.8747 27.4416 25.4412 27.0082L19.4779 21.0449C18.3948 21.8946 17.1278 22.4849 15.7726 22.7629C15.5549 22.8076 15.3362 22.844 15.1169 22.8722V25.1077H18.4509C19.0621 25.1077 19.5622 25.6078 19.5622 26.2191C19.5622 26.8303 19.0621 27.3304 18.4509 27.3304H14.024C14.0179 27.3305 14.0117 27.3306 14.0055 27.3306C13.9994 27.3306 13.9932 27.3305 13.9871 27.3304H9.56013C8.94889 27.3304 8.44878 26.8414 8.44878 26.2191C8.44878 25.6078 8.94889 25.1077 9.56013 25.1077H12.8942V22.8783C12.1093 22.7816 11.3357 22.5798 10.5937 22.274C8.96002 21.596 7.55973 20.4514 6.58175 18.9733C5.61488 17.4952 5.10366 15.7615 5.11477 13.9945V11.7718C5.11477 11.1605 5.61488 10.6604 6.22612 10.6604C6.83736 10.6604 7.33746 11.1605 7.33746 11.7718V14.0056C7.32635 15.3392 7.71532 16.6394 8.4488 17.7397C9.18229 18.8399 10.2381 19.7068 11.4605 20.218C12.1706 20.5122 12.9175 20.6776 13.6715 20.7141C13.777 20.6806 13.8893 20.6625 14.0055 20.6625C14.1205 20.6625 14.2315 20.6802 14.336 20.713C14.6716 20.6956 15.0068 20.6529 15.3391 20.5847C16.2654 20.3947 17.1353 20.0129 17.8965 19.4635L16.2609 17.8279C15.8342 18.0783 15.3659 18.256 14.8724 18.3509C14.5834 18.4176 14.2945 18.4398 14.0055 18.4398C13.4276 18.4398 12.8497 18.3287 12.3052 18.0953C11.4939 17.7619 10.8049 17.1951 10.3159 16.4616C9.81577 15.7393 9.56017 14.8835 9.56017 14.0056V11.1272L0.991694 2.55869C0.55827 2.12526 0.55827 1.42512 0.991694 0.991694ZM14.5742 16.1412L11.7941 13.3611L11.7829 13.3499V13.9945C11.7829 14.439 11.9162 14.8613 12.1607 15.2281C12.4052 15.5948 12.7497 15.8726 13.1609 16.0504C13.561 16.2172 14.0055 16.2616 14.439 16.1727C14.4809 16.1622 14.5229 16.1517 14.5742 16.1412Z" fill="#6356E5"/>
<path d="M17.3396 12.1496C16.7283 12.1496 16.2282 11.6495 16.2282 11.0383V5.10372C16.2282 4.54805 16.0282 4.02572 15.6503 3.61453C15.2836 3.20333 14.7724 2.94772 14.2278 2.89215C13.6832 2.83659 13.1276 2.98106 12.683 3.31446C12.2385 3.63675 11.9384 4.12574 11.8273 4.65919C11.7051 5.25931 11.116 5.64828 10.5159 5.52604C9.91579 5.40379 9.52682 4.82589 9.64907 4.22576C9.87134 3.14776 10.4826 2.19201 11.3717 1.53632C12.2607 0.880623 13.361 0.580561 14.4612 0.691695C15.5614 0.802829 16.5727 1.31405 17.3173 2.13644C18.0397 2.94772 18.4509 4.0035 18.4509 5.11484V11.0494C18.4509 11.6606 17.9508 12.1496 17.3396 12.1496Z" fill="#6356E5"/>
<path d="M22.8963 11.7718C22.8963 11.1605 22.3962 10.6604 21.7849 10.6604C21.1737 10.6604 20.6736 11.1605 20.6736 11.7718V13.9945C20.6736 14.3945 20.6402 14.7835 20.5624 15.1725C20.4513 15.7726 20.8625 16.3505 21.4626 16.4616C22.0627 16.5728 22.6406 16.1616 22.7518 15.5614C22.8518 15.0391 22.8963 14.5168 22.8963 13.9945V11.7718Z" fill="#6356E5"/>
</svg>
