<svg width="20" height="20" viewBox="0 0 20 20" fill="none" xmlns="http://www.w3.org/2000/svg">
<path fill-rule="evenodd" clip-rule="evenodd" d="M10.0443 3.44059C9.95943 3.44059 9.87534 3.45732 9.79688 3.48982C9.71843 3.52232 9.64714 3.56995 9.58709 3.63C9.52704 3.69004 9.47941 3.76133 9.44691 3.83979C9.41441 3.91824 9.39769 4.00233 9.39769 4.08725V6.6924C9.39769 6.69276 9.39769 6.69312 9.39769 6.69348C9.39769 6.69355 9.39769 6.69362 9.39769 6.69369C9.39757 6.95339 9.18698 7.16384 8.92729 7.16378C8.66759 7.16372 8.45709 6.95318 8.45709 6.69348V6.69327C8.45709 6.69302 8.45709 6.69276 8.45709 6.6925C8.45705 6.59907 8.44181 6.22597 8.41075 5.84944C8.39528 5.66194 8.37664 5.48327 8.35558 5.34434C8.34497 5.27431 8.3349 5.22222 8.32631 5.18763C8.32612 5.18685 8.32593 5.18609 8.32574 5.18534C8.25661 5.09415 8.16435 5.02274 8.05822 4.97872C7.9401 4.92971 7.81009 4.91684 7.68465 4.94171C7.5592 4.96659 7.44395 5.02811 7.35346 5.11848C7.16969 5.30203 6.87191 5.30184 6.68836 5.11807C6.50482 4.93429 6.505 4.63651 6.68878 4.45297C6.91088 4.23114 7.19377 4.08015 7.50168 4.01909C7.80959 3.95802 8.12869 3.98963 8.41864 4.10992C8.43154 4.11527 8.44436 4.12079 8.45709 4.12647V4.08725C8.45709 3.87881 8.49815 3.67241 8.57792 3.47984C8.65768 3.28726 8.7746 3.11229 8.92199 2.9649C9.06938 2.81751 9.24436 2.70059 9.43693 2.62082C9.62951 2.54106 9.83591 2.5 10.0443 2.5C10.2528 2.5 10.4592 2.54106 10.6518 2.62082C10.8443 2.70059 11.0193 2.81751 11.1667 2.9649C11.3141 3.11229 11.431 3.28726 11.5108 3.47984C11.5905 3.67241 11.6316 3.87881 11.6316 4.08725V4.12697C11.8332 4.03705 12.0533 3.98927 12.2783 3.98927C12.6992 3.98927 13.1029 4.1565 13.4006 4.45417C13.6983 4.75184 13.8655 5.15556 13.8655 5.57653V5.61625C14.0671 5.52632 14.2872 5.47855 14.5122 5.47855C14.9331 5.47855 15.3369 5.64578 15.6345 5.94344C15.9322 6.24111 16.0994 6.64483 16.0994 7.0658V13.3952C16.0994 14.1827 15.9113 14.9509 15.56 15.6395L16.7063 16.7858C16.89 16.9695 16.89 17.2673 16.7063 17.4509C16.5227 17.6346 16.2249 17.6346 16.0412 17.4509L15.0408 16.4505C14.9209 16.6028 14.7915 16.7486 14.6531 16.887C13.727 17.8131 12.471 18.3333 11.1613 18.3333H9.67203C9.6505 18.3333 9.629 18.3319 9.60768 18.3289C7.91601 18.0952 6.4157 17.2077 5.55476 15.8858C5.54601 15.8723 5.53795 15.8585 5.53061 15.8442L3.53536 11.9645C3.28094 11.5977 3.17734 11.1463 3.24713 10.7043C3.31895 10.2495 3.56853 9.84178 3.94095 9.57092C4.31337 9.30007 4.77814 9.18825 5.233 9.26008C5.61359 9.32017 5.96116 9.5047 6.22318 9.78152V7.63292L2.63775 4.04748C2.45408 3.86382 2.45408 3.56605 2.63775 3.38238C2.82141 3.19872 3.11918 3.19872 3.30285 3.38238L14.8519 14.9314C15.0526 14.4492 15.1588 13.9277 15.1588 13.3952V7.0658C15.1588 6.8943 15.0907 6.72982 14.9694 6.60854C14.8482 6.48727 14.6837 6.41914 14.5122 6.41914C14.3407 6.41914 14.1762 6.48727 14.0549 6.60854C13.9341 6.72934 13.866 6.893 13.8655 7.06377C13.8655 7.06445 13.8655 7.06512 13.8655 7.0658L13.8655 11.1613C13.8655 11.421 13.655 11.6316 13.3952 11.6316C13.1355 11.6316 12.9249 11.421 12.9249 11.1613L12.9249 7.06755C12.9249 7.06697 12.9249 7.06638 12.9249 7.0658C12.9249 7.06474 12.9249 7.06368 12.9249 7.06262L12.9249 5.57653C12.9249 5.40502 12.8568 5.24054 12.7355 5.11927C12.6142 4.998 12.4498 4.92987 12.2783 4.92987C12.1344 4.92987 11.9955 4.97779 11.8829 5.06479C11.8806 5.07501 11.8782 5.08665 11.8756 5.09984C11.8562 5.19765 11.8361 5.33866 11.8164 5.51658C11.7773 5.86994 11.7435 6.33118 11.7158 6.80212C11.6604 7.74615 11.6316 8.69318 11.6316 8.82747C11.6316 9.0872 11.421 9.29776 11.1613 9.29776C10.9016 9.29776 10.691 9.0872 10.691 8.82747V4.08725C10.691 4.00233 10.6743 3.91824 10.6418 3.83979C10.6093 3.76133 10.5617 3.69004 10.5016 3.63C10.4416 3.56995 10.3703 3.52232 10.2918 3.48982C10.2134 3.45732 10.1293 3.44059 10.0443 3.44059ZM11.8969 5.01078C11.9013 4.99722 11.9018 4.99974 11.8964 5.01217C11.8966 5.01168 11.8967 5.01122 11.8969 5.01078ZM14.3699 15.7796L9.29734 10.7071C9.21123 10.8166 9.07753 10.887 8.92739 10.887C8.66765 10.887 8.45709 10.6764 8.45709 10.4167V9.86683L7.16378 8.57351V11.5336C7.16378 11.7934 6.95322 12.0039 6.69348 12.0039C6.6877 12.0039 6.68195 12.0038 6.67622 12.0036C6.49873 12.011 6.32461 11.9171 6.23802 11.7487L5.58635 10.4816C5.46258 10.325 5.28418 10.2204 5.0863 10.1892C4.87785 10.1562 4.66485 10.2075 4.49418 10.3316C4.3235 10.4557 4.20913 10.6426 4.17621 10.851C4.1433 11.0595 4.19454 11.2725 4.31867 11.4432C4.33286 11.4627 4.34552 11.4832 4.35655 11.5047L6.35575 15.392C7.047 16.4395 8.2708 17.1863 9.70501 17.3927H11.1613C12.2215 17.3927 13.2383 16.9716 13.988 16.2219C14.1267 16.0831 14.2542 15.9352 14.3699 15.7796ZM8.31856 5.16047C8.31858 5.16041 8.319 5.16153 8.31979 5.16397C8.31893 5.16174 8.31854 5.16052 8.31856 5.16047Z" fill="#6356E5"/>
</svg>
