<svg width="15" height="18" viewBox="0 0 15 18" fill="none" xmlns="http://www.w3.org/2000/svg">
<path d="M7 0.666748C7.46024 0.666748 7.83333 1.03984 7.83333 1.50008V2.12508H8.29784C9.26897 2.12508 10.1524 2.52054 10.7903 3.16308C10.8828 3.25627 10.877 3.40587 10.7841 3.49872L10.2588 4.02404C10.1536 4.12925 9.98097 4.1188 9.87428 4.01509C9.46587 3.61811 8.90879 3.37508 8.29784 3.37508H5.70215C4.50798 3.37508 3.51962 4.30356 3.44508 5.4954L3.26091 8.43994C3.17641 9.79089 2.72287 11.0928 1.94966 12.2038C1.90768 12.2641 1.90911 12.3661 1.85738 12.4183L1.25088 13.0304C1.15292 13.1292 0.990804 13.1299 0.91317 13.0144C0.620208 12.5785 0.582926 11.9793 0.92367 11.4897C1.56622 10.5665 1.94313 9.48458 2.01335 8.36191L2.19751 5.41737C2.31326 3.56676 3.84793 2.12508 5.70215 2.12508H6.16667V1.50008C6.16667 1.03984 6.53976 0.666748 7 0.666748Z" fill="#6356E5"/>
<path fill-rule="evenodd" clip-rule="evenodd" d="M11.8219 5.72867L14.5253 3.02535C14.7694 2.78127 14.7694 2.38554 14.5253 2.14146C14.2812 1.89739 13.8855 1.89739 13.6414 2.14146L0.308058 15.4748C0.0639806 15.7189 0.0639806 16.1146 0.308058 16.3587C0.552136 16.6028 0.947864 16.6028 1.19194 16.3587L3.73011 13.8205L4.70833 13.9379V14.8334C4.70833 16.0991 5.73434 17.1251 7 17.1251C8.26565 17.1251 9.29166 16.0991 9.29166 14.8334V13.9379L12.1309 13.5972C13.14 13.4761 13.6569 12.3239 13.0763 11.4897C12.4338 10.5665 12.0569 9.48458 11.9866 8.36191L11.8219 5.72867ZM10.6432 6.90739L4.85419 12.6964L5.13271 12.7299C6.37312 12.8787 7.62688 12.8787 8.86728 12.7299L11.982 12.3561C12.0549 12.3473 12.0923 12.2641 12.0503 12.2038C11.2771 11.0928 10.8236 9.79089 10.7391 8.43994L10.6432 6.90739ZM7 15.8751C6.4247 15.8751 5.95833 15.4087 5.95833 14.8334V14.2084H8.04166V14.8334C8.04166 15.4087 7.57529 15.8751 7 15.8751Z" fill="#6356E5"/>
</svg>
