<svg width="20" height="21" viewBox="0 0 20 21" fill="none" xmlns="http://www.w3.org/2000/svg">
<path fill-rule="evenodd" clip-rule="evenodd" d="M10.8333 3.00033C10.8333 2.54009 10.4602 2.16699 9.99999 2.16699C9.53975 2.16699 9.16666 2.54009 9.16666 3.00033V3.62533H8.70214C6.84792 3.62533 5.31325 5.067 5.1975 6.91761L5.01333 9.86216C4.94312 10.9848 4.56621 12.0667 3.92366 12.99C3.34309 13.8242 3.85994 14.9763 4.86905 15.0974L7.70832 15.4381V16.3337C7.70832 17.5993 8.73434 18.6253 9.99999 18.6253C11.2656 18.6253 12.2917 17.5993 12.2917 16.3337V15.4381L15.1309 15.0974C16.14 14.9763 16.6569 13.8242 16.0763 12.99C15.4338 12.0667 15.0569 10.9848 14.9866 9.86216L14.8025 6.91761C14.6867 5.067 13.1521 3.62533 11.2978 3.62533H10.8333V3.00033ZM8.70214 4.87533C7.50797 4.87533 6.51961 5.8038 6.44507 6.99564L6.2609 9.94019C6.1764 11.2911 5.72285 12.593 4.94965 13.704C4.90769 13.7643 4.94504 13.8476 5.01798 13.8563L8.1327 14.2301C9.37311 14.379 10.6269 14.379 11.8673 14.2301L14.982 13.8563C15.0549 13.8476 15.0923 13.7643 15.0503 13.704C14.2771 12.593 13.8236 11.2911 13.7391 9.94019L13.5549 6.99564C13.4804 5.8038 12.492 4.87533 11.2978 4.87533H8.70214ZM9.99999 17.3753C9.42469 17.3753 8.95832 16.909 8.95832 16.3337V15.7087H11.0417V16.3337C11.0417 16.909 10.5753 17.3753 9.99999 17.3753Z" fill="white"/>
</svg>
