<svg width="24" height="24" viewBox="0 0 24 24" fill="none" xmlns="http://www.w3.org/2000/svg">
<mask id="mask0_2579_20718" style="mask-type:luminance" maskUnits="userSpaceOnUse" x="3" y="1" width="19" height="18">
<path fill-rule="evenodd" clip-rule="evenodd" d="M3 1H21.4969V18.348H3V1Z" fill="white"/>
</mask>
<g mask="url(#mask0_2579_20718)">
<path fill-rule="evenodd" clip-rule="evenodd" d="M12.247 2.5C8.75201 2.5 6.31601 5.238 6.31601 7.695C6.31601 9.774 5.73901 10.735 5.22901 11.583C4.82001 12.264 4.49701 12.802 4.49701 13.971C4.66401 15.857 5.90901 16.848 12.247 16.848C18.55 16.848 19.834 15.813 20 13.906C19.997 12.802 19.674 12.264 19.265 11.583C18.755 10.735 18.178 9.774 18.178 7.695C18.178 5.238 15.742 2.5 12.247 2.5ZM12.247 18.348C7.57101 18.348 3.34501 18.018 3.00001 14.035C2.99701 12.387 3.50001 11.549 3.94401 10.811C4.39301 10.063 4.81601 9.358 4.81601 7.695C4.81601 4.462 7.80201 1 12.247 1C16.692 1 19.678 4.462 19.678 7.695C19.678 9.358 20.101 10.063 20.55 10.811C20.994 11.549 21.497 12.387 21.497 13.971C21.148 18.018 16.923 18.348 12.247 18.348Z" fill="#6356E5"/>
</g>
<path fill-rule="evenodd" clip-rule="evenodd" d="M12.1983 22.4996H12.1963C11.0753 22.4986 10.0143 22.0046 9.20927 21.1076C8.93227 20.8006 8.95727 20.3256 9.26527 20.0496C9.57327 19.7716 10.0473 19.7966 10.3243 20.1056C10.8423 20.6826 11.5073 20.9996 12.1973 20.9996H12.1983C12.8913 20.9996 13.5593 20.6826 14.0783 20.1046C14.3563 19.7976 14.8303 19.7726 15.1373 20.0496C15.4453 20.3266 15.4703 20.8016 15.1933 21.1086C14.3853 22.0056 13.3223 22.4996 12.1983 22.4996Z" fill="#6356E5"/>
</svg>
