<svg width="35" height="35" viewBox="0 0 35 35" fill="none" xmlns="http://www.w3.org/2000/svg">
<path fill-rule="evenodd" clip-rule="evenodd" d="M26.0849 17.7136C25.5482 17.7136 25.0801 17.3184 25.0028 16.7716C24.9196 16.1722 25.3353 15.6195 25.9346 15.5364C27.4513 15.3234 28.5961 14.008 28.599 12.4739C28.599 10.9528 27.5082 9.66656 26.0046 9.4201C25.4096 9.32239 25.0057 8.75948 25.1034 8.16302C25.2026 7.56656 25.7611 7.16698 26.3605 7.26177C28.9242 7.68323 30.7865 9.87656 30.7865 12.4768C30.7807 15.0945 28.8251 17.3403 26.2365 17.7034C26.1855 17.7107 26.1344 17.7136 26.0849 17.7136Z" fill="#6356E5"/>
<mask id="mask0_3341_2673" style="mask-type:luminance" maskUnits="userSpaceOnUse" x="27" y="20" width="7" height="8">
<path fill-rule="evenodd" clip-rule="evenodd" d="M27.6777 20.419H33.2106V27.0246H27.6777V20.419Z" fill="white"/>
</mask>
<g mask="url(#mask0_3341_2673)">
<path fill-rule="evenodd" clip-rule="evenodd" d="M30.4242 27.0246C29.9838 27.0246 29.5681 26.7563 29.4019 26.3203C29.186 25.7559 29.4704 25.123 30.0348 24.9086C31.0235 24.5323 31.0235 24.1167 31.0235 23.9169C31.0235 23.2782 30.2113 22.8319 28.61 22.5928C28.0135 22.5023 27.6008 21.9467 27.6898 21.3473C27.7788 20.7494 28.3329 20.3513 28.9352 20.4286C32.4688 20.958 33.211 22.6175 33.211 23.9169C33.211 24.7103 32.899 26.1584 30.8135 26.9532C30.6852 27.0013 30.554 27.0246 30.4242 27.0246Z" fill="#6356E5"/>
</g>
<path fill-rule="evenodd" clip-rule="evenodd" d="M17.3347 23.2079C13.8697 23.2079 9.73828 23.6337 9.73828 25.6608C9.73828 27.7039 13.8697 28.1327 17.3347 28.1327C20.7997 28.1327 24.9297 27.7083 24.9297 25.6856C24.9297 23.6381 20.7997 23.2079 17.3347 23.2079ZM17.3347 30.3202C14.9154 30.3202 7.55078 30.3202 7.55078 25.6608C7.55078 21.0204 14.9154 21.0204 17.3347 21.0204C19.7541 21.0204 27.1172 21.0204 27.1172 25.6856C27.1172 30.3202 20.0108 30.3202 17.3347 30.3202Z" fill="#6356E5"/>
<path fill-rule="evenodd" clip-rule="evenodd" d="M17.3356 8.02081C14.8681 8.02081 12.8614 10.0289 12.8614 12.4964C12.857 13.6923 13.3149 14.8108 14.1535 15.6552C14.992 16.4996 16.1091 16.9677 17.2991 16.9721L17.3356 18.0658V16.9721C19.8031 16.9721 21.8112 14.9654 21.8112 12.4964C21.8112 10.0289 19.8031 8.02081 17.3356 8.02081ZM17.3356 19.1596H17.2962C15.517 19.1537 13.8501 18.4566 12.6018 17.1966C11.3506 15.9381 10.6666 14.2669 10.6739 12.4921C10.6739 8.8229 13.662 5.83331 17.3356 5.83331C21.0106 5.83331 23.9987 8.8229 23.9987 12.4964C23.9987 16.17 21.0106 19.1596 17.3356 19.1596Z" fill="#6356E5"/>
<path fill-rule="evenodd" clip-rule="evenodd" d="M8.58497 17.7136C8.53539 17.7136 8.48435 17.7107 8.43331 17.7034C5.84477 17.3403 3.8906 15.0944 3.88477 12.4797C3.88477 9.87653 5.74706 7.6832 8.31081 7.26174C8.92477 7.16549 9.46872 7.56945 9.56789 8.16299C9.6656 8.75945 9.26164 9.32236 8.66664 9.42007C7.1631 9.66653 6.07227 10.9528 6.07227 12.4767C6.07518 14.008 7.21997 15.3249 8.73518 15.5363C9.33456 15.6194 9.75018 16.1722 9.66706 16.7715C9.58977 17.3184 9.12164 17.7136 8.58497 17.7136Z" fill="#6356E5"/>
<path fill-rule="evenodd" clip-rule="evenodd" d="M4.24732 27.0246C4.11753 27.0246 3.98628 27.0013 3.85794 26.9532C1.77107 26.1569 1.45898 24.7088 1.45898 23.9169C1.45898 22.619 2.20128 20.958 5.73628 20.4286C6.33857 20.3528 6.88982 20.7494 6.98023 21.3473C7.06919 21.9467 6.65648 22.5023 6.06003 22.5928C4.45878 22.8319 3.64648 23.2782 3.64648 23.9169C3.64648 24.1167 3.64648 24.5309 4.63669 24.9086C5.20107 25.123 5.48544 25.7559 5.26961 26.3203C5.10336 26.7563 4.68773 27.0246 4.24732 27.0246Z" fill="#6356E5"/>
</svg>
