<svg width="35" height="36" viewBox="0 0 35 36" fill="none" xmlns="http://www.w3.org/2000/svg">
<path fill-rule="evenodd" clip-rule="evenodd" d="M16.9329 5.31544C17.288 5.21438 17.6625 5.21429 18.0175 5.31505C18.7723 5.52923 19.534 5.72789 20.2982 5.92721C23.8869 6.86318 27.5316 7.81376 30.7742 10.4548L32.2674 11.6711C32.8731 12.1644 33.1761 12.8946 33.1764 13.625V23.8333C33.1764 24.4374 32.6867 24.9271 32.0827 24.9271C31.4786 24.9271 30.9889 24.4374 30.9889 23.8333V16.6243L30.7513 16.8182C29.6277 17.7351 28.4555 18.447 27.2539 19.025C27.3113 19.1579 27.3431 19.3044 27.3431 19.4583V25.7203C27.3431 27.373 26.3292 28.8565 24.7894 29.4568L18.9561 31.731C18.0193 32.0962 16.9794 32.0962 16.0426 31.731L10.2093 29.4568C8.66946 28.8565 7.6556 27.373 7.6556 25.7203V19.4583C7.6556 19.3005 7.68903 19.1505 7.7492 19.0149C6.53827 18.4336 5.35687 17.7174 4.2245 16.7951L2.73125 15.5789C1.51987 14.5923 1.51923 12.658 2.72956 11.6703L4.24736 10.4318C7.46655 7.80482 11.0855 6.85993 14.6476 5.92986C15.4135 5.7299 16.1768 5.53061 16.9329 5.31544ZM30.9889 13.6258C30.9889 13.4945 30.9358 13.4077 30.886 13.3672L29.3927 12.1509C26.2493 9.97915 23.4484 9.0213 19.8909 8.08646C19.1086 7.8809 18.3042 7.66952 17.476 7.43521C16.644 7.67122 15.8367 7.88361 15.0518 8.09009C11.5228 9.01852 8.44781 9.82749 5.63038 12.1266L4.11258 13.3652C4.06272 13.4058 4.00971 13.4927 4.00977 13.6241C4.00982 13.7555 4.0629 13.8422 4.1127 13.8828L5.60595 15.099C8.44725 17.4132 11.5503 18.2287 15.1078 19.1635C15.8901 19.3691 16.6944 19.5804 17.5227 19.8147C18.3546 19.5788 19.1619 19.3664 19.9467 19.1599C23.4757 18.2315 26.5509 17.4225 29.3683 15.1234L30.8861 13.8848C30.9359 13.8442 30.9889 13.757 30.9889 13.6258ZM20.3511 21.3201C21.955 20.9013 23.5704 20.4795 25.1556 19.9026V25.7203C25.1556 26.4715 24.6947 27.1458 23.9948 27.4187L18.1615 29.6929C17.7357 29.8589 17.263 29.8589 16.8372 29.6929L11.0039 27.4187C10.3039 27.1458 9.8431 26.4715 9.8431 25.7203V19.8902C11.4455 20.4738 13.0787 20.8998 14.7005 21.3227C15.4647 21.5221 16.2264 21.7207 16.9812 21.9349C17.3362 22.0357 17.7107 22.0356 18.0658 21.9345C18.8219 21.7194 19.5852 21.52 20.3511 21.3201Z" fill="#6356E5"/>
</svg>
