<svg width="32" height="32" viewBox="0 0 32 32" fill="none" xmlns="http://www.w3.org/2000/svg">
<path d="M16.5332 18.1338C17.9477 18.1338 19.3045 18.6951 20.3047 19.6953C21.3049 20.6955 21.8662 22.0523 21.8662 23.4668V25.5996C21.8662 26.1887 21.3889 26.667 20.7998 26.667C20.2108 26.6669 19.7334 26.1887 19.7334 25.5996V23.4668C19.7334 22.6181 19.396 21.8042 18.7959 21.2041C18.1958 20.604 17.3819 20.2666 16.5332 20.2666H8C7.15131 20.2666 6.33742 20.604 5.7373 21.2041C5.13724 21.8042 4.7998 22.6181 4.7998 23.4668V25.5996C4.7998 26.1887 4.32247 26.667 3.7334 26.667C3.14429 26.667 2.66699 26.1887 2.66699 25.5996V23.4668C2.66699 22.0523 3.22837 20.6955 4.22852 19.6953C5.22871 18.6951 6.58551 18.1338 8 18.1338H16.5332ZM22.9668 19.0723C23.1141 18.5019 23.6962 18.1585 24.2666 18.3057C25.4107 18.6011 26.4245 19.2683 27.1484 20.2021C27.8724 21.1361 28.2657 22.2842 28.2666 23.4658V25.5996C28.2666 26.1886 27.7892 26.6669 27.2002 26.667C26.6111 26.667 26.1338 26.1887 26.1338 25.5996V23.4678C26.1332 22.7591 25.897 22.07 25.4629 21.5098C25.0285 20.9494 24.4199 20.5483 23.7334 20.3711C23.1631 20.2238 22.8197 19.6426 22.9668 19.0723ZM12.2666 5.33301C15.2121 5.33301 17.5996 7.72147 17.5996 10.667C17.5994 13.6124 15.212 16 12.2666 16C9.32123 16 6.93377 13.6123 6.93359 10.667C6.93359 7.7215 9.32112 5.33305 12.2666 5.33301ZM18.7002 6.27441C18.8463 5.70372 19.4274 5.35876 19.998 5.50488C21.1451 5.79858 22.1616 6.46611 22.8877 7.40137C23.6138 8.33682 24.0088 9.48768 24.0088 10.6719C24.0088 11.8561 23.6138 13.0069 22.8877 13.9424C22.1616 14.8777 21.1451 15.5452 19.998 15.8389C19.4275 15.9849 18.8465 15.6407 18.7002 15.0703C18.5541 14.4996 18.8981 13.9176 19.4688 13.7715C20.157 13.5952 20.7675 13.195 21.2031 12.6338C21.6386 12.0726 21.875 11.3823 21.875 10.6719C21.875 9.96146 21.6387 9.27119 21.2031 8.70996C20.7675 8.14869 20.1571 7.74852 19.4688 7.57227C18.8982 7.42617 18.5543 6.84501 18.7002 6.27441ZM12.2666 7.4668C10.4993 7.46684 9.06641 8.89971 9.06641 10.667C9.06658 12.4341 10.4994 13.8662 12.2666 13.8662C14.0338 13.8662 15.4666 12.4342 15.4668 10.667C15.4668 8.89968 14.0339 7.4668 12.2666 7.4668Z" fill="#EFF0FA"/>
</svg>
