<svg width="15" height="15" viewBox="0 0 15 15" fill="none" xmlns="http://www.w3.org/2000/svg">
<path fill-rule="evenodd" clip-rule="evenodd" d="M10.5766 6.37504C10.3179 6.37504 10.1079 6.16504 10.1079 5.90629V4.56441C10.1079 3.25441 9.04223 2.18879 7.73223 2.18879H7.72223C7.0891 2.18879 6.49598 2.43254 6.04785 2.87691C5.5966 3.32316 5.34723 3.91879 5.34473 4.55379V5.90629C5.34473 6.16504 5.13473 6.37504 4.87598 6.37504C4.61723 6.37504 4.40723 6.16504 4.40723 5.90629V4.56441C4.41098 3.66441 4.7591 2.83379 5.38723 2.21129C6.01598 1.58816 6.84598 1.22754 7.7341 1.25129C9.5591 1.25129 11.0454 2.73754 11.0454 4.56441V5.90629C11.0454 6.16504 10.8354 6.37504 10.5766 6.37504Z" fill="#8E8E8E"/>
<path fill-rule="evenodd" clip-rule="evenodd" d="M5.33875 6.33051C4.29 6.33051 3.4375 7.18301 3.4375 8.23176V10.9124C3.4375 11.9611 4.29 12.8136 5.33875 12.8136H10.1144C11.1625 12.8136 12.0156 11.9611 12.0156 10.9124V8.23176C12.0156 7.18301 11.1625 6.33051 10.1144 6.33051H5.33875ZM10.1144 13.7511H5.33875C3.77312 13.7511 2.5 12.478 2.5 10.9124V8.23176C2.5 6.66613 3.77312 5.39301 5.33875 5.39301H10.1144C11.68 5.39301 12.9531 6.66613 12.9531 8.23176V10.9124C12.9531 12.478 11.68 13.7511 10.1144 13.7511Z" fill="#8E8E8E"/>
<path fill-rule="evenodd" clip-rule="evenodd" d="M7.72656 10.7347C7.46781 10.7347 7.25781 10.5247 7.25781 10.266V8.87787C7.25781 8.61912 7.46781 8.40912 7.72656 8.40912C7.98531 8.40912 8.19531 8.61912 8.19531 8.87787V10.266C8.19531 10.5247 7.98531 10.7347 7.72656 10.7347Z" fill="#8E8E8E"/>
</svg>
