<svg width="20" height="20" viewBox="0 0 20 20" fill="none" xmlns="http://www.w3.org/2000/svg">
<path fill-rule="evenodd" clip-rule="evenodd" d="M17.2927 18.2832L11.2485 18.2832C10.9035 18.2832 10.6235 18.0032 10.6235 17.6582C10.6235 17.3132 10.9035 17.0332 11.2485 17.0332L17.2927 17.0332C17.6377 17.0332 17.9177 17.3132 17.9177 17.6582C17.9177 18.0032 17.6377 18.2832 17.2927 18.2832Z" fill="#6356E5"/>
<mask id="mask0_3659_43595" style="mask-type:luminance" maskUnits="userSpaceOnUse" x="1" y="2" width="15" height="17">
<path fill-rule="evenodd" clip-rule="evenodd" d="M1.66699 2.5L15.9841 2.5L15.9842 18.2829L1.66699 18.283L1.66699 2.5Z" fill="white"/>
</mask>
<g mask="url(#mask0_3659_43595)">
<path fill-rule="evenodd" clip-rule="evenodd" d="M10.9256 4.18053L3.07972 13.993C2.93722 14.1714 2.88472 14.4014 2.93722 14.6222L3.50472 17.0264L6.03722 16.9947C6.27806 16.9922 6.50056 16.8847 6.64806 16.7014C9.32889 13.3472 14.4397 6.9522 14.5847 6.7647C14.7214 6.54303 14.7747 6.2297 14.7031 5.92803C14.6297 5.61887 14.4372 5.35637 14.1597 5.18887C14.1006 5.14803 12.6964 4.05803 12.6531 4.02387C12.1247 3.60053 11.3539 3.67387 10.9256 4.18053ZM3.01139 18.283C2.72222 18.283 2.47056 18.0847 2.40306 17.8022L1.72056 14.9097C1.57972 14.3105 1.71972 13.6922 2.10389 13.2122L9.95389 3.39387C9.95722 3.39053 9.95972 3.38637 9.96306 3.38303C10.8239 2.35387 12.3806 2.2022 13.4306 3.0447C13.4722 3.0772 14.8664 4.16053 14.8664 4.16053C15.3731 4.4622 15.7689 5.00137 15.9189 5.6397C16.0681 6.27137 15.9597 6.92303 15.6122 7.47387C15.5864 7.5147 15.5639 7.5497 7.62389 17.483C7.24139 17.9597 6.66806 18.2372 6.05222 18.2447L3.01972 18.283L3.01139 18.283Z" fill="#6356E5"/>
</g>
<path fill-rule="evenodd" clip-rule="evenodd" d="M13.5198 9.73747C13.3865 9.73747 13.2532 9.69497 13.139 9.6083L8.59568 6.1183C8.32234 5.9083 8.27068 5.51664 8.48068 5.24164C8.69151 4.9683 9.08318 4.91747 9.35734 5.12747L13.9015 8.61664C14.1748 8.82664 14.2265 9.21914 14.0157 9.4933C13.8932 9.6533 13.7073 9.73747 13.5198 9.73747Z" fill="#6356E5"/>
</svg>
