<svg width="20" height="20" viewBox="0 0 20 20" fill="none" xmlns="http://www.w3.org/2000/svg">
<path fill-rule="evenodd" clip-rule="evenodd" d="M6.01369 13.3357C5.88036 13.3357 5.74619 13.2932 5.63286 13.2066C5.35953 12.9957 5.30786 12.6032 5.51869 12.3299L8.01286 9.08822C8.11453 8.95572 8.26536 8.86989 8.43036 8.84906C8.5987 8.82739 8.7637 8.87406 8.89453 8.97822L11.2445 10.8241L13.3004 8.17156C13.512 7.89739 13.9037 7.84656 14.177 8.05989C14.4504 8.27156 14.5004 8.66406 14.2887 8.93656L11.847 12.0866C11.7454 12.2182 11.5954 12.3041 11.4304 12.3241C11.2637 12.3466 11.0987 12.2982 10.967 12.1957L8.6187 10.3507L6.50953 13.0916C6.38619 13.2516 6.20119 13.3357 6.01369 13.3357Z" fill="#6356E5"/>
<mask id="mask0_4359_11699" style="mask-type:luminance" maskUnits="userSpaceOnUse" x="14" y="1" width="5" height="6">
<path fill-rule="evenodd" clip-rule="evenodd" d="M14.4128 1.66675H18.8662V6.12083H14.4128V1.66675Z" fill="white"/>
</mask>
<g mask="url(#mask0_4359_11699)">
<path fill-rule="evenodd" clip-rule="evenodd" d="M16.6395 2.91675C16.1012 2.91675 15.6628 3.35425 15.6628 3.89341C15.6628 4.43175 16.1012 4.87091 16.6395 4.87091C17.1778 4.87091 17.6162 4.43175 17.6162 3.89341C17.6162 3.35425 17.1778 2.91675 16.6395 2.91675ZM16.6395 6.12091C15.412 6.12091 14.4128 5.12175 14.4128 3.89341C14.4128 2.66508 15.412 1.66675 16.6395 1.66675C17.8678 1.66675 18.8662 2.66508 18.8662 3.89341C18.8662 5.12175 17.8678 6.12091 16.6395 6.12091Z" fill="#6356E5"/>
</g>
<mask id="mask1_4359_11699" style="mask-type:luminance" maskUnits="userSpaceOnUse" x="1" y="2" width="18" height="17">
<path fill-rule="evenodd" clip-rule="evenodd" d="M1.66675 2.36853H18.2183V18.9194H1.66675V2.36853Z" fill="white"/>
</mask>
<g mask="url(#mask1_4359_11699)">
<path fill-rule="evenodd" clip-rule="evenodd" d="M13.5273 18.9194H6.35734C3.5515 18.9194 1.6665 16.9485 1.6665 14.0152V7.2802C1.6665 4.3427 3.5515 2.36853 6.35734 2.36853H12.414C12.759 2.36853 13.039 2.64853 13.039 2.99353C13.039 3.33853 12.759 3.61853 12.414 3.61853H6.35734C4.26734 3.61853 2.9165 5.0552 2.9165 7.2802V14.0152C2.9165 16.2694 4.23484 17.6694 6.35734 17.6694H13.5273C15.6173 17.6694 16.9682 16.2352 16.9682 14.0152V8.14936C16.9682 7.80436 17.2482 7.52436 17.5932 7.52436C17.9382 7.52436 18.2182 7.80436 18.2182 8.14936V14.0152C18.2182 16.9485 16.3332 18.9194 13.5273 18.9194Z" fill="#6356E5"/>
</g>
</svg>
