<svg width="26" height="17" viewBox="0 0 26 17" fill="none" xmlns="http://www.w3.org/2000/svg">
<path fill-rule="evenodd" clip-rule="evenodd" d="M17.9444 6.39353V3.16679C17.9444 1.41789 16.5267 0.00012207 14.7778 0.00012207H3.16667C1.41777 0.00012207 0 1.41789 0 3.16679V13.7223C0 15.4712 1.41777 16.889 3.16667 16.889H14.7778C16.5267 16.889 17.9444 15.4712 17.9444 13.7223V10.4958L23.6642 14.5814C23.986 14.8112 24.4092 14.8419 24.7608 14.661C25.1124 14.4801 25.3333 14.1179 25.3333 13.7225V3.1669C25.3333 2.7715 25.1124 2.40926 24.7608 2.22833C24.4092 2.0474 23.986 2.07813 23.6642 2.30795L17.9444 6.39353ZM2.11111 3.16679C2.11111 2.58382 2.5837 2.11123 3.16667 2.11123H14.7778C15.3607 2.11123 15.8333 2.58382 15.8333 3.16679V13.7223C15.8333 14.3053 15.3607 14.7779 14.7778 14.7779H3.16667C2.5837 14.7779 2.11111 14.3053 2.11111 13.7223V3.16679ZM23.2222 11.6713L18.7049 8.44468L23.2222 5.21804V11.6713Z" fill="#6356E5"/>
</svg>
