<svg width="20" height="20" viewBox="0 0 20 20" fill="none" xmlns="http://www.w3.org/2000/svg">
<path fill-rule="evenodd" clip-rule="evenodd" d="M10.0506 12.6795C10.9506 13.0409 11.8779 13.4091 13.0301 13.4091C15.246 13.4091 16.0915 12.6727 16.2415 12.5295C16.3642 12.4 16.4392 12.2295 16.4392 12.0455V3.86364C16.4392 3.59773 16.2756 3.36591 16.0301 3.25C15.7915 3.14091 15.4983 3.18864 15.2938 3.36591C15.287 3.37273 14.6938 3.86364 13.0301 3.86364C12.1403 3.86364 11.3791 3.55914 10.5644 3.23326L10.5551 3.22955C9.65514 2.86818 8.72787 2.5 7.5756 2.5C5.35969 2.5 4.51423 3.23636 4.36423 3.37955C4.2415 3.50909 4.1665 3.67955 4.1665 3.86364V12.0455C4.1665 12.0454 4.1665 12.0455 4.1665 12.0455V16.8182C4.1665 17.1932 4.47332 17.5 4.84832 17.5C5.22332 17.5 5.53014 17.1932 5.53014 16.8182V12.4121C5.83033 12.2646 6.46402 12.0455 7.5756 12.0455C8.46539 12.0455 9.22663 12.35 10.0413 12.6758L10.0506 12.6795ZM10.5551 11.4114C9.65514 11.05 8.72787 10.6818 7.5756 10.6818C6.68923 10.6818 6.02105 10.7977 5.53014 10.9477V4.23182C5.83014 4.08182 6.46423 3.86364 7.5756 3.86364C8.46539 3.86364 9.22662 4.16813 10.0413 4.49401L10.0506 4.49773C10.9506 4.85909 11.8779 5.22727 13.0301 5.22727C13.9165 5.22727 14.5847 5.11136 15.0756 4.96136V11.6773C14.7756 11.8273 14.1415 12.0455 13.0301 12.0455C12.1403 12.0455 11.3791 11.741 10.5644 11.4151L10.5551 11.4114Z" fill="#6356E5"/>
</svg>
