<svg width="20" height="21" viewBox="0 0 20 21" fill="none" xmlns="http://www.w3.org/2000/svg">
<path fill-rule="evenodd" clip-rule="evenodd" d="M9.99996 3.41669C6.09413 3.41669 2.91663 6.59419 2.91663 10.5C2.91663 14.4059 6.09413 17.5834 9.99996 17.5834C13.9058 17.5834 17.0833 14.4059 17.0833 10.5C17.0833 6.59419 13.9058 3.41669 9.99996 3.41669ZM9.99996 18.8334C5.40496 18.8334 1.66663 15.095 1.66663 10.5C1.66663 5.90502 5.40496 2.16669 9.99996 2.16669C14.595 2.16669 18.3333 5.90502 18.3333 10.5C18.3333 15.095 14.595 18.8334 9.99996 18.8334Z" fill="#6356E5"/>
<path fill-rule="evenodd" clip-rule="evenodd" d="M9.995 11.6442C9.65 11.6442 9.37 11.3642 9.37 11.0192V7.33667C9.37 6.99167 9.65 6.71167 9.995 6.71167C10.34 6.71167 10.62 6.99167 10.62 7.33667V11.0192C10.62 11.3642 10.34 11.6442 9.995 11.6442Z" fill="#6356E5"/>
<path fill-rule="evenodd" clip-rule="evenodd" d="M10.0031 14.4966C9.54232 14.4966 9.16565 14.1241 9.16565 13.6633C9.16565 13.2025 9.53482 12.83 9.99482 12.83H10.0031C10.464 12.83 10.8365 13.2025 10.8365 13.6633C10.8365 14.1241 10.464 14.4966 10.0031 14.4966Z" fill="#6356E5"/>
</svg>
