<svg width="42" height="42" viewBox="0 0 42 42" fill="none" xmlns="http://www.w3.org/2000/svg">
<mask id="mask0_4427_65216" style="mask-type:luminance" maskUnits="userSpaceOnUse" x="3" y="5" width="36" height="33">
<path fill-rule="evenodd" clip-rule="evenodd" d="M3.5 5.25H38.524V37.0746H3.5V5.25Z" fill="white"/>
</mask>
<g mask="url(#mask0_4427_65216)">
<path fill-rule="evenodd" clip-rule="evenodd" d="M21.0222 7.875C20.1892 7.875 19.4472 8.3055 19.0307 9.02825L6.43422 31.017C6.02472 31.7345 6.02822 32.5903 6.44297 33.306C6.85772 34.0217 7.59972 34.4505 8.42747 34.4505H33.5977C34.4237 34.4505 35.1657 34.0217 35.5805 33.306C35.997 32.5903 36.0005 31.7345 35.5875 31.017L23.0137 9.02825C22.599 8.3055 21.857 7.875 21.0222 7.875ZM33.5977 37.0755H8.42747C6.65297 37.0755 5.06222 36.1585 4.17147 34.622C3.28072 33.0873 3.27547 31.2515 4.15572 29.7132L16.7557 7.72275C17.6412 6.174 19.2355 5.25 21.0222 5.25H21.024C22.809 5.25 24.4067 6.17575 25.2922 7.72625L37.8677 29.7132C38.748 31.2515 38.7427 33.0873 37.852 34.622C36.9612 36.1585 35.3705 37.0755 33.5977 37.0755Z" fill="#E63946"/>
</g>
<path fill-rule="evenodd" clip-rule="evenodd" d="M21.0068 24.787C20.2823 24.787 19.6943 24.199 19.6943 23.4745V18.0495C19.6943 17.325 20.2823 16.737 21.0068 16.737C21.7313 16.737 22.3193 17.325 22.3193 18.0495V23.4745C22.3193 24.199 21.7313 24.787 21.0068 24.787Z" fill="#E63946"/>
<path fill-rule="evenodd" clip-rule="evenodd" d="M21.0103 30.6232C20.0426 30.6232 19.2516 29.841 19.2516 28.8732C19.2516 27.9055 20.0268 27.1232 20.9928 27.1232H21.0103C21.9781 27.1232 22.7603 27.9055 22.7603 28.8732C22.7603 29.841 21.9781 30.6232 21.0103 30.6232Z" fill="#E63946"/>
</svg>
