<svg width="29" height="29" viewBox="0 0 29 29" fill="none" xmlns="http://www.w3.org/2000/svg">
<path fill-rule="evenodd" clip-rule="evenodd" d="M14.5 2.8125C8.05538 2.8125 2.8125 8.05538 2.8125 14.5C2.8125 20.9446 8.05538 26.1875 14.5 26.1875C20.9446 26.1875 26.1875 20.9446 26.1875 14.5C26.1875 8.05538 20.9446 2.8125 14.5 2.8125ZM14.5 28.25C6.91825 28.25 0.75 22.0817 0.75 14.5C0.75 6.91825 6.91825 0.75 14.5 0.75C22.0817 0.75 28.25 6.91825 28.25 14.5C28.25 22.0817 22.0817 28.25 14.5 28.25Z" fill="#E63946"/>
<path fill-rule="evenodd" clip-rule="evenodd" d="M14.4919 16.3879C13.9227 16.3879 13.4607 15.9259 13.4607 15.3566L13.4607 9.28049C13.4607 8.71124 13.9227 8.24924 14.4919 8.24924C15.0612 8.24924 15.5232 8.71124 15.5232 9.28049L15.5232 15.3566C15.5232 15.9259 15.0612 16.3879 14.4919 16.3879Z" fill="#E63946"/>
<path fill-rule="evenodd" clip-rule="evenodd" d="M14.5054 21.0944C13.745 21.0944 13.1235 20.4797 13.1235 19.7194C13.1235 18.959 13.7327 18.3444 14.4917 18.3444H14.5054C15.2658 18.3444 15.8804 18.959 15.8804 19.7194C15.8804 20.4797 15.2658 21.0944 14.5054 21.0944Z" fill="#E63946"/>
</svg>
