<svg width="92" height="67" viewBox="0 0 92 67" fill="none" xmlns="http://www.w3.org/2000/svg">
<path d="M31 0.5H63C67.1421 0.5 70.5 3.85786 70.5 8V40C70.5 44.1421 67.1421 47.5 63 47.5H31C26.8579 47.5 23.5 44.1421 23.5 40V8C23.5 3.85786 26.8579 0.5 31 0.5Z" stroke="#272A31"/>
<path fill-rule="evenodd" clip-rule="evenodd" d="M47.7894 13.6223C47.6624 13.6223 47.5366 13.6473 47.4192 13.696C47.3019 13.7446 47.1953 13.8158 47.1055 13.9056C47.0157 13.9954 46.9444 14.102 46.8958 14.2194C46.8472 14.3367 46.8222 14.4625 46.8222 14.5895V24.6667C46.8222 25.1147 46.459 25.4778 46.011 25.4778C45.563 25.4778 45.1999 25.1147 45.1999 24.6667V16.9606C45.1999 16.7041 45.098 16.4581 44.9166 16.2767C44.7352 16.0953 44.4892 15.9934 44.2327 15.9934C43.9762 15.9934 43.7302 16.0953 43.5488 16.2767C43.3674 16.4581 43.2656 16.7041 43.2656 16.9606L43.2656 25.8522C43.2656 26.1803 43.0679 26.4761 42.7648 26.6016C42.4617 26.7272 42.1128 26.6578 41.8808 26.4258L40.1384 24.6834C39.9173 24.4626 39.6284 24.3218 39.3183 24.2837C39.0081 24.2456 38.694 24.3122 38.4259 24.4731C38.2099 24.6026 38.0527 24.8114 37.9881 25.0549C37.9236 25.2984 37.9566 25.5574 38.0801 25.7769C40.3166 29.7525 41.5972 31.9833 41.9485 32.5228C42.0249 32.6404 42.1021 32.7586 42.1791 32.8758C42.7531 33.7471 43.5345 34.4623 44.4531 34.9571C45.3713 35.4518 46.3979 35.7108 47.4409 35.711C47.4416 35.711 47.4423 35.711 47.443 35.711H49.5677C51.2391 35.711 52.8421 35.047 54.024 33.8652C55.2059 32.6833 55.8698 31.0803 55.8698 29.4089V19.3317C55.8698 19.0752 55.7679 18.8292 55.5865 18.6478C55.4052 18.4664 55.1592 18.3645 54.9027 18.3645C54.6462 18.3645 54.4002 18.4664 54.2188 18.6478C54.0382 18.8284 53.9364 19.073 53.9355 19.3283C53.9355 19.3295 53.9355 19.3306 53.9355 19.3317V24.6667C53.9355 25.1147 53.5723 25.4778 53.1243 25.4778C52.6763 25.4778 52.3132 25.1147 52.3132 24.6667V19.3317C52.3132 19.3299 52.3132 19.328 52.3132 19.3262L52.3132 16.9606C52.3132 16.7041 52.2113 16.4581 52.0299 16.2767C51.8485 16.0953 51.6025 15.9934 51.346 15.9934C51.0895 15.9934 50.8435 16.0953 50.6621 16.2767C50.4956 16.4432 50.3961 16.6643 50.3809 16.8979C50.3823 16.8757 50.3823 16.9138 50.382 17.0354C50.3819 17.075 50.3818 17.1236 50.3817 17.1819L50.3792 20.9353L50.3791 20.9707L50.3791 20.9745L50.3789 20.9856C50.3789 20.9857 50.3789 20.9856 50.3789 20.9856L50.3789 24.6667C50.3789 25.1147 50.0157 25.4778 49.5677 25.4778C49.1197 25.4778 48.7565 25.1147 48.7565 24.6667V14.5895C48.7565 14.4625 48.7315 14.3367 48.6829 14.2194C48.6343 14.102 48.5631 13.9954 48.4732 13.9056C48.3834 13.8158 48.2768 13.7446 48.1595 13.696C48.0421 13.6473 47.9164 13.6223 47.7894 13.6223ZM50.3791 20.9591C50.3791 20.961 50.3791 20.9608 50.3791 20.9591V20.9591ZM50.3787 14.5586C50.3747 14.229 50.3079 13.9032 50.1817 13.5985C50.0516 13.2844 49.8609 12.9989 49.6204 12.7584C49.38 12.518 49.0945 12.3272 48.7803 12.1971C48.4661 12.067 48.1294 12 47.7894 12C47.4493 12 47.1126 12.067 46.7984 12.1971C46.4842 12.3272 46.1988 12.518 45.9583 12.7584C45.7179 12.9989 45.5271 13.2844 45.397 13.5985C45.2708 13.9032 45.204 14.229 45.2001 14.5586C44.8955 14.4359 44.5674 14.3711 44.2327 14.3711C43.5459 14.3711 42.8873 14.6439 42.4017 15.1295C41.916 15.6152 41.6432 16.2738 41.6432 16.9606L41.6432 23.8939L41.2852 23.5359C40.8082 23.0594 40.1853 22.7556 39.5161 22.6734C38.847 22.5913 38.1696 22.735 37.5915 23.0818M50.3787 14.5586C50.6833 14.4359 51.0113 14.3711 51.346 14.3711C52.0328 14.3711 52.6914 14.6439 53.1771 15.1295C53.6554 15.6079 53.9273 16.2541 53.9353 16.9297C54.2399 16.807 54.5679 16.7422 54.9027 16.7422C55.5894 16.7422 56.2481 17.015 56.7337 17.5006C57.2193 17.9863 57.4922 18.6449 57.4922 19.3317V29.4089C57.4922 31.5106 56.6573 33.5262 55.1711 35.0123C53.685 36.4984 51.6694 37.3333 49.5677 37.3333H47.4433C47.4433 37.3333 47.4434 37.3333 47.4433 37.3333H47.1966C47.1572 37.3333 47.1184 37.3305 47.0805 37.3251C45.8936 37.2709 44.7324 36.9504 43.6837 36.3854C42.5283 35.763 41.5456 34.8634 40.8237 33.7673C40.7452 33.6478 40.6665 33.5274 40.5886 33.4074C40.1996 32.8099 38.8839 30.5146 36.6662 26.5724C36.3355 25.9847 36.2471 25.2911 36.42 24.6392C36.5927 23.9874 37.0132 23.4286 37.5915 23.0818" fill="#EFF0FA"/>
<path d="M0.141585 64V55.2727H3.09045C3.77227 55.2727 4.33193 55.3892 4.76943 55.6222C5.20693 55.8523 5.53079 56.169 5.74102 56.5724C5.95124 56.9759 6.05636 57.4347 6.05636 57.9489C6.05636 58.4631 5.95124 58.919 5.74102 59.3168C5.53079 59.7145 5.20835 60.027 4.77369 60.2543C4.33903 60.4787 3.78363 60.5909 3.10749 60.5909H0.72113V59.6364H3.0734C3.53931 59.6364 3.91431 59.5682 4.1984 59.4318C4.48533 59.2955 4.69272 59.1023 4.82056 58.8523C4.95124 58.5994 5.01658 58.2983 5.01658 57.9489C5.01658 57.5994 4.95124 57.294 4.82056 57.0327C4.68988 56.7713 4.48107 56.5696 4.19414 56.4276C3.90721 56.2827 3.52795 56.2102 3.05636 56.2102H1.1984V64H0.141585ZM4.24954 60.0795L6.39727 64H5.16999L3.05636 60.0795H4.24954ZM10.755 64.1364C10.1243 64.1364 9.58029 63.9972 9.12291 63.7188C8.66836 63.4375 8.31751 63.0455 8.07035 62.5426C7.82603 62.0369 7.70387 61.4489 7.70387 60.7784C7.70387 60.108 7.82603 59.517 8.07035 59.0057C8.31751 58.4915 8.66126 58.0909 9.1016 57.804C9.54478 57.5142 10.0618 57.3693 10.6527 57.3693C10.9936 57.3693 11.3303 57.4261 11.6627 57.5398C11.9951 57.6534 12.2976 57.8381 12.5703 58.0938C12.8431 58.3466 13.0604 58.6818 13.2223 59.0994C13.3843 59.517 13.4652 60.0312 13.4652 60.642V61.0682H8.41978V60.1989H12.4425C12.4425 59.8295 12.3686 59.5 12.2209 59.2102C12.076 58.9205 11.8686 58.6918 11.5988 58.5241C11.3317 58.3565 11.0164 58.2727 10.6527 58.2727C10.2522 58.2727 9.90558 58.3722 9.61296 58.571C9.32319 58.767 9.10018 59.0227 8.94393 59.3381C8.78768 59.6534 8.70955 59.9915 8.70955 60.3523V60.9318C8.70955 61.4261 8.79478 61.8452 8.96523 62.1889C9.13853 62.5298 9.37859 62.7898 9.68541 62.9688C9.99222 63.1449 10.3488 63.233 10.755 63.233C11.0192 63.233 11.2578 63.196 11.4709 63.1222C11.6868 63.0455 11.8729 62.9318 12.0292 62.7812C12.1854 62.6278 12.3061 62.4375 12.3914 62.2102L13.363 62.483C13.2607 62.8125 13.0888 63.1023 12.8473 63.3523C12.6059 63.5994 12.3076 63.7926 11.9525 63.9318C11.5973 64.0682 11.1982 64.1364 10.755 64.1364ZM19.861 66.4545V62.9943H19.7757C19.7019 63.1136 19.5968 63.2642 19.4604 63.446C19.324 63.625 19.1294 63.7855 18.8766 63.9276C18.6238 64.0668 18.2871 64.1364 17.8667 64.1364C17.3212 64.1364 16.8397 63.9986 16.4221 63.723C16.0044 63.4446 15.6777 63.0526 15.4419 62.5469C15.2061 62.0384 15.0882 61.4375 15.0882 60.7443C15.0882 60.0568 15.2061 59.4602 15.4419 58.9545C15.6777 58.4489 16.0059 58.0582 16.4263 57.7827C16.8468 57.5071 17.3326 57.3693 17.8837 57.3693C18.3098 57.3693 18.6465 57.4403 18.8936 57.5824C19.1436 57.7216 19.334 57.8807 19.4647 58.0597C19.5982 58.2358 19.7019 58.3807 19.7757 58.4943H19.8951V57.4545H20.8667V66.4545H19.861ZM18.003 63.233C18.4064 63.233 18.7473 63.1278 19.0257 62.9176C19.3042 62.7045 19.5158 62.4105 19.6607 62.0355C19.8056 61.6577 19.878 61.2216 19.878 60.7273C19.878 60.2386 19.807 59.8111 19.665 59.4446C19.5229 59.0753 19.3127 58.7884 19.0343 58.5838C18.7559 58.3764 18.4121 58.2727 18.003 58.2727C17.5769 58.2727 17.2218 58.3821 16.9377 58.6009C16.6564 58.8168 16.4448 59.1108 16.3027 59.483C16.1635 59.8523 16.0939 60.267 16.0939 60.7273C16.0939 61.1932 16.165 61.6165 16.307 61.9972C16.4519 62.375 16.665 62.6761 16.9462 62.9006C17.2303 63.1222 17.5826 63.233 18.003 63.233ZM27.2326 61.3239V57.4545H28.2382V64H27.2326V62.892H27.1644C27.011 63.2244 26.7723 63.5071 26.4485 63.7401C26.1246 63.9702 25.7155 64.0852 25.2212 64.0852C24.8121 64.0852 24.4485 63.9957 24.1303 63.8168C23.8121 63.6349 23.5621 63.3622 23.3803 62.9986C23.1985 62.6321 23.1076 62.1705 23.1076 61.6136V57.4545H24.1132V61.5455C24.1132 62.0227 24.2468 62.4034 24.5138 62.6875C24.7837 62.9716 25.1275 63.1136 25.5451 63.1136C25.7951 63.1136 26.0493 63.0497 26.3078 62.9219C26.5692 62.794 26.788 62.598 26.9641 62.3338C27.1431 62.0696 27.2326 61.733 27.2326 61.3239ZM33.2245 64.1364C32.5939 64.1364 32.0498 63.9972 31.5924 63.7188C31.1379 63.4375 30.787 63.0455 30.5399 62.5426C30.2956 62.0369 30.1734 61.4489 30.1734 60.7784C30.1734 60.108 30.2956 59.517 30.5399 59.0057C30.787 58.4915 31.1308 58.0909 31.5711 57.804C32.0143 57.5142 32.5314 57.3693 33.1223 57.3693C33.4632 57.3693 33.7998 57.4261 34.1322 57.5398C34.4646 57.6534 34.7672 57.8381 35.0399 58.0938C35.3126 58.3466 35.5299 58.6818 35.6919 59.0994C35.8538 59.517 35.9348 60.0312 35.9348 60.642V61.0682H30.8893V60.1989H34.912C34.912 59.8295 34.8382 59.5 34.6904 59.2102C34.5456 58.9205 34.3382 58.6918 34.0683 58.5241C33.8012 58.3565 33.4859 58.2727 33.1223 58.2727C32.7217 58.2727 32.3751 58.3722 32.0825 58.571C31.7927 58.767 31.5697 59.0227 31.4135 59.3381C31.2572 59.6534 31.1791 59.9915 31.1791 60.3523V60.9318C31.1791 61.4261 31.2643 61.8452 31.4348 62.1889C31.6081 62.5298 31.8481 62.7898 32.1549 62.9688C32.4618 63.1449 32.8183 63.233 33.2245 63.233C33.4887 63.233 33.7274 63.196 33.9404 63.1222C34.1564 63.0455 34.3424 62.9318 34.4987 62.7812C34.6549 62.6278 34.7757 62.4375 34.8609 62.2102L35.8325 62.483C35.7302 62.8125 35.5583 63.1023 35.3169 63.3523C35.0754 63.5994 34.7771 63.7926 34.422 63.9318C34.0669 64.0682 33.6677 64.1364 33.2245 64.1364ZM42.501 58.9205L41.5976 59.1761C41.5407 59.0256 41.4569 58.8793 41.3461 58.7372C41.2382 58.5923 41.0904 58.473 40.9029 58.3793C40.7154 58.2855 40.4754 58.2386 40.1828 58.2386C39.7822 58.2386 39.4484 58.331 39.1814 58.5156C38.9172 58.6974 38.7851 58.929 38.7851 59.2102C38.7851 59.4602 38.876 59.6577 39.0578 59.8026C39.2396 59.9474 39.5237 60.0682 39.9101 60.1648L40.8816 60.4034C41.4669 60.5455 41.9029 60.7628 42.1899 61.0554C42.4768 61.3452 42.6203 61.7187 42.6203 62.1761C42.6203 62.5511 42.5123 62.8864 42.2964 63.1818C42.0833 63.4773 41.7851 63.7102 41.4015 63.8807C41.018 64.0511 40.572 64.1364 40.0635 64.1364C39.3958 64.1364 38.8433 63.9915 38.4058 63.7017C37.9683 63.4119 37.6913 62.9886 37.5748 62.4318L38.5294 62.1932C38.6203 62.5455 38.7922 62.8097 39.045 62.9858C39.3007 63.1619 39.6345 63.25 40.0464 63.25C40.5152 63.25 40.8873 63.1506 41.1629 62.9517C41.4413 62.75 41.5805 62.5085 41.5805 62.2273C41.5805 62 41.501 61.8097 41.3419 61.6562C41.1828 61.5 40.9385 61.3835 40.6089 61.3068L39.518 61.0511C38.9186 60.9091 38.4782 60.6889 38.197 60.3906C37.9186 60.0895 37.7794 59.7131 37.7794 59.2614C37.7794 58.892 37.8831 58.5653 38.0904 58.2812C38.3007 57.9972 38.5862 57.7741 38.947 57.6122C39.3106 57.4503 39.7226 57.3693 40.1828 57.3693C40.8305 57.3693 41.339 57.5114 41.7083 57.7955C42.0805 58.0795 42.3447 58.4545 42.501 58.9205ZM47.3807 57.4545V58.3068H43.9887V57.4545H47.3807ZM44.9773 55.8864H45.983V62.125C45.983 62.4091 46.0242 62.6222 46.1066 62.7642C46.1918 62.9034 46.2998 62.9972 46.4304 63.0455C46.564 63.0909 46.7046 63.1136 46.8523 63.1136C46.9631 63.1136 47.054 63.108 47.125 63.0966C47.1961 63.0824 47.2529 63.071 47.2955 63.0625L47.5 63.9659C47.4319 63.9915 47.3367 64.017 47.2145 64.0426C47.0924 64.071 46.9375 64.0852 46.75 64.0852C46.4659 64.0852 46.1875 64.0241 45.9148 63.902C45.6449 63.7798 45.4205 63.5938 45.2415 63.3438C45.0654 63.0938 44.9773 62.7784 44.9773 62.3977V55.8864ZM55.9151 57.4545V58.3068H52.523V57.4545H55.9151ZM53.5117 55.8864H54.5174V62.125C54.5174 62.4091 54.5586 62.6222 54.6409 62.7642C54.7262 62.9034 54.8341 62.9972 54.9648 63.0455C55.0983 63.0909 55.239 63.1136 55.3867 63.1136C55.4975 63.1136 55.5884 63.108 55.6594 63.0966C55.7304 63.0824 55.7873 63.071 55.8299 63.0625L56.0344 63.9659C55.9662 63.9915 55.8711 64.017 55.7489 64.0426C55.6267 64.071 55.4719 64.0852 55.2844 64.0852C55.0003 64.0852 54.7219 64.0241 54.4492 63.902C54.1793 63.7798 53.9549 63.5938 53.7759 63.3438C53.5998 63.0938 53.5117 62.7784 53.5117 62.3977V55.8864ZM60.4167 64.1364C59.8257 64.1364 59.3073 63.9957 58.8613 63.7145C58.4181 63.4332 58.0715 63.0398 57.8215 62.5341C57.5743 62.0284 57.4507 61.4375 57.4507 60.7614C57.4507 60.0795 57.5743 59.4844 57.8215 58.9759C58.0715 58.4673 58.4181 58.0724 58.8613 57.7912C59.3073 57.5099 59.8257 57.3693 60.4167 57.3693C61.0076 57.3693 61.5246 57.5099 61.9678 57.7912C62.4138 58.0724 62.7604 58.4673 63.0076 58.9759C63.2576 59.4844 63.3826 60.0795 63.3826 60.7614C63.3826 61.4375 63.2576 62.0284 63.0076 62.5341C62.7604 63.0398 62.4138 63.4332 61.9678 63.7145C61.5246 63.9957 61.0076 64.1364 60.4167 64.1364ZM60.4167 63.233C60.8655 63.233 61.2348 63.1179 61.5246 62.8878C61.8144 62.6577 62.0289 62.3551 62.1681 61.9801C62.3073 61.6051 62.3769 61.1989 62.3769 60.7614C62.3769 60.3239 62.3073 59.9162 62.1681 59.5384C62.0289 59.1605 61.8144 58.8551 61.5246 58.6222C61.2348 58.3892 60.8655 58.2727 60.4167 58.2727C59.9678 58.2727 59.5985 58.3892 59.3087 58.6222C59.0189 58.8551 58.8044 59.1605 58.6652 59.5384C58.526 59.9162 58.4564 60.3239 58.4564 60.7614C58.4564 61.1989 58.526 61.6051 58.6652 61.9801C58.8044 62.3551 59.0189 62.6577 59.3087 62.8878C59.5985 63.1179 59.9678 63.233 60.4167 63.233ZM72.57 55.2727H73.6268V61.5114C73.6268 62.0682 73.5245 62.5412 73.32 62.9304C73.1155 63.3196 72.8271 63.6151 72.4549 63.8168C72.0828 64.0185 71.6439 64.1193 71.1382 64.1193C70.6609 64.1193 70.2362 64.0327 69.864 63.8594C69.4919 63.6832 69.1993 63.4332 68.9862 63.1094C68.7731 62.7855 68.6666 62.4006 68.6666 61.9545H69.7064C69.7064 62.2017 69.7674 62.4176 69.8896 62.6023C70.0146 62.7841 70.1851 62.9261 70.401 63.0284C70.6169 63.1307 70.8626 63.1818 71.1382 63.1818C71.4422 63.1818 71.7007 63.1179 71.9137 62.9901C72.1268 62.8622 72.2887 62.6747 72.3995 62.4276C72.5132 62.1776 72.57 61.8722 72.57 61.5114V55.2727ZM78.6674 64.1364C78.0765 64.1364 77.5581 63.9957 77.112 63.7145C76.6689 63.4332 76.3223 63.0398 76.0723 62.5341C75.8251 62.0284 75.7015 61.4375 75.7015 60.7614C75.7015 60.0795 75.8251 59.4844 76.0723 58.9759C76.3223 58.4673 76.6689 58.0724 77.112 57.7912C77.5581 57.5099 78.0765 57.3693 78.6674 57.3693C79.2583 57.3693 79.7754 57.5099 80.2186 57.7912C80.6646 58.0724 81.0112 58.4673 81.2583 58.9759C81.5083 59.4844 81.6333 60.0795 81.6333 60.7614C81.6333 61.4375 81.5083 62.0284 81.2583 62.5341C81.0112 63.0398 80.6646 63.4332 80.2186 63.7145C79.7754 63.9957 79.2583 64.1364 78.6674 64.1364ZM78.6674 63.233C79.1163 63.233 79.4856 63.1179 79.7754 62.8878C80.0652 62.6577 80.2797 62.3551 80.4189 61.9801C80.5581 61.6051 80.6277 61.1989 80.6277 60.7614C80.6277 60.3239 80.5581 59.9162 80.4189 59.5384C80.2797 59.1605 80.0652 58.8551 79.7754 58.6222C79.4856 58.3892 79.1163 58.2727 78.6674 58.2727C78.2186 58.2727 77.8493 58.3892 77.5595 58.6222C77.2697 58.8551 77.0552 59.1605 76.916 59.5384C76.7768 59.9162 76.7072 60.3239 76.7072 60.7614C76.7072 61.1989 76.7768 61.6051 76.916 61.9801C77.0552 62.3551 77.2697 62.6577 77.5595 62.8878C77.8493 63.1179 78.2186 63.233 78.6674 63.233ZM83.5685 64V57.4545H84.5742V64H83.5685ZM84.0799 56.3636C83.8838 56.3636 83.7148 56.2969 83.5728 56.1634C83.4336 56.0298 83.3639 55.8693 83.3639 55.6818C83.3639 55.4943 83.4336 55.3338 83.5728 55.2003C83.7148 55.0668 83.8838 55 84.0799 55C84.2759 55 84.4435 55.0668 84.5827 55.2003C84.7247 55.3338 84.7958 55.4943 84.7958 55.6818C84.7958 55.8693 84.7247 56.0298 84.5827 56.1634C84.4435 56.2969 84.2759 56.3636 84.0799 56.3636ZM87.8218 60.0625V64H86.8162V57.4545H87.7878V58.4773H87.873C88.0264 58.1449 88.2593 57.8778 88.5718 57.6761C88.8843 57.4716 89.2878 57.3693 89.7821 57.3693C90.2253 57.3693 90.613 57.4602 90.9454 57.642C91.2778 57.821 91.5363 58.0938 91.721 58.4602C91.9056 58.8239 91.998 59.2841 91.998 59.8409V64H90.9923V59.9091C90.9923 59.3949 90.8588 58.9943 90.5917 58.7074C90.3247 58.4176 89.9582 58.2727 89.4923 58.2727C89.1713 58.2727 88.8843 58.3423 88.6315 58.4815C88.3815 58.6207 88.1841 58.8239 88.0392 59.0909C87.8943 59.358 87.8218 59.6818 87.8218 60.0625Z" fill="#CCDAFF"/>
</svg>
