<svg width="48" height="48" viewBox="0 0 48 48" fill="none" xmlns="http://www.w3.org/2000/svg">
<path d="M43.5859 42.9189L42.46 44.0459L35.5107 37.0967L34.8496 37.4688L25.4297 42.7686L25.3721 42.8008L25.3203 42.8398C25.1949 42.9339 25.0121 42.9999 24.7803 43C24.5483 43 24.3657 42.9339 24.2402 42.8398L24.1875 42.8008L24.1299 42.7686L8.33008 33.8887L8.31934 33.8828L8.30957 33.877L8.19336 33.8057C7.937 33.6227 7.78029 33.331 7.78027 33V15C7.78027 14.6217 7.98565 14.2951 8.30957 14.123L8.32715 14.1133L9.86719 13.2529L11.0225 12.6084L4.41602 6.00195L5.55664 4.87109L43.5859 42.9189ZM25.2412 43.9492C25.142 43.9718 25.0401 43.9866 24.9365 43.9941L25.0898 43.9775L25.2412 43.9492ZM24.624 43.9941C24.5744 43.9906 24.5253 43.9846 24.4766 43.9775C24.5253 43.9846 24.5744 43.9906 24.624 43.9941ZM24.4258 43.9688C24.3973 43.9639 24.3689 43.9592 24.3408 43.9531C24.3689 43.9592 24.3973 43.9639 24.4258 43.9688ZM24.2705 43.9355C24.249 43.9301 24.2273 43.9251 24.2061 43.9189C24.2273 43.9252 24.249 43.9301 24.2705 43.9355ZM24.1328 43.8955C24.1118 43.8884 24.091 43.8808 24.0703 43.873C24.091 43.8809 24.1118 43.8884 24.1328 43.8955ZM25.9199 43.6396C25.7999 43.7297 25.6687 43.8031 25.5293 43.8594C25.6687 43.8031 25.7999 43.7297 25.9199 43.6396ZM23.9971 43.8438C23.9777 43.8355 23.9584 43.8273 23.9395 43.8184C23.9584 43.8273 23.9777 43.8355 23.9971 43.8438ZM23.8789 43.7891C23.8526 43.7754 23.8273 43.7601 23.8018 43.7451C23.8273 43.7601 23.8526 43.7754 23.8789 43.7891ZM25.7803 40.292L27.2715 39.4512L32.9111 36.2715L34.0605 35.623L33.126 34.6914L27.4863 29.0713L25.7803 27.3721V40.292ZM9.78027 32.4043L10.2891 32.6914L22.2891 39.4512L23.7803 40.291V25.3662L21.9697 23.5557L21.8496 23.4883L11.2695 17.5479L9.78027 16.7119V32.4043ZM7.54297 34.5654C7.60259 34.6121 7.66441 34.6563 7.72949 34.6963C7.66441 34.6563 7.6026 34.6121 7.54297 34.5654ZM41.9463 34.5928L41.8398 34.6602C41.9045 34.6223 41.9655 34.5797 42.0244 34.5352C41.9986 34.5546 41.9732 34.5746 41.9463 34.5928ZM7.54297 34.5654C7.53455 34.5588 7.52588 34.5526 7.51758 34.5459C7.52588 34.5526 7.53455 34.5588 7.54297 34.5654ZM42.0371 34.5254C42.0329 34.5286 42.0287 34.5319 42.0244 34.5352C42.0287 34.5319 42.0329 34.5286 42.0371 34.5254ZM7.4707 34.5059C7.45248 34.4902 7.43363 34.4753 7.41602 34.459C7.43363 34.4753 7.45248 34.4902 7.4707 34.5059ZM7.36816 34.4121C7.35506 34.3991 7.34183 34.3864 7.3291 34.373C7.34183 34.3864 7.35506 34.3991 7.36816 34.4121ZM42.2158 34.3691C42.2111 34.3738 42.2069 34.3791 42.2021 34.3838C42.2069 34.3791 42.2111 34.3738 42.2158 34.3691ZM7.27051 34.3086C7.26199 34.2989 7.25344 34.2892 7.24512 34.2793C7.25344 34.2892 7.26199 34.2989 7.27051 34.3086ZM7.2002 34.2236C7.18515 34.2044 7.17058 34.1848 7.15625 34.165C7.17058 34.1848 7.18514 34.2044 7.2002 34.2236ZM42.3721 34.1953C42.3671 34.2017 42.3615 34.2076 42.3564 34.2139C42.3615 34.2076 42.3671 34.2017 42.3721 34.1953ZM7.13281 34.1328C7.11469 34.1067 7.09791 34.0797 7.08105 34.0527C7.09791 34.0797 7.11469 34.1067 7.13281 34.1328ZM42.5039 34.002C42.4977 34.0123 42.4908 34.022 42.4844 34.0322C42.4908 34.022 42.4977 34.0123 42.5039 34.002ZM7.05664 34.0137C7.04594 33.9956 7.03552 33.9774 7.02539 33.959C7.03552 33.9774 7.04594 33.9956 7.05664 34.0137ZM6.99023 33.8916C6.98378 33.8787 6.97786 33.8656 6.97168 33.8525C6.97786 33.8656 6.98378 33.8787 6.99023 33.8916ZM6.93262 33.7686C6.91632 33.7295 6.90151 33.6897 6.8877 33.6494C6.90151 33.6897 6.91632 33.7295 6.93262 33.7686ZM42.6084 33.8027C42.6055 33.8093 42.6026 33.8158 42.5996 33.8223C42.6026 33.8158 42.6055 33.8093 42.6084 33.8027ZM6.8877 33.6494C6.88172 33.632 6.87659 33.6143 6.87109 33.5967C6.87659 33.6143 6.88172 33.632 6.8877 33.6494ZM42.6914 33.584C42.6894 33.5906 42.6867 33.597 42.6846 33.6035C42.6867 33.597 42.6894 33.5906 42.6914 33.584ZM6.78516 33.1416C6.7961 33.2991 6.82578 33.4514 6.87109 33.5967C6.83918 33.4944 6.81398 33.3889 6.79883 33.2803L6.78516 33.1416ZM42.7754 33.1299C42.7653 33.2869 42.7363 33.4389 42.6914 33.584C42.7363 33.4389 42.7653 33.2869 42.7754 33.1299ZM24.7803 5C25.0121 5.00005 25.1949 5.06606 25.3203 5.16016L25.373 5.19922L25.4297 5.23145L41.2305 14.1113L41.2402 14.1172L41.251 14.123C41.5748 14.2951 41.7803 14.6218 41.7803 15V33C41.7803 33.0582 41.7721 33.1143 41.7627 33.1689L39.7803 31.1855V16.7119L38.29 17.5479L30.5107 21.917L29.04 20.4453L37.1895 15.8721L38.7422 15.001L37.1904 14.1279L25.2695 7.42871L24.7822 7.1543L24.2939 7.42578L18.958 10.3965L17.5303 8.94824L24.1309 5.23145L24.1875 5.19922L24.2402 5.16016C24.3657 5.06605 24.5483 5 24.7803 5ZM6.82324 14.585C6.81391 14.6294 6.80614 14.6743 6.7998 14.7197L6.78516 14.8584C6.79164 14.765 6.8044 14.6734 6.82324 14.584V14.585ZM7.00488 14.0781C6.96373 14.1569 6.92784 14.2388 6.89746 14.3232L6.85547 14.4521C6.88011 14.3653 6.91052 14.2808 6.94629 14.1992L7.00488 14.0781ZM7.4043 13.5518C7.37188 13.5822 7.34079 13.614 7.31055 13.6465L7.22363 13.7461C7.2516 13.7117 7.28032 13.678 7.31055 13.6455L7.4043 13.5518ZM23.8936 4.20312C23.8046 4.24812 23.7195 4.30043 23.6396 4.36035C23.7198 4.30024 23.8053 4.2472 23.8945 4.20215L23.8936 4.20312ZM25.6855 4.21289C25.7074 4.22428 25.7287 4.23671 25.75 4.24902C25.7287 4.23671 25.7074 4.22429 25.6855 4.21289ZM25.5645 4.15625C25.5792 4.16257 25.5938 4.16907 25.6084 4.17578C25.5938 4.16907 25.5792 4.16257 25.5645 4.15625ZM25.4307 4.10449C25.4494 4.11085 25.4678 4.11806 25.4863 4.125C25.4678 4.11807 25.4494 4.11084 25.4307 4.10449ZM25.29 4.06348C25.311 4.06881 25.3319 4.07407 25.3525 4.08008C25.3319 4.07407 25.311 4.06881 25.29 4.06348ZM25.1553 4.03418C25.1768 4.03808 25.1984 4.04131 25.2197 4.0459C25.1984 4.04131 25.1768 4.03808 25.1553 4.03418ZM25.0898 4.02246C25.1118 4.0257 25.1335 4.03024 25.1553 4.03418C25.1274 4.02913 25.0995 4.0244 25.0713 4.02051L25.0898 4.02246ZM6.97168 33.8525C6.95848 33.8247 6.94453 33.7971 6.93262 33.7686C6.94453 33.7971 6.95848 33.8247 6.97168 33.8525Z" fill="#6356E5"/>
</svg>
