<svg width="48" height="48" viewBox="0 0 48 48" fill="none" xmlns="http://www.w3.org/2000/svg">
<path d="M44.0006 13.9997C44.0236 11.9952 43.4374 10.0308 42.3197 8.36664C41.202 6.70244 39.6054 5.41677 37.7411 4.67972C35.8768 3.94267 33.8327 3.78897 31.8791 4.23895C29.9255 4.68893 28.1546 5.72139 26.8006 7.19974C23.8006 10.3997 23.6006 10.7997 16.8006 12.3997C13.969 12.9677 11.3439 14.2915 9.20372 16.2308C7.06359 18.17 5.48825 20.6524 4.6448 23.4145C3.80136 26.1767 3.72126 29.1156 4.413 31.9196C5.10474 34.7236 6.54253 37.288 8.57386 39.341C10.6052 41.3939 13.1543 42.8587 15.9508 43.5801C18.7473 44.3015 21.6869 44.2525 24.4578 43.4383C27.2287 42.6242 29.7276 41.0752 31.6894 38.9557C33.6512 36.8362 35.0027 34.2252 35.6006 31.3997C37.0006 24.5997 37.6006 24.1997 40.8006 21.3997C42.8006 19.3997 44.0006 16.7997 44.0006 13.9997Z" stroke="#6356E5" stroke-width="2" stroke-linecap="round" stroke-linejoin="round"/>
<path d="M20 35C23.866 35 27 31.866 27 28C27 24.134 23.866 21 20 21C16.134 21 13 24.134 13 28C13 31.866 16.134 35 20 35Z" stroke="#6356E5" stroke-width="2" stroke-linecap="round" stroke-linejoin="round"/>
</svg>
