<svg width="48" height="48" viewBox="0 0 48 48" fill="none" xmlns="http://www.w3.org/2000/svg">
<path d="M13.0254 42.9209C12.9256 42.9427 12.8208 42.9588 12.7109 42.9668L12.542 42.9727C12.6568 42.9726 12.7664 42.9635 12.8711 42.9482L13.0254 42.9209ZM12.0264 42.9297L12.1973 42.9531C12.083 42.9406 11.9694 42.9224 11.8564 42.8984L12.0264 42.9297ZM11.5205 42.8105C11.6114 42.8386 11.703 42.8626 11.7949 42.8838C11.7591 42.8755 11.7232 42.8677 11.6875 42.8584L11.5205 42.8105ZM13.5635 42.7266C13.5236 42.747 13.4828 42.7675 13.4404 42.7861L13.3096 42.8379C13.3545 42.8215 13.3981 42.8038 13.4404 42.7852L13.5635 42.7266ZM14.3359 42.1006C14.3012 42.1429 14.2615 42.1884 14.2168 42.2354L14.0674 42.3789C14.1222 42.33 14.172 42.2814 14.2168 42.2344L14.3359 42.1006ZM9.62012 41.7676C9.71877 41.8429 9.81874 41.9163 9.91992 41.9873L10.2275 42.1934C10.1239 42.1276 10.0212 42.0593 9.91992 41.9883L9.62012 41.7676ZM32.2119 5.14746H32.2139C33.9385 5.22661 35.6409 5.56826 37.2627 6.16016V6.15918C38.5647 6.63774 39.6116 7.23093 40.1182 7.7373L40.1201 7.73828C40.5637 8.18062 41.0715 9.03856 41.5127 10.1201L41.6973 10.5977C42.2886 12.2187 42.6299 13.9208 42.709 15.6445V15.6455C42.8693 19.0217 42.0621 23.0565 39.0781 26.9258L38.9893 27.041L38.9365 27.1758L38.8945 27.2695L38.8916 27.2773L36.0635 32.9355C35.9735 33.1153 35.8309 33.2635 35.6553 33.3613C35.4796 33.4592 35.2784 33.5026 35.0781 33.4844C34.8779 33.4661 34.6874 33.3877 34.5322 33.2598C34.3772 33.1318 34.264 32.9596 34.208 32.7666L33.875 31.6143L32.8018 32.1494C30.4768 33.3077 27.9692 34.0519 25.3916 34.3506L24.876 34.4043L24.8721 34.4053C24.1052 34.4788 23.1552 34.5424 22.0977 34.6016L18.6768 34.7715C17.6706 34.8175 16.6483 34.8658 15.6572 34.918L14.7754 34.9639L14.7119 35.8457C14.6351 36.9225 14.516 37.9961 14.3545 39.0635L14.2236 39.7969C14.0953 40.4304 13.9328 40.9577 13.6455 41.3584L13.5635 41.4648C13.3826 41.6847 13.0422 41.9726 12.542 41.9727C11.9156 41.9727 11.2308 41.6853 10.4951 41.1689C9.948 40.785 9.43091 40.3168 8.94824 39.8477L8.47754 39.3818L8.47656 39.3809L8.00977 38.9092C7.54083 38.4267 7.07231 37.9101 6.68848 37.3633C6.17224 36.6277 5.88584 35.9428 5.88574 35.3164C5.88574 34.8186 6.1699 34.4799 6.39355 34.2939C6.94249 33.8423 7.76361 33.6709 8.79199 33.5029L8.79297 33.5039C9.68611 33.3602 10.7974 33.2448 12.0225 33.1455L12.8945 33.0742L12.9404 32.2012C12.9926 31.2102 13.0409 30.1855 13.0869 29.1816C13.1994 26.787 13.306 24.5192 13.4531 22.9854V22.9824C13.7082 20.2238 14.4736 17.5364 15.709 15.0566L16.2432 13.9834L15.0918 13.6494C14.8988 13.5935 14.7266 13.4811 14.5986 13.3262C14.4707 13.1711 14.3924 12.9804 14.374 12.7803C14.3558 12.5802 14.3985 12.3787 14.4961 12.2031C14.594 12.0274 14.743 11.8849 14.9229 11.7949L20.5752 8.96582C20.6054 8.95099 20.6364 8.9375 20.668 8.92578L20.8105 8.87305L20.9307 8.78027C24.8019 5.79439 28.8359 4.98722 32.2119 5.14746ZM14.8262 41.2803C14.8007 41.3392 14.7742 41.3976 14.7461 41.4551L14.6572 41.625C14.6881 41.5693 14.7171 41.5125 14.7451 41.4551L14.8262 41.2803ZM5 36.1699C5.39534 37.6837 6.74022 39.0603 7.76953 40.0879C8.07396 40.3928 8.40934 40.7252 8.76953 41.0527L9.04395 41.2979C8.57846 40.8943 8.15009 40.4691 7.76953 40.0879C6.77831 39.0983 5.4936 37.7855 5.04688 36.3379L5 36.1699ZM11.5801 35.1846C10.8792 35.249 10.2274 35.3169 9.65527 35.3936L7.8252 35.6387L9.03027 37.0371C9.58091 37.6763 10.18 38.2732 10.8174 38.8223L12.2148 40.0264L12.4609 38.1973L12.5703 37.2852C12.6049 36.9624 12.6375 36.6216 12.668 36.2656L12.7705 35.0752L11.5801 35.1846ZM9.78809 36.3848C9.98074 36.6084 10.1818 36.8246 10.3867 37.0371C10.3194 36.9673 10.2506 36.8991 10.1846 36.8281L9.78809 36.3848ZM11.6719 36.1807C10.976 36.2447 10.34 36.3108 9.78809 36.3848C10.34 36.3108 10.976 36.2447 11.6719 36.1807ZM28.1709 34.8779C27.9956 34.9192 27.8198 34.9589 27.6436 34.9961L27.1133 35.1016C27.2905 35.0684 27.4672 35.0323 27.6436 34.9951L28.1709 34.8779ZM34.3018 34.2891C34.5161 34.3922 34.748 34.4577 34.9873 34.4795L34.8379 34.4609C34.6513 34.4296 34.4712 34.3707 34.3018 34.2891ZM35.583 34.4443C35.4856 34.465 35.3868 34.4785 35.2871 34.4844L35.4355 34.4697L35.583 34.4443ZM31.7686 33.7178C31.2683 33.925 30.7617 34.1153 30.249 34.2871L29.7354 34.4521C30.2515 34.2923 30.7622 34.1144 31.2666 33.9189L31.7686 33.7178ZM36.0078 34.3037C35.9626 34.3246 35.9166 34.3439 35.8701 34.3613L35.7275 34.4082C35.7752 34.3943 35.8225 34.3788 35.8691 34.3613L36.0078 34.3037ZM34.2246 34.25C34.25 34.2636 34.2758 34.2766 34.3018 34.2891C34.2758 34.2766 34.25 34.2636 34.2246 34.25ZM34.0146 34.1211C34.082 34.1686 34.1523 34.2113 34.2246 34.25C34.1527 34.2115 34.0826 34.1693 34.0156 34.1221L34.0146 34.1211ZM36.8857 33.5146C36.783 33.6865 36.6549 33.8414 36.5068 33.9746L36.3926 34.0703C36.59 33.9176 36.7573 33.7285 36.8857 33.5137V33.5146ZM33.2949 33.1865C33.3997 33.4677 33.5669 33.7217 33.7832 33.9297L33.8955 34.0303C33.6242 33.8063 33.4173 33.5154 33.2949 33.1875V33.1865ZM5.75781 33.5225C5.71547 33.5575 5.67011 33.5976 5.62305 33.6426L5.47852 33.791C5.52735 33.7362 5.57606 33.6865 5.62305 33.6416L5.75781 33.5225ZM32.1152 7.14355C28.651 6.97774 24.3425 7.9577 20.3213 11.9785C17.6484 14.6493 15.8623 18.7673 15.4443 23.1709C15.3709 23.9342 15.3097 24.847 15.2539 25.8516L15.0947 29.084C15.0527 29.9855 15.0088 30.9135 14.9609 31.8428L14.9043 32.9502L16.0107 32.8926C16.9402 32.8447 17.8689 32.8008 18.7725 32.7588L18.7715 32.7578C21.0339 32.6524 23.1554 32.5571 24.6855 32.4102L24.6846 32.4092C29.0887 31.9912 33.2043 30.2058 35.877 27.5332C39.6451 23.765 40.7417 19.7407 40.7275 16.3965L40.7109 15.7363C40.638 14.2108 40.342 12.8457 39.9805 11.7422L39.8223 11.2852L39.8213 11.2812L39.6406 10.8086C39.4536 10.3388 39.2059 9.80489 38.8564 9.33789L38.7432 9.11133L38.5117 8.99512C38.0451 8.64743 37.5151 8.39997 37.0449 8.21289L36.5693 8.03223L36.5654 8.03027L36.0254 7.8457C34.7594 7.43942 33.4442 7.20324 32.1143 7.14355H32.1152ZM10.1748 32.3135C9.61845 32.3743 9.09987 32.4416 8.63379 32.5166C8.38894 32.5566 8.13634 32.5986 7.88281 32.6494L7.50195 32.7334C7.88135 32.6415 8.26627 32.5766 8.63379 32.5166C8.86676 32.4791 9.11275 32.4429 9.37012 32.4092L10.1748 32.3135ZM24 31.4658C23.3845 31.5156 22.6931 31.5601 21.9473 31.6016C22.4446 31.5739 22.9178 31.5446 23.3604 31.5137L24 31.4658ZM26.9189 31.0547C26.6657 31.1091 26.4105 31.1592 26.1533 31.2041C26.2817 31.1817 26.4096 31.1576 26.5371 31.1328L26.9189 31.0547ZM28.0449 30.7783L27.6729 30.877C27.8249 30.838 27.9757 30.7963 28.126 30.7539C28.0988 30.7616 28.0721 30.7708 28.0449 30.7783ZM28.7764 30.5596C28.5618 30.6283 28.3447 30.6923 28.126 30.7539C28.2217 30.7269 28.3172 30.7002 28.4121 30.6719L28.7764 30.5596ZM29.2285 30.4072C29.0788 30.4593 28.9283 30.5109 28.7764 30.5596C28.9283 30.5109 29.0788 30.4593 29.2285 30.4072ZM30.1895 30.0449C29.8752 30.1741 29.5543 30.2939 29.2285 30.4072C29.4354 30.3353 29.6404 30.261 29.8428 30.1826L30.1895 30.0449ZM30.6348 29.8535C30.4876 29.9187 30.3395 29.9832 30.1895 30.0449C30.3395 29.9832 30.4876 29.9187 30.6348 29.8535ZM31.1982 29.5928C31.0131 29.6827 30.825 29.7693 30.6348 29.8535C30.7126 29.819 30.7902 29.7845 30.8672 29.749L31.1982 29.5928ZM32.6523 28.793C32.3895 28.9552 32.1206 29.1133 31.8438 29.2627L31.5244 29.4307C31.9137 29.2312 32.2893 29.0169 32.6523 28.793ZM16.3398 24.4941C16.2512 25.763 16.1801 27.2858 16.1045 28.9082C16.1538 27.8511 16.2004 26.8361 16.252 25.9062L16.3398 24.4941ZM33.4688 28.2529C33.2055 28.4399 32.933 28.6198 32.6523 28.793C32.933 28.6198 33.2055 28.4399 33.4688 28.2529ZM34.1758 27.7188C33.9485 27.9028 33.7121 28.0801 33.4688 28.2529C33.6179 28.147 33.7649 28.0399 33.9082 27.9297L34.1758 27.7188ZM37.7275 23.5908C37.6072 23.7908 37.4792 23.9902 37.3457 24.1904C37.399 24.1105 37.4518 24.0311 37.5029 23.9512L37.7275 23.5908ZM16.7207 21.3184C16.6213 21.8291 16.5416 22.3478 16.4814 22.8721L16.4395 23.2666C16.4894 22.7396 16.5596 22.2177 16.6494 21.7031L16.7207 21.3184ZM12.7568 20.7451C12.6575 21.2767 12.5771 21.8122 12.5146 22.3506L12.458 22.8906C12.508 22.3504 12.576 21.8124 12.6631 21.2783L12.7568 20.7451ZM17.1816 19.4434C17.0724 19.8095 16.9735 20.1816 16.8848 20.5586L16.7988 20.9365C16.8805 20.5566 16.9727 20.1812 17.0752 19.8115L17.1816 19.4434ZM13.252 18.6406C13.2027 18.8139 13.1556 18.9878 13.1104 19.1621L12.9805 19.6875C13.0218 19.5119 13.064 19.3366 13.1094 19.1621L13.252 18.6406ZM31.0449 19.1631C31.1412 19.1824 31.2386 19.1973 31.3369 19.207L31.6328 19.2217C31.5332 19.2216 31.4342 19.2168 31.3359 19.207L31.0449 19.1631ZM43.6865 17.6797C43.6621 18.0369 43.6268 18.3988 43.5791 18.7646C43.595 18.6428 43.6088 18.5213 43.6221 18.4004L43.6865 17.6797ZM34.1299 17.8867C34.0211 18.0499 33.8956 18.2031 33.7549 18.3438C33.6453 18.4532 33.5259 18.5503 33.4023 18.6406C33.5259 18.5503 33.6453 18.4532 33.7549 18.3438C33.8253 18.2734 33.8916 18.1994 33.9541 18.123L34.1299 17.8867ZM31.6338 14.2217C32.1645 14.2217 32.6736 14.4324 33.0488 14.8076L33.1816 14.9541C33.4314 15.2593 33.5852 15.632 33.624 16.0244L33.6338 16.2217C33.6336 16.752 33.4229 17.2608 33.0479 17.6357C32.6727 18.0107 32.1633 18.2218 31.6328 18.2217C31.1026 18.2214 30.5937 18.0107 30.2188 17.6357L30.2002 17.6172C29.8832 17.2914 29.6872 16.869 29.6426 16.4199L29.6328 16.2227C29.6328 15.6921 29.8437 15.1828 30.2188 14.8076C30.547 14.4794 30.9777 14.277 31.4355 14.2314L31.6338 14.2217ZM39.7168 17.0264C39.7082 17.2393 39.6949 17.4549 39.6758 17.6729L39.6426 18.001C39.6795 17.671 39.7039 17.3462 39.7168 17.0273V17.0264ZM18.1045 16.9883C17.9693 17.2821 17.8416 17.5822 17.7207 17.8877C17.7957 17.6982 17.8726 17.5103 17.9531 17.3252L18.1045 16.9883ZM18.4238 16.3311L18.2607 16.6572C18.365 16.4426 18.4733 16.2317 18.585 16.0244C18.5304 16.1257 18.4766 16.228 18.4238 16.3311ZM19.2695 14.8711C19.1588 15.0407 19.0506 15.2136 18.9453 15.3896L18.7656 15.6973C18.9266 15.414 19.095 15.1386 19.2695 14.8711ZM43.5928 14.2344C43.6205 14.4607 43.6449 14.6876 43.6641 14.915L43.708 15.5986C43.6975 15.3705 43.6822 15.1424 43.6631 14.915L43.5928 14.2344ZM34.4062 15.0742C34.4675 15.2222 34.5138 15.3759 34.5508 15.5322C34.5138 15.3755 34.4667 15.2216 34.4053 15.0732L34.4062 15.0742ZM19.4766 14.5625C19.4066 14.6641 19.3375 14.7669 19.2695 14.8711C19.3375 14.7669 19.4066 14.6641 19.4766 14.5625ZM39.4189 13.5029C39.4557 13.6775 39.4901 13.8563 39.5215 14.0391L39.6055 14.5996C39.5805 14.4093 39.5518 14.2227 39.5205 14.04L39.4189 13.5029ZM14.3994 14.4375C14.5201 14.5045 14.6481 14.5586 14.7812 14.5996C14.6961 14.5734 14.6126 14.5429 14.5322 14.5059L14.3994 14.4375ZM13.8271 13.9619C13.8912 14.0395 13.9609 14.1121 14.0352 14.1787C13.9978 14.1453 13.9616 14.1105 13.9268 14.0742L13.8271 13.9619ZM33.2988 13.7256C33.4512 13.8272 33.5936 13.9447 33.7266 14.0742C33.6647 14.014 33.6015 13.9557 33.5352 13.9014L33.2988 13.7256ZM31.0459 13.2793C30.9495 13.2985 30.8545 13.3231 30.7607 13.3516L30.4854 13.4502C30.5755 13.4128 30.6672 13.379 30.7607 13.3506L31.0459 13.2793ZM32.2217 13.2793C32.3981 13.3145 32.5698 13.3677 32.7363 13.4336C32.6608 13.4037 32.5847 13.3752 32.5068 13.3516L32.2217 13.2793ZM21.7422 12.0078C21.5033 12.223 21.2647 12.4492 21.0273 12.6865C20.8379 12.8758 20.6538 13.0741 20.4736 13.2793C20.6538 13.074 20.8379 12.8758 21.0273 12.6865C21.146 12.5679 21.2648 12.4519 21.3838 12.3389L21.7422 12.0078ZM13.4131 12.2754C13.3926 12.3724 13.3799 12.471 13.374 12.5703L13.3701 12.7207C13.3678 12.5704 13.382 12.4206 13.4131 12.2744V12.2754ZM42.8584 10.8994C42.9284 11.1166 42.994 11.3352 43.0557 11.5547L43.2285 12.2168C43.122 11.7738 42.9984 11.3347 42.8584 10.9004V10.8994ZM13.9883 11.2441C13.9523 11.2785 13.9171 11.3136 13.8838 11.3506C13.9504 11.2766 14.0227 11.2078 14.0996 11.1445L13.9883 11.2441ZM14.3438 10.9727C14.2742 11.0142 14.2082 11.0609 14.1445 11.1104C14.1689 11.0914 14.1925 11.0715 14.2178 11.0537L14.3438 10.9727ZM24.2646 10.1279C24.0243 10.2726 23.7835 10.4261 23.543 10.5898L23.1816 10.8428C23.6626 10.4957 24.1441 10.1888 24.624 9.91797L24.2646 10.1279ZM38.2773 10.2666C38.3195 10.3379 38.3608 10.4103 38.3994 10.4844L38.5098 10.71C38.4743 10.6342 38.437 10.5593 38.3984 10.4854L38.2773 10.2666ZM42.0195 8.81348C42.0936 8.96195 42.1667 9.11466 42.2373 9.27148L42.4424 9.75293C42.3759 9.58949 42.3069 9.42917 42.2363 9.27246L42.0195 8.81348ZM25.9326 9.26562C25.7367 9.35118 25.5397 9.44106 25.3428 9.53809C25.5397 9.44107 25.7367 9.35118 25.9326 9.26562ZM36.2236 8.9707C36.5203 9.08011 36.8304 9.19808 37.1299 9.33789C36.9824 9.26908 36.8324 9.20524 36.6826 9.14551L36.2236 8.9707ZM26.2998 9.11133C26.1776 9.16056 26.0553 9.21206 25.9326 9.26562C26.0553 9.21205 26.1776 9.16057 26.2998 9.11133ZM27.4688 8.69922C27.0824 8.81545 26.6927 8.95299 26.2998 9.11133C26.5742 9.00074 26.8467 8.89931 27.1182 8.80957L27.4688 8.69922ZM33.6543 8.30469C33.8294 8.33271 34.0039 8.3638 34.1777 8.39844L34.6963 8.51172C34.5239 8.4705 34.3506 8.43307 34.1768 8.39844L33.6543 8.30469ZM29.4756 8.25879C29.1568 8.30359 28.8337 8.3611 28.5068 8.43164C28.8337 8.36109 29.1568 8.3036 29.4756 8.25879ZM31.4551 8.12598C30.8202 8.12307 30.1579 8.1629 29.4756 8.25879C30.1579 8.16291 30.8202 8.12307 31.4551 8.12598ZM32.0674 8.14258C32.2446 8.15051 32.422 8.16114 32.5986 8.17578L33.1279 8.23047C32.9519 8.20911 32.7755 8.19143 32.5986 8.17676L32.0674 8.14258ZM23.791 5.8457C22.8896 6.2747 21.9855 6.7965 21.0879 7.42383L20.7031 7.69922C21.5988 7.04135 22.5022 6.49089 23.4043 6.03516L23.791 5.8457ZM40.5537 6.7832C40.6032 6.8242 40.6508 6.86509 40.6963 6.90625L40.8262 7.03027C40.7848 6.9889 40.7409 6.94753 40.6953 6.90625L40.5537 6.7832ZM39.4746 6.06348C39.6131 6.14043 39.7462 6.21863 39.873 6.29785L40.2344 6.53906C40.1207 6.45812 39.9999 6.3781 39.873 6.29883L39.4746 6.06348ZM37.6055 5.2207C38.0702 5.39145 38.5178 5.58219 38.9326 5.78418C38.6684 5.65561 38.3913 5.5309 38.1045 5.41406L37.6055 5.2207ZM25.7158 5.06348C25.5884 5.10678 25.4608 5.15152 25.333 5.19824L24.9482 5.34375C25.0763 5.29351 25.2043 5.24498 25.332 5.19824L25.7158 5.06348ZM35.6406 4.62793C35.8623 4.6812 36.0831 4.73812 36.3027 4.7998L36.958 4.99805C36.7408 4.928 36.5223 4.86247 36.3027 4.80078L35.6406 4.62793ZM27.2354 4.62207C27.11 4.65241 26.9843 4.68432 26.8584 4.71777L26.4785 4.82324C26.6051 4.78656 26.7314 4.75126 26.8574 4.71777L27.2354 4.62207Z" fill="#6356E5"/>
</svg>
