<svg width="48" height="48" viewBox="0 0 48 48" fill="none" xmlns="http://www.w3.org/2000/svg">
<path d="M6 6L42 42M24 43V35.5M20.498 8.502L20.54 8.46L24 5M11.832 18.98L10.972 22.188C10.2878 24.7415 10.646 27.4622 11.9678 29.7516C13.2895 32.041 15.4665 33.7117 18.02 34.396L24 36V29.12C23.8408 27.0649 23.048 25.1099 21.7309 23.5244C20.4137 21.9389 18.6371 20.8012 16.646 20.268L11.832 18.98Z" stroke="#6356E5" stroke-width="2" stroke-linecap="round" stroke-linejoin="round"/>
<path d="M20.5408 22.3C19.3638 21.1226 18.5062 19.6647 18.0488 18.064M29.9768 17.976C30.434 16.3089 30.4421 14.5505 30.0002 12.8792C29.5583 11.208 28.6822 9.68332 27.4608 8.46L24.0008 5M32.0768 20.074L36.1688 18.98L37.0308 22.188C37.3148 23.248 37.4168 24.314 37.3548 25.354M33.0128 33.01C32.1128 33.624 31.0948 34.098 29.9808 34.398L24.0008 36V29.12C24.1098 27.7348 24.5062 26.3875 25.1648 25.164" stroke="#6356E5" stroke-width="2" stroke-linecap="round" stroke-linejoin="round"/>
</svg>
