<svg width="48" height="48" viewBox="0 0 48 48" fill="none" xmlns="http://www.w3.org/2000/svg">
<path d="M14 42H34M24 42C28.7739 42 33.3523 40.1036 36.7279 36.7279C40.1036 33.3523 42 28.7739 42 24H6C6 28.7739 7.89642 33.3523 11.2721 36.7279C14.6477 40.1036 19.2261 42 24 42Z" stroke="#6356E5" stroke-width="2" stroke-linecap="round" stroke-linejoin="round"/>
<path d="M22.7608 23.9999C21.5495 24.0112 20.3787 23.5641 19.4833 22.7483C18.5879 21.9325 18.034 20.8083 17.9328 19.6013C17.8316 18.3942 18.1905 17.1934 18.9375 16.2399C19.6846 15.2864 20.7645 14.6505 21.9608 14.4599C21.7692 13.6124 21.8114 12.7288 22.0827 11.9033C22.354 11.0778 22.8442 10.3414 23.5012 9.77276C24.1582 9.20407 24.9572 8.82438 25.813 8.67418C26.6689 8.52399 27.5494 8.60893 28.3608 8.91994C28.716 8.36066 29.1832 7.881 29.733 7.51114C30.2827 7.14128 30.9031 6.88923 31.555 6.77087C32.2069 6.65251 32.8762 6.6704 33.5209 6.82341C34.1656 6.97642 34.7716 7.26124 35.3008 7.65994C36.2239 6.93439 37.3809 6.57235 38.553 6.64233C39.725 6.71231 40.8308 7.20944 41.661 8.03968C42.4913 8.86992 42.9884 9.97567 43.0584 11.1477C43.1283 12.3198 42.7663 13.4768 42.0408 14.3999C42.4924 14.9998 42.7969 15.6972 42.93 16.4362C43.0631 17.1752 43.0209 17.935 42.807 18.6548C42.593 19.3745 42.2132 20.034 41.698 20.5802C41.1828 21.1264 40.5467 21.5442 39.8408 21.7999C40.0239 22.5197 40.0444 23.2712 39.9008 23.9999M26.0008 23.9999L34.0008 15.9999" stroke="#6356E5" stroke-width="2" stroke-linecap="round" stroke-linejoin="round"/>
<path d="M21.8001 14.4999C20.7031 13.3305 19.2792 12.5186 17.7141 12.1702C16.1489 11.8217 14.5151 11.9529 13.0256 12.5466C11.536 13.1402 10.2599 14.1688 9.3635 15.4983C8.46708 16.8278 7.99198 18.3965 8.0001 19.9999C8.0001 21.4599 8.4001 22.8199 9.0801 23.9999" stroke="#6356E5" stroke-width="2" stroke-linecap="round" stroke-linejoin="round"/>
</svg>
