<svg width="48" height="48" viewBox="0 0 48 48" fill="none" xmlns="http://www.w3.org/2000/svg">
<path d="M24 5C34.4937 5 43 13.5063 43 24C43 34.4937 34.4937 43 24 43C13.5063 43 5 34.4937 5 24C5 13.5063 13.5063 5 24 5ZM24 7C19.4913 7 15.1676 8.79137 11.9795 11.9795C8.79137 15.1676 7 19.4913 7 24C7 28.5087 8.79137 32.8324 11.9795 36.0205C15.1676 39.2086 19.4913 41 24 41C28.5087 41 32.8324 39.2086 36.0205 36.0205C39.2086 32.8324 41 28.5087 41 24C41 19.4913 39.2086 15.1676 36.0205 11.9795C32.8324 8.79137 28.5087 7 24 7ZM24.7168 39.9824C24.4785 39.9931 24.2396 40 24 40C24.2396 40 24.4785 39.9931 24.7168 39.9824ZM24.7715 39.9805C24.7533 39.9813 24.735 39.9816 24.7168 39.9824C24.735 39.9816 24.7533 39.9813 24.7715 39.9805ZM25.1787 39.9561C25.0997 39.9619 25.0206 39.966 24.9414 39.9707C25.0206 39.966 25.0997 39.9619 25.1787 39.9561ZM25.5615 39.9229C25.4656 39.9323 25.3696 39.9406 25.2734 39.9482C25.3696 39.9406 25.4656 39.9323 25.5615 39.9229ZM25.958 39.8789C25.8628 39.8906 25.7674 39.9011 25.6719 39.9111C25.7674 39.9011 25.8628 39.8906 25.958 39.8789ZM26.333 39.8281C26.244 39.8412 26.1547 39.8526 26.0654 39.8643C26.1547 39.8526 26.244 39.8412 26.333 39.8281ZM26.7236 39.7656C26.6356 39.7808 26.5473 39.7948 26.459 39.8086C26.5473 39.7948 26.6356 39.7808 26.7236 39.7656ZM27.1191 39.6914C27.0184 39.7114 26.9176 39.7309 26.8164 39.749C26.9176 39.7309 27.0184 39.7114 27.1191 39.6914ZM27.4512 39.6221C27.3732 39.6393 27.2951 39.6558 27.2168 39.6719C27.2951 39.6558 27.3732 39.6393 27.4512 39.6221ZM27.833 39.5332C27.78 39.5463 27.7269 39.5588 27.6738 39.5713C27.7269 39.5588 27.78 39.5463 27.833 39.5332ZM19.3467 39.3086C19.4711 39.3464 19.5963 39.3822 19.7217 39.417L20.0996 39.5176C19.9732 39.4858 19.8472 39.4528 19.7217 39.418L19.3467 39.3086ZM28.1992 39.4385C28.145 39.4532 28.0905 39.4673 28.0361 39.4814C28.0905 39.4673 28.145 39.4532 28.1992 39.4385ZM28.5752 39.3311C28.5223 39.3468 28.4691 39.3617 28.416 39.377C28.4691 39.3617 28.5223 39.3468 28.5752 39.3311ZM28.9463 39.2148C28.8881 39.2338 28.8299 39.2523 28.7715 39.2705C28.8299 39.2523 28.8881 39.2337 28.9463 39.2148ZM29.3145 39.0898C29.2517 39.1119 29.189 39.134 29.126 39.1553C29.189 39.134 29.2517 39.1119 29.3145 39.0898ZM29.7061 38.9473C29.6298 38.9764 29.5532 39.0043 29.4766 39.0322C29.5532 39.0043 29.6298 38.9764 29.7061 38.9473ZM30.0225 38.8213C29.9607 38.8464 29.8989 38.8712 29.8369 38.8955C29.8989 38.8712 29.9607 38.8464 30.0225 38.8213ZM30.4336 38.6475C30.3583 38.6805 30.2828 38.7132 30.207 38.7451C30.2828 38.7132 30.3583 38.6805 30.4336 38.6475ZM16.8125 38.2949C16.9289 38.3535 17.0463 38.4102 17.1641 38.4658L17.5186 38.6279C17.3995 38.5752 17.2808 38.5215 17.1631 38.4658L16.8125 38.2949ZM30.7617 38.499C30.6787 38.5378 30.5954 38.576 30.5117 38.6133C30.5954 38.576 30.6787 38.5378 30.7617 38.499ZM31.082 38.3457C31.0242 38.3743 30.9664 38.4028 30.9082 38.4307C30.9664 38.4028 31.0242 38.3743 31.082 38.3457ZM31.4199 38.1738C31.3621 38.2041 31.3042 38.2341 31.2461 38.2637C31.3042 38.2341 31.3621 38.2041 31.4199 38.1738ZM31.708 38.0195C31.6809 38.0344 31.6541 38.0497 31.627 38.0645C31.6541 38.0497 31.6809 38.0344 31.708 38.0195ZM32.043 37.8301C32.0114 37.8484 31.9799 37.8667 31.9482 37.8848C31.9799 37.8667 32.0114 37.8484 32.043 37.8301ZM32.7705 37.3799C32.7098 37.4196 32.6491 37.4591 32.5879 37.498C32.6491 37.4591 32.7098 37.4196 32.7705 37.3799ZM33.0791 37.1719C33.0228 37.2107 32.9669 37.25 32.9102 37.2881C32.9669 37.25 33.0228 37.2107 33.0791 37.1719ZM33.7383 36.6924C33.6734 36.7422 33.6086 36.7921 33.543 36.8408C33.6086 36.7921 33.6734 36.7422 33.7383 36.6924ZM12.9707 35.5908C13.2582 35.8644 13.5553 36.126 13.8604 36.376L14.168 36.6221C13.8572 36.38 13.5544 36.1263 13.2607 35.8604L12.9707 35.5908ZM34.0029 36.4854C33.9501 36.5277 33.8971 36.5697 33.8438 36.6113C33.8971 36.5697 33.9501 36.5277 34.0029 36.4854ZM34.3174 36.2266C34.4625 36.1041 34.607 35.9805 34.748 35.8525L34.7393 35.8604C34.601 35.9855 34.4595 36.1066 34.3174 36.2266ZM11.3779 33.832C11.6198 34.1426 11.8739 34.4448 12.1396 34.7383L12.4092 35.0293C12.1354 34.7416 11.8732 34.4449 11.623 34.1396L11.3779 33.832ZM36.6221 33.832C36.38 34.1428 36.1263 34.4456 35.8604 34.7393L35.5908 35.0293C35.8644 34.7418 36.126 34.4447 36.376 34.1396L36.6221 33.832ZM29.998 31.998C29.9405 31.9981 29.8832 31.9942 29.8262 31.9893C29.8832 31.9942 29.9405 31.9981 29.998 31.998ZM29.7822 31.9854C29.7403 31.9808 29.6987 31.974 29.6572 31.9668C29.6987 31.974 29.7403 31.9808 29.7822 31.9854ZM29.5996 31.957C29.5536 31.9477 29.5081 31.9364 29.4629 31.9238C29.5081 31.9364 29.5536 31.9477 29.5996 31.957ZM30.5391 31.9219C30.4924 31.935 30.4452 31.9463 30.3975 31.9561C30.4452 31.9463 30.4924 31.935 30.5391 31.9219ZM29.418 31.9111C29.4329 31.9157 29.4479 31.9197 29.4629 31.9238C29.4479 31.9197 29.4329 31.9156 29.418 31.9111ZM29.418 31.9111C29.3727 31.8974 29.3284 31.8812 29.2842 31.8643C29.3284 31.8811 29.3727 31.8974 29.418 31.9111ZM30.7148 31.8633C30.6747 31.8788 30.6339 31.8924 30.5928 31.9053C30.6339 31.8924 30.6747 31.8787 30.7148 31.8633ZM30.876 31.792C30.8384 31.8104 30.8004 31.8277 30.7617 31.8438C30.8004 31.8277 30.8384 31.8104 30.876 31.792ZM29.2305 31.8428C29.1995 31.8299 29.169 31.8162 29.1387 31.8018C29.169 31.8162 29.1995 31.8299 29.2305 31.8428ZM31.0361 31.7041C30.9998 31.7262 30.9634 31.7478 30.9258 31.7676C30.9634 31.7478 30.9998 31.7262 31.0361 31.7041ZM28.9297 31.6885C28.9736 31.7162 29.0187 31.7415 29.0645 31.7656C29.0188 31.7415 28.9736 31.7162 28.9297 31.6885ZM31.1797 31.6084C31.1483 31.6314 31.1166 31.6537 31.084 31.6748C31.1166 31.6537 31.1483 31.6314 31.1797 31.6084ZM31.8789 30.6758C31.7942 30.9107 31.6652 31.1296 31.4971 31.3203C31.6231 31.1773 31.7268 31.0183 31.8066 30.8486L31.8789 30.6758ZM24.0908 13.0039C24.3028 13.0233 24.5038 13.1104 24.6641 13.2529C24.8414 13.4106 24.9562 13.6259 24.9893 13.8604L25 14.0283V23.5859L30.707 29.293C30.8856 29.4728 30.9893 29.7144 30.9971 29.9678C31.0047 30.2216 30.915 30.4687 30.7471 30.6592C30.579 30.8496 30.3446 30.9691 30.0918 30.9932C29.8456 31.0165 29.6006 30.9469 29.4023 30.7998L29.2617 30.6758L23.293 24.707C23.1402 24.554 23.0422 24.3554 23.0117 24.1416L23 23.96V14C23 13.7348 23.1054 13.4805 23.293 13.293C23.4805 13.1054 23.7348 13 24 13L24.0908 13.0039ZM31.9932 30.126C31.9891 30.1889 31.9826 30.2515 31.9727 30.3135L31.9336 30.4971C31.9492 30.4366 31.9618 30.3753 31.9717 30.3135L31.9932 30.126ZM31.9004 29.3809C31.939 29.4998 31.9657 29.6229 31.9814 29.748L31.9961 29.9365C31.9883 29.6828 31.9326 29.4351 31.834 29.2061L31.9004 29.3809ZM31.541 28.7266C31.6213 28.824 31.6919 28.9283 31.752 29.0381C31.722 28.9833 31.6894 28.9298 31.6543 28.8779L31.541 28.7266ZM8.48242 27.9004C8.51422 28.0269 8.54815 28.1528 8.58301 28.2783L8.69141 28.6533C8.65355 28.5288 8.61686 28.4038 8.58203 28.2783L8.48242 27.9004ZM39.5176 27.9004C39.4858 28.0268 39.4528 28.1528 39.418 28.2783L39.3086 28.6533C39.3464 28.5289 39.3822 28.4037 39.417 28.2783L39.5176 27.9004ZM22.4434 25.2529C22.4234 25.2281 22.4035 25.2034 22.3848 25.1777C22.4035 25.2034 22.4234 25.2281 22.4434 25.2529ZM22.2773 25.0127C22.2564 24.9771 22.2364 24.9411 22.2178 24.9043C22.2364 24.9411 22.2564 24.9771 22.2773 25.0127ZM22.1982 24.8662C22.1833 24.8351 22.1696 24.8034 22.1562 24.7715C22.1696 24.8034 22.1833 24.8351 22.1982 24.8662ZM22.1338 24.7188C22.1168 24.6745 22.1018 24.6294 22.0879 24.584C22.1018 24.6294 22.1168 24.6745 22.1338 24.7188ZM22.0459 24.4238C22.0568 24.4742 22.0693 24.5241 22.084 24.5732C22.0693 24.5241 22.0568 24.4742 22.0459 24.4238ZM8.01855 23.2275C8.00616 23.4842 8 23.7418 8 24C8 23.7418 8.00616 23.4842 8.01855 23.2275ZM39.9893 23.4707C39.9951 23.6468 40 23.8232 40 24C40 23.8232 39.9951 23.6468 39.9893 23.4707ZM8.04297 22.8203C8.07158 22.4331 8.11455 22.0481 8.1709 21.666C8.11456 22.0481 8.07158 22.4331 8.04297 22.8203ZM39.9561 22.8262C39.9596 22.8743 39.9627 22.9225 39.9658 22.9707C39.9627 22.9225 39.9596 22.8743 39.9561 22.8262ZM8.30957 20.8662C8.28241 21.0022 8.25704 21.1386 8.2334 21.2754C8.25704 21.1386 8.28241 21.0022 8.30957 20.8662ZM39.7666 21.2832C39.7813 21.3687 39.7952 21.4543 39.8086 21.54C39.7952 21.4543 39.7813 21.3687 39.7666 21.2832ZM8.42773 20.3252C8.44027 20.2721 8.45275 20.219 8.46582 20.166C8.45275 20.219 8.44027 20.2721 8.42773 20.3252ZM39.5332 20.166C39.5463 20.219 39.5588 20.2721 39.5713 20.3252C39.5588 20.2721 39.5463 20.219 39.5332 20.166ZM8.51758 19.9629C8.53177 19.9085 8.54579 19.854 8.56055 19.7998C8.54579 19.854 8.53177 19.9085 8.51758 19.9629ZM39.4385 19.7998C39.4532 19.854 39.4673 19.9085 39.4814 19.9629C39.4673 19.9085 39.4532 19.854 39.4385 19.7998ZM8.62207 19.583C8.63732 19.5299 8.65217 19.4767 8.66797 19.4238C8.65218 19.4767 8.63732 19.5299 8.62207 19.583ZM39.3311 19.4238C39.3469 19.4767 39.3617 19.5299 39.377 19.583C39.3617 19.5299 39.3469 19.4767 39.3311 19.4238ZM8.72852 19.2275C8.74676 19.1692 8.76527 19.1109 8.78418 19.0527C8.76527 19.1109 8.74676 19.1692 8.72852 19.2275ZM39.2148 19.0527C39.2338 19.1109 39.2523 19.1692 39.2705 19.2275C39.2523 19.1692 39.2338 19.1109 39.2148 19.0527ZM8.84375 18.873C8.86784 18.8018 8.89288 18.731 8.91797 18.6602C8.89289 18.731 8.86784 18.8018 8.84375 18.873ZM39.082 18.6602C39.1071 18.7309 39.1312 18.8019 39.1553 18.873C39.1312 18.8019 39.1071 18.7309 39.082 18.6602ZM8.9668 18.5225C8.99777 18.4375 9.0301 18.353 9.0625 18.2686C9.0301 18.353 8.99777 18.4375 8.9668 18.5225ZM38.9375 18.2686C38.9699 18.3529 39.0013 18.4376 39.0322 18.5225C39.0013 18.4376 38.9699 18.3529 38.9375 18.2686ZM9.10352 18.1621C9.12782 18.1001 9.15265 18.0383 9.17773 17.9766C9.15266 18.0383 9.12782 18.1001 9.10352 18.1621ZM38.8213 17.9766C38.8464 18.0383 38.8712 18.1001 38.8955 18.1621C38.8712 18.1001 38.8464 18.0383 38.8213 17.9766ZM9.39551 17.4668C9.42983 17.3901 9.46447 17.3135 9.5 17.2373C9.46447 17.3135 9.42983 17.3901 9.39551 17.4668ZM38.499 17.2373C38.5346 17.3136 38.5701 17.3899 38.6045 17.4668C38.5701 17.3899 38.5346 17.3136 38.499 17.2373ZM9.56836 17.0908C9.59621 17.0327 9.62477 16.9748 9.65332 16.917C9.62477 16.9748 9.59621 17.0327 9.56836 17.0908ZM38.3457 16.917C38.3743 16.9748 38.4028 17.0327 38.4307 17.0908C38.4028 17.0327 38.3743 16.9748 38.3457 16.917ZM9.74414 16.7363C9.77091 16.6838 9.79784 16.6313 9.8252 16.5791C9.79785 16.6313 9.77091 16.6838 9.74414 16.7363ZM38.1738 16.5791C38.2013 16.6315 38.229 16.6837 38.2559 16.7363C38.229 16.6837 38.2012 16.6315 38.1738 16.5791ZM9.93262 16.377C9.94816 16.3483 9.96377 16.3196 9.97949 16.291C9.96377 16.3196 9.94816 16.3483 9.93262 16.377ZM38.0195 16.291C38.0353 16.3196 38.0509 16.3483 38.0664 16.377C38.0509 16.3483 38.0353 16.3196 38.0195 16.291ZM10.1143 16.0508C10.1324 16.0191 10.1506 15.9876 10.1689 15.9561C10.1506 15.9876 10.1324 16.0191 10.1143 16.0508ZM37.8301 15.9561C37.8484 15.9876 37.8667 16.0191 37.8848 16.0508C37.8667 16.0191 37.8484 15.9876 37.8301 15.9561ZM10.3232 15.6973C10.3815 15.6013 10.4407 15.5059 10.501 15.4111C10.4407 15.5059 10.3815 15.6013 10.3232 15.6973ZM10.501 15.4111C10.5399 15.35 10.5794 15.2892 10.6191 15.2285C10.5794 15.2892 10.5399 15.35 10.501 15.4111ZM37.3799 15.2285C37.4197 15.2892 37.4591 15.35 37.498 15.4111C37.4591 15.35 37.4196 15.2892 37.3799 15.2285ZM10.9121 14.7949C10.9719 14.71 11.0342 14.6268 11.0957 14.543C11.0342 14.6268 10.9719 14.71 10.9121 14.7949ZM37.166 14.9111C37.2069 14.9703 37.2481 15.0292 37.2881 15.0889C37.2481 15.0292 37.2069 14.9703 37.166 14.9111ZM11.3848 14.1592C11.4524 14.0725 11.5213 13.9868 11.5908 13.9014C11.5213 13.9868 11.4524 14.0725 11.3848 14.1592ZM36.6367 14.1865C36.7059 14.2756 36.7736 14.3657 36.8408 14.4561C36.7736 14.3657 36.7059 14.2756 36.6367 14.1865ZM22 14C22 13.9384 22.0032 13.8772 22.0088 13.8164C22.0032 13.8772 22 13.9384 22 14ZM36.3623 13.8428C36.3579 13.8374 36.353 13.8325 36.3486 13.8271C36.353 13.8325 36.3579 13.8374 36.3623 13.8428ZM25.8496 13.2393C25.9184 13.4064 25.9648 13.5833 25.9863 13.7656C25.972 13.6439 25.9459 13.5248 25.9102 13.4092L25.8496 13.2393ZM22.0156 13.7578C22.0214 13.7106 22.029 13.6637 22.0381 13.6172C22.029 13.6637 22.0214 13.7106 22.0156 13.7578ZM12.1475 13.252C12.0177 13.3951 11.8917 13.5412 11.7676 13.6885C11.8892 13.5442 12.0126 13.401 12.1396 13.2607L12.1475 13.252ZM35.8604 13.2607C35.9874 13.401 36.1108 13.5442 36.2324 13.6885C36.1083 13.5412 35.9823 13.3951 35.8525 13.252L35.8604 13.2607ZM22.0459 13.5781C22.0556 13.533 22.0673 13.4885 22.0801 13.4443C22.0673 13.4885 22.0556 13.533 22.0459 13.5781ZM22.1016 13.377C22.1131 13.3419 22.1243 13.3068 22.1377 13.2725C22.1243 13.3068 22.1131 13.3419 22.1016 13.377ZM22.168 13.2002C22.1817 13.1688 22.1966 13.1381 22.2119 13.1074C22.1966 13.1381 22.1817 13.1688 22.168 13.2002ZM22.2461 13.04C22.2687 12.9987 22.2938 12.9587 22.3193 12.9189C22.2938 12.9587 22.2687 12.9987 22.2461 13.04ZM22.4531 12.7324C22.4133 12.781 22.3757 12.831 22.3408 12.8828C22.3757 12.831 22.4133 12.781 22.4531 12.7324ZM25.3291 12.5059C25.4076 12.5757 25.479 12.6521 25.5449 12.7324C25.479 12.6521 25.4076 12.5757 25.3291 12.5059ZM14.168 11.3779C13.8574 11.6198 13.5552 11.8739 13.2617 12.1396L12.9707 12.4092C13.2584 12.1354 13.5551 11.8732 13.8604 11.623L14.168 11.3779ZM33.832 11.3779C34.1428 11.62 34.4456 11.8737 34.7393 12.1396L35.0293 12.4092C34.7418 12.1356 34.4447 11.874 34.1396 11.624L33.832 11.3779ZM24.9795 12.2578C25.0225 12.282 25.0642 12.3085 25.1055 12.3359C25.0642 12.3085 25.0225 12.282 24.9795 12.2578ZM24.7109 12.1309C24.8035 12.1661 24.8929 12.2091 24.9795 12.2578C24.9457 12.2388 24.9118 12.2201 24.877 12.2031L24.7109 12.1309ZM17.5186 9.37207C17.3998 9.42471 17.2816 9.47865 17.1641 9.53418L16.8125 9.70508C16.9287 9.64667 17.0456 9.58972 17.1631 9.53418L17.5186 9.37207ZM30.4814 9.37207C30.6005 9.42482 30.7192 9.47853 30.8369 9.53418L31.1875 9.70508C31.0711 9.64653 30.9537 9.58985 30.8359 9.53418L30.4814 9.37207ZM20.0996 8.48242C19.9731 8.51422 19.8472 8.54815 19.7217 8.58301L19.3467 8.69141C19.4712 8.65355 19.5962 8.61686 19.7217 8.58203L20.0996 8.48242ZM27.9004 8.48242C28.0268 8.5142 28.1528 8.54721 28.2783 8.58203L28.6533 8.69141C28.5289 8.65357 28.4037 8.61782 28.2783 8.58301L27.9004 8.48242ZM32.5879 37.498C32.4989 37.5547 32.4094 37.6102 32.3193 37.665C32.4094 37.6102 32.4989 37.5547 32.5879 37.498ZM33.4912 36.8799C33.3967 36.9495 33.301 37.0175 33.2051 37.085C33.301 37.0175 33.3967 36.9495 33.4912 36.8799ZM34.1641 36.3555C34.2156 36.3131 34.2663 36.2696 34.3174 36.2266C34.2663 36.2696 34.2156 36.3131 34.1641 36.3555ZM22.3584 25.1406C22.3336 25.105 22.3104 25.0684 22.2881 25.0312C22.3104 25.0684 22.3336 25.105 22.3584 25.1406ZM39.9658 22.9707C39.9713 23.0562 39.9763 23.1418 39.9805 23.2275C39.9763 23.1418 39.9713 23.0562 39.9658 22.9707ZM8.03418 22.9707C8.03741 22.9206 8.03927 22.8704 8.04297 22.8203C8.03927 22.8704 8.03741 22.9206 8.03418 22.9707ZM39.8281 21.666C39.8412 21.755 39.8526 21.8443 39.8643 21.9336C39.8526 21.8443 39.8412 21.755 39.8281 21.666ZM39.8799 22.0498C39.8922 22.1502 39.9036 22.2508 39.9141 22.3516C39.9036 22.2508 39.8922 22.1502 39.8799 22.0498ZM39.9229 22.4385C39.9334 22.5464 39.9428 22.6544 39.9512 22.7627C39.9428 22.6544 39.9334 22.5464 39.9229 22.4385ZM8.19141 21.54C8.20515 21.4517 8.21819 21.3634 8.2334 21.2754C8.2182 21.3634 8.20515 21.4517 8.19141 21.54ZM8.33594 20.7402C8.3493 20.676 8.36281 20.6119 8.37695 20.5479C8.36281 20.6119 8.3493 20.676 8.33594 20.7402ZM8.33594 20.7402C8.3272 20.7822 8.31798 20.8241 8.30957 20.8662C8.31798 20.8241 8.3272 20.7822 8.33594 20.7402ZM39.6221 20.5479C39.6412 20.6342 39.6591 20.7209 39.6768 20.8076C39.6591 20.7209 39.6412 20.6342 39.6221 20.5479ZM39.6943 20.8936C39.7142 20.9939 39.733 21.0945 39.751 21.1953C39.733 21.0945 39.7142 20.9939 39.6943 20.8936ZM9.38379 17.4941C9.36779 17.5301 9.35069 17.5655 9.33496 17.6016C9.35069 17.5655 9.36779 17.5301 9.38379 17.4941ZM38.6543 17.5811C38.685 17.6512 38.7154 17.7214 38.7451 17.792C38.7154 17.7214 38.685 17.6512 38.6543 17.5811ZM10.1689 15.9561C10.2194 15.8693 10.2711 15.7831 10.3232 15.6973C10.2711 15.7831 10.2194 15.8693 10.1689 15.9561ZM37.498 15.4111C37.5539 15.4989 37.609 15.587 37.6631 15.6758C37.609 15.587 37.5539 15.4989 37.498 15.4111ZM10.7109 15.0889C10.7483 15.0331 10.7871 14.9782 10.8252 14.9229C10.7871 14.9782 10.7483 15.0331 10.7109 15.0889ZM36.9043 14.543C36.9653 14.6262 37.0257 14.7097 37.085 14.7939C37.0257 14.7097 36.9653 14.6262 36.9043 14.543ZM36.4092 13.9014C36.4776 13.9855 36.5457 14.0699 36.6123 14.1553C36.5457 14.0699 36.4776 13.9855 36.4092 13.9014Z" fill="#6356E5"/>
</svg>
