<svg width="48" height="48" viewBox="0 0 48 48" fill="none" xmlns="http://www.w3.org/2000/svg">
<path d="M14 30.0001C15.5835 29.3368 17.2832 28.9951 19 28.9951C20.7168 28.9951 22.4165 29.3368 24 30.0001C25.5835 30.6635 27.2832 31.0052 29 31.0052C30.7168 31.0052 32.4165 30.6635 34 30.0001" stroke="#6356E5" stroke-width="2" stroke-linecap="round" stroke-linejoin="round"/>
<path d="M17.7451 14.1592C17.7191 14.2031 17.6938 14.2475 17.667 14.291L17.4883 14.5703L16.1758 16.5391C15.4088 17.6894 14.9997 19.0412 15 20.4238V40C15 40.7957 15.3163 41.5585 15.8789 42.1211C16.4415 42.6837 17.2044 43 18 43H30C30.7956 43 31.5585 42.6837 32.1211 42.1211C32.6837 41.5585 33 40.7957 33 40V29.4141L35 31.4141V40C35 41.3261 34.4728 42.5975 33.5352 43.5352C32.5975 44.4728 31.3261 45 30 45H18C16.6739 45 15.4025 44.4728 14.4648 43.5352C13.5272 42.5975 13 41.3261 13 40V20.4238C12.9997 18.6464 13.5257 16.9086 14.5117 15.4297L15.8242 13.4609L15.9639 13.2432C16.0756 13.0614 16.1743 12.8729 16.2686 12.6826L17.7451 14.1592ZM32 3C32.5523 3 33 3.44772 33 4C33 4.55228 32.5523 5 32 5H31V9.57617L31.0049 9.83496C31.0524 11.1269 31.4567 12.3824 32.1758 13.4609L33.4883 15.4297L33.667 15.709C34.5373 17.1247 34.9999 18.7557 35 20.4219V28.5859L33 26.5859V20.4219C32.9999 19.1263 32.6405 17.8578 31.9639 16.7568L31.8242 16.5391L30.5117 14.5703C29.5257 13.0914 28.9997 11.3536 29 9.57617V5H19V9.57812L18.9941 9.91113C18.9653 10.6892 18.8341 11.4565 18.6094 12.1953L16.9326 10.5186C16.9632 10.2928 16.9866 10.0657 16.9951 9.83691L17 9.57812V5H16C15.4477 5 15 4.55228 15 4C15 3.44772 15.4477 3 16 3H32Z" fill="#6356E5"/>
<path d="M8 5L44 41" stroke="#6356E5" stroke-width="2" stroke-linecap="round" stroke-linejoin="round"/>
</svg>
