<svg width="48" height="48" viewBox="0 0 48 48" fill="none" xmlns="http://www.w3.org/2000/svg">
<path d="M10.8906 43.8438C11.2483 43.947 11.6216 44.0001 12 44L11.8115 43.9961C11.5603 43.9843 11.3123 43.9484 11.0703 43.8906L10.8906 43.8438ZM36.6738 43.9443C36.6123 43.9548 36.5504 43.964 36.4883 43.9717L36.2998 43.9902C36.3626 43.9855 36.4251 43.9793 36.4873 43.9717L36.6738 43.9443ZM37.3945 43.75C37.3364 43.7716 37.2779 43.7926 37.2188 43.8115L37.0391 43.8643C37.0991 43.8481 37.1587 43.8304 37.2178 43.8115L37.3945 43.75ZM8.67188 42.2207C8.84444 42.4791 9.04803 42.7182 9.2793 42.9326C9.64935 43.2758 10.0774 43.5425 10.5391 43.7236L10.7129 43.7881C10.1846 43.6087 9.69549 43.3186 9.2793 42.9326C9.09441 42.7612 8.92697 42.5743 8.7793 42.374L8.67188 42.2207ZM38.0635 43.4277C38.0104 43.4597 37.9569 43.491 37.9023 43.5205L37.7363 43.6045C37.7921 43.5776 37.8469 43.549 37.9014 43.5195L38.0635 43.4277ZM39.1758 42.4336C39.0998 42.5328 39.0183 42.6283 38.9326 42.7207C38.7612 42.9056 38.5743 43.073 38.374 43.2207L38.2207 43.3281C38.4791 43.1556 38.7182 42.952 38.9326 42.7207C39.0184 42.6281 39.0996 42.532 39.1758 42.4326V42.4336ZM36 7L36.2822 7.01367C36.9364 7.0752 37.5554 7.34959 38.041 7.7998C38.592 8.31073 38.9298 9.01021 38.9902 9.75879L39 10V40L38.9863 40.2822C38.9248 40.9364 38.6504 41.5554 38.2002 42.041C37.689 42.5922 36.9892 42.93 36.2402 42.9902L35.9941 43H12C11.2433 43.0002 10.5139 42.7147 9.95898 42.2002C9.40776 41.689 9.06896 40.9892 9.00879 40.2402L9 40V10C8.99976 9.24327 9.28534 8.51392 9.7998 7.95898C10.3107 7.40799 11.0102 7.06918 11.7588 7.00879L12.0059 7H36ZM39.4844 41.9658C39.4539 42.0198 39.4226 42.0734 39.3896 42.126L39.2861 42.2812C39.3573 42.1787 39.4233 42.0731 39.4844 41.9648V41.9658ZM8.39551 41.7363C8.42239 41.7921 8.45102 41.8469 8.48047 41.9014L8.57227 42.0635C8.54028 42.0104 8.50895 41.9568 8.47949 41.9023L8.39551 41.7363ZM39.7236 41.4619C39.7011 41.5194 39.6775 41.5764 39.6523 41.6328L39.5723 41.8008C39.6281 41.6899 39.6783 41.5764 39.7236 41.4609V41.4619ZM11 9V41H37V9H11ZM40 40C40.0001 40.1892 39.9872 40.3772 39.9609 40.5625L39.9297 40.7471C39.9762 40.5024 40.0001 40.2524 40 40ZM27.3359 37.4961C27.499 37.6049 27.6722 37.6968 27.8525 37.7715L28.1279 37.8701C27.9408 37.8132 27.7595 37.7386 27.5869 37.6465L27.3359 37.4961ZM30.6641 37.4961C30.5012 37.6047 30.3285 37.6969 30.1484 37.7715L29.8721 37.8701C30.0589 37.8133 30.2398 37.7385 30.4121 37.6465L30.6641 37.4961ZM17.3359 37.4961C17.5806 37.6592 17.8476 37.7849 18.1279 37.8701C17.9408 37.8132 17.7595 37.7386 17.5869 37.6465L17.3359 37.4961ZM20.6641 37.4961C20.4194 37.6592 20.1524 37.7849 19.8721 37.8701C20.0589 37.8133 20.2398 37.7385 20.4121 37.6465L20.6641 37.4961ZM19 33C19.5304 33 20.039 33.2109 20.4141 33.5859C20.7423 33.9142 20.9449 34.3447 20.9902 34.8027L21 35C21 35.5304 20.7891 36.039 20.4141 36.4141C20.039 36.7891 19.5304 37 19 37C18.4696 37 17.961 36.7891 17.5859 36.4141C17.2577 36.0858 17.0551 35.6553 17.0098 35.1973L17 35C17 34.4696 17.2109 33.961 17.5859 33.5859C17.961 33.2109 18.4696 33 19 33ZM29 33C29.5304 33 30.039 33.2109 30.4141 33.5859C30.7423 33.9142 30.9449 34.3447 30.9902 34.8027L31 35C31 35.5304 30.7891 36.039 30.4141 36.4141C30.039 36.7891 29.5304 37 29 37C28.4696 37 27.961 36.7891 27.5859 36.4141C27.2577 36.0858 27.0551 35.6553 27.0098 35.1973L27 35C27 34.4696 27.2109 33.961 27.5859 33.5859C27.961 33.2109 28.4696 33 29 33ZM16.2285 36.1475C16.2659 36.2376 16.3075 36.3259 16.3535 36.4121L16.5039 36.6641C16.3953 36.5012 16.3031 36.3285 16.2285 36.1484V36.1475ZM21.7715 36.1484C21.7341 36.2386 21.6925 36.3269 21.6465 36.4131L21.4961 36.6641C21.6049 36.501 21.6968 36.3278 21.7715 36.1475V36.1484ZM26.2285 36.1475C26.2659 36.2376 26.3075 36.3259 26.3535 36.4121L26.5039 36.6641C26.3953 36.5012 26.3031 36.3285 26.2285 36.1484V36.1475ZM31.7715 36.1484C31.7341 36.2386 31.6925 36.3269 31.6465 36.4131L31.4961 36.6641C31.6049 36.501 31.6968 36.3278 31.7715 36.1475V36.1484ZM16.3535 33.5879C16.3075 33.6741 16.2659 33.7624 16.2285 33.8525L16.1299 34.1279C16.1868 33.9408 16.2614 33.7595 16.3535 33.5869V33.5879ZM21.4961 33.3359C21.6047 33.4988 21.6969 33.6715 21.7715 33.8516L21.8701 34.1279C21.8133 33.9411 21.7385 33.7602 21.6465 33.5879L21.4961 33.3359ZM26.3535 33.5879C26.3075 33.6741 26.2659 33.7624 26.2285 33.8525L26.1299 34.1279C26.1868 33.9408 26.2614 33.7595 26.3535 33.5869V33.5879ZM31.4961 33.3359C31.6047 33.4988 31.6969 33.6715 31.7715 33.8516L31.8701 34.1279C31.8133 33.9411 31.7385 33.7602 31.6465 33.5879L31.4961 33.3359ZM18.1279 32.1299C17.9411 32.1867 17.7602 32.2615 17.5879 32.3535L17.3359 32.5039C17.4988 32.3953 17.6715 32.3031 17.8516 32.2285L18.1279 32.1299ZM19.8721 32.1299C20.0592 32.1868 20.2405 32.2614 20.4131 32.3535L20.6641 32.5039C20.501 32.3951 20.3278 32.3032 20.1475 32.2285L19.8721 32.1299ZM28.1279 32.1299C27.9411 32.1867 27.7602 32.2615 27.5879 32.3535L27.3359 32.5039C27.4988 32.3953 27.6715 32.3031 27.8516 32.2285L28.1279 32.1299ZM29.8721 32.1299C30.0592 32.1868 30.2405 32.2614 30.4131 32.3535L30.6641 32.5039C30.501 32.3951 30.3278 32.3032 30.1475 32.2285L29.8721 32.1299ZM17.3359 29.4961C17.499 29.6049 17.6722 29.6968 17.8525 29.7715L18.1279 29.8701C17.9408 29.8132 17.7595 29.7386 17.5869 29.6465L17.3359 29.4961ZM20.6641 29.4961C20.5012 29.6047 20.3285 29.6969 20.1484 29.7715L19.8721 29.8701C20.0589 29.8133 20.2398 29.7385 20.4121 29.6465L20.6641 29.4961ZM27.3359 29.4961C27.499 29.6049 27.6722 29.6968 27.8525 29.7715L28.1279 29.8701C27.9408 29.8132 27.7595 29.7386 27.5869 29.6465L27.3359 29.4961ZM30.6641 29.4961C30.5012 29.6047 30.3285 29.6969 30.1484 29.7715L29.8721 29.8701C30.0589 29.8133 30.2398 29.7385 30.4121 29.6465L30.6641 29.4961ZM19.1973 25.0098C19.6553 25.0551 20.0858 25.2577 20.4141 25.5859C20.7423 25.9142 20.9449 26.3447 20.9902 26.8027L21 27C21 27.5304 20.7891 28.039 20.4141 28.4141C20.0858 28.7423 19.6553 28.9449 19.1973 28.9902L19 29C18.4696 29 17.961 28.7891 17.5859 28.4141C17.2577 28.0858 17.0551 27.6553 17.0098 27.1973L17 27C17 26.4696 17.2109 25.961 17.5859 25.5859C17.961 25.2109 18.4696 25 19 25L19.1973 25.0098ZM29.1973 25.0098C29.6553 25.0551 30.0858 25.2577 30.4141 25.5859C30.7423 25.9142 30.9449 26.3447 30.9902 26.8027L31 27C31 27.5304 30.7891 28.039 30.4141 28.4141C30.0858 28.7423 29.6553 28.9449 29.1973 28.9902L29 29C28.4696 29 27.961 28.7891 27.5859 28.4141C27.2577 28.0858 27.0551 27.6553 27.0098 27.1973L27 27C27 26.4696 27.2109 25.961 27.5859 25.5859C27.961 25.2109 28.4696 25 29 25L29.1973 25.0098ZM16.2285 28.1475C16.2659 28.2376 16.3075 28.3259 16.3535 28.4121L16.5039 28.6641C16.3953 28.5012 16.3031 28.3285 16.2285 28.1484V28.1475ZM21.7715 28.1484C21.7341 28.2386 21.6925 28.3269 21.6465 28.4131L21.4961 28.6641C21.6049 28.501 21.6968 28.3278 21.7715 28.1475V28.1484ZM26.2285 28.1475C26.2659 28.2376 26.3075 28.3259 26.3535 28.4121L26.5039 28.6641C26.3953 28.5012 26.3031 28.3285 26.2285 28.1484V28.1475ZM31.7715 28.1484C31.7341 28.2386 31.6925 28.3269 31.6465 28.4131L31.4961 28.6641C31.6049 28.501 31.6968 28.3278 31.7715 28.1475V28.1484ZM16.3535 25.5879C16.3075 25.6741 16.2659 25.7624 16.2285 25.8525L16.1299 26.1279C16.1868 25.9408 16.2614 25.7595 16.3535 25.5869V25.5879ZM21.4961 25.3359C21.6047 25.4988 21.6969 25.6715 21.7715 25.8516L21.8701 26.1279C21.8133 25.9411 21.7385 25.7602 21.6465 25.5879L21.4961 25.3359ZM26.3535 25.5879C26.3075 25.6741 26.2659 25.7624 26.2285 25.8525L26.1299 26.1279C26.1868 25.9408 26.2614 25.7595 26.3535 25.5869V25.5879ZM31.4961 25.3359C31.6047 25.4988 31.6969 25.6715 31.7715 25.8516L31.8701 26.1279C31.8133 25.9411 31.7385 25.7602 31.6465 25.5879L31.4961 25.3359ZM18.1279 24.1299C17.9411 24.1867 17.7602 24.2615 17.5879 24.3535L17.3359 24.5039C17.4988 24.3953 17.6715 24.3031 17.8516 24.2285L18.1279 24.1299ZM19.8721 24.1299C20.0592 24.1868 20.2405 24.2614 20.4131 24.3535L20.6641 24.5039C20.501 24.3951 20.3278 24.3032 20.1475 24.2285L19.8721 24.1299ZM28.1279 24.1299C27.9411 24.1867 27.7602 24.2615 27.5879 24.3535L27.3359 24.5039C27.4988 24.3953 27.6715 24.3031 27.8516 24.2285L28.1279 24.1299ZM29.8721 24.1299C30.0592 24.1868 30.2405 24.2614 30.4131 24.3535L30.6641 24.5039C30.501 24.3951 30.3278 24.3032 30.1475 24.2285L29.8721 24.1299ZM16.1797 21.8857C16.3561 21.9359 16.5375 21.9701 16.7217 21.9873L16.4482 21.9492L16.1797 21.8857ZM32.3447 21.6816C32.181 21.7638 32.0097 21.8307 31.833 21.8818C31.9214 21.8563 32.0083 21.8264 32.0938 21.793L32.3447 21.6816ZM14.9834 21.2207C15.0525 21.2835 15.1242 21.3428 15.1982 21.3984L15.4268 21.5537C15.3483 21.5054 15.2713 21.4541 15.1973 21.3984L14.9834 21.2207ZM31 13L31.1855 13.0088C31.6153 13.0489 32.0227 13.2271 32.3447 13.5195C32.7106 13.8519 32.9388 14.3082 32.9883 14.7998L33 15.0273V19L32.9912 19.1855C32.9511 19.6153 32.7729 20.0227 32.4805 20.3447C32.1479 20.7109 31.6912 20.939 31.1992 20.9883L30.9717 21H17C16.5028 21 16.0233 20.8147 15.6553 20.4805C15.2891 20.1479 15.06 19.6913 15.0107 19.1992L15 18.9717V15C15 14.5028 15.1853 14.0233 15.5195 13.6553C15.8519 13.2894 16.3081 13.0602 16.7998 13.0107L17.0283 13H31ZM14.1182 19.833C14.1554 19.9619 14.2039 20.0867 14.2578 20.209C14.2408 20.1705 14.2214 20.133 14.2061 20.0938L14.1182 19.833ZM33.9873 19.2783C33.9787 19.3702 33.9661 19.4615 33.9492 19.5518L33.8857 19.8203C33.9109 19.732 33.9313 19.6423 33.9482 19.5518L33.9873 19.2783ZM17 15V19H31V15H17ZM14.1143 14.1797C14.0736 14.3225 14.0464 14.469 14.0273 14.6172C14.0346 14.5607 14.0403 14.5041 14.0508 14.4482L14.1143 14.1797ZM33.6816 13.6553C33.7551 13.8016 33.8146 13.9545 33.8633 14.1113C33.8418 14.0422 33.8193 13.9735 33.793 13.9062L33.6816 13.6553ZM14.7793 12.9834C14.7165 13.0525 14.6572 13.1242 14.6016 13.1982L14.4463 13.4268C14.4946 13.3483 14.5459 13.2713 14.6016 13.1973L14.7793 12.9834ZM32.5732 12.4463C32.73 12.5428 32.8786 12.6539 33.0166 12.7793C32.9475 12.7165 32.8758 12.6572 32.8018 12.6016L32.5732 12.4463ZM16.167 12.1182C15.9903 12.1692 15.819 12.2363 15.6553 12.3184C15.7372 12.2772 15.8208 12.2395 15.9062 12.2061L16.167 12.1182ZM31.2783 12.0127C31.3702 12.0213 31.4615 12.0339 31.5518 12.0508L31.8203 12.1143C31.732 12.0891 31.6423 12.0687 31.5518 12.0518L31.2783 12.0127ZM8.10938 9.07129C8.05171 9.31292 8.01664 9.56065 8.00488 9.81152L8 10C7.9999 9.68447 8.03723 9.37262 8.10938 9.07031V9.07129ZM9.7793 6.67188C9.52094 6.84444 9.28184 7.04803 9.06738 7.2793C8.72423 7.64935 8.45748 8.07742 8.27637 8.53906L8.21191 8.71289C8.39126 8.18458 8.68145 7.69549 9.06738 7.2793C9.23883 7.09441 9.42572 6.92697 9.62598 6.7793L9.7793 6.67188ZM39.4277 7.93652C39.4597 7.98964 39.491 8.04315 39.5205 8.09766L39.6045 8.26367C39.5776 8.20794 39.549 8.15307 39.5195 8.09863L39.4277 7.93652ZM37.2871 6.21191C37.8154 6.39126 38.3045 6.68145 38.7207 7.06738C38.9056 7.23883 39.073 7.42572 39.2207 7.62598L39.3281 7.7793C39.1556 7.52094 38.952 7.28184 38.7207 7.06738C38.3507 6.72423 37.9226 6.45748 37.4609 6.27637L37.2871 6.21191ZM10.2637 6.39551C10.2079 6.42239 10.1531 6.45102 10.0986 6.48047L9.93652 6.57227C9.98964 6.54028 10.0432 6.50895 10.0977 6.47949L10.2637 6.39551ZM10.9609 6.13574C10.9009 6.15191 10.8413 6.16956 10.7822 6.18848L10.6055 6.25C10.6636 6.22837 10.7221 6.20741 10.7813 6.18848L10.9609 6.13574ZM36.1885 6.00391C36.4397 6.01567 36.6877 6.05163 36.9297 6.10938L37.1094 6.15625C36.7517 6.05304 36.3784 5.99988 36 6L36.1885 6.00391ZM11.7002 6.00977C11.6374 6.01449 11.5749 6.02068 11.5127 6.02832L11.3262 6.05566C11.3877 6.04515 11.4496 6.03596 11.5117 6.02832L11.7002 6.00977Z" fill="#6356E5"/>
</svg>
