<svg width="48" height="48" viewBox="0 0 48 48" fill="none" xmlns="http://www.w3.org/2000/svg">
<path d="M16 8L36 8.01V8C37.2147 8.00048 38.4006 8.36963 39.401 9.05862C40.4013 9.74761 41.169 10.724 41.6025 11.8587C42.036 12.9934 42.1149 14.2329 41.8288 15.4134C41.5426 16.5939 40.9049 17.6597 40 18.47V32M38.82 38.836C38.1 39.556 37.1 40 36 40H12C10.9391 40 9.92172 39.5786 9.17157 38.8284C8.42143 38.0783 8 37.0609 8 36V18.472C7.30505 17.8504 6.76454 17.0754 6.42133 16.2085C6.07813 15.3416 5.94168 14.4066 6.02282 13.4778C6.10396 12.5489 6.40045 11.6518 6.88877 10.8575C7.37709 10.0632 8.0438 9.39368 8.836 8.902M6 6L42 42" stroke="#6356E5" stroke-width="2" stroke-linecap="round" stroke-linejoin="round"/>
</svg>
