<svg width="48" height="48" viewBox="0 0 48 48" fill="none" xmlns="http://www.w3.org/2000/svg">
<path d="M24 40.0004H42M32.752 7.24445C33.5481 6.44827 34.628 6.00098 35.754 6.00098C36.8799 6.00098 37.9598 6.44827 38.756 7.24445C39.5521 8.04063 39.9994 9.12048 39.9994 10.2464C39.9994 11.3724 39.5521 12.4523 38.756 13.2484L14.736 37.2704C14.2601 37.7462 13.672 38.0943 13.026 38.2824L7.28195 39.9584C7.10986 40.0086 6.92743 40.0117 6.75377 39.9672C6.58011 39.9227 6.42161 39.8323 6.29485 39.7056C6.16809 39.5788 6.07773 39.4203 6.03324 39.2466C5.98875 39.073 5.99176 38.8905 6.04195 38.7184L7.71795 32.9744C7.90639 32.3291 8.25445 31.7417 8.72995 31.2664L32.752 7.24445Z" stroke="#6356E5" stroke-width="2" stroke-linecap="round" stroke-linejoin="round"/>
</svg>
