<svg width="48" height="48" viewBox="0 0 48 48" fill="none" xmlns="http://www.w3.org/2000/svg">
<path d="M11.2666 45.9905C11.1953 45.9952 11.1233 45.9994 11.0508 46.0013L10.8164 46.0023C10.8934 46.0037 10.9713 46.0033 11.0498 46.0013C11.1227 45.9994 11.1949 45.9952 11.2666 45.9905ZM10.4951 45.9847C10.6007 45.9933 10.7077 46.0003 10.8164 46.0023C10.7077 46.0003 10.6007 45.9933 10.4951 45.9847ZM10.3838 45.9749C10.3649 45.9729 10.346 45.9712 10.3271 45.9691C10.346 45.9712 10.3649 45.9729 10.3838 45.9749ZM11.5518 45.9642C11.5303 45.9667 11.5089 45.9697 11.4873 45.972C11.5089 45.9697 11.5303 45.9667 11.5518 45.9642ZM10.1582 45.9466C10.1454 45.9447 10.1328 45.9418 10.1201 45.9398C10.1328 45.9418 10.1454 45.9447 10.1582 45.9466ZM11.7666 45.9339C11.7439 45.9376 11.7211 45.9413 11.6982 45.9446C11.7211 45.9413 11.7439 45.9375 11.7666 45.9339ZM9.96484 45.9124C9.94361 45.9083 9.92245 45.9041 9.90137 45.8997C9.92245 45.9041 9.94362 45.9083 9.96484 45.9124ZM11.9824 45.8948C11.9545 45.9006 11.9266 45.9062 11.8984 45.9114C11.9266 45.9062 11.9545 45.9006 11.9824 45.8948ZM9.74805 45.8646C9.73469 45.8613 9.72131 45.8582 9.70801 45.8548C9.7213 45.8582 9.73469 45.8613 9.74805 45.8646ZM12.1562 45.8558C12.1455 45.8584 12.1348 45.861 12.124 45.8636C12.1348 45.861 12.1455 45.8584 12.1562 45.8558ZM9.56641 45.8157C9.54291 45.8089 9.51939 45.8024 9.49609 45.7952C9.51938 45.8024 9.54291 45.8089 9.56641 45.8157ZM12.3848 45.7933C12.363 45.7998 12.3413 45.8066 12.3193 45.8128C12.3413 45.8066 12.363 45.7998 12.3848 45.7933ZM9.23828 45.7064C9.299 45.7293 9.36061 45.7504 9.42285 45.7708C9.3606 45.7504 9.29902 45.7293 9.23828 45.7064ZM12.6006 45.7239C12.5624 45.7374 12.524 45.7505 12.4854 45.763C12.5241 45.7505 12.5624 45.7374 12.6006 45.7239ZM12.7852 45.6546C12.7509 45.6684 12.7164 45.6817 12.6816 45.6946C12.7164 45.6817 12.7509 45.6684 12.7852 45.6546ZM8.97559 45.598C8.8712 45.5506 8.76927 45.4996 8.66992 45.4446C8.76924 45.4996 8.87124 45.5505 8.97559 45.598ZM12.9717 45.5745C12.9351 45.5912 12.8984 45.6076 12.8613 45.6234C12.8984 45.6077 12.9351 45.5912 12.9717 45.5745ZM13.1416 45.4925C13.1109 45.5081 13.08 45.5235 13.0488 45.5384C13.08 45.5235 13.1109 45.5081 13.1416 45.4925ZM7.91602 44.9173L8.07227 45.0462C8.25402 45.1903 8.4475 45.3197 8.65137 45.4339C8.38802 45.2865 8.14219 45.114 7.91602 44.9173C7.83988 44.8509 7.76793 44.7817 7.69824 44.7122C7.76796 44.7817 7.83985 44.8508 7.91602 44.9173ZM13.3037 45.4066C13.2899 45.4143 13.2756 45.4214 13.2617 45.429C13.2756 45.4214 13.2899 45.4143 13.3037 45.4066ZM13.4775 45.303C13.4681 45.3089 13.4587 45.3148 13.4492 45.3206C13.4587 45.3148 13.4681 45.3089 13.4775 45.303ZM13.6533 45.1868C13.7061 45.1501 13.7584 45.1127 13.8096 45.0735L13.9707 44.9446C13.8685 45.0308 13.7623 45.111 13.6533 45.1868ZM23.2305 4.61261C26.0034 3.21067 29.1437 2.70489 32.2168 3.16437C35.2899 3.62391 38.1451 5.02623 40.3867 7.17804C42.6283 9.32987 44.1458 12.1253 44.7305 15.1771C45.3151 18.2288 44.9379 21.3872 43.6504 24.2152C42.3628 27.043 40.2285 29.4014 37.543 30.9642C34.8575 32.5269 31.7528 33.2174 28.6582 32.9398L28.1973 32.8978L27.8672 33.222L25.0195 36.0218L25.0156 36.0257C24.0733 36.9621 22.7207 37.1282 21.415 36.8929C20.4306 36.6958 19.4839 36.3426 18.6113 35.846L17.9482 35.4691L17.4092 36.0081L15.292 38.1243L15.0029 38.4124L14.998 38.8216C14.9882 39.8189 14.9252 41.0367 14.6123 42.0833C14.3991 42.7927 14.0484 43.5154 13.4473 44.0735C12.9059 44.575 12.2157 44.8895 11.3877 44.9778L11.0244 45.0013C10.0118 45.0269 9.19458 44.7035 8.57324 44.1634H8.57422C7.9801 43.6451 7.62543 42.9777 7.40723 42.3773C7.31445 42.1151 7.23674 41.8478 7.17578 41.5765L7.03711 40.9603L6.42188 40.8196L6.02051 40.7161L5.625 40.5892L5.61621 40.5853L5.3623 40.4896C4.78399 40.2487 4.26468 39.8834 3.84082 39.4193C3.33775 38.8419 3.01939 38.0902 3 37.1673V36.9788C3.02125 35.9886 3.34884 35.1765 3.92383 34.5589L3.9248 34.5579C4.4828 33.9583 5.20741 33.607 5.91602 33.3958L5.91992 33.3948C6.96589 33.0784 8.18612 33.0131 9.18066 33.0032L9.58789 32.9993L9.87695 32.7112L12.0908 30.5032L12.6104 29.9847L12.2715 29.3333C11.8961 28.6116 11.6198 27.8429 11.4512 27.0482L11.3857 26.7054C11.2018 25.4699 11.3926 24.2083 12.2715 23.3138L12.2754 23.3118L12.2998 23.2884L14.8359 20.7923L15.1904 20.4427L15.126 19.9495C14.7221 16.8686 15.2845 13.7378 16.7363 10.9905C18.1882 8.24335 20.4575 6.01459 23.2305 4.61261ZM14.3506 44.5823C14.283 44.6545 14.2125 44.7252 14.1387 44.7943C14.2125 44.7252 14.283 44.6545 14.3506 44.5823ZM7.6582 44.6732C7.63 44.6444 7.6043 44.6135 7.57715 44.5843C7.6043 44.6135 7.63001 44.6444 7.6582 44.6732ZM14.5713 44.3284C14.5099 44.4043 14.4453 44.4788 14.3779 44.5521C14.4454 44.4788 14.5099 44.4043 14.5713 44.3284ZM7.43359 44.4251C7.3971 44.382 7.36258 44.3379 7.32812 44.2943C7.36257 44.3379 7.3971 44.382 7.43359 44.4251ZM14.6982 44.1614C14.6662 44.2048 14.6344 44.2486 14.6006 44.2913C14.6344 44.2486 14.6662 44.2048 14.6982 44.1614ZM7.22656 44.1614C7.19666 44.1207 7.16694 44.0804 7.13867 44.0394C7.16694 44.0804 7.19666 44.1207 7.22656 44.1614ZM14.8926 43.8773C14.872 43.9095 14.8515 43.9419 14.8301 43.9739C14.8515 43.9419 14.872 43.9095 14.8926 43.8773ZM7.04297 43.8948C7.01208 43.8466 6.98194 43.7986 6.95312 43.7503C6.98194 43.7986 7.01208 43.8466 7.04297 43.8948ZM15.0703 43.5765C15.0518 43.6104 15.0331 43.6443 15.0137 43.678C15.0331 43.6443 15.0518 43.6104 15.0703 43.5765ZM6.88965 43.6409C6.86284 43.5935 6.83646 43.5465 6.81152 43.4993C6.83646 43.5465 6.86285 43.5936 6.88965 43.6409ZM15.2158 43.2943C15.2081 43.3104 15.1993 43.326 15.1914 43.3421C15.1993 43.326 15.2081 43.3104 15.2158 43.2943ZM6.71191 43.3011C6.70056 43.2775 6.68865 43.2543 6.67773 43.2308C6.68865 43.2543 6.70056 43.2775 6.71191 43.3011ZM15.3613 42.9661C15.3497 42.9949 15.3364 43.0232 15.3242 43.0521C15.3364 43.0232 15.3497 42.9949 15.3613 42.9661ZM12.9873 32.43L10.4141 34.9993H9.99805C8.87137 34.9993 7.54782 34.9899 6.5 35.306L6.31152 35.3665C5.94972 35.4928 5.68133 35.6497 5.4873 35.8235L5.39648 35.9114L5.39453 35.9144C5.32553 35.9877 5.20721 36.126 5.11914 36.3528C5.06042 36.5042 5.02516 36.6674 5.00879 36.8411L4.99902 37.0179V37.0218C4.99422 37.2448 5.01783 37.4645 5.09277 37.6722C5.17719 37.906 5.30004 38.0488 5.35742 38.1126L5.38281 38.1409L5.41016 38.1673C5.67015 38.4152 5.98298 38.6002 6.32422 38.7112V38.7122C6.8508 38.8989 7.40517 38.9958 7.96387 38.9993H7.99512L9.01758 38.9818L8.99902 40.0062L8.99805 40.0159V40.0472L8.99902 40.0609L9.00098 40.1331V40.1458C9.02177 40.6607 9.11332 41.1707 9.27344 41.6605L9.2793 41.6751L9.28418 41.6907C9.43234 42.0988 9.63362 42.4321 9.88477 42.6526L9.89062 42.6585L9.89648 42.6634C9.9542 42.7124 10.0951 42.8287 10.3242 42.9095C10.5285 42.9814 10.7458 43.0061 10.9697 43.0013H10.9785C11.2233 42.9938 11.4479 42.9562 11.6504 42.8773C11.8784 42.7884 12.0148 42.6706 12.0752 42.6165L12.0859 42.6077L12.0957 42.598C12.3373 42.3694 12.5425 42.0135 12.6953 41.5101L12.6963 41.5062C13.0075 40.4671 12.998 39.1599 12.998 38.0237V37.5833L15.5586 35.0316L16.292 34.3001L15.5352 33.5931C15.1531 33.2356 14.7867 32.8615 14.4414 32.473L13.7373 31.681L12.9873 32.43ZM15.998 38.8314C15.988 39.8433 15.9263 41.1814 15.5703 42.3714L15.4697 42.68C15.4364 42.7748 15.4001 42.8702 15.3613 42.9661C15.4426 42.7652 15.511 42.5656 15.5693 42.3714C15.8364 41.4788 15.9382 40.5029 15.9766 39.6439L15.998 38.8314ZM6.2002 41.7952C6.2699 42.1055 6.35873 42.4115 6.46484 42.7112L6.5127 42.8372C6.49628 42.7946 6.47896 42.7529 6.46387 42.7112C6.4108 42.5613 6.36238 42.4099 6.31836 42.2571L6.2002 41.7952ZM10.7725 41.9925L10.9473 42.0003V42.0013C10.861 42.0031 10.7937 41.9953 10.7402 41.9857C10.7505 41.9875 10.7611 41.991 10.7725 41.9925ZM11.0938 41.9896C11.052 41.9948 11.0048 41.9986 10.9512 42.0003C11.0047 41.9986 11.0519 41.9948 11.0938 41.9896ZM11.1758 41.9749C11.1596 41.9783 11.1425 41.9819 11.124 41.9847C11.1425 41.9819 11.1596 41.9783 11.1758 41.9749ZM10.667 41.9681C10.656 41.9645 10.646 41.9612 10.6367 41.9573C10.646 41.9611 10.656 41.9646 10.667 41.9681ZM11.2959 41.9398C11.2872 41.9434 11.2776 41.946 11.2676 41.9495C11.2776 41.946 11.2872 41.9434 11.2959 41.9398ZM10.4424 41.7816C10.4687 41.8183 10.493 41.8479 10.5156 41.8714C10.493 41.8479 10.4686 41.8183 10.4424 41.7816ZM11.8193 40.8929C11.7951 41.0052 11.7696 41.1143 11.7383 41.2191C11.6772 41.4202 11.6137 41.5661 11.5557 41.6702L11.4736 41.7962C11.5482 41.6971 11.6459 41.5202 11.7373 41.2191C11.7687 41.1142 11.7951 41.0052 11.8193 40.8929ZM10.0283 40.4612C10.0642 40.7626 10.1301 41.0599 10.2246 41.3489C10.2971 41.5486 10.3754 41.6875 10.4424 41.7816C10.3751 41.6877 10.2962 41.5489 10.2236 41.3489C10.1292 41.06 10.064 40.7626 10.0283 40.4612ZM4.98633 41.4153C4.97057 41.4088 4.95514 41.4015 4.93945 41.3948C4.95514 41.4015 4.97057 41.4088 4.98633 41.4153ZM4.69434 41.2835C4.67037 41.2718 4.64682 41.2594 4.62305 41.2474C4.64682 41.2594 4.67038 41.2718 4.69434 41.2835ZM4.43359 41.1468C4.39281 41.124 4.35266 41.1003 4.3125 41.0765C4.35265 41.1003 4.39281 41.124 4.43359 41.1468ZM4.16406 40.9857C4.12501 40.9607 4.08624 40.9354 4.04785 40.9095C4.08623 40.9354 4.12501 40.9607 4.16406 40.9857ZM11.8281 40.8548C11.8255 40.8676 11.8221 40.8802 11.8193 40.8929C11.8221 40.8802 11.8255 40.8676 11.8281 40.8548ZM3.90918 40.8118C3.8656 40.7803 3.82191 40.749 3.7793 40.7161C3.8219 40.749 3.86561 40.7803 3.90918 40.8118ZM3.68457 40.64C3.63638 40.601 3.58786 40.5625 3.54102 40.5218C3.58785 40.5625 3.63639 40.601 3.68457 40.64ZM11.8916 40.4896C11.8896 40.5033 11.8878 40.517 11.8857 40.5306C11.8878 40.517 11.8896 40.5033 11.8916 40.4896ZM11.9629 39.7601C11.9473 40.013 11.9248 40.2571 11.8916 40.4896C11.9248 40.2571 11.9473 40.013 11.9629 39.7601ZM2.00977 37.4193C2.07971 38.4745 2.47315 39.3744 3.09082 40.0814L3.28809 40.2864C3.22058 40.2196 3.15385 40.1519 3.08984 40.0814C2.51623 39.4249 2.13645 38.602 2.0293 37.6429L2.00977 37.4193ZM7.63574 37.9827L7.9707 37.9993H7.96973C7.82745 37.9984 7.68587 37.987 7.54492 37.971C7.57525 37.9744 7.60534 37.98 7.63574 37.9827ZM22.4658 37.9866C22.4234 37.9868 22.3811 37.9873 22.3389 37.9866C22.3811 37.9873 22.4234 37.9868 22.4658 37.9866ZM22.7842 37.9769C22.7294 37.9801 22.6748 37.983 22.6201 37.9847C22.6748 37.9831 22.7294 37.98 22.7842 37.9769ZM22.1738 37.9808C22.136 37.9792 22.0982 37.9781 22.0605 37.9759C22.0982 37.9781 22.136 37.9792 22.1738 37.9808ZM23.0654 37.9525C23.0088 37.9586 22.9522 37.9646 22.8955 37.9691C22.9522 37.9647 23.0088 37.9586 23.0654 37.9525ZM21.8945 37.9632C21.8538 37.9597 21.813 37.9576 21.7725 37.9534C21.813 37.9576 21.8538 37.9597 21.8945 37.9632ZM7.35449 37.9456C7.31066 37.9385 7.2672 37.9298 7.22363 37.9212C7.2672 37.9298 7.31067 37.9385 7.35449 37.9456ZM23.3174 37.9193C23.2777 37.9255 23.238 37.9315 23.1982 37.9368C23.238 37.9315 23.2777 37.9255 23.3174 37.9193ZM18.4824 36.9144C19.3463 37.3612 20.2696 37.6846 21.2246 37.8753L21.5039 37.9202C21.5324 37.9243 21.5612 37.9273 21.5898 37.931C21.4663 37.915 21.3439 37.8972 21.2236 37.8753C20.405 37.7119 19.6099 37.4507 18.8555 37.098L18.4824 36.9144ZM23.626 37.8607C23.5795 37.871 23.533 37.881 23.4863 37.89C23.533 37.881 23.5795 37.871 23.626 37.8607ZM7.04688 37.8821C7.00966 37.8731 6.97251 37.864 6.93555 37.8538C6.9725 37.864 7.00966 37.8731 7.04688 37.8821ZM23.8867 37.7952C23.8455 37.8069 23.8041 37.8179 23.7627 37.8284C23.8042 37.8179 23.8455 37.8069 23.8867 37.7952ZM6.06836 37.4036C6.08009 37.4212 6.09161 37.4337 6.10059 37.4437C6.25846 37.5941 6.4496 37.7052 6.6582 37.7689C6.6836 37.7779 6.7098 37.7848 6.73535 37.7933C6.70986 37.7848 6.68354 37.7788 6.6582 37.7698C6.44936 37.7062 6.25762 37.5943 6.09961 37.4437C6.09053 37.4336 6.07921 37.4206 6.06738 37.4026L6.06836 37.4036ZM24.1582 37.7093C24.1313 37.7188 24.1042 37.7277 24.0771 37.7366C24.1042 37.7277 24.1313 37.7188 24.1582 37.7093ZM24.4463 37.596C24.4123 37.6107 24.378 37.6242 24.3438 37.638C24.378 37.6242 24.4123 37.6107 24.4463 37.596ZM24.7188 37.4661C24.6809 37.4859 24.6427 37.5043 24.6045 37.5228C24.6427 37.5043 24.6809 37.4858 24.7188 37.4661ZM24.9795 37.3187C24.9445 37.3403 24.9084 37.3598 24.873 37.3802C24.9085 37.3598 24.9445 37.3403 24.9795 37.3187ZM6.09082 36.638C6.0533 36.6931 6.00406 36.8045 5.99805 37.0433C5.99655 37.1126 6.00035 37.1697 6.00684 37.2171L6.0332 37.3323C6.01148 37.2721 5.99505 37.1821 5.99805 37.0433C6.00606 36.7253 6.09007 36.6329 6.12207 36.5989L6.09082 36.638ZM25.2295 37.1517C25.2223 37.1569 25.2152 37.1622 25.208 37.1673C25.2152 37.1622 25.2223 37.1569 25.2295 37.1517ZM28.5674 33.9349L25.7207 36.7357C25.5641 36.8913 25.3993 37.0287 25.2295 37.1517C25.399 37.0288 25.5633 36.8911 25.7197 36.7357L28.5674 33.9349ZM2.04102 36.4017C2.02689 36.515 2.01569 36.6299 2.00879 36.7464L2 36.9573C2.00406 36.7681 2.01845 36.5829 2.04102 36.4017ZM13.6943 33.137C14.0612 33.5499 14.4492 33.9462 14.8525 34.3235L12.4551 36.7132L14.8516 34.3235C14.4482 33.9462 14.0603 33.5499 13.6934 33.137H13.6943ZM6.19043 36.5384C6.1981 36.5324 6.20617 36.5261 6.21484 36.5198C6.20616 36.5261 6.19811 36.5324 6.19043 36.5384ZM6.2959 36.4681C6.31325 36.4577 6.33152 36.4466 6.35156 36.4359C6.33151 36.4466 6.31326 36.4577 6.2959 36.4681ZM6.78223 36.265L6.51758 36.3577C6.50474 36.363 6.4926 36.3691 6.48047 36.3743C6.56359 36.3383 6.66237 36.2999 6.78125 36.265C6.78695 36.2632 6.7931 36.2618 6.79883 36.2601C6.79332 36.2617 6.78771 36.2633 6.78223 36.265ZM2.05176 36.3089C2.05705 36.2719 2.06424 36.2352 2.07031 36.1985C2.06423 36.2352 2.05706 36.2719 2.05176 36.3089ZM7.43457 36.1204C7.46433 36.1157 7.49426 36.1111 7.52441 36.1068C7.49426 36.1111 7.46433 36.1157 7.43457 36.1204ZM8.22949 36.0355C7.98562 36.0512 7.74969 36.0743 7.52441 36.1068C7.74969 36.0743 7.98562 36.0512 8.22949 36.0355ZM2.1709 35.7288C2.13835 35.8495 2.11128 35.9728 2.08789 36.098C2.11127 35.9727 2.13837 35.8496 2.1709 35.7288ZM8.22949 36.0355C8.2793 36.0322 8.32944 36.0293 8.37988 36.0267C8.32944 36.0293 8.2793 36.0322 8.22949 36.0355ZM9.12012 36.0032C8.92343 36.0061 8.72934 36.0118 8.53906 36.0198C8.58959 36.0177 8.64036 36.0147 8.69141 36.013L9.12012 36.0032ZM2.23828 35.5023C2.24733 35.4744 2.25705 35.4468 2.2666 35.4193C2.25704 35.4468 2.24734 35.4744 2.23828 35.5023ZM2.2998 35.3255C2.31617 35.2814 2.33388 35.238 2.35156 35.1946C2.33388 35.238 2.31618 35.2814 2.2998 35.3255ZM3.66699 33.4349C3.50231 33.5679 3.34331 33.715 3.19238 33.8773L3.05469 34.0325C2.76647 34.373 2.53582 34.7518 2.36426 35.1634C2.56221 34.6883 2.83831 34.2565 3.19141 33.8773C3.34248 33.7149 3.50212 33.568 3.66699 33.4349ZM29.998 4.99933C27.4157 4.99935 24.8916 5.76818 22.748 7.20831C20.6044 8.64857 18.938 10.6953 17.9619 13.0862C16.986 15.477 16.7444 18.1044 17.2676 20.6331C17.7909 23.162 19.0557 25.4782 20.9004 27.2855L21.6152 27.9857L20.2158 29.4134L19.502 28.7132V28.7122L19.25 28.4603C18.0083 27.186 17.0022 25.6998 16.2803 24.0716L15.6953 22.7513L14.665 23.764L13.709 24.7044L13.6221 24.7894L13.5586 24.8929L13.543 24.9193L13.5146 24.9642L13.4922 25.011C13.444 25.1117 13.4071 25.218 13.3809 25.3265L13.373 25.3568L13.3672 25.388C13.3055 25.7382 13.3064 26.0968 13.3701 26.4466L13.3711 26.4456C13.512 27.3281 13.9548 28.4141 14.7217 29.5687L14.7227 29.5706C15.7098 31.0482 16.9586 32.3335 18.4072 33.3626H18.4082C19.6325 34.231 20.8079 34.7467 21.7607 34.9222V34.9232C22.2277 35.0092 22.6185 35.0059 22.9238 34.9437L22.9248 34.9446C22.9262 34.9444 22.9274 34.943 22.9287 34.9427C22.9327 34.9419 22.9374 34.9425 22.9414 34.9417L22.9404 34.9398C23.0598 34.9151 23.1764 34.8785 23.2871 34.8275L23.3584 34.7943L23.4229 34.7513L23.4531 34.7318L23.5352 34.6761L23.6055 34.6068L23.6113 34.6009L27.5098 30.7718L28.0049 30.848V30.847C28.6566 30.9483 29.3212 30.9993 29.998 30.9993C33.4458 30.9993 36.7525 29.6296 39.1904 27.1917C41.6284 24.7537 42.998 21.4471 42.998 17.9993C42.998 14.5515 41.6284 11.2449 39.1904 8.80695C36.8287 6.44533 33.652 5.08591 30.3213 5.00324L29.998 4.99933ZM30.0527 33.9964C29.9499 33.9968 29.8471 33.998 29.7441 33.9964C29.8471 33.998 29.9499 33.9967 30.0527 33.9964ZM30.5752 33.9857C30.5088 33.9881 30.4424 33.9919 30.376 33.9935C30.4424 33.9919 30.5088 33.988 30.5752 33.9857ZM22.9102 33.887L22.8984 33.8997L22.8682 33.9193C22.8248 33.9392 22.7792 33.954 22.7324 33.9632C22.6573 33.9792 22.5545 33.9898 22.4229 33.9886C22.554 33.9898 22.6564 33.9792 22.7314 33.9632C22.7784 33.954 22.8247 33.9393 22.8682 33.9193L22.8975 33.8997L22.9102 33.887ZM21.9795 33.9446C22.1476 33.9738 22.291 33.9868 22.4111 33.9886C22.2909 33.9868 22.1475 33.9738 21.9795 33.9446ZM29.502 33.9886C29.3907 33.9851 29.2793 33.9827 29.168 33.9769C29.2793 33.9827 29.3907 33.9851 29.502 33.9886ZM31.2041 33.9505C31.1299 33.9561 31.0558 33.9625 30.9814 33.9671C31.0558 33.9625 31.1299 33.9561 31.2041 33.9505ZM21.5244 33.8382C21.6713 33.8803 21.8104 33.9155 21.9424 33.9398C21.9547 33.942 21.9674 33.9425 21.9795 33.9446C21.9671 33.9425 21.954 33.9421 21.9414 33.9398C21.8098 33.9155 21.6709 33.8801 21.5244 33.8382ZM31.8066 33.8939C31.725 33.9032 31.6433 33.9122 31.5615 33.9202C31.6433 33.9122 31.725 33.9031 31.8066 33.8939ZM32.4082 33.8138C32.3279 33.826 32.2475 33.8379 32.167 33.8489C32.2475 33.8379 32.3279 33.826 32.4082 33.8138ZM20.2197 33.306C20.6936 33.5525 21.1341 33.7265 21.5244 33.8382C21.2418 33.7572 20.9323 33.6452 20.6035 33.4944L20.2197 33.306ZM32.9932 33.7142C32.9136 33.7293 32.8337 33.7432 32.7539 33.7571C32.8337 33.7432 32.9136 33.7293 32.9932 33.7142ZM33.5898 33.5892C33.5041 33.6089 33.4181 33.6275 33.332 33.6458C33.4181 33.6275 33.5041 33.6089 33.5898 33.5892ZM34.1465 33.4505C34.0796 33.4685 34.0124 33.4852 33.9453 33.5023C34.0124 33.4852 34.0796 33.4684 34.1465 33.4505ZM3.71875 33.3948C3.75477 33.3666 3.79163 33.3398 3.82812 33.3128C3.79164 33.3398 3.75476 33.3666 3.71875 33.3948ZM34.751 33.2747C34.6676 33.3007 34.5838 33.3253 34.5 33.3499C34.5838 33.3253 34.6676 33.3007 34.751 33.2747ZM4.02441 33.1741C4.05783 33.1519 4.09132 33.13 4.125 33.1087C4.09133 33.13 4.05782 33.1518 4.02441 33.1741ZM35.2998 33.0941C35.2291 33.1189 35.158 33.1425 35.0869 33.1663C35.158 33.1425 35.2291 33.1189 35.2998 33.0941ZM4.31445 32.9944C4.35342 32.972 4.39248 32.9503 4.43164 32.929C4.39248 32.9503 4.35341 32.972 4.31445 32.9944ZM35.8486 32.89C35.8057 32.9068 35.7627 32.9233 35.7197 32.9398C35.7627 32.9233 35.8057 32.9068 35.8486 32.89ZM4.61621 32.8343C4.6562 32.8145 4.69531 32.7934 4.73535 32.7747C4.69531 32.7934 4.65619 32.8145 4.61621 32.8343ZM14.4102 25.4173L14.3945 25.4437C14.3766 25.4812 14.3624 25.5204 14.3525 25.5609C14.3114 25.7943 14.312 26.0337 14.3545 26.2669C14.4625 26.9709 14.8348 27.931 15.5547 29.015C16.4742 30.3913 17.637 31.5885 18.9863 32.5472C19.0904 32.621 19.1946 32.6904 19.2969 32.7581C19.1945 32.6903 19.0896 32.6211 18.9854 32.5472C17.6361 31.5886 16.4732 30.3912 15.5537 29.015C14.8338 27.9311 14.4615 26.9708 14.3535 26.2669C14.3111 26.0339 14.3105 25.7951 14.3516 25.5618C14.3614 25.5213 14.3755 25.4813 14.3936 25.4437L14.4102 25.4173ZM36.4209 32.6527C36.3752 32.6727 36.3291 32.6917 36.2832 32.7112C36.3291 32.6917 36.3752 32.6727 36.4209 32.6527ZM4.94336 32.6839C4.96897 32.6731 4.99396 32.6611 5.01953 32.6507C4.99396 32.6611 4.96897 32.6731 4.94336 32.6839ZM6.08203 32.3157C5.92955 32.352 5.77862 32.3928 5.62988 32.4378C5.43076 32.4972 5.22583 32.567 5.01953 32.6507C5.12099 32.6095 5.22203 32.5714 5.32227 32.5364L5.62988 32.4368L6.08203 32.3157ZM36.958 32.4056C36.9408 32.4139 36.9235 32.4218 36.9062 32.43C36.9235 32.4218 36.9408 32.4139 36.958 32.4056ZM38.5615 31.514C38.3917 31.6216 38.2201 31.727 38.0459 31.8284L37.5039 32.1302C37.3237 32.2259 37.1413 32.317 36.958 32.4056C37.3265 32.2275 37.6893 32.0354 38.0449 31.8284C38.2193 31.727 38.3916 31.6217 38.5615 31.514ZM7.00684 32.1448L6.54297 32.2191C6.83505 32.1654 7.12886 32.1256 7.41797 32.095C7.28175 32.1094 7.14447 32.1257 7.00684 32.1448ZM11.3848 29.7952L9.16992 32.0032C8.6513 32.0084 8.04569 32.0287 7.41797 32.095C8.0456 32.0287 8.65132 32.0084 9.16992 32.0032L11.3838 29.7952C11.344 29.7187 11.3063 29.6412 11.2686 29.5638C11.3064 29.6413 11.3449 29.7186 11.3848 29.7952ZM38.7793 31.3714C38.7068 31.419 38.6349 31.4675 38.5615 31.514C38.6349 31.4675 38.7068 31.419 38.7793 31.3714ZM39.2314 31.0628C39.1764 31.1017 39.122 31.1417 39.0664 31.18C39.122 31.1417 39.1764 31.1017 39.2314 31.0628ZM15.3662 24.4769C16.1877 26.3296 17.3543 28.0096 18.8027 29.4271L20.2295 30.8265V30.8275L18.8018 29.4271C17.3535 28.0097 16.1877 26.3303 15.3662 24.4778L14.4102 25.4173L15.3662 24.4769ZM18.1045 19.596C18.142 19.8753 18.1897 20.1537 18.2471 20.431C18.7301 22.7653 19.8977 24.9034 21.6006 26.5716L23.0303 27.971L20.2305 30.8275L20.2295 30.8265L23.0293 27.971L21.5996 26.5716C19.8967 24.9033 18.7292 22.7654 18.2461 20.431C18.1887 20.1538 18.142 19.8752 18.1045 19.596ZM39.7236 30.7005C39.6685 30.7427 39.6143 30.786 39.5586 30.8275C39.6143 30.786 39.6685 30.7427 39.7236 30.7005ZM40.2002 30.3216C40.1425 30.3694 40.0848 30.4172 40.0264 30.4642C40.0848 30.4172 40.1425 30.3694 40.2002 30.3216ZM40.667 29.9202C40.6091 29.9721 40.5509 30.0235 40.4922 30.0745C40.5509 30.0235 40.6091 29.9721 40.667 29.9202ZM29.5303 29.9905L29.998 29.9993C29.8384 29.9993 29.6793 29.9956 29.5215 29.9896C29.5244 29.9897 29.5273 29.9904 29.5303 29.9905ZM30.7588 29.972C30.6986 29.9758 30.6385 29.9818 30.5781 29.9847C30.6385 29.9818 30.6986 29.9758 30.7588 29.972ZM29.0957 29.9652C29.0673 29.9631 29.039 29.9606 29.0107 29.9583C29.039 29.9606 29.0673 29.9631 29.0957 29.9652ZM31.3477 29.9193C31.2796 29.927 31.2118 29.9361 31.1436 29.9427C31.2118 29.9361 31.2796 29.927 31.3477 29.9193ZM28.6426 29.9232C28.6253 29.9212 28.6081 29.9193 28.5908 29.9173C28.6081 29.9193 28.6253 29.9212 28.6426 29.9232ZM31.918 29.8411C31.8577 29.8509 31.7978 29.8625 31.7373 29.8714C31.7978 29.8625 31.8577 29.8509 31.918 29.8411ZM28.1562 29.8597C28.1617 29.8605 28.1674 29.8608 28.1729 29.8616C28.1672 29.8608 28.161 29.8606 28.1553 29.8597L27.166 29.7073L28.1562 29.8597ZM32.5205 29.7278C32.438 29.7456 32.3555 29.7636 32.2725 29.7796C32.3555 29.7636 32.438 29.7456 32.5205 29.7278ZM41.0947 29.5228C41.0411 29.5744 40.9869 29.6252 40.9326 29.6761C40.9869 29.6252 41.0411 29.5744 41.0947 29.5228ZM33.0674 29.596C32.9958 29.615 32.9245 29.635 32.8525 29.6527C32.9245 29.635 32.9958 29.615 33.0674 29.596ZM33.6279 29.4329C33.5467 29.4587 33.4656 29.485 33.3838 29.5091C33.4656 29.485 33.5467 29.4587 33.6279 29.4329ZM11.0879 29.1722C11.0462 29.0765 11.0064 28.98 10.9678 28.8831C11.0064 28.98 11.0462 29.0765 11.0879 29.1722ZM34.1475 29.2552C34.0809 29.2797 34.0143 29.3041 33.9473 29.3275C34.0143 29.3041 34.0809 29.2797 34.1475 29.2552ZM41.5312 29.0862C41.477 29.1427 41.4223 29.1986 41.3672 29.2542C41.4223 29.1986 41.477 29.1427 41.5312 29.0862ZM34.6904 29.0413C34.6192 29.0716 34.5474 29.1003 34.4756 29.1292C34.5474 29.1003 34.6192 29.0716 34.6904 29.0413ZM35.208 28.8069C35.1391 28.8402 35.0695 28.8717 35 28.9036C35.0695 28.8717 35.1391 28.8402 35.208 28.8069ZM10.9521 28.845C10.9205 28.7647 10.8899 28.684 10.8604 28.6028C10.8899 28.684 10.9205 28.7647 10.9521 28.845ZM41.9492 28.6351C41.891 28.7005 41.8317 28.7649 41.7725 28.8294C41.8317 28.7649 41.891 28.7005 41.9492 28.6351ZM35.7002 28.556C35.6466 28.5849 35.5921 28.6119 35.5381 28.64C35.5921 28.6119 35.6466 28.5849 35.7002 28.556ZM10.7314 28.2269C10.759 28.313 10.7885 28.3984 10.8184 28.4837C10.7885 28.3984 10.759 28.313 10.7314 28.2269ZM36.2129 28.263C36.1536 28.2989 36.0931 28.3326 36.0332 28.3675C36.0931 28.3326 36.1536 28.2989 36.2129 28.263ZM42.3145 28.2083C42.273 28.2583 42.2315 28.3082 42.1895 28.3577C42.2315 28.3082 42.273 28.2583 42.3145 28.2083ZM10.3408 26.3607C10.354 26.5348 10.3747 26.7067 10.4004 26.8753L10.4736 27.2552C10.5209 27.4778 10.5755 27.6987 10.6377 27.9173C10.5402 27.5749 10.4599 27.2271 10.3994 26.8753C10.3738 26.7067 10.354 26.5348 10.3408 26.3607ZM36.6973 27.9534C36.6414 27.991 36.5847 28.0272 36.5283 28.0638C36.5847 28.0272 36.6414 27.991 36.6973 27.9534ZM42.7002 27.7269C42.6555 27.7852 42.6089 27.842 42.5635 27.8997C42.6089 27.842 42.6555 27.7852 42.7002 27.7269ZM37.1533 27.6321C37.1201 27.6568 37.0852 27.6791 37.0518 27.7034C37.0852 27.6791 37.1201 27.6568 37.1533 27.6321ZM39.2549 25.6331C39.0121 25.9276 38.7556 26.2125 38.4834 26.4847L38.0527 26.8948C37.7642 27.1562 37.4636 27.4017 37.1533 27.6321C37.6212 27.2846 38.0663 26.9017 38.4834 26.4847C38.7556 26.2125 39.0121 25.9276 39.2549 25.6331ZM43.0596 27.2366C43.0154 27.2991 42.9709 27.3613 42.9258 27.4232C42.9709 27.3613 43.0154 27.2991 43.0596 27.2366ZM43.3887 26.7532C43.3577 26.8006 43.3264 26.8478 43.2949 26.8948C43.3264 26.8478 43.3577 26.8006 43.3887 26.7532ZM43.7129 26.2386C43.6805 26.2925 43.6463 26.3452 43.6133 26.3987C43.6463 26.3452 43.6805 26.2925 43.7129 26.2386ZM44.0088 25.7239C44.2056 25.367 44.3898 25.0021 44.5596 24.6292C45.933 21.6127 46.3356 18.2438 45.7119 14.9886C45.0882 11.7335 43.4691 8.75258 41.0781 6.45734C40.3776 5.78485 39.6196 5.18273 38.8174 4.65265C39.6199 5.18292 40.3784 5.78466 41.0791 6.45734C43.4699 8.75257 45.0892 11.7336 45.7129 14.9886C46.3366 18.2438 45.9339 21.6127 44.5605 24.6292L44.292 25.1888C44.2012 25.3693 44.1061 25.5474 44.0088 25.7239ZM10.3262 26.0892C10.3241 26.0291 10.3236 25.9689 10.3232 25.9085C10.3235 25.9689 10.3241 26.0291 10.3262 26.0892ZM10.3232 25.8314C10.3237 25.7716 10.3259 25.7117 10.3281 25.6517C10.3259 25.7117 10.3237 25.7716 10.3232 25.8314ZM39.4053 25.4437C39.3553 25.5069 39.3062 25.5709 39.2549 25.6331C39.3062 25.5709 39.3553 25.5069 39.4053 25.4437ZM10.332 25.5452C10.335 25.4928 10.3403 25.4405 10.3447 25.388C10.3403 25.4405 10.335 25.4928 10.332 25.5452ZM10.3535 25.2806C10.3597 25.2209 10.3678 25.1614 10.376 25.1019C10.3678 25.1614 10.3597 25.2209 10.3535 25.2806ZM39.7656 24.9642C39.7176 25.0316 39.6706 25.0998 39.6211 25.1663C39.6706 25.0998 39.7176 25.0316 39.7656 24.9642ZM10.3896 25.011C10.3983 24.9557 10.4065 24.9002 10.417 24.845C10.4065 24.9002 10.3983 24.9557 10.3896 25.011ZM10.4385 24.7415C10.4495 24.6893 10.4608 24.6372 10.4736 24.5853C10.4608 24.6372 10.4495 24.6894 10.4385 24.7415ZM40.0732 24.511C40.0313 24.576 39.9896 24.6412 39.9463 24.7054C39.9896 24.6412 40.0312 24.576 40.0732 24.511ZM10.5088 24.4544C10.5215 24.4084 10.5346 24.3625 10.5488 24.3167C10.5346 24.3624 10.5215 24.4084 10.5088 24.4544ZM40.376 24.0179C40.3365 24.0859 40.2967 24.1537 40.2559 24.221C40.2967 24.1537 40.3365 24.0859 40.376 24.0179ZM10.582 24.2152C10.602 24.1558 10.6219 24.0962 10.6445 24.0374C10.6219 24.0962 10.602 24.1558 10.582 24.2152ZM10.6729 23.9691C10.6978 23.9073 10.723 23.8454 10.751 23.7845C10.723 23.8454 10.6978 23.9073 10.6729 23.9691ZM40.6494 23.5198C40.6148 23.5866 40.5798 23.653 40.5439 23.7191C40.5798 23.653 40.6148 23.5866 40.6494 23.5198ZM10.8184 23.6497C10.8361 23.6144 10.8522 23.5782 10.8711 23.5433C10.8522 23.5782 10.8361 23.6144 10.8184 23.6497ZM14.0889 19.6771C14.103 19.8112 14.1172 19.9454 14.1348 20.0794L11.5986 22.5755L11.584 22.5872L11.3691 22.8196C11.2405 22.9694 11.1255 23.1246 11.0234 23.2845C11.1793 23.0403 11.3649 22.8064 11.584 22.5872L11.5977 22.5755L14.1338 20.0794C14.1162 19.9455 14.103 19.8111 14.0889 19.6771ZM40.8838 23.0413C40.8578 23.0975 40.8316 23.1535 40.8047 23.2093C40.8316 23.1535 40.8578 23.0975 40.8838 23.0413ZM41.1104 22.5208C41.0904 22.5698 41.0704 22.6186 41.0498 22.6673C41.0704 22.6186 41.0904 22.5698 41.1104 22.5208ZM41.3164 21.9798C41.2982 22.0315 41.2787 22.0827 41.2598 22.1341C41.2787 22.0827 41.2982 22.0315 41.3164 21.9798ZM41.502 21.4056C41.4801 21.4795 41.4569 21.5529 41.4336 21.6263C41.4569 21.5529 41.4801 21.4795 41.502 21.4056ZM41.6504 20.8587C41.6318 20.9346 41.6109 21.0098 41.5908 21.0853C41.6109 21.0098 41.6318 20.9346 41.6504 20.8587ZM41.7686 20.3275C41.7609 20.366 41.7521 20.4043 41.7441 20.4427C41.7521 20.4043 41.7609 20.366 41.7686 20.3275ZM41.8701 19.7376C41.8622 19.7915 41.8524 19.845 41.8438 19.8987C41.8524 19.845 41.8622 19.7915 41.8701 19.7376ZM41.9395 19.1732C41.9383 19.1845 41.9377 19.196 41.9365 19.2073C41.9377 19.196 41.9383 19.1845 41.9395 19.1732ZM18.0557 19.1741C18.0448 19.0635 18.0361 18.9528 18.0283 18.8421C18.0361 18.9528 18.0448 19.0635 18.0557 19.1741ZM14.0244 18.8997C14.0171 18.7695 14.0129 18.6393 14.0088 18.5091C14.0129 18.6393 14.0171 18.7695 14.0244 18.8997ZM18.0225 18.761C18.0158 18.6563 18.0117 18.5514 18.0078 18.4466C18.0117 18.5514 18.0158 18.6563 18.0225 18.761ZM18.0029 18.3167C18.0001 18.2109 17.999 18.1051 17.999 17.9993C17.999 18.1051 18.0001 18.2109 18.0029 18.3167ZM14.002 18.3128C13.9994 18.1803 14.0003 18.0478 14.001 17.9153C14.0003 18.0478 13.9994 18.1803 14.002 18.3128ZM41.9854 17.4417L41.998 17.9993C41.998 17.8051 41.9928 17.6114 41.9834 17.4183C41.9838 17.4261 41.985 17.4339 41.9854 17.4417ZM17.999 17.8958C18 17.7883 18.003 17.6809 18.0068 17.5735C18.003 17.6809 18 17.7883 17.999 17.8958ZM14.002 17.721C14.0045 17.5757 14.0101 17.4305 14.0166 17.2855C14.0101 17.4305 14.0045 17.5757 14.002 17.721ZM18.0107 17.4788C18.0149 17.3821 18.0198 17.2854 18.0264 17.1888C18.0198 17.2854 18.0149 17.3821 18.0107 17.4788ZM41.9678 17.1888C41.9729 17.2652 41.9797 17.3416 41.9834 17.4183C41.9797 17.3416 41.9729 17.2652 41.9678 17.1888ZM14.0244 17.1204C14.0307 17.0067 14.0382 16.8931 14.0469 16.7796C14.0382 16.8931 14.0307 17.0067 14.0244 17.1204ZM18.0381 17.0345C18.0457 16.9406 18.0537 16.8469 18.0635 16.7532C18.0537 16.8469 18.0457 16.9407 18.0381 17.0345ZM41.917 16.64C41.9251 16.7109 41.9356 16.7817 41.9424 16.8528C41.9356 16.7817 41.9251 16.7109 41.917 16.64ZM18.0801 16.6136C18.0913 16.5174 18.1027 16.4214 18.1162 16.3255C18.1027 16.4214 18.0913 16.5175 18.0801 16.6136ZM14.0693 16.5052C14.0792 16.3999 14.0906 16.2948 14.1025 16.1898C14.0906 16.2948 14.0792 16.3999 14.0693 16.5052ZM41.834 16.0413C41.8464 16.1162 41.8601 16.1908 41.8711 16.2659C41.8601 16.1908 41.8464 16.1162 41.834 16.0413ZM18.1328 16.2142C18.1479 16.1137 18.164 16.0135 18.1816 15.9134C18.164 16.0134 18.1479 16.1137 18.1328 16.2142ZM14.1328 15.9437C14.1494 15.8155 14.1678 15.6876 14.1875 15.5599C14.1678 15.6876 14.1494 15.8155 14.1328 15.9437ZM18.2119 15.7503C18.2273 15.6699 18.2418 15.5892 18.2588 15.5091C18.2418 15.5892 18.2273 15.6699 18.2119 15.7503ZM41.7344 15.515C41.7478 15.5784 41.762 15.6417 41.7744 15.7054C41.762 15.6417 41.7478 15.5784 41.7344 15.515ZM14.2148 15.3841C14.2367 15.2519 14.2609 15.1202 14.2861 14.9886C14.2609 15.1202 14.2367 15.2519 14.2148 15.3841ZM19.1885 12.7903C19.0819 13.0115 18.9809 13.2359 18.8877 13.4642L18.7275 13.8802C18.5521 14.3602 18.4093 14.8497 18.2969 15.345C18.4419 14.7058 18.6378 14.0764 18.8877 13.4642C18.9809 13.2359 19.0819 13.0115 19.1885 12.7903ZM41.5889 14.9036C41.6099 14.9823 41.631 15.0609 41.6504 15.14C41.631 15.0609 41.6099 14.9823 41.5889 14.9036ZM14.3389 14.7269C14.3599 14.6261 14.3813 14.5255 14.4043 14.4251C14.3813 14.5255 14.3599 14.6261 14.3389 14.7269ZM41.4238 14.3411C41.4536 14.4342 41.4822 14.5276 41.5098 14.6214C41.4822 14.5276 41.4536 14.4342 41.4238 14.3411ZM14.4531 14.2181C14.4841 14.0908 14.5157 13.9637 14.5498 13.8372C14.5157 13.9637 14.4841 14.0908 14.4531 14.2181ZM41.252 13.8431C41.2768 13.9103 41.3016 13.9775 41.3252 14.0452C41.3016 13.9775 41.2768 13.9103 41.252 13.8431ZM14.6133 13.6165C14.646 13.5017 14.6786 13.3869 14.7139 13.2728C14.6786 13.3869 14.646 13.5017 14.6133 13.6165ZM41.0449 13.3187C41.0713 13.3809 41.0968 13.4435 41.1221 13.5062C41.0967 13.4435 41.0713 13.3809 41.0449 13.3187ZM14.7764 13.0794C14.8173 12.9529 14.8573 12.8261 14.9014 12.7005C14.8573 12.8261 14.8172 12.9529 14.7764 13.0794ZM40.8145 12.8089C40.8397 12.8614 40.8642 12.9142 40.8887 12.9671C40.8642 12.9142 40.8397 12.8614 40.8145 12.8089ZM19.2441 12.6741C19.2824 12.597 19.3225 12.5209 19.3623 12.4446C19.3225 12.5209 19.2824 12.597 19.2441 12.6741ZM15.1064 12.1487C15.3238 11.5956 15.5719 11.0529 15.8516 10.5237C15.9431 10.3506 16.0382 10.1793 16.1357 10.0101C16.0382 10.1793 15.944 10.3506 15.8525 10.5237L15.5732 11.0775C15.4043 11.4295 15.2486 11.7868 15.1064 12.1487ZM40.5498 12.2894C40.5777 12.3409 40.6047 12.3928 40.6318 12.4446C40.6047 12.3928 40.5777 12.3409 40.5498 12.2894ZM19.4336 12.3069C19.484 12.2135 19.5371 12.1216 19.5898 12.0296C19.5371 12.1216 19.484 12.2135 19.4336 12.3069ZM40.2656 11.7923C40.298 11.8459 40.3288 11.9004 40.3604 11.9544C40.3288 11.9004 40.298 11.8459 40.2656 11.7923ZM19.6436 11.9349C19.6873 11.8602 19.733 11.7868 19.7783 11.7132C19.733 11.7868 19.6873 11.8602 19.6436 11.9349ZM19.8691 11.5648C19.9206 11.4838 19.974 11.4042 20.0273 11.3245C19.974 11.4042 19.9206 11.4838 19.8691 11.5648ZM39.9541 11.304C39.9897 11.3569 40.0239 11.4107 40.0586 11.4642C40.0239 11.4107 39.9897 11.3569 39.9541 11.304ZM20.0918 11.2278C20.1464 11.148 20.2023 11.069 20.2588 10.9905C20.2023 11.069 20.1464 11.148 20.0918 11.2278ZM39.6279 10.8411C39.6485 10.8688 39.6681 10.8972 39.6885 10.9251C39.6681 10.8972 39.6485 10.8688 39.6279 10.8411ZM20.3438 10.8724C20.3979 10.7991 20.453 10.7266 20.5088 10.6546C20.453 10.7266 20.3979 10.7991 20.3438 10.8724ZM20.6123 10.5237C20.6621 10.4613 20.7117 10.3987 20.7627 10.3372C20.7117 10.3987 20.6621 10.4613 20.6123 10.5237ZM39.2803 10.3939C39.315 10.4362 39.3468 10.4809 39.3809 10.5237C39.3393 10.4716 39.2993 10.4181 39.2568 10.3665L39.2803 10.3939ZM20.8809 10.1985C20.9376 10.1323 20.9946 10.0663 21.0527 10.0013C20.9946 10.0663 20.9376 10.1323 20.8809 10.1985ZM21.1475 9.89679C21.214 9.8241 21.2813 9.75203 21.3496 9.68097C21.2813 9.75203 21.214 9.8241 21.1475 9.89679ZM21.4297 9.59894C21.4985 9.52877 21.5681 9.45943 21.6387 9.39093C21.5681 9.45943 21.4985 9.52877 21.4297 9.59894ZM16.4424 9.50226C16.5214 9.37614 16.6031 9.25191 16.6855 9.12824C16.6031 9.25191 16.5214 9.37615 16.4424 9.50226ZM37.6191 8.73175C37.8951 8.95867 38.1615 9.19881 38.418 9.45148C38.1615 9.19881 37.8951 8.95867 37.6191 8.73175ZM21.7627 9.27374C21.8268 9.21322 21.8906 9.15222 21.9561 9.09308C21.8906 9.15222 21.8268 9.21322 21.7627 9.27374ZM22.0596 9.00226C22.1275 8.94229 22.1953 8.88202 22.2646 8.82355C22.1953 8.88201 22.1275 8.9423 22.0596 9.00226ZM16.7686 9.00128C16.8369 8.90078 16.908 8.80225 16.9785 8.70343C16.908 8.80225 16.8369 8.90078 16.7686 9.00128ZM37.5098 8.64484C37.5461 8.67399 37.5832 8.70216 37.6191 8.73175C37.5832 8.70216 37.5461 8.67399 37.5098 8.64484ZM23.3057 8.03839L22.9404 8.29425C22.7578 8.42703 22.5795 8.56495 22.4053 8.70734C22.6939 8.47149 22.9935 8.2475 23.3047 8.03839C23.3531 8.00583 23.4033 7.97548 23.4521 7.94367C23.4035 7.97536 23.3539 8.00595 23.3057 8.03839ZM17.1152 8.513C17.1809 8.42389 17.248 8.33602 17.3154 8.24835C17.248 8.33602 17.1809 8.42389 17.1152 8.513ZM37.0107 8.26496C37.0622 8.30202 37.1141 8.33838 37.165 8.37628C37.1141 8.33838 37.0622 8.30202 37.0107 8.26496ZM36.5273 7.93488C36.586 7.9729 36.6451 8.01006 36.7031 8.04913C36.6451 8.01006 36.586 7.9729 36.5273 7.93488ZM17.4795 8.03839C17.5519 7.94745 17.6249 7.85718 17.6992 7.76788C17.6249 7.85718 17.5518 7.94745 17.4795 8.03839ZM23.6807 7.79718C23.6038 7.84478 23.528 7.89426 23.4521 7.94367C23.6528 7.81305 23.8562 7.68759 24.0635 7.56964L23.6807 7.79718ZM36.0283 7.62726C36.0953 7.6662 36.1623 7.70517 36.2285 7.74542C36.1623 7.70517 36.0953 7.6662 36.0283 7.62726ZM17.8535 7.58527C17.9246 7.50242 17.9966 7.42052 18.0693 7.33917C17.9966 7.42053 17.9246 7.50241 17.8535 7.58527ZM25.2549 6.97687C24.8809 7.13776 24.5153 7.31895 24.1582 7.51788C24.6447 7.24687 25.1473 7.00901 25.6641 6.8089L25.2549 6.97687ZM35.5361 7.35675C35.5968 7.38834 35.6576 7.41982 35.7178 7.45246C35.6576 7.41982 35.5968 7.38834 35.5361 7.35675ZM34.9854 7.08722C35.0675 7.12475 35.1492 7.16307 35.2305 7.20246C35.1492 7.16307 35.0675 7.12475 34.9854 7.08722ZM18.2666 7.1214C18.3289 7.05418 18.3916 6.98733 18.4551 6.92121C18.3916 6.98733 18.3289 7.05418 18.2666 7.1214ZM34.4717 6.86652C34.5594 6.90178 34.6465 6.93856 34.7334 6.97589C34.6465 6.93856 34.5594 6.90178 34.4717 6.86652ZM26.5 6.52081C26.2416 6.59955 25.986 6.68746 25.7334 6.78351C25.8482 6.73988 25.9631 6.69663 26.0791 6.65656L26.5 6.52081ZM33.9521 6.67121C34.0271 6.69738 34.1013 6.72558 34.1758 6.75324C34.1013 6.72558 34.0271 6.69738 33.9521 6.67121ZM18.6826 6.69074C18.7583 6.61501 18.8349 6.54032 18.9121 6.46613C18.8349 6.54032 18.7583 6.61501 18.6826 6.69074ZM33.4053 6.49445C33.4852 6.51811 33.5642 6.54433 33.6436 6.56964C33.5642 6.54433 33.4852 6.51811 33.4053 6.49445ZM32.8652 6.34796C32.9339 6.36486 33.002 6.38358 33.0703 6.40167C33.002 6.38358 32.9339 6.36486 32.8652 6.34796ZM19.0938 6.29425C19.1693 6.2239 19.2444 6.15318 19.3213 6.08429C19.2444 6.15318 19.1693 6.2239 19.0938 6.29425ZM32.2881 6.22101C32.3727 6.23747 32.4568 6.25645 32.541 6.27472C32.4568 6.25646 32.3727 6.23747 32.2881 6.22101ZM31.7412 6.12726C31.8053 6.13666 31.8688 6.14906 31.9326 6.15949C31.8688 6.14906 31.8053 6.13666 31.7412 6.12726ZM29.5518 6.00812C29.1339 6.02366 28.7184 6.06181 28.3066 6.12042C28.5718 6.08268 28.8385 6.05248 29.1064 6.03253L29.5518 6.00812ZM31.1758 6.05695C31.2052 6.05984 31.2343 6.06458 31.2637 6.06769C31.2343 6.06458 31.2052 6.05984 31.1758 6.05695ZM30.5938 6.01398C30.7884 6.02364 30.9826 6.0379 31.1758 6.05695C30.9822 6.03786 30.7878 6.02365 30.5928 6.01398L29.998 5.99933L30.5938 6.01398ZM19.5361 5.89581C19.6214 5.82212 19.7071 5.74897 19.7939 5.67706C19.7071 5.74897 19.6214 5.82212 19.5361 5.89581ZM19.9795 5.52667C20.0668 5.45658 20.1544 5.38695 20.2432 5.31867C20.1544 5.38696 20.0667 5.45657 19.9795 5.52667ZM20.4795 5.14191C20.5624 5.08056 20.6444 5.01809 20.7285 4.95831C20.6444 5.01809 20.5624 5.08056 20.4795 5.14191ZM20.9609 4.79816C21.0431 4.74192 21.1248 4.68493 21.208 4.63019C21.1248 4.68493 21.0431 4.74192 20.9609 4.79816ZM38.3584 4.36066C38.513 4.4554 38.666 4.55261 38.8174 4.65265C38.666 4.55261 38.513 4.4554 38.3584 4.36066ZM22.2314 4.01105C21.9602 4.16165 21.6947 4.32112 21.4336 4.48663C21.7548 4.28308 22.0835 4.0904 22.4199 3.90949L22.2314 4.01105ZM37.7598 4.01105C37.9618 4.12316 38.1613 4.23981 38.3584 4.36066C38.1613 4.23981 37.9618 4.12315 37.7598 4.01105ZM37.3359 3.78351C37.4784 3.85706 37.6195 3.93323 37.7598 4.01105C37.6195 3.93322 37.4784 3.85707 37.3359 3.78351ZM23.7734 3.26203C23.4379 3.40376 23.1059 3.55587 22.7793 3.72101C22.6585 3.78209 22.5389 3.84549 22.4199 3.90949L22.7793 3.72003C23.1058 3.55497 23.438 3.4037 23.7734 3.26203ZM29.8994 1.99933C30.721 1.99424 31.5454 2.05252 32.3652 2.17511C34.1096 2.43599 35.787 2.98393 37.3359 3.78351C35.7867 2.98385 34.109 2.43601 32.3643 2.17511C31.5447 2.05256 30.7207 1.99427 29.8994 1.99933ZM24.0713 3.13995C23.9717 3.17969 23.8724 3.22024 23.7734 3.26203C23.8724 3.22025 23.9717 3.17969 24.0713 3.13995ZM26.2471 2.44562C25.5079 2.62387 24.7812 2.85679 24.0713 3.13995C24.9727 2.78041 25.9016 2.50279 26.8477 2.31281L26.2471 2.44562ZM27.5381 2.19074C27.3702 2.21686 27.2031 2.24717 27.0361 2.27863C27.2031 2.24717 27.3702 2.21686 27.5381 2.19074ZM29.2451 2.01691C28.6729 2.04386 28.1032 2.1028 27.5381 2.19074C28.1032 2.1028 28.6729 2.04388 29.2451 2.01691ZM29.8994 1.99933C29.6811 2.00068 29.4629 2.00664 29.2451 2.01691C29.4629 2.00665 29.6811 2.00068 29.8994 1.99933ZM11.4873 45.972C11.4185 45.9792 11.3492 45.9849 11.2793 45.9896C11.3492 45.9849 11.4185 45.9793 11.4873 45.972ZM9.13672 45.6673C9.08737 45.6473 9.03853 45.6265 8.99023 45.6048C9.03852 45.6265 9.08738 45.6472 9.13672 45.6673ZM11.9795 39.429C11.9755 39.5318 11.9708 39.6334 11.9648 39.7337C11.9708 39.6334 11.9755 39.5318 11.9795 39.429ZM2.1709 35.7288C2.18275 35.6848 2.19592 35.6413 2.20898 35.598C2.19592 35.6413 2.18276 35.6848 2.1709 35.7288ZM18.1045 19.596C18.0871 19.4666 18.0727 19.337 18.0596 19.2073C18.0727 19.337 18.0871 19.4666 18.1045 19.596ZM11.2295 29.4847C11.1922 29.4065 11.1573 29.3274 11.1221 29.2484C11.1573 29.3274 11.1922 29.4065 11.2295 29.4847ZM10.7227 28.1995C10.693 28.1059 10.6646 28.0118 10.6377 27.9173C10.6646 28.0118 10.693 28.1059 10.7227 28.1995ZM10.3408 26.3607C10.3358 26.2942 10.3331 26.2274 10.3301 26.1605C10.3331 26.2274 10.3358 26.2943 10.3408 26.3607ZM10.9395 23.4251C10.9669 23.3781 10.9939 23.3307 11.0234 23.2845C10.9939 23.3307 10.9669 23.3781 10.9395 23.4251ZM14.0684 19.4886C14.0566 19.3627 14.0488 19.2366 14.04 19.1107C14.0488 19.2366 14.0566 19.3627 14.0684 19.4886ZM14.9482 12.5735C14.9995 12.4315 15.0511 12.2895 15.1064 12.1487C15.0512 12.2895 14.9995 12.4315 14.9482 12.5735Z" fill="#6356E5"/>
</svg>
