<svg width="25" height="24" viewBox="0 0 25 24" fill="none" xmlns="http://www.w3.org/2000/svg">
<path fill-rule="evenodd" clip-rule="evenodd" d="M14.8851 15.446C12.2349 17.5687 8.35544 17.4016 5.89866 14.9448C3.26262 12.3088 3.26262 8.03494 5.89866 5.3989C8.5347 2.76287 12.8086 2.76287 15.4446 5.3989C17.9014 7.85569 18.0685 11.7351 15.9458 14.3854L21.1014 19.541C21.3943 19.8339 21.3943 20.3088 21.1014 20.6017C20.8085 20.8946 20.3337 20.8946 20.0408 20.6017L14.8851 15.446ZM6.95932 13.8842C4.90907 11.8339 4.90907 8.50982 6.95932 6.45956C9.00957 4.40931 12.3337 4.40931 14.3839 6.45956C16.4327 8.50831 16.4342 11.8291 14.3885 13.8797C14.3869 13.8812 14.3854 13.8827 14.3839 13.8842C14.3824 13.8857 14.3809 13.8872 14.3794 13.8887C12.3288 15.9344 9.00807 15.9329 6.95932 13.8842Z" fill="#6356E5"/>
</svg>
