<svg width="20" height="21" viewBox="0 0 20 21" fill="none" xmlns="http://www.w3.org/2000/svg">
<path d="M7.52587 11.6325L12.6484 14.6175M12.6409 6.3825L7.52587 9.3675M16.8334 5.25C16.8334 6.49264 15.826 7.5 14.5834 7.5C13.3407 7.5 12.3334 6.49264 12.3334 5.25C12.3334 4.00736 13.3407 3 14.5834 3C15.826 3 16.8334 4.00736 16.8334 5.25ZM7.83337 10.5C7.83337 11.7426 6.82601 12.75 5.58337 12.75C4.34073 12.75 3.33337 11.7426 3.33337 10.5C3.33337 9.25736 4.34073 8.25 5.58337 8.25C6.82601 8.25 7.83337 9.25736 7.83337 10.5ZM16.8334 15.75C16.8334 16.9926 15.826 18 14.5834 18C13.3407 18 12.3334 16.9926 12.3334 15.75C12.3334 14.5074 13.3407 13.5 14.5834 13.5C15.826 13.5 16.8334 14.5074 16.8334 15.75Z" stroke="#6356E5" stroke-width="1.5" stroke-linecap="round" stroke-linejoin="round"/>
</svg>
