<svg width="20" height="21" viewBox="0 0 20 21" fill="none" xmlns="http://www.w3.org/2000/svg">
<path fill-rule="evenodd" clip-rule="evenodd" d="M2.36119 2.16602C1.97766 2.16602 1.66675 2.47693 1.66675 2.86046C1.66675 3.24399 1.97766 3.5549 2.36119 3.5549H4.56974L5.14727 6.44037C5.15035 6.46013 5.15426 6.47962 5.15896 6.49879L6.31906 12.2949C6.41441 12.7743 6.67525 13.2049 7.05597 13.5113C7.43494 13.8164 7.90867 13.9792 8.39497 13.9716H15.133C15.6193 13.9792 16.093 13.8164 16.472 13.5113C16.8528 13.2047 17.1138 12.7739 17.209 12.2944L18.3211 6.46277C18.3599 6.25947 18.306 6.04947 18.174 5.89001C18.0421 5.73055 17.8459 5.63824 17.639 5.63824H6.40316L5.81991 2.72417C5.75495 2.39962 5.46996 2.16602 5.13897 2.16602H2.36119ZM7.68122 12.0238L6.68114 7.02713H16.7996L15.8463 12.026C15.8142 12.185 15.7274 12.3277 15.601 12.4294C15.4741 12.5316 15.3152 12.5859 15.1523 12.5828L15.139 12.5827H8.38897L8.37566 12.5828C8.21271 12.5859 8.05385 12.5316 7.92689 12.4294C7.79994 12.3272 7.71297 12.1836 7.68122 12.0238ZM6.52788 16.7493C6.52788 15.9823 7.14971 15.3605 7.91677 15.3605C8.68383 15.3605 9.30566 15.9823 9.30566 16.7493C9.30566 17.5164 8.68383 18.1382 7.91677 18.1382C7.14971 18.1382 6.52788 17.5164 6.52788 16.7493ZM14.1667 16.7493C14.1667 15.9823 14.7886 15.3605 15.5556 15.3605C16.3227 15.3605 16.9445 15.9823 16.9445 16.7493C16.9445 17.5164 16.3227 18.1382 15.5556 18.1382C14.7886 18.1382 14.1667 17.5164 14.1667 16.7493Z" fill="white"/>
</svg>
