<svg width="20" height="20" viewBox="0 0 20 20" fill="none" xmlns="http://www.w3.org/2000/svg">
<path fill-rule="evenodd" clip-rule="evenodd" d="M7.48533 5.25292C7.45866 5.25292 7.43199 5.25625 7.40533 5.26292C4.93033 5.87208 2.91699 8.55375 2.91699 11.2404C2.91699 14.6204 5.66699 17.3704 9.04783 17.3704C12.0953 17.3704 14.642 15.1996 15.1037 12.2079C15.107 12.1829 15.1187 12.1104 15.0503 12.0296C14.9853 11.9538 14.882 11.9088 14.7737 11.9088C13.5978 11.9088 12.7003 11.9354 11.9995 11.9554C10.3028 12.0063 9.60116 12.0254 8.90783 11.5113C7.86283 10.7371 7.77449 9.40708 7.77449 5.49542C7.77449 5.42542 7.74449 5.36708 7.68449 5.32042C7.62866 5.27625 7.55783 5.25292 7.48533 5.25292ZM9.04783 18.6204C4.97783 18.6204 1.66699 15.3096 1.66699 11.2404C1.66699 8.01375 4.10699 4.78708 7.10616 4.04875C7.57449 3.93458 8.07783 4.04125 8.45616 4.33625C8.81699 4.61958 9.02449 5.04208 9.02449 5.49542C9.02449 9.14958 9.14783 10.1329 9.65199 10.5071C9.98283 10.7513 10.4362 10.7488 11.9637 10.7063C12.6737 10.6854 13.5828 10.6588 14.7737 10.6588C15.2487 10.6588 15.6962 10.8621 15.9995 11.2163C16.2812 11.5454 16.4045 11.9754 16.3395 12.3988C15.7828 16.0029 12.7162 18.6204 9.04783 18.6204Z" fill="#2E2E2E"/>
<mask id="mask0_2649_18558" style="mask-type:luminance" maskUnits="userSpaceOnUse" x="10" y="0" width="10" height="10">
<path fill-rule="evenodd" clip-rule="evenodd" d="M10.395 0.833984H19.0775V9.4084H10.395V0.833984Z" fill="white"/>
</mask>
<g mask="url(#mask0_2649_18558)">
<path fill-rule="evenodd" clip-rule="evenodd" d="M11.6756 2.08544C11.584 4.1846 11.7198 6.89627 11.7831 7.97044C11.7865 8.0346 11.8331 8.08127 11.8965 8.0846C12.7531 8.13377 15.7048 8.27044 17.8273 7.95794C17.8323 6.78794 17.0315 5.20127 15.8256 3.99627C14.589 2.76127 13.1256 2.08544 11.694 2.08544H11.6756ZM14.429 9.40877C13.3373 9.40877 12.3765 9.3646 11.824 9.33294C11.129 9.2921 10.5756 8.73794 10.5356 8.04294C10.4706 6.94127 10.3298 4.1421 10.4298 1.9771C10.4573 1.34794 10.9656 0.847102 11.5873 0.836269C13.3681 0.784602 15.2056 1.61127 16.709 3.1121C18.174 4.57627 19.104 6.50044 19.0773 8.0146C19.0673 8.60544 18.6381 9.09877 18.0581 9.18627C16.9265 9.3571 15.6015 9.40877 14.429 9.40877Z" fill="#2E2E2E"/>
</g>
</svg>
