<svg width="20" height="20" viewBox="0 0 20 20" fill="none" xmlns="http://www.w3.org/2000/svg">
<path fill-rule="evenodd" clip-rule="evenodd" d="M6.01369 13.3356C5.88036 13.3356 5.74619 13.2931 5.63286 13.2064C5.35953 12.9956 5.30786 12.6031 5.51869 12.3298L8.01286 9.0881C8.11453 8.9556 8.26536 8.86977 8.43036 8.84894C8.5987 8.82727 8.7637 8.87394 8.89453 8.9781L11.2445 10.8239L13.3004 8.17143C13.512 7.89727 13.9037 7.84643 14.177 8.05977C14.4504 8.27143 14.5004 8.66394 14.2887 8.93643L11.847 12.0864C11.7454 12.2181 11.5954 12.3039 11.4304 12.3239C11.2637 12.3464 11.0987 12.2981 10.967 12.1956L8.6187 10.3506L6.50953 13.0914C6.38619 13.2514 6.20119 13.3356 6.01369 13.3356Z" fill="#2E2E2E"/>
<mask id="mask0_2649_18514" style="mask-type:luminance" maskUnits="userSpaceOnUse" x="14" y="1" width="5" height="6">
<path fill-rule="evenodd" clip-rule="evenodd" d="M14.4128 1.66699H18.8662V6.12108H14.4128V1.66699Z" fill="white"/>
</mask>
<g mask="url(#mask0_2649_18514)">
<path fill-rule="evenodd" clip-rule="evenodd" d="M16.6395 2.91699C16.1012 2.91699 15.6628 3.35449 15.6628 3.89366C15.6628 4.43199 16.1012 4.87116 16.6395 4.87116C17.1778 4.87116 17.6162 4.43199 17.6162 3.89366C17.6162 3.35449 17.1778 2.91699 16.6395 2.91699ZM16.6395 6.12116C15.412 6.12116 14.4128 5.12199 14.4128 3.89366C14.4128 2.66533 15.412 1.66699 16.6395 1.66699C17.8678 1.66699 18.8662 2.66533 18.8662 3.89366C18.8662 5.12199 17.8678 6.12116 16.6395 6.12116Z" fill="#2E2E2E"/>
</g>
<mask id="mask1_2649_18514" style="mask-type:luminance" maskUnits="userSpaceOnUse" x="1" y="2" width="18" height="17">
<path fill-rule="evenodd" clip-rule="evenodd" d="M1.66675 2.36816H18.2183V18.919H1.66675V2.36816Z" fill="white"/>
</mask>
<g mask="url(#mask1_2649_18514)">
<path fill-rule="evenodd" clip-rule="evenodd" d="M13.5273 18.919H6.35734C3.5515 18.919 1.6665 16.9482 1.6665 14.0148V7.27983C1.6665 4.34233 3.5515 2.36816 6.35734 2.36816H12.414C12.759 2.36816 13.039 2.64816 13.039 2.99316C13.039 3.33816 12.759 3.61816 12.414 3.61816H6.35734C4.26734 3.61816 2.9165 5.05483 2.9165 7.27983V14.0148C2.9165 16.269 4.23484 17.669 6.35734 17.669H13.5273C15.6173 17.669 16.9682 16.2348 16.9682 14.0148V8.149C16.9682 7.804 17.2482 7.524 17.5932 7.524C17.9382 7.524 18.2182 7.804 18.2182 8.149V14.0148C18.2182 16.9482 16.3332 18.919 13.5273 18.919Z" fill="#2E2E2E"/>
</g>
</svg>
