<svg width="34" height="34" viewBox="0 0 34 34" fill="none" xmlns="http://www.w3.org/2000/svg">
<g clip-path="url(#clip0_2979_6345)">
<path d="M23.0445 2.60578C22.9668 4.7075 23.3878 7.17193 24.8206 8.79113C26.3699 10.5399 29.127 11.0434 31.3693 10.9317C31.392 11.058 31.3563 11.1195 31.2932 11.2183C31.107 11.5065 30.5129 12.0069 30.2409 12.3485C27.7104 15.5286 27.7266 18.4594 30.2409 21.6395C30.3591 21.7885 31.5199 22.9672 31.3709 23.0563C28.8437 22.951 25.9312 23.555 24.4029 25.7474C23.5934 26.9084 23.1563 28.4855 23.0478 29.8893C23.03 30.1095 23.1287 31.468 22.9264 31.4632C22.159 30.6649 21.322 29.9039 20.3538 29.3485C17.4073 27.6581 14.8995 28.2167 12.3415 30.2536C12.1926 30.3718 11.014 31.5312 10.9265 31.3839C11.0561 28.7802 10.3567 25.6956 8.00916 24.2367C6.96493 23.5874 5.40424 23.1421 4.1803 23.0547C3.95688 23.0385 2.51762 23.1453 2.52247 22.9365C4.45229 21.1408 6.11821 18.6262 5.55481 15.8606C5.32491 14.7336 4.6498 13.5143 3.96174 12.6027C3.61366 12.1413 2.92074 11.5923 2.67789 11.2183C2.61314 11.1195 2.57752 11.058 2.6018 10.9317C6.5958 11.071 9.84508 9.68978 10.7242 5.51548C10.9168 4.60225 11.0496 3.51901 10.9249 2.60578C11.0982 2.45195 11.736 3.23888 11.8931 3.3749C15.0225 6.05953 18.0209 6.5372 21.424 3.9319C21.8643 3.59511 22.4002 2.91504 22.7612 2.68188C22.86 2.61711 22.9215 2.58149 23.0478 2.60578H23.0445ZM30.4805 11.4175C27.8658 11.9729 25.1703 12.2643 23.2858 10.0039C21.7558 8.16612 22.1525 5.49929 22.6398 3.33442L21.5065 5.0702C18.832 8.43976 15.4791 8.55149 12.6572 5.27584L11.4058 3.49634C12.0032 6.25546 12.2735 8.80408 9.91146 10.773C8.6697 11.8077 6.85484 11.9081 5.30386 11.7397C4.63361 11.6668 3.9844 11.4531 3.32224 11.3381L4.68866 12.1931C8.68751 15.0931 8.61466 18.8852 4.68866 21.7982C4.2742 22.1058 3.7966 22.3228 3.40319 22.6531C5.4091 22.088 8.13868 21.7901 9.86936 23.1777C11.6 24.5654 11.9595 26.4615 11.7263 28.6749C11.6567 29.3437 11.4689 30.0027 11.3248 30.6568L12.62 28.7607C15.7851 25.0382 19.41 25.83 22.01 29.6303L22.6382 30.6584C21.989 28.0159 21.7008 25.1094 24.0548 23.2247C25.3451 22.1916 27.1389 22.0815 28.7304 22.2629C29.3763 22.3358 30.0013 22.5462 30.6391 22.6564L28.7417 21.361C25.562 18.6424 25.5021 15.4185 28.698 12.6724L30.4772 11.4207L30.4805 11.4175Z" fill="#6356E5"/>
<path d="M6.41598 29.6294C7.54885 29.6294 8.46722 28.7109 8.46722 27.5779C8.46722 26.4449 7.54885 25.5264 6.41598 25.5264C5.28312 25.5264 4.36475 26.4449 4.36475 27.5779C4.36475 28.7109 5.28312 29.6294 6.41598 29.6294Z" fill="#6356E5"/>
<path d="M6.41107 8.47165C7.54304 8.47165 8.46068 7.55387 8.46068 6.42174C8.46068 5.2896 7.54304 4.37183 6.41107 4.37183C5.27909 4.37183 4.36145 5.2896 4.36145 6.42174C4.36145 7.55387 5.27909 8.47165 6.41107 8.47165Z" fill="#6356E5"/>
<path d="M31.9504 19.0354C33.0823 19.0354 34 18.1176 34 16.9855C34 15.8533 33.0823 14.9355 31.9504 14.9355C30.8184 14.9355 29.9008 15.8533 29.9008 16.9855C29.9008 18.1176 30.8184 19.0354 31.9504 19.0354Z" fill="#6356E5"/>
<path d="M16.9878 4.09982C18.1198 4.09982 19.0375 3.18204 19.0375 2.04991C19.0375 0.917776 18.1198 0 16.9878 0C15.8559 0 14.9382 0.917776 14.9382 2.04991C14.9382 3.18204 15.8559 4.09982 16.9878 4.09982Z" fill="#6356E5"/>
<path d="M2.04962 19.0499C3.18159 19.0499 4.09923 18.1321 4.09923 17C4.09923 15.8678 3.18159 14.9501 2.04962 14.9501C0.917645 14.9501 0 15.8678 0 17C0 18.1321 0.917645 19.0499 2.04962 19.0499Z" fill="#6356E5"/>
<path d="M27.563 8.4631C28.695 8.4631 29.6127 7.54532 29.6127 6.41319C29.6127 5.28106 28.695 4.36328 27.563 4.36328C26.4311 4.36328 25.5134 5.28106 25.5134 6.41319C25.5134 7.54532 26.4311 8.4631 27.563 8.4631Z" fill="#6356E5"/>
<path d="M27.5727 29.6152C28.7047 29.6152 29.6223 28.6974 29.6223 27.5653C29.6223 26.4332 28.7047 25.5154 27.5727 25.5154C26.4407 25.5154 25.5231 26.4332 25.5231 27.5653C25.5231 28.6974 26.4407 29.6152 27.5727 29.6152Z" fill="#6356E5"/>
<path d="M16.9992 34C18.1312 34 19.0488 33.0822 19.0488 31.9501C19.0488 30.8179 18.1312 29.9001 16.9992 29.9001C15.8672 29.9001 14.9496 30.8179 14.9496 31.9501C14.9496 33.0822 15.8672 34 16.9992 34Z" fill="#6356E5"/>
<path d="M16.996 24.0257C20.8774 24.0257 24.0239 20.8787 24.0239 16.9967C24.0239 13.1147 20.8774 9.96777 16.996 9.96777C13.1145 9.96777 9.96802 13.1147 9.96802 16.9967C9.96802 20.8787 13.1145 24.0257 16.996 24.0257Z" fill="#6356E5"/>
</g>
<defs>
<clipPath id="clip0_2979_6345">
<rect width="34" height="34" fill="white"/>
</clipPath>
</defs>
</svg>
