<svg width="20" height="20" viewBox="0 0 20 20" fill="none" xmlns="http://www.w3.org/2000/svg">
<mask id="mask0_2649_18571" style="mask-type:luminance" maskUnits="userSpaceOnUse" x="1" y="1" width="17" height="18">
<path fill-rule="evenodd" clip-rule="evenodd" d="M1.66675 1.66797H17.7375V18.9355H1.66675V1.66797Z" fill="white"/>
</mask>
<g mask="url(#mask0_2649_18571)">
<path fill-rule="evenodd" clip-rule="evenodd" d="M6.00177 14.5346C6.1926 14.5346 6.38344 14.5588 6.5701 14.6088C7.13344 14.7605 7.6226 15.1371 7.9126 15.643C8.10094 15.9605 8.2051 16.3313 8.20844 16.7096C8.20844 17.2513 8.64344 17.6855 9.17844 17.6855H10.2226C10.7551 17.6855 11.1901 17.2538 11.1926 16.7213C11.1893 16.133 11.4193 15.5738 11.8401 15.153C12.2551 14.738 12.8351 14.4888 13.4151 14.5055C13.7951 14.5146 14.1609 14.6171 14.4834 14.8005C14.9476 15.0663 15.5401 14.908 15.8084 14.4496L16.3618 13.5271C16.4851 13.3146 16.5209 13.048 16.4551 12.8021C16.3901 12.5563 16.2268 12.343 16.0068 12.2171C15.4918 11.9205 15.1243 11.4421 14.9718 10.8688C14.8209 10.3063 14.9034 9.69213 15.1976 9.1863C15.3893 8.85297 15.6701 8.57214 16.0068 8.3788C16.4584 8.11464 16.6168 7.5238 16.3543 7.0638C16.3434 7.04547 16.3334 7.0263 16.3251 7.0063L15.8368 6.15964C15.5709 5.69714 14.9793 5.53797 14.5151 5.80214C14.0134 6.0988 13.4168 6.1838 12.8434 6.03297C12.2709 5.88464 11.7909 5.52214 11.4918 5.01047C11.3001 4.69047 11.1959 4.31797 11.1926 3.9388C11.2001 3.6538 11.1001 3.39797 10.9184 3.21047C10.7376 3.0238 10.4834 2.91797 10.2226 2.91797H9.17844C8.9201 2.91797 8.67844 3.0188 8.49594 3.20047C8.31427 3.38297 8.2151 3.62547 8.21677 3.8838C8.19927 5.10214 7.20344 6.08297 5.9976 6.08297C5.61094 6.0788 5.23844 5.97464 4.9151 5.7813C4.46094 5.52297 3.8676 5.68214 3.60177 6.14464L3.0376 7.07214C2.77927 7.52047 2.9376 8.11297 3.3976 8.38047C4.0801 8.77547 4.50594 9.51214 4.50594 10.3021C4.50594 11.0921 4.0801 11.828 3.39594 12.2238C2.93844 12.4888 2.7801 13.078 3.0451 13.5363L3.57094 14.443C3.70094 14.6771 3.91344 14.8463 4.15927 14.9155C4.40427 14.9838 4.67427 14.9546 4.89927 14.8296C5.2301 14.6355 5.6151 14.5346 6.00177 14.5346ZM10.2226 18.9355H9.17844C7.95427 18.9355 6.95844 17.9405 6.95844 16.7163C6.95677 16.5655 6.91344 16.4088 6.8326 16.273C6.70177 16.0446 6.4901 15.8813 6.24594 15.8163C6.00344 15.7513 5.7376 15.7871 5.51927 15.9138C4.99594 16.2055 4.3801 16.2763 3.81677 16.118C3.25427 15.9588 2.76844 15.5721 2.48344 15.0596L1.9626 14.1621C1.35344 13.1055 1.71594 11.7513 2.77094 11.1413C3.0701 10.9688 3.25594 10.6471 3.25594 10.3021C3.25594 9.95714 3.0701 9.63463 2.77094 9.46213C1.7151 8.8488 1.35344 7.4913 1.96177 6.43464L2.52677 5.50714C3.1276 4.46214 4.48594 4.0938 5.5451 4.70214C5.68927 4.78797 5.84594 4.8313 6.0051 4.83297C6.52427 4.83297 6.95844 4.40464 6.96677 3.87797C6.96344 3.29714 7.1926 2.73964 7.6101 2.3188C8.02927 1.8988 8.58594 1.66797 9.17844 1.66797H10.2226C10.8193 1.66797 11.3993 1.91297 11.8151 2.3388C12.2301 2.76714 12.4593 3.35464 12.4418 3.95047C12.4434 4.08464 12.4876 4.23964 12.5676 4.37547C12.7001 4.60047 12.9093 4.7588 13.1576 4.8238C13.4059 4.88547 13.6659 4.85214 13.8868 4.7213C14.9534 4.11214 16.3109 4.47714 16.9201 5.53547L17.4393 6.43464C17.4526 6.4588 17.4643 6.48214 17.4743 6.5063C18.0259 7.5488 17.6576 8.8613 16.6326 9.46047C16.4834 9.5463 16.3626 9.6663 16.2793 9.8113C16.1501 10.0355 16.1143 10.3021 16.1793 10.5471C16.2459 10.7971 16.4051 11.0046 16.6293 11.133C17.1351 11.4238 17.5126 11.9138 17.6634 12.4796C17.8143 13.0446 17.7318 13.658 17.4376 14.1638L16.8843 15.0855C16.2751 16.1321 14.9176 16.4946 13.8618 15.8846C13.7209 15.8038 13.5584 15.7596 13.3968 15.7555H13.3918C13.1509 15.7555 12.9034 15.858 12.7234 16.0371C12.5409 16.2196 12.4409 16.463 12.4426 16.7213C12.4368 17.9455 11.4409 18.9355 10.2226 18.9355Z" fill="#2E2E2E"/>
</g>
<path fill-rule="evenodd" clip-rule="evenodd" d="M9.70424 8.72949C8.83757 8.72949 8.13257 9.43533 8.13257 10.302C8.13257 11.1687 8.83757 11.8728 9.70424 11.8728C10.5709 11.8728 11.2759 11.1687 11.2759 10.302C11.2759 9.43533 10.5709 8.72949 9.70424 8.72949ZM9.70423 13.1228C8.1484 13.1228 6.88257 11.8578 6.88257 10.302C6.88257 8.74616 8.1484 7.47949 9.70423 7.47949C11.2601 7.47949 12.5259 8.74616 12.5259 10.302C12.5259 11.8578 11.2601 13.1228 9.70423 13.1228Z" fill="#2E2E2E"/>
</svg>
