<svg width="20" height="20" viewBox="0 0 20 20" fill="none" xmlns="http://www.w3.org/2000/svg">
<path fill-rule="evenodd" clip-rule="evenodd" d="M14.9056 10.1222C14.599 10.1222 14.3315 9.89634 14.2873 9.58384C14.2398 9.24134 14.4773 8.9255 14.8198 8.878C15.6865 8.75634 16.3406 8.00467 16.3423 7.128C16.3423 6.25884 15.719 5.52384 14.8598 5.383C14.5198 5.32717 14.289 5.0055 14.3448 4.66467C14.4015 4.32384 14.7206 4.0955 15.0631 4.14967C16.5281 4.3905 17.5923 5.64384 17.5923 7.12967C17.589 8.6255 16.4715 9.90884 14.9923 10.1163C14.9631 10.1205 14.934 10.1222 14.9056 10.1222Z" fill="white"/>
<mask id="mask0_2979_6384" style="mask-type:luminance" maskUnits="userSpaceOnUse" x="15" y="11" width="4" height="5">
<path fill-rule="evenodd" clip-rule="evenodd" d="M15.8149 11.6681H18.9766V15.4427H15.8149V11.6681Z" fill="white"/>
</mask>
<g mask="url(#mask0_2979_6384)">
<path fill-rule="evenodd" clip-rule="evenodd" d="M17.3843 15.4427C17.1327 15.4427 16.8952 15.2894 16.8002 15.0402C16.6768 14.7177 16.8393 14.3561 17.1618 14.2336C17.7268 14.0186 17.7268 13.7811 17.7268 13.6669C17.7268 13.3019 17.2627 13.0469 16.3477 12.9102C16.0068 12.8586 15.771 12.5411 15.8218 12.1986C15.8727 11.8569 16.1893 11.6294 16.5335 11.6736C18.5527 11.9761 18.9768 12.9244 18.9768 13.6669C18.9768 14.1202 18.7985 14.9477 17.6068 15.4019C17.5335 15.4294 17.4585 15.4427 17.3843 15.4427Z" fill="white"/>
</g>
<path fill-rule="evenodd" clip-rule="evenodd" d="M9.90553 13.2617C7.92553 13.2617 5.5647 13.5051 5.5647 14.6634C5.5647 15.8309 7.92553 16.0759 9.90553 16.0759C11.8855 16.0759 14.2455 15.8334 14.2455 14.6776C14.2455 13.5076 11.8855 13.2617 9.90553 13.2617ZM9.90553 17.3259C8.52303 17.3259 4.3147 17.3259 4.3147 14.6634C4.3147 12.0117 8.52303 12.0117 9.90553 12.0117C11.288 12.0117 15.4955 12.0117 15.4955 14.6776C15.4955 17.3259 11.4347 17.3259 9.90553 17.3259Z" fill="white"/>
<path fill-rule="evenodd" clip-rule="evenodd" d="M9.90558 4.58337C8.49558 4.58337 7.34891 5.73087 7.34891 7.14087C7.34641 7.82421 7.60808 8.46337 8.08724 8.94587C8.56641 9.42837 9.20474 9.69587 9.88474 9.69837L9.90558 10.3234V9.69837C11.3156 9.69837 12.4631 8.55171 12.4631 7.14087C12.4631 5.73087 11.3156 4.58337 9.90558 4.58337ZM9.90558 10.9484H9.88308C8.86641 10.945 7.91391 10.5467 7.20058 9.82671C6.48558 9.10754 6.09474 8.15254 6.09891 7.13837C6.09891 5.04171 7.80641 3.33337 9.90558 3.33337C12.0056 3.33337 13.7131 5.04171 13.7131 7.14087C13.7131 9.24004 12.0056 10.9484 9.90558 10.9484Z" fill="white"/>
<path fill-rule="evenodd" clip-rule="evenodd" d="M4.90458 10.1221C4.87625 10.1221 4.84708 10.1204 4.81792 10.1162C3.33875 9.90875 2.22208 8.62542 2.21875 7.13125C2.21875 5.64375 3.28292 4.39042 4.74792 4.14958C5.09875 4.09458 5.40958 4.32542 5.46625 4.66458C5.52208 5.00542 5.29125 5.32708 4.95125 5.38292C4.09208 5.52375 3.46875 6.25875 3.46875 7.12958C3.47042 8.00458 4.12458 8.75708 4.99042 8.87792C5.33292 8.92542 5.57042 9.24125 5.52292 9.58375C5.47875 9.89625 5.21125 10.1221 4.90458 10.1221Z" fill="white"/>
<path fill-rule="evenodd" clip-rule="evenodd" d="M2.42659 15.4427C2.35242 15.4427 2.27742 15.4293 2.20409 15.4018C1.01159 14.9468 0.833252 14.1193 0.833252 13.6668C0.833252 12.9252 1.25742 11.976 3.27742 11.6735C3.62159 11.6302 3.93659 11.8568 3.98825 12.1985C4.03909 12.541 3.80325 12.8585 3.46242 12.9102C2.54742 13.0468 2.08325 13.3018 2.08325 13.6668C2.08325 13.781 2.08325 14.0177 2.64909 14.2335C2.97159 14.356 3.13409 14.7177 3.01075 15.0402C2.91575 15.2893 2.67825 15.4427 2.42659 15.4427Z" fill="white"/>
</svg>
