<svg width="32" height="32" viewBox="0 0 32 32" fill="none" xmlns="http://www.w3.org/2000/svg">
<path fill-rule="evenodd" clip-rule="evenodd" d="M17.3334 3.99996C17.3334 3.26358 16.7365 2.66663 16.0001 2.66663C15.2637 2.66663 14.6667 3.26358 14.6667 3.99996V4.99996H13.9235C10.9568 4.99996 8.5013 7.30664 8.3161 10.2676L8.02143 14.9789C7.90909 16.7752 7.30603 18.5062 6.27795 19.9834C5.34904 21.3181 6.176 23.1616 7.79058 23.3553L12.3334 23.9005V25.3333C12.3334 27.3583 13.975 29 16.0001 29C18.0251 29 19.6667 27.3583 19.6667 25.3333V23.9005L24.2096 23.3553C25.8242 23.1616 26.6511 21.3181 25.7222 19.9834C24.6941 18.5062 24.0911 16.7752 23.9787 14.9789L23.684 10.2676C23.4988 7.30664 21.0434 4.99996 18.0766 4.99996H17.3334V3.99996ZM13.9235 6.99996C12.0129 6.99996 10.4315 8.48552 10.3122 10.3925L10.0175 15.1037C9.88234 17.2653 9.15667 19.3482 7.91954 21.1259C7.8524 21.2223 7.91217 21.3556 8.02887 21.3696L13.0124 21.9676C14.9971 22.2058 17.0031 22.2058 18.9877 21.9676L23.9713 21.3696C24.088 21.3556 24.1478 21.2223 24.0806 21.1259C22.8435 19.3482 22.1178 17.2653 21.9826 15.1037L21.6879 10.3925C21.5687 8.48552 19.9873 6.99996 18.0766 6.99996H13.9235ZM16.0001 27C15.0796 27 14.3334 26.2538 14.3334 25.3333V24.3333H17.6667V25.3333C17.6667 26.2538 16.9206 27 16.0001 27Z" fill="#6356E5"/>
</svg>
