<svg width="20" height="20" viewBox="0 0 20 20" fill="none" xmlns="http://www.w3.org/2000/svg">
<path d="M8.74993 13.3333C8.74993 12.643 9.30957 12.0833 9.99993 12.0833C10.6903 12.0833 11.2499 12.643 11.2499 13.3333C11.2499 14.0237 10.6903 14.5833 9.99993 14.5833C9.30957 14.5833 8.74993 14.0237 8.74993 13.3333Z" fill="white"/>
<path fill-rule="evenodd" clip-rule="evenodd" d="M6.35131 8.83096L6.08844 6.46515C6.05474 6.16184 6.05474 5.85572 6.08844 5.5524L6.10741 5.38166C6.30865 3.5705 7.73248 2.13745 9.54231 1.92453C9.84633 1.88876 10.1535 1.88876 10.4575 1.92453C12.2673 2.13745 13.6912 3.5705 13.8924 5.38166L13.9114 5.55241C13.9451 5.85572 13.9451 6.16184 13.9114 6.46515L13.6485 8.83096L14.2207 8.87663C15.123 8.94866 15.8597 9.62692 16.006 10.5202C16.311 12.3832 16.311 14.2835 16.006 16.1465C15.8597 17.0398 15.123 17.718 14.2207 17.79L12.9739 17.8896C10.9944 18.0476 9.00548 18.0476 7.026 17.8896L5.77922 17.79C4.87695 17.718 4.14019 17.0398 3.99393 16.1465C3.68887 14.2835 3.68887 12.3832 3.99393 10.5202C4.14019 9.62692 4.87695 8.94866 5.77922 8.87663L6.35131 8.83096ZM9.68836 3.16597C9.89534 3.14162 10.1045 3.14162 10.3115 3.16597C11.5436 3.31093 12.513 4.2866 12.6501 5.5197L12.669 5.69044C12.6925 5.90202 12.6925 6.11554 12.669 6.32711L12.4014 8.73582C10.8021 8.63283 9.19776 8.63284 7.59843 8.73582L7.33079 6.32711C7.30728 6.11554 7.30728 5.90202 7.33079 5.69044L7.34976 5.5197C7.48677 4.2866 8.45617 3.31093 9.68836 3.16597ZM12.8744 10.0231C10.9612 9.8704 9.03875 9.8704 7.12547 10.0231L5.87869 10.1227C5.54959 10.1489 5.28085 10.3963 5.2275 10.7222C4.94435 12.4514 4.94435 14.2153 5.2275 15.9445C5.28085 16.2703 5.54959 16.5177 5.8787 16.544L7.12547 16.6435C9.03875 16.7963 10.9612 16.7963 12.8744 16.6435L14.1212 16.544C14.4503 16.5177 14.719 16.2703 14.7724 15.9445C15.0556 14.2153 15.0556 12.4514 14.7724 10.7222C14.719 10.3963 14.4503 10.1489 14.1212 10.1227L12.8744 10.0231Z" fill="white"/>
</svg>
