<svg width="20" height="20" viewBox="0 0 20 20" fill="none" xmlns="http://www.w3.org/2000/svg">
<path fill-rule="evenodd" clip-rule="evenodd" d="M8.73868 3.42856C9.30069 2.46001 10.6994 2.46001 11.2614 3.42856L12.9825 6.3947C13.1412 6.6681 13.4154 6.85468 13.7279 6.90189L16.586 7.33356C17.8318 7.52173 18.2688 9.0947 17.2986 9.89853L15.2162 11.6238C14.9239 11.8659 14.7864 12.2479 14.8574 12.6208L15.4408 15.6841C15.6693 16.8841 14.4096 17.8164 13.3287 17.2473L10.4854 15.7501C10.1816 15.5902 9.8185 15.5902 9.51473 15.7501L6.67136 17.2473C5.59052 17.8164 4.33083 16.8841 4.55933 15.6841L5.14265 12.6208C5.21365 12.2479 5.07622 11.8659 4.78393 11.6238L2.70151 9.89853C1.73128 9.0947 2.16828 7.52172 3.41411 7.33356L6.27215 6.90189C6.5847 6.85468 6.85891 6.6681 7.01755 6.3947L8.73868 3.42856ZM10.1802 4.05592C10.0999 3.91756 9.90013 3.91756 9.81985 4.05592L8.09872 7.02206C7.7497 7.62354 7.14644 8.03401 6.45883 8.13787L3.60079 8.56954C3.42281 8.59642 3.36039 8.82113 3.49899 8.93596L5.58141 10.6612C6.22443 11.194 6.52679 12.0343 6.37058 12.8546L5.78727 15.9179C5.75462 16.0893 5.93458 16.2225 6.08899 16.1412L8.93235 14.6441C9.60065 14.2922 10.3994 14.2922 11.0677 14.6441L13.9111 16.1412C14.0655 16.2225 14.2455 16.0893 14.2128 15.9179L13.6295 12.8546C13.4733 12.0343 13.7756 11.194 14.4187 10.6612L16.5011 8.93596C16.6397 8.82113 16.5773 8.59642 16.3993 8.56954L13.5413 8.13787C12.8536 8.03401 12.2504 7.62354 11.9014 7.02206L10.1802 4.05592Z" fill="#2E2E2E"/>
</svg>
