<svg width="21" height="20" viewBox="0 0 21 20" fill="none" xmlns="http://www.w3.org/2000/svg">
<path d="M6.16089 5.33059C6.42717 5.06424 6.42711 4.63245 6.16075 4.36617C5.89439 4.09989 5.4626 4.09996 5.19632 4.36632C3.79002 5.77305 3 7.68073 3 9.66985C3 11.659 3.79002 13.5666 5.19632 14.9734C5.4626 15.2397 5.89439 15.2398 6.16075 14.9735C6.42711 14.7072 6.42717 14.2755 6.16089 14.0091C5.01028 12.8581 4.3639 11.2973 4.3639 9.66985C4.3639 8.04239 5.01028 6.48155 6.16089 5.33059Z" fill="white"/>
<path d="M15.8037 4.36632C15.5374 4.09996 15.1056 4.09989 14.8393 4.36617C14.5729 4.63245 14.5728 5.06424 14.8391 5.33059C15.9897 6.48155 16.6361 8.04239 16.6361 9.66985C16.6361 11.2973 15.9897 12.8581 14.8391 14.0091C14.5728 14.2755 14.5729 14.7072 14.8393 14.9735C15.1056 15.2398 15.5374 15.2397 15.8037 14.9734C17.21 13.5666 18 11.659 18 9.66985C18 7.68073 17.21 5.77305 15.8037 4.36632Z" fill="white"/>
<path d="M8.09047 7.25404C8.35694 6.98787 8.35718 6.55608 8.09101 6.28961C7.82484 6.02315 7.39305 6.0229 7.12659 6.28908C6.68275 6.73242 6.33065 7.2589 6.09042 7.83841C5.85019 8.41792 5.72654 9.0391 5.72654 9.66644C5.72654 10.2938 5.85019 10.9149 6.09042 11.4945C6.33065 12.074 6.68275 12.6005 7.12659 13.0438C7.39305 13.31 7.82484 13.3097 8.09101 13.0433C8.35718 12.7768 8.35694 12.345 8.09047 12.0788C7.77345 11.7622 7.52195 11.3861 7.35035 10.9722C7.17876 10.5582 7.09044 10.1145 7.09044 9.66644C7.09044 9.21834 7.17876 8.77464 7.35035 8.3607C7.52195 7.94677 7.77345 7.57071 8.09047 7.25404Z" fill="white"/>
<path d="M13.8734 6.29589C13.6069 6.02972 13.1752 6.02997 12.909 6.29643C12.6428 6.5629 12.6431 6.99468 12.9095 7.26085C13.2266 7.57753 13.4781 7.95359 13.6496 8.36752C13.8212 8.78146 13.9096 9.22516 13.9096 9.67326C13.9096 10.1213 13.8212 10.5651 13.6496 10.979C13.4781 11.3929 13.2266 11.769 12.9095 12.0857C12.6431 12.3518 12.6428 12.7836 12.909 13.0501C13.1752 13.3165 13.6069 13.3168 13.8734 13.0506C14.3173 12.6073 14.6694 12.0808 14.9096 11.5013C15.1498 10.9218 15.2735 10.3006 15.2735 9.67326C15.2735 9.04592 15.1498 8.42474 14.9096 7.84523C14.6694 7.26572 14.3173 6.73924 13.8734 6.29589Z" fill="white"/>
<path fill-rule="evenodd" clip-rule="evenodd" d="M10.5 7.62402C9.37009 7.62402 8.45413 8.53998 8.45413 9.66987C8.45413 10.7998 9.37009 11.7157 10.5 11.7157C11.6299 11.7157 12.5458 10.7998 12.5458 9.66987C12.5458 8.53998 11.6299 7.62402 10.5 7.62402ZM9.81803 9.66987C9.81803 9.29324 10.1234 8.98792 10.5 8.98792C10.8766 8.98792 11.1819 9.29324 11.1819 9.66987C11.1819 10.0465 10.8766 10.3518 10.5 10.3518C10.1234 10.3518 9.81803 10.0465 9.81803 9.66987Z" fill="white"/>
</svg>
