<svg width="15" height="12" viewBox="0 0 15 12" fill="none" xmlns="http://www.w3.org/2000/svg">
<path d="M3.16089 1.33059C3.42717 1.06424 3.42711 0.632448 3.16075 0.36617C2.89439 0.0998918 2.4626 0.0999569 2.19632 0.366315C0.790019 1.77305 0 3.68073 0 5.66985C0 7.65896 0.790019 9.56664 2.19632 10.9734C2.4626 11.2397 2.89439 11.2398 3.16075 10.9735C3.42711 10.7072 3.42717 10.2755 3.16089 10.0091C2.01028 8.85813 1.3639 7.2973 1.3639 5.66985C1.3639 4.04239 2.01028 2.48155 3.16089 1.33059Z" fill="white"/>
<path d="M12.8037 0.366315C12.5374 0.0999569 12.1056 0.0998918 11.8393 0.36617C11.5729 0.632448 11.5728 1.06424 11.8391 1.33059C12.9897 2.48155 13.6361 4.04239 13.6361 5.66985C13.6361 7.29731 12.9897 8.85813 11.8391 10.0091C11.5728 10.2755 11.5729 10.7072 11.8393 10.9735C12.1056 11.2398 12.5374 11.2397 12.8037 10.9734C14.21 9.56664 15 7.65896 15 5.66985C15 3.68073 14.21 1.77305 12.8037 0.366315Z" fill="white"/>
<path d="M5.09047 3.25404C5.35694 2.98787 5.35718 2.55608 5.09101 2.28961C4.82484 2.02315 4.39305 2.0229 4.12659 2.28908C3.68275 2.73242 3.33065 3.2589 3.09042 3.83841C2.85019 4.41792 2.72654 5.0391 2.72654 5.66644C2.72654 6.29377 2.85019 6.91495 3.09042 7.49446C3.33065 8.07397 3.68275 8.60045 4.12659 9.0438C4.39305 9.30997 4.82484 9.30972 5.09101 9.04326C5.35718 8.77679 5.35694 8.34501 5.09047 8.07884C4.77345 7.76216 4.52195 7.3861 4.35035 6.97217C4.17876 6.55823 4.09044 6.11453 4.09044 5.66644C4.09044 5.21834 4.17876 4.77464 4.35035 4.3607C4.52195 3.94677 4.77345 3.57071 5.09047 3.25404Z" fill="white"/>
<path d="M10.8734 2.29589C10.6069 2.02972 10.1752 2.02997 9.90899 2.29643C9.64282 2.5629 9.64306 2.99468 9.90953 3.26085C10.2266 3.57753 10.4781 3.95359 10.6496 4.36752C10.8212 4.78146 10.9096 5.22516 10.9096 5.67326C10.9096 6.12135 10.8212 6.56505 10.6496 6.97899C10.4781 7.39292 10.2266 7.76898 9.90953 8.08565C9.64306 8.35182 9.64282 8.78361 9.90899 9.05008C10.1752 9.31654 10.6069 9.31678 10.8734 9.05062C11.3173 8.60727 11.6694 8.08079 11.9096 7.50128C12.1498 6.92177 12.2735 6.30059 12.2735 5.67326C12.2735 5.04592 12.1498 4.42474 11.9096 3.84523C11.6694 3.26572 11.3173 2.73924 10.8734 2.29589Z" fill="white"/>
<path fill-rule="evenodd" clip-rule="evenodd" d="M7.49999 3.62402C6.37009 3.62402 5.45413 4.53998 5.45413 5.66987C5.45413 6.79976 6.37009 7.71572 7.49999 7.71572C8.62988 7.71572 9.54584 6.79976 9.54584 5.66987C9.54584 4.53998 8.62988 3.62402 7.49999 3.62402ZM6.81803 5.66987C6.81803 5.29324 7.12335 4.98792 7.49999 4.98792C7.87662 4.98792 8.18194 5.29324 8.18194 5.66987C8.18194 6.0465 7.87662 6.35182 7.49999 6.35182C7.12335 6.35182 6.81803 6.0465 6.81803 5.66987Z" fill="white"/>
</svg>
