<svg width="42" height="42" viewBox="0 0 42 42" fill="none" xmlns="http://www.w3.org/2000/svg">
<path d="M26.3079 19.1488C26.8671 18.5896 26.8671 17.683 26.3079 17.1239C25.7488 16.5647 24.8422 16.5647 24.283 17.1239L19.5682 21.8387L17.717 19.9875C17.1579 19.4283 16.2513 19.4283 15.6921 19.9875C15.133 20.5467 15.133 21.4532 15.6921 22.0124L18.5558 24.876C19.1149 25.4352 20.0215 25.4352 20.5807 24.876L26.3079 19.1488Z" fill="#2AA77B"/>
<path fill-rule="evenodd" clip-rule="evenodd" d="M21 5.25C12.3013 5.25 5.25 12.3013 5.25 21C5.25 29.6987 12.3013 36.75 21 36.75C29.6987 36.75 36.75 29.6987 36.75 21C36.75 12.3013 29.6987 5.25 21 5.25ZM8.11364 21C8.11364 13.8828 13.8828 8.11364 21 8.11364C28.1172 8.11364 33.8864 13.8828 33.8864 21C33.8864 28.1172 28.1172 33.8864 21 33.8864C13.8828 33.8864 8.11364 28.1172 8.11364 21Z" fill="#2AA77B"/>
</svg>
