<svg width="21" height="21" viewBox="0 0 21 21" fill="none" xmlns="http://www.w3.org/2000/svg">
<mask id="mask0_4602_9236" style="mask-type:luminance" maskUnits="userSpaceOnUse" x="3" y="1" width="16" height="15">
<path fill-rule="evenodd" clip-rule="evenodd" d="M3.00012 1.33331H18.4142V15.79H3.00012V1.33331Z" fill="white"/>
</mask>
<g mask="url(#mask0_4602_9236)">
<path fill-rule="evenodd" clip-rule="evenodd" d="M10.706 2.58331C7.79347 2.58331 5.76347 4.86498 5.76347 6.91248C5.76347 8.64498 5.28263 9.44581 4.85763 10.1525C4.5168 10.72 4.24763 11.1683 4.24763 12.1425C4.3868 13.7141 5.4243 14.54 10.706 14.54C15.9585 14.54 17.0285 13.6775 17.1668 12.0883C17.1643 11.1683 16.8951 10.72 16.5543 10.1525C16.1293 9.44581 15.6485 8.64498 15.6485 6.91248C15.6485 4.86498 13.6185 2.58331 10.706 2.58331ZM10.706 15.79C6.8093 15.79 3.28763 15.515 3.00013 12.1958C2.99763 10.8225 3.4168 10.1241 3.7868 9.50915C4.16097 8.88581 4.51347 8.29831 4.51347 6.91248C4.51347 4.21831 7.0018 1.33331 10.706 1.33331C14.4101 1.33331 16.8985 4.21831 16.8985 6.91248C16.8985 8.29831 17.251 8.88581 17.6251 9.50915C17.9951 10.1241 18.4143 10.8225 18.4143 12.1425C18.1235 15.515 14.6026 15.79 10.706 15.79Z" fill="white"/>
</g>
<path fill-rule="evenodd" clip-rule="evenodd" d="M10.6652 19.25H10.6636C9.72939 19.2492 8.84523 18.8375 8.17439 18.09C7.94356 17.8342 7.96439 17.4383 8.22106 17.2083C8.47773 16.9767 8.87273 16.9975 9.10356 17.255C9.53523 17.7358 10.0894 18 10.6644 18H10.6652C11.2427 18 11.7994 17.7358 12.2319 17.2542C12.4636 16.9983 12.8586 16.9775 13.1144 17.2083C13.3711 17.4392 13.3919 17.835 13.1611 18.0908C12.4877 18.8383 11.6019 19.25 10.6652 19.25Z" fill="white"/>
</svg>
