<svg width="33" height="33" viewBox="0 0 33 33" fill="none" xmlns="http://www.w3.org/2000/svg">
<path d="M20.6705 15.0455C21.1099 14.6061 21.1099 13.8938 20.6705 13.4545C20.2312 13.0151 19.5189 13.0151 19.0795 13.4545L15.375 17.159L13.9205 15.7045C13.4812 15.2651 12.7689 15.2651 12.3295 15.7045C11.8902 16.1438 11.8902 16.8561 12.3295 17.2955L14.5795 19.5455C15.0189 19.9848 15.7312 19.9848 16.1705 19.5455L20.6705 15.0455Z" fill="#2AA77B"/>
<path fill-rule="evenodd" clip-rule="evenodd" d="M16.5 4.125C9.6653 4.125 4.125 9.6653 4.125 16.5C4.125 23.3347 9.6653 28.875 16.5 28.875C23.3347 28.875 28.875 23.3347 28.875 16.5C28.875 9.6653 23.3347 4.125 16.5 4.125ZM6.375 16.5C6.375 10.9079 10.9079 6.375 16.5 6.375C22.0921 6.375 26.625 10.9079 26.625 16.5C26.625 22.0921 22.0921 26.625 16.5 26.625C10.9079 26.625 6.375 22.0921 6.375 16.5Z" fill="#2AA77B"/>
</svg>
