<svg width="20" height="21" viewBox="0 0 20 21" fill="none" xmlns="http://www.w3.org/2000/svg">
<path d="M6.66671 9.16665V17.1666M12 6.41998L11.3334 9.16665H15.22C15.427 9.16665 15.6312 9.21484 15.8163 9.30741C16.0015 9.39998 16.1625 9.53438 16.2867 9.69998C16.4109 9.86557 16.4948 10.0578 16.5319 10.2615C16.5689 10.4651 16.558 10.6746 16.5 10.8733L14.9467 16.2066C14.8659 16.4836 14.6975 16.7269 14.4667 16.9C14.2359 17.0731 13.9552 17.1666 13.6667 17.1666H4.66671C4.31309 17.1666 3.97395 17.0262 3.7239 16.7761C3.47385 16.5261 3.33337 16.1869 3.33337 15.8333V10.5C3.33337 10.1464 3.47385 9.80722 3.7239 9.55717C3.97395 9.30712 4.31309 9.16665 4.66671 9.16665H6.50671C6.75476 9.16651 6.99786 9.09719 7.20868 8.96646C7.41949 8.83573 7.58966 8.64879 7.70004 8.42665L10 3.83331C10.3144 3.83721 10.6239 3.91209 10.9052 4.05238C11.1866 4.19266 11.4327 4.39472 11.625 4.64345C11.8173 4.89218 11.9509 5.18115 12.0159 5.48878C12.0808 5.79641 12.0754 6.11474 12 6.41998Z" stroke="white" stroke-width="1.5" stroke-linecap="round" stroke-linejoin="round"/>
</svg>
