<svg width="20" height="20" viewBox="0 0 20 20" fill="none" xmlns="http://www.w3.org/2000/svg">
<path d="M11.5156 2.5C12.0579 2.50013 12.5784 2.71517 12.9619 3.09863C13.3455 3.48223 13.5605 4.00341 13.5605 4.5459V5.22754H16.2881C16.6645 5.22765 16.9697 5.53269 16.9697 5.90918C16.9697 6.28562 16.6645 6.59071 16.2881 6.59082H15.6064V15.4541C15.6064 15.9966 15.3904 16.5178 15.0068 16.9014C14.6233 17.2848 14.1029 17.5 13.5605 17.5H6.74219C6.19985 17.4999 5.67943 17.2848 5.2959 16.9014C4.9123 16.5178 4.69727 15.9966 4.69727 15.4541V6.59082H4.01562C3.6391 6.59082 3.33306 6.28569 3.33301 5.90918C3.33301 5.53262 3.63907 5.22754 4.01562 5.22754H6.74219V4.5459C6.74219 4.00341 6.9582 3.48223 7.3418 3.09863C7.72536 2.71527 8.24577 2.5 8.78809 2.5H11.5156ZM6.06055 15.4541C6.06055 15.6349 6.13288 15.8087 6.26074 15.9365C6.38854 16.0642 6.56151 16.1367 6.74219 16.1367H13.5605C13.7414 16.1367 13.9151 16.0644 14.043 15.9365C14.1707 15.8087 14.2422 15.6348 14.2422 15.4541V6.59082H6.06055V15.4541ZM8.78809 8.63672C9.16455 8.63682 9.46973 8.94187 9.46973 9.31836V13.4092C9.46968 13.7856 9.16453 14.0907 8.78809 14.0908C8.41156 14.0908 8.10649 13.7857 8.10645 13.4092V9.31836C8.10645 8.9418 8.41153 8.63672 8.78809 8.63672ZM11.5156 8.63672C11.892 8.63697 12.1973 8.94196 12.1973 9.31836V13.4092C12.1972 13.7855 11.8919 14.0906 11.5156 14.0908C11.1391 14.0908 10.8331 13.7857 10.833 13.4092V9.31836C10.833 8.9418 11.1391 8.63672 11.5156 8.63672ZM8.78809 3.86328C8.60726 3.86328 8.43353 3.93561 8.30566 4.06348C8.17787 4.19133 8.10645 4.36512 8.10645 4.5459V5.22754H12.1973V4.5459C12.1973 4.36507 12.1249 4.19134 11.9971 4.06348C11.8693 3.93574 11.6963 3.86341 11.5156 3.86328H8.78809Z" fill="#E63946"/>
</svg>
