<svg width="20" height="21" viewBox="0 0 20 21" fill="none" xmlns="http://www.w3.org/2000/svg">
<path d="M13.3333 11.8334L13.3333 3.83335M7.99996 14.58L8.66663 11.8334L4.77996 11.8334C4.57297 11.8334 4.36882 11.7852 4.18368 11.6926C3.99853 11.6 3.83749 11.4656 3.71329 11.3C3.5891 11.1344 3.50516 10.9422 3.46813 10.7385C3.43111 10.5349 3.442 10.3254 3.49996 10.1267L5.05329 4.79335C5.13407 4.5164 5.3025 4.27312 5.53329 4.10002C5.76409 3.92692 6.0448 3.83335 6.33329 3.83335L15.3333 3.83335C15.6869 3.83335 16.0261 3.97383 16.2761 4.22388C16.5262 4.47393 16.6666 4.81307 16.6666 5.16669L16.6666 10.5C16.6666 10.8536 16.5262 11.1928 16.2761 11.4428C16.0261 11.6929 15.6869 11.8334 15.3333 11.8334L13.4933 11.8334C13.2452 11.8335 13.0021 11.9028 12.7913 12.0335C12.5805 12.1643 12.4103 12.3512 12.3 12.5734L9.99996 17.1667C9.68557 17.1628 9.37613 17.0879 9.09476 16.9476C8.81338 16.8073 8.56734 16.6053 8.37502 16.3566C8.18271 16.1078 8.04908 15.8188 7.98413 15.5112C7.91919 15.2036 7.9246 14.8853 7.99996 14.58Z" stroke="#6356E5" stroke-width="1.5" stroke-linecap="round" stroke-linejoin="round"/>
</svg>
