<svg width="20" height="20" viewBox="0 0 20 20" fill="none" xmlns="http://www.w3.org/2000/svg">
<path fill-rule="evenodd" clip-rule="evenodd" d="M8.00223 12.6139C7.84223 12.6139 7.68223 12.5531 7.56057 12.4306C7.3164 12.1864 7.3164 11.7914 7.56057 11.5472L11.5539 7.55391C11.7981 7.30975 12.1931 7.30975 12.4372 7.55391C12.6814 7.79808 12.6814 8.19308 12.4372 8.43725L8.4439 12.4306C8.32223 12.5531 8.16223 12.6139 8.00223 12.6139Z" fill="#6356E5"/>
<path fill-rule="evenodd" clip-rule="evenodd" d="M11.9972 12.6164C11.8372 12.6164 11.6772 12.5555 11.5555 12.433L7.55886 8.43554C7.31469 8.19137 7.31469 7.79637 7.55886 7.5522C7.80386 7.30804 8.19886 7.30804 8.44219 7.5522L12.4389 11.5497C12.683 11.7939 12.683 12.1889 12.4389 12.433C12.3172 12.5555 12.1564 12.6164 11.9972 12.6164Z" fill="#6356E5"/>
<path fill-rule="evenodd" clip-rule="evenodd" d="M6.38758 2.91669C4.27925 2.91669 2.91675 4.36085 2.91675 6.59669V13.4034C2.91675 15.6392 4.27925 17.0834 6.38758 17.0834H13.6109C15.7201 17.0834 17.0834 15.6392 17.0834 13.4034V6.59669C17.0834 4.36085 15.7201 2.91669 13.6117 2.91669H6.38758ZM13.6109 18.3334H6.38758C3.56341 18.3334 1.66675 16.3517 1.66675 13.4034V6.59669C1.66675 3.64835 3.56341 1.66669 6.38758 1.66669H13.6117C16.4359 1.66669 18.3334 3.64835 18.3334 6.59669V13.4034C18.3334 16.3517 16.4359 18.3334 13.6109 18.3334Z" fill="#6356E5"/>
</svg>
