<svg width="16" height="17" viewBox="0 0 16 17" fill="none" xmlns="http://www.w3.org/2000/svg">
<path fill-rule="evenodd" clip-rule="evenodd" d="M8.66671 2.49992C8.66671 2.13173 8.36823 1.83325 8.00004 1.83325C7.63185 1.83325 7.33337 2.13173 7.33337 2.49992V2.99992H6.96176C5.47838 2.99992 4.25065 4.15326 4.15805 5.63375L4.01072 7.98939C3.95454 8.88752 3.65302 9.75302 3.13898 10.4916C2.67452 11.159 3.088 12.0807 3.89529 12.1776L6.16671 12.4502V13.1666C6.16671 14.1791 6.98752 14.9999 8.00004 14.9999C9.01256 14.9999 9.83337 14.1791 9.83337 13.1666V12.4502L12.1048 12.1776C12.9121 12.0807 13.3256 11.159 12.8611 10.4916C12.3471 9.75302 12.0455 8.88752 11.9894 7.98939L11.842 5.63375C11.7494 4.15326 10.5217 2.99992 9.03831 2.99992H8.66671V2.49992ZM6.96176 3.99992C6.00643 3.99992 5.21574 4.7427 5.1561 5.69617L5.00877 8.05181C4.94117 9.13257 4.57833 10.1741 3.95977 11.0629C3.9262 11.1111 3.95608 11.1777 4.01443 11.1847L6.50621 11.4837C7.49853 11.6028 8.50154 11.6028 9.49387 11.4837L11.9856 11.1847C12.044 11.1777 12.0739 11.1111 12.0403 11.0629C11.4217 10.1741 11.0589 9.13257 10.9913 8.05181L10.844 5.69617C10.7843 4.7427 9.99365 3.99992 9.03831 3.99992H6.96176ZM8.00004 13.9999C7.5398 13.9999 7.16671 13.6268 7.16671 13.1666V12.6666H8.83337V13.1666C8.83337 13.6268 8.46028 13.9999 8.00004 13.9999Z" fill="white"/>
</svg>
