<svg width="20" height="20" viewBox="0 0 20 20" fill="none" xmlns="http://www.w3.org/2000/svg">
<path d="M8.74993 13.3331C8.74993 12.6427 9.30957 12.0831 9.99993 12.0831C10.6903 12.0831 11.2499 12.6427 11.2499 13.3331C11.2499 14.0235 10.6903 14.5831 9.99993 14.5831C9.30957 14.5831 8.74993 14.0235 8.74993 13.3331Z" fill="#6356E5"/>
<path fill-rule="evenodd" clip-rule="evenodd" d="M6.35131 8.83072L6.08844 6.46491C6.05474 6.16159 6.05474 5.85548 6.08844 5.55216L6.10741 5.38141C6.30865 3.57026 7.73248 2.13721 9.54231 1.92429C9.84633 1.88852 10.1535 1.88852 10.4575 1.92429C12.2673 2.13721 13.6912 3.57026 13.8924 5.38141L13.9114 5.55216C13.9451 5.85548 13.9451 6.16159 13.9114 6.46491L13.6485 8.83071L14.2207 8.87639C15.123 8.94842 15.8597 9.62667 16.006 10.5199C16.311 12.383 16.311 14.2832 16.006 16.1463C15.8597 17.0395 15.123 17.7178 14.2207 17.7898L12.9739 17.8893C10.9944 18.0474 9.00548 18.0474 7.026 17.8893L5.77922 17.7898C4.87695 17.7178 4.14019 17.0395 3.99393 16.1463C3.68887 14.2832 3.68887 12.383 3.99393 10.5199C4.14019 9.62667 4.87695 8.94842 5.77922 8.87639L6.35131 8.83072ZM9.68836 3.16572C9.89534 3.14137 10.1045 3.14137 10.3115 3.16572C11.5436 3.31069 12.513 4.28636 12.6501 5.51945L12.669 5.6902C12.6925 5.90177 12.6925 6.1153 12.669 6.32687L12.4014 8.73557C10.8021 8.63259 9.19776 8.63259 7.59843 8.73558L7.33079 6.32687C7.30728 6.1153 7.30728 5.90177 7.33079 5.6902L7.34976 5.51945C7.48677 4.28636 8.45617 3.31069 9.68836 3.16572ZM12.8744 10.0229C10.9612 9.87015 9.03875 9.87015 7.12547 10.0229L5.87869 10.1224C5.54959 10.1487 5.28085 10.3961 5.2275 10.7219C4.94435 12.4512 4.94435 14.215 5.2275 15.9443C5.28085 16.2701 5.54959 16.5175 5.8787 16.5438L7.12547 16.6433C9.03875 16.796 10.9612 16.796 12.8744 16.6433L14.1212 16.5438C14.4503 16.5175 14.719 16.2701 14.7724 15.9443C15.0556 14.215 15.0556 12.4512 14.7724 10.7219C14.719 10.3961 14.4503 10.1487 14.1212 10.1224L12.8744 10.0229Z" fill="#6356E5"/>
</svg>
