<svg width="24" height="24" viewBox="0 0 24 24" fill="none" xmlns="http://www.w3.org/2000/svg">
<path d="M11.7839 3.37317C11.8682 3.22792 12.0618 3.20961 12.1736 3.31848L12.2166 3.37317L14.9304 8.04993C15.197 8.5093 15.6333 8.84123 16.1404 8.97766L16.3611 9.02356L21.448 9.79211C21.6349 9.82047 21.7154 10.0306 21.6208 10.1749L21.5701 10.2316L17.781 13.3712C17.255 13.807 16.9899 14.4785 17.071 15.1505L17.0925 15.2853L18.0837 20.4904C18.1179 20.6703 17.9566 20.8152 17.7917 20.7833L17.7214 20.7579L12.9314 18.2365C12.3845 17.9487 11.7377 17.9307 11.1785 18.1827L11.0681 18.2365L6.27905 20.7579C6.11683 20.8434 5.93126 20.7318 5.91382 20.5646L5.91675 20.4904L6.90796 15.2853C7.03576 14.6141 6.81195 13.9274 6.32104 13.4611L6.21948 13.3712L2.43042 10.2316C2.2848 10.1109 2.32388 9.88956 2.47925 9.81458L2.55249 9.79211L7.63843 9.02356C8.16356 8.94425 8.63204 8.65993 8.94507 8.2384L9.07007 8.04993L11.7839 3.37317Z" stroke="url(#paint0_linear_3045_6027)" stroke-width="1.5" stroke-linejoin="round"/>
<defs>
<linearGradient id="paint0_linear_3045_6027" x1="2.68878" y1="31.1828" x2="27.0904" y2="27.2461" gradientUnits="userSpaceOnUse">
<stop stop-color="#4D3FE2"/>
<stop offset="1" stop-color="#796EE9"/>
</linearGradient>
</defs>
</svg>
