<svg width="32" height="32" viewBox="0 0 32 32" fill="none" xmlns="http://www.w3.org/2000/svg">
<path d="M25.4814 22.667C26.136 22.667 26.667 23.2636 26.667 24C26.667 24.7364 26.136 25.333 25.4814 25.333H6.51855C5.864 25.333 5.33301 24.7364 5.33301 24C5.33301 23.2636 5.864 22.667 6.51855 22.667H25.4814ZM25.4814 14.667C26.136 14.667 26.667 15.2636 26.667 16C26.667 16.7364 26.136 17.333 25.4814 17.333H6.51855C5.864 17.333 5.33301 16.7364 5.33301 16C5.33301 15.2636 5.864 14.667 6.51855 14.667H25.4814ZM25.4814 6.66699C26.136 6.66699 26.667 7.26362 26.667 8C26.667 8.73638 26.136 9.33301 25.4814 9.33301H6.51855C5.864 9.33301 5.33301 8.73638 5.33301 8C5.33301 7.26362 5.864 6.66699 6.51855 6.66699H25.4814Z" fill="#EFF0FA"/>
</svg>
