<svg width="33" height="33" viewBox="0 0 33 33" fill="none" xmlns="http://www.w3.org/2000/svg">
<path fill-rule="evenodd" clip-rule="evenodd" d="M15.1062 21.9288C15.1062 21.1684 15.7208 20.5469 16.4812 20.5469C17.2416 20.5469 17.8562 21.156 17.8562 21.915L17.8562 21.9288C17.8562 22.6891 17.2416 23.3038 16.4812 23.3038C15.7208 23.3038 15.1062 22.6891 15.1062 21.9288Z" fill="#2E2E2E"/>
<path fill-rule="evenodd" clip-rule="evenodd" d="M15.1062 16.4154C15.1062 15.655 15.7208 15.0349 16.4812 15.0349C17.2416 15.0349 17.8562 15.6427 17.8562 16.403L17.8562 16.4154C17.8562 17.1758 17.2416 17.7904 16.4812 17.7904C15.7208 17.7904 15.1062 17.1758 15.1062 16.4154Z" fill="#2E2E2E"/>
<path fill-rule="evenodd" clip-rule="evenodd" d="M15.1062 10.9034C15.1062 10.143 15.7208 9.52148 16.4812 9.52148C17.2416 9.52148 17.8562 10.1306 17.8562 10.891L17.8562 10.9034C17.8562 11.6637 17.2416 12.2784 16.4812 12.2784C15.7208 12.2784 15.1062 11.6637 15.1062 10.9034Z" fill="#2E2E2E"/>
</svg>
