<svg width="80" height="80" viewBox="0 0 80 80" fill="none" xmlns="http://www.w3.org/2000/svg">
<rect width="80" height="80" rx="40" fill="#191B23"/>
<path d="M27.8505 26.9255C28.5961 26.1797 28.5959 24.9707 27.8501 24.2251C27.1043 23.4795 25.8953 23.4797 25.1497 24.2255C21.2121 28.1643 19 33.5058 19 39.0754C19 44.6449 21.2121 49.9864 25.1497 53.9252C25.8953 54.6711 27.1043 54.6712 27.8501 53.9257C28.5959 53.1801 28.5961 51.9711 27.8505 51.2253C24.6288 48.0026 22.8189 43.6323 22.8189 39.0754C22.8189 34.5185 24.6288 30.1482 27.8505 26.9255Z" fill="#EFF0FA"/>
<path d="M54.8503 24.2255C54.1047 23.4797 52.8957 23.4795 52.1499 24.2251C51.4041 24.9707 51.4039 26.1797 52.1495 26.9255C55.3712 30.1482 57.1811 34.5185 57.1811 39.0754C57.1811 43.6323 55.3712 48.0026 52.1495 51.2253C51.4039 51.9711 51.4041 53.1801 52.1499 53.9257C52.8957 54.6712 54.1047 54.6711 54.8503 53.9252C58.7879 49.9864 61 44.6449 61 39.0754C61 33.5058 58.7879 28.1643 54.8503 24.2255Z" fill="#EFF0FA"/>
<path d="M33.2533 32.3111C33.9994 31.5658 34.0001 30.3568 33.2548 29.6107C32.5096 28.8646 31.3005 28.8639 30.5544 29.6092C29.3117 30.8506 28.3258 32.3247 27.6532 33.9474C26.9805 35.57 26.6343 37.3093 26.6343 39.0658C26.6343 40.8224 26.9805 42.5617 27.6532 44.1843C28.3258 45.8069 29.3117 47.2811 30.5544 48.5224C31.3005 49.2677 32.5096 49.267 33.2548 48.5209C34.0001 47.7748 33.9994 46.5658 33.2533 45.8205C32.3657 44.9339 31.6615 43.8809 31.181 42.7219C30.7005 41.5628 30.4532 40.3205 30.4532 39.0658C30.4532 37.8112 30.7005 36.5688 31.181 35.4098C31.6615 34.2507 32.3657 33.1978 33.2533 32.3111Z" fill="#EFF0FA"/>
<path d="M49.4456 29.6283C48.6995 28.883 47.4904 28.8837 46.7452 29.6298C45.9999 30.3759 46.0006 31.5849 46.7467 32.3302C47.6343 33.2169 48.3386 34.2698 48.819 35.4289C49.2995 36.5879 49.5468 37.8303 49.5468 39.0849C49.5468 40.3396 49.2995 41.5819 48.819 42.741C48.3386 43.9 47.6343 44.9529 46.7467 45.8396C46.0006 46.5849 45.9999 47.7939 46.7452 48.54C47.4904 49.2861 48.6995 49.2868 49.4456 48.5415C50.6883 47.3002 51.6742 45.826 52.3468 44.2034C53.0195 42.5808 53.3657 40.8414 53.3657 39.0849C53.3657 37.3284 53.0195 35.5891 52.3468 33.9664C51.6742 32.3438 50.6883 30.8697 49.4456 29.6283Z" fill="#EFF0FA"/>
<path fill-rule="evenodd" clip-rule="evenodd" d="M40 33.3471C36.8363 33.3471 34.2716 35.9117 34.2716 39.0754C34.2716 42.2391 36.8363 44.8038 40 44.8038C43.1637 44.8038 45.7283 42.2391 45.7283 39.0754C45.7283 35.9117 43.1637 33.3471 40 33.3471ZM38.0905 39.0754C38.0905 38.0209 38.9454 37.166 40 37.166C41.0545 37.166 41.9094 38.0209 41.9094 39.0754C41.9094 40.13 41.0545 40.9849 40 40.9849C38.9454 40.9849 38.0905 40.13 38.0905 39.0754Z" fill="#EFF0FA"/>
</svg>
